G04 #@! TF.GenerationSoftware,KiCad,Pcbnew,(5.1.4-0-10_14)*
G04 #@! TF.CreationDate,2019-10-20T10:50:28-05:00*
G04 #@! TF.ProjectId,WiFi-Gate-Control-Board,57694669-2d47-4617-9465-2d436f6e7472,rev?*
G04 #@! TF.SameCoordinates,Original*
G04 #@! TF.FileFunction,Copper,L4,Bot*
G04 #@! TF.FilePolarity,Positive*
%FSLAX46Y46*%
G04 Gerber Fmt 4.6, Leading zero omitted, Abs format (unit mm)*
G04 Created by KiCad (PCBNEW (5.1.4-0-10_14)) date 2019-10-20 10:50:28*
%MOMM*%
%LPD*%
G04 APERTURE LIST*
%ADD10C,0.635000*%
%ADD11C,0.152400*%
%ADD12C,1.450000*%
%ADD13C,0.508000*%
%ADD14C,2.400000*%
%ADD15R,2.400000X2.400000*%
%ADD16C,3.030000*%
%ADD17C,0.630000*%
%ADD18R,0.800000X1.900000*%
%ADD19C,2.900000*%
%ADD20O,2.999999X2.500000*%
%ADD21O,3.000000X2.500000*%
%ADD22C,1.778000*%
%ADD23R,1.778000X1.778000*%
%ADD24O,3.600000X2.080000*%
%ADD25C,2.080000*%
%ADD26O,2.080000X3.600000*%
%ADD27C,2.667000*%
%ADD28R,2.667000X2.667000*%
%ADD29C,2.780000*%
%ADD30C,1.850000*%
%ADD31C,0.840000*%
%ADD32R,0.840000X0.840000*%
%ADD33C,0.762000*%
%ADD34C,1.016000*%
%ADD35C,0.685800*%
%ADD36C,0.762000*%
%ADD37C,0.508000*%
%ADD38C,0.254000*%
%ADD39C,1.270000*%
G04 APERTURE END LIST*
D10*
X108829000Y-100545000D03*
X108829000Y-101745000D03*
X108829000Y-99345000D03*
X107629000Y-101745000D03*
X107629000Y-100545000D03*
X107629000Y-99345000D03*
X110029000Y-101745000D03*
X110029000Y-100545000D03*
X110029000Y-99345000D03*
D11*
G36*
X178184504Y-169821204D02*
G01*
X178208773Y-169824804D01*
X178232571Y-169830765D01*
X178255671Y-169839030D01*
X178277849Y-169849520D01*
X178298893Y-169862133D01*
X178318598Y-169876747D01*
X178336777Y-169893223D01*
X178353253Y-169911402D01*
X178367867Y-169931107D01*
X178380480Y-169952151D01*
X178390970Y-169974329D01*
X178399235Y-169997429D01*
X178405196Y-170021227D01*
X178408796Y-170045496D01*
X178410000Y-170070000D01*
X178410000Y-171020000D01*
X178408796Y-171044504D01*
X178405196Y-171068773D01*
X178399235Y-171092571D01*
X178390970Y-171115671D01*
X178380480Y-171137849D01*
X178367867Y-171158893D01*
X178353253Y-171178598D01*
X178336777Y-171196777D01*
X178318598Y-171213253D01*
X178298893Y-171227867D01*
X178277849Y-171240480D01*
X178255671Y-171250970D01*
X178232571Y-171259235D01*
X178208773Y-171265196D01*
X178184504Y-171268796D01*
X178160000Y-171270000D01*
X177210000Y-171270000D01*
X177185496Y-171268796D01*
X177161227Y-171265196D01*
X177137429Y-171259235D01*
X177114329Y-171250970D01*
X177092151Y-171240480D01*
X177071107Y-171227867D01*
X177051402Y-171213253D01*
X177033223Y-171196777D01*
X177016747Y-171178598D01*
X177002133Y-171158893D01*
X176989520Y-171137849D01*
X176979030Y-171115671D01*
X176970765Y-171092571D01*
X176964804Y-171068773D01*
X176961204Y-171044504D01*
X176960000Y-171020000D01*
X176960000Y-170070000D01*
X176961204Y-170045496D01*
X176964804Y-170021227D01*
X176970765Y-169997429D01*
X176979030Y-169974329D01*
X176989520Y-169952151D01*
X177002133Y-169931107D01*
X177016747Y-169911402D01*
X177033223Y-169893223D01*
X177051402Y-169876747D01*
X177071107Y-169862133D01*
X177092151Y-169849520D01*
X177114329Y-169839030D01*
X177137429Y-169830765D01*
X177161227Y-169824804D01*
X177185496Y-169821204D01*
X177210000Y-169820000D01*
X178160000Y-169820000D01*
X178184504Y-169821204D01*
X178184504Y-169821204D01*
G37*
D12*
X177685000Y-170545000D03*
D13*
X177210000Y-170070000D03*
X178160000Y-170070000D03*
X177210000Y-171020000D03*
X178160000Y-171020000D03*
D14*
X194371000Y-76043000D03*
D15*
X194371000Y-83543000D03*
D11*
G36*
X143590505Y-162547204D02*
G01*
X143614773Y-162550804D01*
X143638572Y-162556765D01*
X143661671Y-162565030D01*
X143683850Y-162575520D01*
X143704893Y-162588132D01*
X143724599Y-162602747D01*
X143742777Y-162619223D01*
X143759253Y-162637401D01*
X143773868Y-162657107D01*
X143786480Y-162678150D01*
X143796970Y-162700329D01*
X143805235Y-162723428D01*
X143811196Y-162747227D01*
X143814796Y-162771495D01*
X143816000Y-162795999D01*
X143816000Y-165326001D01*
X143814796Y-165350505D01*
X143811196Y-165374773D01*
X143805235Y-165398572D01*
X143796970Y-165421671D01*
X143786480Y-165443850D01*
X143773868Y-165464893D01*
X143759253Y-165484599D01*
X143742777Y-165502777D01*
X143724599Y-165519253D01*
X143704893Y-165533868D01*
X143683850Y-165546480D01*
X143661671Y-165556970D01*
X143638572Y-165565235D01*
X143614773Y-165571196D01*
X143590505Y-165574796D01*
X143566001Y-165576000D01*
X141035999Y-165576000D01*
X141011495Y-165574796D01*
X140987227Y-165571196D01*
X140963428Y-165565235D01*
X140940329Y-165556970D01*
X140918150Y-165546480D01*
X140897107Y-165533868D01*
X140877401Y-165519253D01*
X140859223Y-165502777D01*
X140842747Y-165484599D01*
X140828132Y-165464893D01*
X140815520Y-165443850D01*
X140805030Y-165421671D01*
X140796765Y-165398572D01*
X140790804Y-165374773D01*
X140787204Y-165350505D01*
X140786000Y-165326001D01*
X140786000Y-162795999D01*
X140787204Y-162771495D01*
X140790804Y-162747227D01*
X140796765Y-162723428D01*
X140805030Y-162700329D01*
X140815520Y-162678150D01*
X140828132Y-162657107D01*
X140842747Y-162637401D01*
X140859223Y-162619223D01*
X140877401Y-162602747D01*
X140897107Y-162588132D01*
X140918150Y-162575520D01*
X140940329Y-162565030D01*
X140963428Y-162556765D01*
X140987227Y-162550804D01*
X141011495Y-162547204D01*
X141035999Y-162546000D01*
X143566001Y-162546000D01*
X143590505Y-162547204D01*
X143590505Y-162547204D01*
G37*
D16*
X142301000Y-164061000D03*
D17*
X143501000Y-165261000D03*
X142301000Y-165261000D03*
X141101000Y-165261000D03*
X143501000Y-164061000D03*
X142301000Y-164061000D03*
X141101000Y-164061000D03*
X143501000Y-162861000D03*
X142301000Y-162861000D03*
X141101000Y-162861000D03*
D18*
X148355000Y-109070000D03*
X149455000Y-109070000D03*
D11*
G36*
X195754504Y-141476204D02*
G01*
X195778773Y-141479804D01*
X195802571Y-141485765D01*
X195825671Y-141494030D01*
X195847849Y-141504520D01*
X195868893Y-141517133D01*
X195888598Y-141531747D01*
X195906777Y-141548223D01*
X195923253Y-141566402D01*
X195937867Y-141586107D01*
X195950480Y-141607151D01*
X195960970Y-141629329D01*
X195969235Y-141652429D01*
X195975196Y-141676227D01*
X195978796Y-141700496D01*
X195980000Y-141725000D01*
X195980000Y-144125000D01*
X195978796Y-144149504D01*
X195975196Y-144173773D01*
X195969235Y-144197571D01*
X195960970Y-144220671D01*
X195950480Y-144242849D01*
X195937867Y-144263893D01*
X195923253Y-144283598D01*
X195906777Y-144301777D01*
X195888598Y-144318253D01*
X195868893Y-144332867D01*
X195847849Y-144345480D01*
X195825671Y-144355970D01*
X195802571Y-144364235D01*
X195778773Y-144370196D01*
X195754504Y-144373796D01*
X195730000Y-144375000D01*
X193330000Y-144375000D01*
X193305496Y-144373796D01*
X193281227Y-144370196D01*
X193257429Y-144364235D01*
X193234329Y-144355970D01*
X193212151Y-144345480D01*
X193191107Y-144332867D01*
X193171402Y-144318253D01*
X193153223Y-144301777D01*
X193136747Y-144283598D01*
X193122133Y-144263893D01*
X193109520Y-144242849D01*
X193099030Y-144220671D01*
X193090765Y-144197571D01*
X193084804Y-144173773D01*
X193081204Y-144149504D01*
X193080000Y-144125000D01*
X193080000Y-141725000D01*
X193081204Y-141700496D01*
X193084804Y-141676227D01*
X193090765Y-141652429D01*
X193099030Y-141629329D01*
X193109520Y-141607151D01*
X193122133Y-141586107D01*
X193136747Y-141566402D01*
X193153223Y-141548223D01*
X193171402Y-141531747D01*
X193191107Y-141517133D01*
X193212151Y-141504520D01*
X193234329Y-141494030D01*
X193257429Y-141485765D01*
X193281227Y-141479804D01*
X193305496Y-141476204D01*
X193330000Y-141475000D01*
X195730000Y-141475000D01*
X195754504Y-141476204D01*
X195754504Y-141476204D01*
G37*
D19*
X194530000Y-142925000D03*
D13*
X193330000Y-141725000D03*
X194530000Y-141725000D03*
X195730000Y-141725000D03*
X193330000Y-142925000D03*
X194530000Y-142925000D03*
X195730000Y-142925000D03*
X193330000Y-144125000D03*
X194530000Y-144125000D03*
X195730000Y-144125000D03*
D20*
X115885000Y-68350000D03*
X115885000Y-63350000D03*
D21*
X128385000Y-68350000D03*
D20*
X128385000Y-63350000D03*
D21*
X140650000Y-113595000D03*
X140650000Y-118595000D03*
D20*
X128150000Y-113595000D03*
X128150000Y-118595000D03*
D22*
X205420000Y-164315000D03*
X205420000Y-159235000D03*
X205420000Y-149075000D03*
D23*
X205420000Y-146535000D03*
D22*
X205420000Y-188445000D03*
X205420000Y-183365000D03*
X205420000Y-173205000D03*
D23*
X205420000Y-170665000D03*
D24*
X218755000Y-164315000D03*
X218755000Y-159235000D03*
X218755000Y-154155000D03*
D11*
G36*
X220329505Y-148036204D02*
G01*
X220353773Y-148039804D01*
X220377572Y-148045765D01*
X220400671Y-148054030D01*
X220422850Y-148064520D01*
X220443893Y-148077132D01*
X220463599Y-148091747D01*
X220481777Y-148108223D01*
X220498253Y-148126401D01*
X220512868Y-148146107D01*
X220525480Y-148167150D01*
X220535970Y-148189329D01*
X220544235Y-148212428D01*
X220550196Y-148236227D01*
X220553796Y-148260495D01*
X220555000Y-148284999D01*
X220555000Y-149865001D01*
X220553796Y-149889505D01*
X220550196Y-149913773D01*
X220544235Y-149937572D01*
X220535970Y-149960671D01*
X220525480Y-149982850D01*
X220512868Y-150003893D01*
X220498253Y-150023599D01*
X220481777Y-150041777D01*
X220463599Y-150058253D01*
X220443893Y-150072868D01*
X220422850Y-150085480D01*
X220400671Y-150095970D01*
X220377572Y-150104235D01*
X220353773Y-150110196D01*
X220329505Y-150113796D01*
X220305001Y-150115000D01*
X217204999Y-150115000D01*
X217180495Y-150113796D01*
X217156227Y-150110196D01*
X217132428Y-150104235D01*
X217109329Y-150095970D01*
X217087150Y-150085480D01*
X217066107Y-150072868D01*
X217046401Y-150058253D01*
X217028223Y-150041777D01*
X217011747Y-150023599D01*
X216997132Y-150003893D01*
X216984520Y-149982850D01*
X216974030Y-149960671D01*
X216965765Y-149937572D01*
X216959804Y-149913773D01*
X216956204Y-149889505D01*
X216955000Y-149865001D01*
X216955000Y-148284999D01*
X216956204Y-148260495D01*
X216959804Y-148236227D01*
X216965765Y-148212428D01*
X216974030Y-148189329D01*
X216984520Y-148167150D01*
X216997132Y-148146107D01*
X217011747Y-148126401D01*
X217028223Y-148108223D01*
X217046401Y-148091747D01*
X217066107Y-148077132D01*
X217087150Y-148064520D01*
X217109329Y-148054030D01*
X217132428Y-148045765D01*
X217156227Y-148039804D01*
X217180495Y-148036204D01*
X217204999Y-148035000D01*
X220305001Y-148035000D01*
X220329505Y-148036204D01*
X220329505Y-148036204D01*
G37*
D25*
X218755000Y-149075000D03*
D24*
X218755000Y-188445000D03*
X218755000Y-183365000D03*
X218755000Y-178285000D03*
D11*
G36*
X220329505Y-172166204D02*
G01*
X220353773Y-172169804D01*
X220377572Y-172175765D01*
X220400671Y-172184030D01*
X220422850Y-172194520D01*
X220443893Y-172207132D01*
X220463599Y-172221747D01*
X220481777Y-172238223D01*
X220498253Y-172256401D01*
X220512868Y-172276107D01*
X220525480Y-172297150D01*
X220535970Y-172319329D01*
X220544235Y-172342428D01*
X220550196Y-172366227D01*
X220553796Y-172390495D01*
X220555000Y-172414999D01*
X220555000Y-173995001D01*
X220553796Y-174019505D01*
X220550196Y-174043773D01*
X220544235Y-174067572D01*
X220535970Y-174090671D01*
X220525480Y-174112850D01*
X220512868Y-174133893D01*
X220498253Y-174153599D01*
X220481777Y-174171777D01*
X220463599Y-174188253D01*
X220443893Y-174202868D01*
X220422850Y-174215480D01*
X220400671Y-174225970D01*
X220377572Y-174234235D01*
X220353773Y-174240196D01*
X220329505Y-174243796D01*
X220305001Y-174245000D01*
X217204999Y-174245000D01*
X217180495Y-174243796D01*
X217156227Y-174240196D01*
X217132428Y-174234235D01*
X217109329Y-174225970D01*
X217087150Y-174215480D01*
X217066107Y-174202868D01*
X217046401Y-174188253D01*
X217028223Y-174171777D01*
X217011747Y-174153599D01*
X216997132Y-174133893D01*
X216984520Y-174112850D01*
X216974030Y-174090671D01*
X216965765Y-174067572D01*
X216959804Y-174043773D01*
X216956204Y-174019505D01*
X216955000Y-173995001D01*
X216955000Y-172414999D01*
X216956204Y-172390495D01*
X216959804Y-172366227D01*
X216965765Y-172342428D01*
X216974030Y-172319329D01*
X216984520Y-172297150D01*
X216997132Y-172276107D01*
X217011747Y-172256401D01*
X217028223Y-172238223D01*
X217046401Y-172221747D01*
X217066107Y-172207132D01*
X217087150Y-172194520D01*
X217109329Y-172184030D01*
X217132428Y-172175765D01*
X217156227Y-172169804D01*
X217180495Y-172166204D01*
X217204999Y-172165000D01*
X220305001Y-172165000D01*
X220329505Y-172166204D01*
X220329505Y-172166204D01*
G37*
D25*
X218755000Y-173205000D03*
D26*
X189545000Y-199240000D03*
D11*
G36*
X195439505Y-197441204D02*
G01*
X195463773Y-197444804D01*
X195487572Y-197450765D01*
X195510671Y-197459030D01*
X195532850Y-197469520D01*
X195553893Y-197482132D01*
X195573599Y-197496747D01*
X195591777Y-197513223D01*
X195608253Y-197531401D01*
X195622868Y-197551107D01*
X195635480Y-197572150D01*
X195645970Y-197594329D01*
X195654235Y-197617428D01*
X195660196Y-197641227D01*
X195663796Y-197665495D01*
X195665000Y-197689999D01*
X195665000Y-200790001D01*
X195663796Y-200814505D01*
X195660196Y-200838773D01*
X195654235Y-200862572D01*
X195645970Y-200885671D01*
X195635480Y-200907850D01*
X195622868Y-200928893D01*
X195608253Y-200948599D01*
X195591777Y-200966777D01*
X195573599Y-200983253D01*
X195553893Y-200997868D01*
X195532850Y-201010480D01*
X195510671Y-201020970D01*
X195487572Y-201029235D01*
X195463773Y-201035196D01*
X195439505Y-201038796D01*
X195415001Y-201040000D01*
X193834999Y-201040000D01*
X193810495Y-201038796D01*
X193786227Y-201035196D01*
X193762428Y-201029235D01*
X193739329Y-201020970D01*
X193717150Y-201010480D01*
X193696107Y-200997868D01*
X193676401Y-200983253D01*
X193658223Y-200966777D01*
X193641747Y-200948599D01*
X193627132Y-200928893D01*
X193614520Y-200907850D01*
X193604030Y-200885671D01*
X193595765Y-200862572D01*
X193589804Y-200838773D01*
X193586204Y-200814505D01*
X193585000Y-200790001D01*
X193585000Y-197689999D01*
X193586204Y-197665495D01*
X193589804Y-197641227D01*
X193595765Y-197617428D01*
X193604030Y-197594329D01*
X193614520Y-197572150D01*
X193627132Y-197551107D01*
X193641747Y-197531401D01*
X193658223Y-197513223D01*
X193676401Y-197496747D01*
X193696107Y-197482132D01*
X193717150Y-197469520D01*
X193739329Y-197459030D01*
X193762428Y-197450765D01*
X193786227Y-197444804D01*
X193810495Y-197441204D01*
X193834999Y-197440000D01*
X195415001Y-197440000D01*
X195439505Y-197441204D01*
X195439505Y-197441204D01*
G37*
D25*
X194625000Y-199240000D03*
D26*
X165415000Y-199240000D03*
X170495000Y-199240000D03*
X175575000Y-199240000D03*
D11*
G36*
X181469505Y-197441204D02*
G01*
X181493773Y-197444804D01*
X181517572Y-197450765D01*
X181540671Y-197459030D01*
X181562850Y-197469520D01*
X181583893Y-197482132D01*
X181603599Y-197496747D01*
X181621777Y-197513223D01*
X181638253Y-197531401D01*
X181652868Y-197551107D01*
X181665480Y-197572150D01*
X181675970Y-197594329D01*
X181684235Y-197617428D01*
X181690196Y-197641227D01*
X181693796Y-197665495D01*
X181695000Y-197689999D01*
X181695000Y-200790001D01*
X181693796Y-200814505D01*
X181690196Y-200838773D01*
X181684235Y-200862572D01*
X181675970Y-200885671D01*
X181665480Y-200907850D01*
X181652868Y-200928893D01*
X181638253Y-200948599D01*
X181621777Y-200966777D01*
X181603599Y-200983253D01*
X181583893Y-200997868D01*
X181562850Y-201010480D01*
X181540671Y-201020970D01*
X181517572Y-201029235D01*
X181493773Y-201035196D01*
X181469505Y-201038796D01*
X181445001Y-201040000D01*
X179864999Y-201040000D01*
X179840495Y-201038796D01*
X179816227Y-201035196D01*
X179792428Y-201029235D01*
X179769329Y-201020970D01*
X179747150Y-201010480D01*
X179726107Y-200997868D01*
X179706401Y-200983253D01*
X179688223Y-200966777D01*
X179671747Y-200948599D01*
X179657132Y-200928893D01*
X179644520Y-200907850D01*
X179634030Y-200885671D01*
X179625765Y-200862572D01*
X179619804Y-200838773D01*
X179616204Y-200814505D01*
X179615000Y-200790001D01*
X179615000Y-197689999D01*
X179616204Y-197665495D01*
X179619804Y-197641227D01*
X179625765Y-197617428D01*
X179634030Y-197594329D01*
X179644520Y-197572150D01*
X179657132Y-197551107D01*
X179671747Y-197531401D01*
X179688223Y-197513223D01*
X179706401Y-197496747D01*
X179726107Y-197482132D01*
X179747150Y-197469520D01*
X179769329Y-197459030D01*
X179792428Y-197450765D01*
X179816227Y-197444804D01*
X179840495Y-197441204D01*
X179864999Y-197440000D01*
X181445001Y-197440000D01*
X181469505Y-197441204D01*
X181469505Y-197441204D01*
G37*
D25*
X180655000Y-199240000D03*
D26*
X141285000Y-199240000D03*
X146365000Y-199240000D03*
X151445000Y-199240000D03*
D11*
G36*
X157339505Y-197441204D02*
G01*
X157363773Y-197444804D01*
X157387572Y-197450765D01*
X157410671Y-197459030D01*
X157432850Y-197469520D01*
X157453893Y-197482132D01*
X157473599Y-197496747D01*
X157491777Y-197513223D01*
X157508253Y-197531401D01*
X157522868Y-197551107D01*
X157535480Y-197572150D01*
X157545970Y-197594329D01*
X157554235Y-197617428D01*
X157560196Y-197641227D01*
X157563796Y-197665495D01*
X157565000Y-197689999D01*
X157565000Y-200790001D01*
X157563796Y-200814505D01*
X157560196Y-200838773D01*
X157554235Y-200862572D01*
X157545970Y-200885671D01*
X157535480Y-200907850D01*
X157522868Y-200928893D01*
X157508253Y-200948599D01*
X157491777Y-200966777D01*
X157473599Y-200983253D01*
X157453893Y-200997868D01*
X157432850Y-201010480D01*
X157410671Y-201020970D01*
X157387572Y-201029235D01*
X157363773Y-201035196D01*
X157339505Y-201038796D01*
X157315001Y-201040000D01*
X155734999Y-201040000D01*
X155710495Y-201038796D01*
X155686227Y-201035196D01*
X155662428Y-201029235D01*
X155639329Y-201020970D01*
X155617150Y-201010480D01*
X155596107Y-200997868D01*
X155576401Y-200983253D01*
X155558223Y-200966777D01*
X155541747Y-200948599D01*
X155527132Y-200928893D01*
X155514520Y-200907850D01*
X155504030Y-200885671D01*
X155495765Y-200862572D01*
X155489804Y-200838773D01*
X155486204Y-200814505D01*
X155485000Y-200790001D01*
X155485000Y-197689999D01*
X155486204Y-197665495D01*
X155489804Y-197641227D01*
X155495765Y-197617428D01*
X155504030Y-197594329D01*
X155514520Y-197572150D01*
X155527132Y-197551107D01*
X155541747Y-197531401D01*
X155558223Y-197513223D01*
X155576401Y-197496747D01*
X155596107Y-197482132D01*
X155617150Y-197469520D01*
X155639329Y-197459030D01*
X155662428Y-197450765D01*
X155686227Y-197444804D01*
X155710495Y-197441204D01*
X155734999Y-197440000D01*
X157315001Y-197440000D01*
X157339505Y-197441204D01*
X157339505Y-197441204D01*
G37*
D25*
X156525000Y-199240000D03*
D26*
X117155000Y-199240000D03*
X122235000Y-199240000D03*
X127315000Y-199240000D03*
D11*
G36*
X133209505Y-197441204D02*
G01*
X133233773Y-197444804D01*
X133257572Y-197450765D01*
X133280671Y-197459030D01*
X133302850Y-197469520D01*
X133323893Y-197482132D01*
X133343599Y-197496747D01*
X133361777Y-197513223D01*
X133378253Y-197531401D01*
X133392868Y-197551107D01*
X133405480Y-197572150D01*
X133415970Y-197594329D01*
X133424235Y-197617428D01*
X133430196Y-197641227D01*
X133433796Y-197665495D01*
X133435000Y-197689999D01*
X133435000Y-200790001D01*
X133433796Y-200814505D01*
X133430196Y-200838773D01*
X133424235Y-200862572D01*
X133415970Y-200885671D01*
X133405480Y-200907850D01*
X133392868Y-200928893D01*
X133378253Y-200948599D01*
X133361777Y-200966777D01*
X133343599Y-200983253D01*
X133323893Y-200997868D01*
X133302850Y-201010480D01*
X133280671Y-201020970D01*
X133257572Y-201029235D01*
X133233773Y-201035196D01*
X133209505Y-201038796D01*
X133185001Y-201040000D01*
X131604999Y-201040000D01*
X131580495Y-201038796D01*
X131556227Y-201035196D01*
X131532428Y-201029235D01*
X131509329Y-201020970D01*
X131487150Y-201010480D01*
X131466107Y-200997868D01*
X131446401Y-200983253D01*
X131428223Y-200966777D01*
X131411747Y-200948599D01*
X131397132Y-200928893D01*
X131384520Y-200907850D01*
X131374030Y-200885671D01*
X131365765Y-200862572D01*
X131359804Y-200838773D01*
X131356204Y-200814505D01*
X131355000Y-200790001D01*
X131355000Y-197689999D01*
X131356204Y-197665495D01*
X131359804Y-197641227D01*
X131365765Y-197617428D01*
X131374030Y-197594329D01*
X131384520Y-197572150D01*
X131397132Y-197551107D01*
X131411747Y-197531401D01*
X131428223Y-197513223D01*
X131446401Y-197496747D01*
X131466107Y-197482132D01*
X131487150Y-197469520D01*
X131509329Y-197459030D01*
X131532428Y-197450765D01*
X131556227Y-197444804D01*
X131580495Y-197441204D01*
X131604999Y-197440000D01*
X133185001Y-197440000D01*
X133209505Y-197441204D01*
X133209505Y-197441204D01*
G37*
D25*
X132395000Y-199240000D03*
D24*
X106360000Y-173205000D03*
X106360000Y-178285000D03*
X106360000Y-183365000D03*
D11*
G36*
X107934505Y-187406204D02*
G01*
X107958773Y-187409804D01*
X107982572Y-187415765D01*
X108005671Y-187424030D01*
X108027850Y-187434520D01*
X108048893Y-187447132D01*
X108068599Y-187461747D01*
X108086777Y-187478223D01*
X108103253Y-187496401D01*
X108117868Y-187516107D01*
X108130480Y-187537150D01*
X108140970Y-187559329D01*
X108149235Y-187582428D01*
X108155196Y-187606227D01*
X108158796Y-187630495D01*
X108160000Y-187654999D01*
X108160000Y-189235001D01*
X108158796Y-189259505D01*
X108155196Y-189283773D01*
X108149235Y-189307572D01*
X108140970Y-189330671D01*
X108130480Y-189352850D01*
X108117868Y-189373893D01*
X108103253Y-189393599D01*
X108086777Y-189411777D01*
X108068599Y-189428253D01*
X108048893Y-189442868D01*
X108027850Y-189455480D01*
X108005671Y-189465970D01*
X107982572Y-189474235D01*
X107958773Y-189480196D01*
X107934505Y-189483796D01*
X107910001Y-189485000D01*
X104809999Y-189485000D01*
X104785495Y-189483796D01*
X104761227Y-189480196D01*
X104737428Y-189474235D01*
X104714329Y-189465970D01*
X104692150Y-189455480D01*
X104671107Y-189442868D01*
X104651401Y-189428253D01*
X104633223Y-189411777D01*
X104616747Y-189393599D01*
X104602132Y-189373893D01*
X104589520Y-189352850D01*
X104579030Y-189330671D01*
X104570765Y-189307572D01*
X104564804Y-189283773D01*
X104561204Y-189259505D01*
X104560000Y-189235001D01*
X104560000Y-187654999D01*
X104561204Y-187630495D01*
X104564804Y-187606227D01*
X104570765Y-187582428D01*
X104579030Y-187559329D01*
X104589520Y-187537150D01*
X104602132Y-187516107D01*
X104616747Y-187496401D01*
X104633223Y-187478223D01*
X104651401Y-187461747D01*
X104671107Y-187447132D01*
X104692150Y-187434520D01*
X104714329Y-187424030D01*
X104737428Y-187415765D01*
X104761227Y-187409804D01*
X104785495Y-187406204D01*
X104809999Y-187405000D01*
X107910001Y-187405000D01*
X107934505Y-187406204D01*
X107934505Y-187406204D01*
G37*
D25*
X106360000Y-188445000D03*
D24*
X106360000Y-149075000D03*
X106360000Y-154155000D03*
X106360000Y-159235000D03*
D11*
G36*
X107934505Y-163276204D02*
G01*
X107958773Y-163279804D01*
X107982572Y-163285765D01*
X108005671Y-163294030D01*
X108027850Y-163304520D01*
X108048893Y-163317132D01*
X108068599Y-163331747D01*
X108086777Y-163348223D01*
X108103253Y-163366401D01*
X108117868Y-163386107D01*
X108130480Y-163407150D01*
X108140970Y-163429329D01*
X108149235Y-163452428D01*
X108155196Y-163476227D01*
X108158796Y-163500495D01*
X108160000Y-163524999D01*
X108160000Y-165105001D01*
X108158796Y-165129505D01*
X108155196Y-165153773D01*
X108149235Y-165177572D01*
X108140970Y-165200671D01*
X108130480Y-165222850D01*
X108117868Y-165243893D01*
X108103253Y-165263599D01*
X108086777Y-165281777D01*
X108068599Y-165298253D01*
X108048893Y-165312868D01*
X108027850Y-165325480D01*
X108005671Y-165335970D01*
X107982572Y-165344235D01*
X107958773Y-165350196D01*
X107934505Y-165353796D01*
X107910001Y-165355000D01*
X104809999Y-165355000D01*
X104785495Y-165353796D01*
X104761227Y-165350196D01*
X104737428Y-165344235D01*
X104714329Y-165335970D01*
X104692150Y-165325480D01*
X104671107Y-165312868D01*
X104651401Y-165298253D01*
X104633223Y-165281777D01*
X104616747Y-165263599D01*
X104602132Y-165243893D01*
X104589520Y-165222850D01*
X104579030Y-165200671D01*
X104570765Y-165177572D01*
X104564804Y-165153773D01*
X104561204Y-165129505D01*
X104560000Y-165105001D01*
X104560000Y-163524999D01*
X104561204Y-163500495D01*
X104564804Y-163476227D01*
X104570765Y-163452428D01*
X104579030Y-163429329D01*
X104589520Y-163407150D01*
X104602132Y-163386107D01*
X104616747Y-163366401D01*
X104633223Y-163348223D01*
X104651401Y-163331747D01*
X104671107Y-163317132D01*
X104692150Y-163304520D01*
X104714329Y-163294030D01*
X104737428Y-163285765D01*
X104761227Y-163279804D01*
X104785495Y-163276204D01*
X104809999Y-163275000D01*
X107910001Y-163275000D01*
X107934505Y-163276204D01*
X107934505Y-163276204D01*
G37*
D25*
X106360000Y-164315000D03*
D24*
X106360000Y-124945000D03*
X106360000Y-130025000D03*
X106360000Y-135105000D03*
D11*
G36*
X107934505Y-139146204D02*
G01*
X107958773Y-139149804D01*
X107982572Y-139155765D01*
X108005671Y-139164030D01*
X108027850Y-139174520D01*
X108048893Y-139187132D01*
X108068599Y-139201747D01*
X108086777Y-139218223D01*
X108103253Y-139236401D01*
X108117868Y-139256107D01*
X108130480Y-139277150D01*
X108140970Y-139299329D01*
X108149235Y-139322428D01*
X108155196Y-139346227D01*
X108158796Y-139370495D01*
X108160000Y-139394999D01*
X108160000Y-140975001D01*
X108158796Y-140999505D01*
X108155196Y-141023773D01*
X108149235Y-141047572D01*
X108140970Y-141070671D01*
X108130480Y-141092850D01*
X108117868Y-141113893D01*
X108103253Y-141133599D01*
X108086777Y-141151777D01*
X108068599Y-141168253D01*
X108048893Y-141182868D01*
X108027850Y-141195480D01*
X108005671Y-141205970D01*
X107982572Y-141214235D01*
X107958773Y-141220196D01*
X107934505Y-141223796D01*
X107910001Y-141225000D01*
X104809999Y-141225000D01*
X104785495Y-141223796D01*
X104761227Y-141220196D01*
X104737428Y-141214235D01*
X104714329Y-141205970D01*
X104692150Y-141195480D01*
X104671107Y-141182868D01*
X104651401Y-141168253D01*
X104633223Y-141151777D01*
X104616747Y-141133599D01*
X104602132Y-141113893D01*
X104589520Y-141092850D01*
X104579030Y-141070671D01*
X104570765Y-141047572D01*
X104564804Y-141023773D01*
X104561204Y-140999505D01*
X104560000Y-140975001D01*
X104560000Y-139394999D01*
X104561204Y-139370495D01*
X104564804Y-139346227D01*
X104570765Y-139322428D01*
X104579030Y-139299329D01*
X104589520Y-139277150D01*
X104602132Y-139256107D01*
X104616747Y-139236401D01*
X104633223Y-139218223D01*
X104651401Y-139201747D01*
X104671107Y-139187132D01*
X104692150Y-139174520D01*
X104714329Y-139164030D01*
X104737428Y-139155765D01*
X104761227Y-139149804D01*
X104785495Y-139146204D01*
X104809999Y-139145000D01*
X107910001Y-139145000D01*
X107934505Y-139146204D01*
X107934505Y-139146204D01*
G37*
D25*
X106360000Y-140185000D03*
D27*
X204275000Y-95930000D03*
X204275000Y-100880000D03*
X204275000Y-105830000D03*
X204275000Y-110780000D03*
X195135000Y-95930000D03*
X195135000Y-100880000D03*
X195135000Y-105830000D03*
D28*
X195135000Y-110780000D03*
D29*
X199945000Y-63555000D03*
X199945000Y-66955000D03*
X209865000Y-63555000D03*
X209865000Y-66955000D03*
D18*
X149572500Y-74261700D03*
X148472500Y-74261700D03*
D30*
X137555000Y-66180000D03*
X144705000Y-66180000D03*
D31*
X139830000Y-66400000D03*
X140480000Y-65400000D03*
X141130000Y-66400000D03*
X141780000Y-65400000D03*
D32*
X142430000Y-66400000D03*
D33*
X151953000Y-76304000D03*
X152715000Y-76304000D03*
X152715000Y-77066000D03*
X151953000Y-77066000D03*
X144968000Y-71478000D03*
D34*
X195641000Y-167822500D03*
D13*
X155763000Y-113959500D03*
X156144000Y-112118000D03*
X155763000Y-115229500D03*
X158684000Y-112118000D03*
X155763000Y-115864500D03*
X159065000Y-113959500D03*
X156144000Y-116436000D03*
X155763000Y-114594500D03*
X156779000Y-116436000D03*
X155763000Y-113324500D03*
X158684000Y-116436000D03*
X159065000Y-113324500D03*
X159065000Y-115229500D03*
X159065000Y-112689500D03*
X159065000Y-114594500D03*
X159065000Y-115864500D03*
X158049000Y-116436000D03*
X158049000Y-112118000D03*
X157414000Y-112118000D03*
X156779000Y-112118000D03*
X155763000Y-112689500D03*
X157414000Y-116436000D03*
D34*
X120457000Y-98910000D03*
D33*
X134046000Y-83035000D03*
D34*
X100237000Y-91174000D03*
X104307000Y-105906000D03*
D33*
X140269000Y-87734000D03*
D34*
X120330000Y-100688000D03*
D33*
X173670000Y-93830000D03*
X173670000Y-92941000D03*
X173670000Y-92052000D03*
X220660000Y-92052000D03*
X220660000Y-92941000D03*
X220660000Y-93830000D03*
D35*
X171130000Y-62975000D03*
D33*
X122743000Y-171655500D03*
D35*
X184465000Y-120119000D03*
D33*
X132961250Y-99799000D03*
X132522000Y-83035000D03*
X145476000Y-148440000D03*
X133944500Y-133073000D03*
X152080000Y-57000000D03*
X140396000Y-79225000D03*
X129626500Y-82679500D03*
X129626500Y-75542000D03*
X126773910Y-91678590D03*
X123492500Y-89016500D03*
D34*
X116679000Y-95365000D03*
D33*
X115529401Y-85444401D03*
D13*
X156271000Y-77320000D03*
X156906000Y-77320000D03*
X157541000Y-77320000D03*
X158176000Y-77320000D03*
X158811000Y-77320000D03*
X159192000Y-81066500D03*
X155890000Y-81066500D03*
X159192000Y-80431500D03*
X159192000Y-79796500D03*
X159192000Y-79161500D03*
X159192000Y-78526500D03*
X159192000Y-77891500D03*
X155890000Y-80431500D03*
X155890000Y-79796500D03*
X155890000Y-79161500D03*
X155890000Y-78526500D03*
X155890000Y-77891500D03*
X156271000Y-81638000D03*
X156906000Y-81638000D03*
X157541000Y-81638000D03*
X158176000Y-81638000D03*
X158811000Y-81638000D03*
D33*
X155382000Y-86276000D03*
X157795000Y-92369500D03*
X190815000Y-172570000D03*
X189545000Y-172570000D03*
X188275000Y-172570000D03*
X187005000Y-172570000D03*
D34*
X192085000Y-167822500D03*
X191069000Y-167822500D03*
X194625000Y-167822500D03*
D33*
X122235000Y-189969000D03*
X115504000Y-164315000D03*
X115504000Y-151361000D03*
X115504000Y-132565000D03*
X146365000Y-190096000D03*
X162875000Y-190096000D03*
X123759000Y-151361000D03*
X123759000Y-164315000D03*
X122235000Y-181841000D03*
X146365000Y-181841000D03*
X162875000Y-181841000D03*
X123759000Y-132565000D03*
X127442000Y-131041000D03*
X133944500Y-151869000D03*
X133944500Y-157457000D03*
X133944500Y-138661000D03*
X120711000Y-178158000D03*
X128103396Y-176503747D03*
X133944500Y-170411000D03*
X133944500Y-164823000D03*
X121219000Y-139169000D03*
X127442000Y-136629000D03*
X127442000Y-149837000D03*
X127442000Y-155425000D03*
X127442000Y-162791000D03*
X127442000Y-168379000D03*
X136109000Y-181968000D03*
X144841000Y-178158000D03*
X150429000Y-178158000D03*
X146873000Y-171655500D03*
X152461000Y-171655500D03*
X129982000Y-178412000D03*
X161351000Y-178158000D03*
X166939000Y-178158000D03*
X163383000Y-171655500D03*
X168971000Y-171655500D03*
X180020000Y-173840000D03*
X175829000Y-122151000D03*
X192466000Y-148592500D03*
X196657000Y-149329000D03*
X145984000Y-145900000D03*
X155636000Y-148440000D03*
X156144000Y-145900000D03*
X159700000Y-104371000D03*
X159700000Y-103609000D03*
X159700000Y-105133000D03*
X158938000Y-105133000D03*
X158303000Y-104625000D03*
X151953000Y-110594000D03*
X151953000Y-111356000D03*
X152715000Y-110594000D03*
X152715000Y-111356000D03*
X149921000Y-104879000D03*
X150683000Y-104879000D03*
X150683000Y-105641000D03*
X149921000Y-105641000D03*
X149921000Y-106403000D03*
X150683000Y-106403000D03*
X144587000Y-106149000D03*
X144587000Y-107546000D03*
X145222000Y-105641000D03*
X147635000Y-69954000D03*
X148397000Y-69954000D03*
X149159000Y-69954000D03*
X149921000Y-69954000D03*
X150683000Y-69954000D03*
X149921000Y-70716000D03*
X149921000Y-71478000D03*
X158176000Y-69827000D03*
X158938000Y-69827000D03*
X159700000Y-69827000D03*
X150429000Y-112118000D03*
X150429000Y-112880000D03*
X150429000Y-113642000D03*
X150429000Y-114404000D03*
X151191000Y-112118000D03*
X150429000Y-77066000D03*
X150429000Y-77828000D03*
X150429000Y-78590000D03*
X150429000Y-79352000D03*
X151191000Y-77066000D03*
X157414000Y-69827000D03*
X156652000Y-69827000D03*
X146873000Y-69954000D03*
X150683000Y-70716000D03*
X150683000Y-71478000D03*
X143825000Y-61445000D03*
X147505000Y-61445000D03*
D13*
X134681000Y-87099000D03*
X124775000Y-102085000D03*
X133030000Y-102593000D03*
X131943850Y-98275000D03*
X137856000Y-81003000D03*
X120965000Y-81003000D03*
X120965000Y-90655000D03*
X112075000Y-90655000D03*
X136459000Y-109095413D03*
X119060000Y-109095413D03*
X135951000Y-109705000D03*
X119695000Y-109705000D03*
X135461250Y-108435000D03*
X118425000Y-108435000D03*
X120330000Y-110340000D03*
X135062000Y-110340000D03*
X132268000Y-110975000D03*
X119695000Y-110975000D03*
X131760000Y-111610000D03*
X119060000Y-111610000D03*
X177480000Y-101577000D03*
X161478000Y-96497000D03*
X224470000Y-95989000D03*
X178750000Y-96116000D03*
X161478000Y-94846000D03*
D34*
X192085000Y-104625000D03*
X190180000Y-104625000D03*
X190180000Y-106530000D03*
X188275000Y-106530000D03*
X186370000Y-106530000D03*
X184465000Y-104625000D03*
X182560000Y-104625000D03*
X182560000Y-106530000D03*
X184465000Y-106530000D03*
X192085000Y-106530000D03*
X182560000Y-108435000D03*
X184465000Y-108435000D03*
X186370000Y-108435000D03*
X188275000Y-108435000D03*
X190180000Y-108435000D03*
X192085000Y-108435000D03*
X192085000Y-110340000D03*
X190180000Y-110340000D03*
X188275000Y-110340000D03*
X186370000Y-110340000D03*
X184465000Y-110340000D03*
X182560000Y-110340000D03*
X182560000Y-112245000D03*
X184465000Y-112245000D03*
X186370000Y-112245000D03*
X188275000Y-112245000D03*
X190180000Y-112245000D03*
X192085000Y-112245000D03*
X192085000Y-114150000D03*
X193990000Y-114150000D03*
X190180000Y-114150000D03*
X188275000Y-114150000D03*
X186370000Y-114150000D03*
X184465000Y-114150000D03*
X182560000Y-114150000D03*
X180655000Y-114150000D03*
X178750000Y-114150000D03*
X176845000Y-114150000D03*
X174940000Y-114150000D03*
X173035000Y-114150000D03*
X171130000Y-114150000D03*
X193990000Y-116055000D03*
X192085000Y-116055000D03*
X190180000Y-116055000D03*
X188275000Y-116055000D03*
X186370000Y-116055000D03*
X184465000Y-116055000D03*
X182560000Y-116055000D03*
X180655000Y-116055000D03*
X178750000Y-116055000D03*
X176845000Y-116055000D03*
X174940000Y-116055000D03*
X173035000Y-116055000D03*
X171130000Y-116055000D03*
X216850000Y-104625000D03*
X214945000Y-104625000D03*
X213040000Y-104625000D03*
X209230000Y-104625000D03*
X207325000Y-104625000D03*
X207325000Y-106530000D03*
X209230000Y-106530000D03*
X211135000Y-106530000D03*
X213040000Y-106530000D03*
X214945000Y-106530000D03*
X216850000Y-106530000D03*
X216850000Y-108435000D03*
X214945000Y-108435000D03*
X213040000Y-108435000D03*
X211135000Y-108435000D03*
X209230000Y-108435000D03*
X207325000Y-108435000D03*
X207325000Y-110340000D03*
X209230000Y-110340000D03*
X211135000Y-110340000D03*
X213040000Y-110340000D03*
X214945000Y-110340000D03*
X216850000Y-110340000D03*
X216850000Y-112245000D03*
X214945000Y-112245000D03*
X213040000Y-112245000D03*
X211135000Y-112245000D03*
X209230000Y-112245000D03*
X207325000Y-112245000D03*
X207325000Y-114150000D03*
X209230000Y-114150000D03*
X211135000Y-114150000D03*
X213040000Y-114150000D03*
X214945000Y-114150000D03*
X216850000Y-114150000D03*
X218755000Y-114150000D03*
X220660000Y-114150000D03*
X222565000Y-114150000D03*
X224470000Y-114150000D03*
X226375000Y-114150000D03*
X228280000Y-114150000D03*
X205420000Y-114150000D03*
X205420000Y-116055000D03*
X207325000Y-116055000D03*
X209230000Y-116055000D03*
X211135000Y-116055000D03*
X213040000Y-116055000D03*
X214945000Y-116055000D03*
X216850000Y-116055000D03*
X218755000Y-116055000D03*
X220660000Y-116055000D03*
X222565000Y-116055000D03*
X224470000Y-116055000D03*
X226375000Y-116055000D03*
X228280000Y-116055000D03*
X192720000Y-171300000D03*
X193990000Y-171300000D03*
X192720000Y-172570000D03*
X193990000Y-172570000D03*
X192720000Y-173840000D03*
X193990000Y-173840000D03*
X192720000Y-175110000D03*
X193990000Y-175110000D03*
X192720000Y-176380000D03*
X193990000Y-176380000D03*
X192720000Y-177650000D03*
X193990000Y-177650000D03*
X192720000Y-178920000D03*
X193990000Y-178920000D03*
X120330000Y-124945000D03*
X119060000Y-124945000D03*
X119060000Y-126215000D03*
X121600000Y-123675000D03*
X120330000Y-126215000D03*
X120330000Y-123675000D03*
X119060000Y-123675000D03*
X121600000Y-124945000D03*
X121600000Y-126215000D03*
X120330000Y-142471000D03*
X121600000Y-142471000D03*
X121600000Y-143741000D03*
X120330000Y-143741000D03*
X119060000Y-143741000D03*
X119060000Y-145011000D03*
X120330000Y-145011000D03*
X121600000Y-145011000D03*
X119060000Y-142471000D03*
D13*
X169479000Y-149392500D03*
D33*
X132961250Y-96751000D03*
X125029000Y-95481000D03*
X138618000Y-87734000D03*
X142301000Y-159387500D03*
D13*
X146778500Y-81304700D03*
X146778500Y-80796700D03*
X147540500Y-80796700D03*
X147540500Y-81304700D03*
X146778500Y-81812700D03*
X147540500Y-81812700D03*
X147540500Y-82320700D03*
X146778500Y-82320700D03*
X147172500Y-78761700D03*
X150972500Y-74661700D03*
D34*
X116679000Y-100699000D03*
X113464000Y-105525000D03*
X102275000Y-105906000D03*
D35*
X117821000Y-84587500D03*
D13*
X147540500Y-82828700D03*
X146778500Y-82828700D03*
D33*
X132369500Y-164823000D03*
X132395000Y-174899000D03*
X122743000Y-173205000D03*
X132395000Y-170411000D03*
X132395000Y-138661000D03*
X132395000Y-151869000D03*
X132395000Y-157457000D03*
X134528500Y-173230500D03*
X146873000Y-173230500D03*
X152461000Y-173230500D03*
X163383000Y-173230500D03*
X168971000Y-173230500D03*
D35*
X194244000Y-119995000D03*
X179385000Y-119230000D03*
D13*
X140015000Y-160886000D03*
D33*
X149286000Y-145900000D03*
X155890000Y-57000000D03*
D35*
X132522000Y-86337000D03*
D33*
X134300000Y-77365000D03*
X127188000Y-76685000D03*
D13*
X133284000Y-66775000D03*
X142809000Y-91253000D03*
X170876000Y-170795000D03*
D33*
X132395000Y-133073000D03*
X177685000Y-173000000D03*
D13*
X181620211Y-173840000D03*
D33*
X197800000Y-122474219D03*
X192593000Y-147017500D03*
X159446000Y-145900000D03*
X125791000Y-152362000D03*
X125791000Y-165331000D03*
X128824000Y-179809000D03*
X124521000Y-178793000D03*
X125791000Y-168125000D03*
X125791000Y-157950000D03*
X125791000Y-133566000D03*
X125791000Y-139154000D03*
X147366000Y-179809000D03*
X152954000Y-179809000D03*
X163876000Y-179809000D03*
X134534000Y-179829000D03*
X169464000Y-179794000D03*
D13*
X125029000Y-173967000D03*
X124521000Y-172481100D03*
X125918000Y-173967000D03*
X125664000Y-172481100D03*
X140777000Y-160251000D03*
X173670000Y-150345000D03*
X174940000Y-171982500D03*
X142428000Y-160759000D03*
X174178000Y-151107000D03*
X174305000Y-171554000D03*
X174178000Y-152123000D03*
X147055000Y-113570000D03*
X150855000Y-109470000D03*
X138999000Y-160886000D03*
X128585000Y-89893000D03*
X129474000Y-97005000D03*
X173441500Y-169903000D03*
X150855000Y-108670000D03*
X134782620Y-115293000D03*
X133792000Y-103355000D03*
X131275757Y-103204243D03*
X136967000Y-102085000D03*
X122235000Y-98275000D03*
X136967000Y-101424597D03*
X122246049Y-97603548D03*
D33*
X173670000Y-96116000D03*
X161478000Y-93195000D03*
X220660000Y-96116000D03*
D13*
X152080000Y-59540000D03*
X157795000Y-94846000D03*
X148905000Y-94846000D03*
X137271868Y-113595000D03*
X177480000Y-120500000D03*
X177480000Y-131549000D03*
X178369000Y-120500000D03*
X178369000Y-132184000D03*
X132429850Y-95735000D03*
X156525000Y-96497000D03*
X114869000Y-86194000D03*
X125283000Y-86210000D03*
D34*
X116901000Y-98910000D03*
D33*
X130109000Y-95100000D03*
X153985000Y-89893000D03*
X128077000Y-84432000D03*
D13*
X129296200Y-90197800D03*
X147068500Y-73061700D03*
X146168500Y-71161700D03*
X146951000Y-107870000D03*
X146051000Y-105970000D03*
X225740000Y-95989000D03*
X161605000Y-60490000D03*
X195260000Y-163045000D03*
X195260000Y-161140000D03*
D36*
X110029000Y-101745000D02*
X110029000Y-99345000D01*
X110029000Y-99345000D02*
X108829000Y-99345000D01*
X108829000Y-99345000D02*
X107629000Y-99345000D01*
X107629000Y-99345000D02*
X107629000Y-101745000D01*
X107629000Y-101745000D02*
X110029000Y-101745000D01*
X108829000Y-101745000D02*
X108829000Y-99345000D01*
X110029000Y-100545000D02*
X107629000Y-100545000D01*
D37*
X207071000Y-146535000D02*
X205420000Y-146535000D01*
X207071000Y-170411000D02*
X207071000Y-169649000D01*
X205420000Y-170665000D02*
X206817000Y-170665000D01*
X206817000Y-170665000D02*
X207071000Y-170411000D01*
X207071000Y-169649000D02*
X207071000Y-170284000D01*
X207071000Y-146535000D02*
X207071000Y-169649000D01*
D36*
X143825000Y-61445000D02*
X147635000Y-61445000D01*
X142733401Y-66096599D02*
X142430000Y-66400000D01*
X142733401Y-62536599D02*
X142733401Y-66096599D01*
X143825000Y-61445000D02*
X142733401Y-62536599D01*
D11*
X125918000Y-102593000D02*
X125283000Y-102593000D01*
X125283000Y-102593000D02*
X124775000Y-102085000D01*
X133030000Y-102593000D02*
X125918000Y-102593000D01*
X129499399Y-92280601D02*
X134427001Y-87352999D01*
X129499399Y-95830549D02*
X129499399Y-92280601D01*
X134427001Y-87352999D02*
X134681000Y-87099000D01*
X131943850Y-98275000D02*
X129499399Y-95830549D01*
X137856000Y-81003000D02*
X120965000Y-81003000D01*
X120965000Y-90655000D02*
X112075000Y-90655000D01*
X124775000Y-109095413D02*
X119060000Y-109095413D01*
X136459000Y-109095413D02*
X124775000Y-109095413D01*
X125410000Y-109705000D02*
X119695000Y-109705000D01*
X135951000Y-109705000D02*
X125410000Y-109705000D01*
X124140000Y-108435000D02*
X118425000Y-108435000D01*
X135461250Y-108435000D02*
X124140000Y-108435000D01*
X126045000Y-110340000D02*
X120330000Y-110340000D01*
X135062000Y-110340000D02*
X126045000Y-110340000D01*
X125410000Y-110975000D02*
X119695000Y-110975000D01*
X132268000Y-110975000D02*
X125410000Y-110975000D01*
X124775000Y-111610000D02*
X119060000Y-111610000D01*
X131760000Y-111610000D02*
X124775000Y-111610000D01*
D38*
X177480000Y-97640000D02*
X177480000Y-101577000D01*
X177378410Y-97538410D02*
X177480000Y-97640000D01*
X162519410Y-97538410D02*
X177378410Y-97538410D01*
X161478000Y-96497000D02*
X162519410Y-97538410D01*
X224829210Y-95989000D02*
X225333590Y-95484620D01*
X224470000Y-95989000D02*
X224829210Y-95989000D01*
X225333590Y-95484620D02*
X225333590Y-73637000D01*
X225333590Y-73637000D02*
X225333590Y-72087590D01*
X225333590Y-72087590D02*
X225333590Y-71744686D01*
X225333590Y-71744686D02*
X230337411Y-66740866D01*
X230337411Y-66740866D02*
X230337411Y-59959134D01*
X227384639Y-57006361D02*
X226590866Y-56212589D01*
X230337411Y-59959134D02*
X227384639Y-57006361D01*
X226590866Y-56212589D02*
X217967589Y-56212589D01*
X217967589Y-56212589D02*
X217739000Y-56212589D01*
X163662411Y-56212589D02*
X217967589Y-56212589D01*
X162138401Y-57736599D02*
X163662411Y-56212589D01*
X162138401Y-60784599D02*
X162138401Y-57736599D01*
X160817599Y-62105401D02*
X162138401Y-60784599D01*
X160817599Y-95836599D02*
X160817599Y-62105401D01*
X161478000Y-96497000D02*
X160817599Y-95836599D01*
X178750000Y-96475210D02*
X178093210Y-97132000D01*
X178750000Y-96116000D02*
X178750000Y-96475210D01*
X163764000Y-97132000D02*
X161478000Y-94846000D01*
X178093210Y-97132000D02*
X163764000Y-97132000D01*
X147531710Y-78761700D02*
X150972500Y-75320910D01*
X147172500Y-78761700D02*
X147531710Y-78761700D01*
X150972500Y-75320910D02*
X150972500Y-74661700D01*
D11*
X168996500Y-173205000D02*
X168971000Y-173230500D01*
D39*
X125791000Y-133566000D02*
X125791000Y-139154000D01*
X125791000Y-152362000D02*
X125791000Y-139154000D01*
X125791000Y-152362000D02*
X125791000Y-157950000D01*
X125791000Y-157950000D02*
X125791000Y-165331000D01*
X125791000Y-165331000D02*
X125791000Y-168125000D01*
X126959401Y-169832216D02*
X126959401Y-174703599D01*
X125791000Y-168663815D02*
X126959401Y-169832216D01*
X125791000Y-168125000D02*
X125791000Y-168663815D01*
X124521000Y-177142000D02*
X124521000Y-178793000D01*
X126959401Y-174703599D02*
X124521000Y-177142000D01*
X124521000Y-178793000D02*
X125537000Y-179809000D01*
X125537000Y-179809000D02*
X128824000Y-179809000D01*
X134514000Y-179809000D02*
X134534000Y-179829000D01*
X128824000Y-179809000D02*
X134514000Y-179809000D01*
X147346000Y-179829000D02*
X147366000Y-179809000D01*
X134534000Y-179829000D02*
X147346000Y-179829000D01*
X147366000Y-179809000D02*
X152954000Y-179809000D01*
X152954000Y-179809000D02*
X163876000Y-179809000D01*
X169449000Y-179809000D02*
X169464000Y-179794000D01*
X163876000Y-179809000D02*
X169449000Y-179809000D01*
D11*
X125029000Y-172989100D02*
X124521000Y-172481100D01*
X125029000Y-173967000D02*
X125029000Y-172989100D01*
X125664000Y-173713000D02*
X125664000Y-172481100D01*
X125918000Y-173967000D02*
X125664000Y-173713000D01*
X173670000Y-150345000D02*
X173670000Y-165077000D01*
X168844000Y-160251000D02*
X173670000Y-165077000D01*
X140777000Y-160251000D02*
X168844000Y-160251000D01*
X174940000Y-166347000D02*
X174940000Y-171982500D01*
X174940000Y-166347000D02*
X174940000Y-171935000D01*
X174495500Y-165902500D02*
X174940000Y-166347000D01*
X173670000Y-165077000D02*
X174495500Y-165902500D01*
X174152600Y-151132400D02*
X174178000Y-151107000D01*
X142428000Y-160759000D02*
X146873000Y-160759000D01*
X146873000Y-160759000D02*
X147000000Y-160759000D01*
X168717000Y-160759000D02*
X173035000Y-165077000D01*
X146873000Y-160759000D02*
X168717000Y-160759000D01*
X174305000Y-166347000D02*
X174305000Y-171554000D01*
X173035000Y-165077000D02*
X174305000Y-166347000D01*
X174178000Y-152123000D02*
X174178000Y-151107000D01*
D38*
X147414210Y-113570000D02*
X150855000Y-110129210D01*
X147055000Y-113570000D02*
X147414210Y-113570000D01*
X150855000Y-110129210D02*
X150855000Y-109470000D01*
D11*
X168717000Y-161394000D02*
X146746000Y-161394000D01*
X138999000Y-161245210D02*
X139147790Y-161394000D01*
X138999000Y-160886000D02*
X138999000Y-161245210D01*
X139147790Y-161394000D02*
X146746000Y-161394000D01*
X146746000Y-161394000D02*
X147000000Y-161394000D01*
X128585000Y-96116000D02*
X129474000Y-97005000D01*
X128585000Y-89893000D02*
X128585000Y-96116000D01*
X173441500Y-166118500D02*
X172336500Y-165013500D01*
X173441500Y-169903000D02*
X173441500Y-166118500D01*
X172336500Y-165013500D02*
X168717000Y-161394000D01*
X172730190Y-165407190D02*
X172336500Y-165013500D01*
X146194118Y-115293000D02*
X146111000Y-115293000D01*
X151337601Y-109152601D02*
X151337601Y-110149517D01*
X151337601Y-110149517D02*
X146194118Y-115293000D01*
X150855000Y-108670000D02*
X151337601Y-109152601D01*
X131426514Y-103355000D02*
X131275757Y-103204243D01*
X133792000Y-103355000D02*
X131426514Y-103355000D01*
X143825000Y-115293000D02*
X145616210Y-115293000D01*
X146194118Y-115293000D02*
X143825000Y-115293000D01*
X134782620Y-115293000D02*
X143825000Y-115293000D01*
D37*
X138479999Y-67104999D02*
X137555000Y-66180000D01*
X138601401Y-67226401D02*
X138479999Y-67104999D01*
X143658599Y-67226401D02*
X138601401Y-67226401D01*
X144705000Y-66180000D02*
X143658599Y-67226401D01*
D11*
X126680000Y-102085000D02*
X126299000Y-102085000D01*
X122235000Y-98275000D02*
X126045000Y-102085000D01*
X126045000Y-102085000D02*
X128712000Y-102085000D01*
X128712000Y-102085000D02*
X126680000Y-102085000D01*
X136967000Y-102085000D02*
X128712000Y-102085000D01*
X126069663Y-101424597D02*
X122248614Y-97603548D01*
X122248614Y-97603548D02*
X122246049Y-97603548D01*
X136967000Y-101424597D02*
X126069663Y-101424597D01*
D37*
X164399000Y-96116000D02*
X161478000Y-93195000D01*
X173670000Y-96116000D02*
X166939000Y-96116000D01*
X166685000Y-96116000D02*
X164399000Y-96116000D01*
X166939000Y-96116000D02*
X166685000Y-96116000D01*
X224800180Y-94681426D02*
X223365606Y-96116000D01*
X223365606Y-96116000D02*
X220660000Y-96116000D01*
X224800180Y-71523742D02*
X224800180Y-94681426D01*
X229804001Y-60180079D02*
X229804001Y-66519921D01*
X226369921Y-56745999D02*
X229804001Y-60180079D01*
X163883355Y-56745999D02*
X226369921Y-56745999D01*
X162671811Y-57957543D02*
X163883355Y-56745999D01*
X162671811Y-61005544D02*
X162671811Y-57957543D01*
X229804001Y-66519921D02*
X224800180Y-71523742D01*
X161478000Y-62199356D02*
X162671811Y-61005544D01*
X161478000Y-93195000D02*
X161478000Y-62199356D01*
D11*
X152080000Y-59540000D02*
X159700000Y-59540000D01*
X159700000Y-59540000D02*
X160335000Y-60175000D01*
X160335000Y-92306000D02*
X157795000Y-94846000D01*
X160335000Y-60175000D02*
X160335000Y-92306000D01*
X148905000Y-94846000D02*
X157795000Y-94846000D01*
X137271868Y-113595000D02*
X140650000Y-113595000D01*
X177480000Y-120500000D02*
X177480000Y-131549000D01*
X178369000Y-120500000D02*
X178369000Y-132184000D01*
X132429850Y-95735000D02*
X145095000Y-95735000D01*
X156525000Y-96497000D02*
X147127000Y-96497000D01*
X146365000Y-95735000D02*
X145095000Y-95735000D01*
X147127000Y-96497000D02*
X146365000Y-95735000D01*
X114885000Y-86210000D02*
X114869000Y-86194000D01*
X125283000Y-86210000D02*
X114885000Y-86210000D01*
D38*
X135316000Y-89893000D02*
X130109000Y-95100000D01*
X153985000Y-89893000D02*
X135316000Y-89893000D01*
D37*
X129296200Y-85651200D02*
X129296200Y-90197800D01*
X128077000Y-84432000D02*
X129296200Y-85651200D01*
D38*
X146168500Y-72161700D02*
X147068500Y-73061700D01*
X146168500Y-71161700D02*
X146168500Y-72161700D01*
X146051000Y-105970000D02*
X146051000Y-106970000D01*
X146051000Y-106970000D02*
X146951000Y-107870000D01*
X161605000Y-57635000D02*
X161605000Y-60490000D01*
X226759206Y-55806179D02*
X163433821Y-55806179D01*
X225740000Y-71913026D02*
X230743821Y-66909206D01*
X225740000Y-95989000D02*
X225740000Y-71913026D01*
X230743821Y-66909206D02*
X230743820Y-59790793D01*
X162367000Y-56873000D02*
X161605000Y-57635000D01*
X163433821Y-55806179D02*
X162367000Y-56873000D01*
X230743820Y-59790793D02*
X226759206Y-55806179D01*
X162875000Y-56365000D02*
X162367000Y-56873000D01*
X205420000Y-173205000D02*
X202880000Y-170665000D01*
X202880000Y-170665000D02*
X202880000Y-165585000D01*
X202880000Y-165585000D02*
X202880000Y-163680000D01*
X202245000Y-163045000D02*
X195260000Y-163045000D01*
X202880000Y-163680000D02*
X202245000Y-163045000D01*
X202245000Y-161140000D02*
X195260000Y-161140000D01*
X202880000Y-160505000D02*
X202245000Y-161140000D01*
X205420000Y-149075000D02*
X205420000Y-156060000D01*
X205420000Y-156060000D02*
X202880000Y-158600000D01*
X202880000Y-158600000D02*
X202880000Y-160505000D01*
G36*
X198943000Y-61789068D02*
G01*
X198654138Y-61982080D01*
X198372080Y-62264138D01*
X198150468Y-62595803D01*
X197997820Y-62964329D01*
X197920000Y-63355555D01*
X197920000Y-63754445D01*
X197997820Y-64145671D01*
X198150468Y-64514197D01*
X198372080Y-64845862D01*
X198654138Y-65127920D01*
X198844326Y-65255000D01*
X198654138Y-65382080D01*
X198372080Y-65664138D01*
X198150468Y-65995803D01*
X197997820Y-66364329D01*
X197920000Y-66755555D01*
X197920000Y-67154445D01*
X197997820Y-67545671D01*
X198150468Y-67914197D01*
X198372080Y-68245862D01*
X198654138Y-68527920D01*
X198943000Y-68720932D01*
X198943000Y-121642777D01*
X198382940Y-121641794D01*
X198281256Y-121573851D01*
X198096356Y-121497263D01*
X197900067Y-121458219D01*
X197699933Y-121458219D01*
X197503644Y-121497263D01*
X197318744Y-121573851D01*
X197220113Y-121639754D01*
X179080200Y-121607930D01*
X179080200Y-121035771D01*
X179156821Y-120921099D01*
X179223836Y-120759312D01*
X179258000Y-120587559D01*
X179258000Y-120412441D01*
X179223836Y-120240688D01*
X179203212Y-120190898D01*
X179288685Y-120207900D01*
X179481315Y-120207900D01*
X179670243Y-120170320D01*
X179848210Y-120096604D01*
X179958837Y-120022685D01*
X183487100Y-120022685D01*
X183487100Y-120215315D01*
X183524680Y-120404243D01*
X183598396Y-120582210D01*
X183705415Y-120742375D01*
X183841625Y-120878585D01*
X184001790Y-120985604D01*
X184179757Y-121059320D01*
X184368685Y-121096900D01*
X184561315Y-121096900D01*
X184750243Y-121059320D01*
X184928210Y-120985604D01*
X185088375Y-120878585D01*
X185224585Y-120742375D01*
X185331604Y-120582210D01*
X185405320Y-120404243D01*
X185442900Y-120215315D01*
X185442900Y-120022685D01*
X185418235Y-119898685D01*
X193266100Y-119898685D01*
X193266100Y-120091315D01*
X193303680Y-120280243D01*
X193377396Y-120458210D01*
X193484415Y-120618375D01*
X193620625Y-120754585D01*
X193780790Y-120861604D01*
X193958757Y-120935320D01*
X194147685Y-120972900D01*
X194340315Y-120972900D01*
X194529243Y-120935320D01*
X194707210Y-120861604D01*
X194867375Y-120754585D01*
X195003585Y-120618375D01*
X195110604Y-120458210D01*
X195184320Y-120280243D01*
X195221900Y-120091315D01*
X195221900Y-119898685D01*
X195184320Y-119709757D01*
X195110604Y-119531790D01*
X195003585Y-119371625D01*
X194867375Y-119235415D01*
X194707210Y-119128396D01*
X194529243Y-119054680D01*
X194340315Y-119017100D01*
X194147685Y-119017100D01*
X193958757Y-119054680D01*
X193780790Y-119128396D01*
X193620625Y-119235415D01*
X193484415Y-119371625D01*
X193377396Y-119531790D01*
X193303680Y-119709757D01*
X193266100Y-119898685D01*
X185418235Y-119898685D01*
X185405320Y-119833757D01*
X185331604Y-119655790D01*
X185224585Y-119495625D01*
X185088375Y-119359415D01*
X184928210Y-119252396D01*
X184750243Y-119178680D01*
X184561315Y-119141100D01*
X184368685Y-119141100D01*
X184179757Y-119178680D01*
X184001790Y-119252396D01*
X183841625Y-119359415D01*
X183705415Y-119495625D01*
X183598396Y-119655790D01*
X183524680Y-119833757D01*
X183487100Y-120022685D01*
X179958837Y-120022685D01*
X180008375Y-119989585D01*
X180144585Y-119853375D01*
X180251604Y-119693210D01*
X180325320Y-119515243D01*
X180362900Y-119326315D01*
X180362900Y-119133685D01*
X180325320Y-118944757D01*
X180251604Y-118766790D01*
X180144585Y-118606625D01*
X180008375Y-118470415D01*
X179848210Y-118363396D01*
X179670243Y-118289680D01*
X179481315Y-118252100D01*
X179288685Y-118252100D01*
X179099757Y-118289680D01*
X178921790Y-118363396D01*
X178761625Y-118470415D01*
X178625415Y-118606625D01*
X178518396Y-118766790D01*
X178444680Y-118944757D01*
X178407100Y-119133685D01*
X178407100Y-119326315D01*
X178444680Y-119515243D01*
X178486838Y-119617023D01*
X178456559Y-119611000D01*
X178281441Y-119611000D01*
X178109688Y-119645164D01*
X177947901Y-119712179D01*
X177924500Y-119727815D01*
X177901099Y-119712179D01*
X177739312Y-119645164D01*
X177567559Y-119611000D01*
X177392441Y-119611000D01*
X177220688Y-119645164D01*
X177058901Y-119712179D01*
X176913296Y-119809469D01*
X176789469Y-119933296D01*
X176692179Y-120078901D01*
X176625164Y-120240688D01*
X176591000Y-120412441D01*
X176591000Y-120587559D01*
X176625164Y-120759312D01*
X176692179Y-120921099D01*
X176768800Y-121035771D01*
X176768800Y-121603875D01*
X176685257Y-121603728D01*
X176618179Y-121503338D01*
X176476662Y-121361821D01*
X176310256Y-121250632D01*
X176125356Y-121174044D01*
X175929067Y-121135000D01*
X175728933Y-121135000D01*
X175532644Y-121174044D01*
X175347744Y-121250632D01*
X175181338Y-121361821D01*
X175039821Y-121503338D01*
X174974748Y-121600727D01*
X163002000Y-121579722D01*
X163002000Y-109446500D01*
X193163428Y-109446500D01*
X193163428Y-112113500D01*
X193175688Y-112237982D01*
X193211998Y-112357680D01*
X193270963Y-112467994D01*
X193350315Y-112564685D01*
X193447006Y-112644037D01*
X193557320Y-112703002D01*
X193677018Y-112739312D01*
X193801500Y-112751572D01*
X196468500Y-112751572D01*
X196592982Y-112739312D01*
X196712680Y-112703002D01*
X196822994Y-112644037D01*
X196919685Y-112564685D01*
X196999037Y-112467994D01*
X197058002Y-112357680D01*
X197094312Y-112237982D01*
X197106572Y-112113500D01*
X197106572Y-109446500D01*
X197094312Y-109322018D01*
X197058002Y-109202320D01*
X196999037Y-109092006D01*
X196919685Y-108995315D01*
X196822994Y-108915963D01*
X196712680Y-108856998D01*
X196592982Y-108820688D01*
X196468500Y-108808428D01*
X193801500Y-108808428D01*
X193677018Y-108820688D01*
X193557320Y-108856998D01*
X193447006Y-108915963D01*
X193350315Y-108995315D01*
X193270963Y-109092006D01*
X193211998Y-109202320D01*
X193175688Y-109322018D01*
X193163428Y-109446500D01*
X163002000Y-109446500D01*
X163002000Y-107203086D01*
X193941519Y-107203086D01*
X194077490Y-107501603D01*
X194423924Y-107675793D01*
X194797683Y-107779051D01*
X195184406Y-107807407D01*
X195569229Y-107759773D01*
X195937365Y-107637979D01*
X196192510Y-107501603D01*
X196328481Y-107203086D01*
X195135000Y-106009605D01*
X193941519Y-107203086D01*
X163002000Y-107203086D01*
X163002000Y-105879406D01*
X193157593Y-105879406D01*
X193205227Y-106264229D01*
X193327021Y-106632365D01*
X193463397Y-106887510D01*
X193761914Y-107023481D01*
X194955395Y-105830000D01*
X195314605Y-105830000D01*
X196508086Y-107023481D01*
X196806603Y-106887510D01*
X196980793Y-106541076D01*
X197084051Y-106167317D01*
X197112407Y-105780594D01*
X197064773Y-105395771D01*
X196942979Y-105027635D01*
X196806603Y-104772490D01*
X196508086Y-104636519D01*
X195314605Y-105830000D01*
X194955395Y-105830000D01*
X193761914Y-104636519D01*
X193463397Y-104772490D01*
X193289207Y-105118924D01*
X193185949Y-105492683D01*
X193157593Y-105879406D01*
X163002000Y-105879406D01*
X163002000Y-104456914D01*
X193941519Y-104456914D01*
X195135000Y-105650395D01*
X196328481Y-104456914D01*
X196192510Y-104158397D01*
X195846076Y-103984207D01*
X195472317Y-103880949D01*
X195085594Y-103852593D01*
X194700771Y-103900227D01*
X194332635Y-104022021D01*
X194077490Y-104158397D01*
X193941519Y-104456914D01*
X163002000Y-104456914D01*
X163002000Y-98300410D01*
X176718000Y-98300410D01*
X176718001Y-101117256D01*
X176692179Y-101155901D01*
X176625164Y-101317688D01*
X176591000Y-101489441D01*
X176591000Y-101664559D01*
X176625164Y-101836312D01*
X176692179Y-101998099D01*
X176789469Y-102143704D01*
X176913296Y-102267531D01*
X177058901Y-102364821D01*
X177220688Y-102431836D01*
X177392441Y-102466000D01*
X177567559Y-102466000D01*
X177739312Y-102431836D01*
X177901099Y-102364821D01*
X178046704Y-102267531D01*
X178170531Y-102143704D01*
X178267821Y-101998099D01*
X178334836Y-101836312D01*
X178369000Y-101664559D01*
X178369000Y-101489441D01*
X178334836Y-101317688D01*
X178267821Y-101155901D01*
X178242000Y-101117257D01*
X178242000Y-100686120D01*
X193166500Y-100686120D01*
X193166500Y-101073880D01*
X193242148Y-101454190D01*
X193390538Y-101812435D01*
X193605966Y-102134846D01*
X193880154Y-102409034D01*
X194202565Y-102624462D01*
X194560810Y-102772852D01*
X194941120Y-102848500D01*
X195328880Y-102848500D01*
X195709190Y-102772852D01*
X196067435Y-102624462D01*
X196389846Y-102409034D01*
X196664034Y-102134846D01*
X196879462Y-101812435D01*
X197027852Y-101454190D01*
X197103500Y-101073880D01*
X197103500Y-100686120D01*
X197027852Y-100305810D01*
X196879462Y-99947565D01*
X196664034Y-99625154D01*
X196389846Y-99350966D01*
X196067435Y-99135538D01*
X195709190Y-98987148D01*
X195328880Y-98911500D01*
X194941120Y-98911500D01*
X194560810Y-98987148D01*
X194202565Y-99135538D01*
X193880154Y-99350966D01*
X193605966Y-99625154D01*
X193390538Y-99947565D01*
X193242148Y-100305810D01*
X193166500Y-100686120D01*
X178242000Y-100686120D01*
X178242000Y-97883032D01*
X178242588Y-97882974D01*
X178386225Y-97839402D01*
X178518602Y-97768645D01*
X178634632Y-97673422D01*
X178658493Y-97644347D01*
X179262351Y-97040490D01*
X179291422Y-97016632D01*
X179386645Y-96900602D01*
X179457402Y-96768225D01*
X179500974Y-96624587D01*
X179504710Y-96586653D01*
X179537821Y-96537099D01*
X179604836Y-96375312D01*
X179639000Y-96203559D01*
X179639000Y-96028441D01*
X179604836Y-95856688D01*
X179554895Y-95736120D01*
X193166500Y-95736120D01*
X193166500Y-96123880D01*
X193242148Y-96504190D01*
X193390538Y-96862435D01*
X193605966Y-97184846D01*
X193880154Y-97459034D01*
X194202565Y-97674462D01*
X194560810Y-97822852D01*
X194941120Y-97898500D01*
X195328880Y-97898500D01*
X195709190Y-97822852D01*
X196067435Y-97674462D01*
X196389846Y-97459034D01*
X196664034Y-97184846D01*
X196879462Y-96862435D01*
X197027852Y-96504190D01*
X197103500Y-96123880D01*
X197103500Y-95736120D01*
X197027852Y-95355810D01*
X196879462Y-94997565D01*
X196664034Y-94675154D01*
X196389846Y-94400966D01*
X196067435Y-94185538D01*
X195709190Y-94037148D01*
X195328880Y-93961500D01*
X194941120Y-93961500D01*
X194560810Y-94037148D01*
X194202565Y-94185538D01*
X193880154Y-94400966D01*
X193605966Y-94675154D01*
X193390538Y-94997565D01*
X193242148Y-95355810D01*
X193166500Y-95736120D01*
X179554895Y-95736120D01*
X179537821Y-95694901D01*
X179440531Y-95549296D01*
X179316704Y-95425469D01*
X179171099Y-95328179D01*
X179009312Y-95261164D01*
X178837559Y-95227000D01*
X178662441Y-95227000D01*
X178490688Y-95261164D01*
X178328901Y-95328179D01*
X178183296Y-95425469D01*
X178059469Y-95549296D01*
X177962179Y-95694901D01*
X177895164Y-95856688D01*
X177861000Y-96028441D01*
X177861000Y-96203559D01*
X177874774Y-96272805D01*
X177777580Y-96370000D01*
X174655381Y-96370000D01*
X174686000Y-96216067D01*
X174686000Y-96015933D01*
X174646956Y-95819644D01*
X174570368Y-95634744D01*
X174459179Y-95468338D01*
X174317662Y-95326821D01*
X174151256Y-95215632D01*
X173966356Y-95139044D01*
X173770067Y-95100000D01*
X173569933Y-95100000D01*
X173373644Y-95139044D01*
X173188744Y-95215632D01*
X173171731Y-95227000D01*
X164767236Y-95227000D01*
X163002000Y-93461765D01*
X163002000Y-91951933D01*
X172654000Y-91951933D01*
X172654000Y-92152067D01*
X172693044Y-92348356D01*
X172754407Y-92496500D01*
X172693044Y-92644644D01*
X172654000Y-92840933D01*
X172654000Y-93041067D01*
X172693044Y-93237356D01*
X172754407Y-93385500D01*
X172693044Y-93533644D01*
X172654000Y-93729933D01*
X172654000Y-93930067D01*
X172693044Y-94126356D01*
X172769632Y-94311256D01*
X172880821Y-94477662D01*
X173022338Y-94619179D01*
X173188744Y-94730368D01*
X173373644Y-94806956D01*
X173569933Y-94846000D01*
X173770067Y-94846000D01*
X173966356Y-94806956D01*
X174151256Y-94730368D01*
X174317662Y-94619179D01*
X174459179Y-94477662D01*
X174570368Y-94311256D01*
X174646956Y-94126356D01*
X174686000Y-93930067D01*
X174686000Y-93729933D01*
X174646956Y-93533644D01*
X174585593Y-93385500D01*
X174646956Y-93237356D01*
X174686000Y-93041067D01*
X174686000Y-92840933D01*
X174646956Y-92644644D01*
X174585593Y-92496500D01*
X174646956Y-92348356D01*
X174686000Y-92152067D01*
X174686000Y-91951933D01*
X174646956Y-91755644D01*
X174570368Y-91570744D01*
X174459179Y-91404338D01*
X174317662Y-91262821D01*
X174151256Y-91151632D01*
X173966356Y-91075044D01*
X173770067Y-91036000D01*
X173569933Y-91036000D01*
X173373644Y-91075044D01*
X173188744Y-91151632D01*
X173022338Y-91262821D01*
X172880821Y-91404338D01*
X172769632Y-91570744D01*
X172693044Y-91755644D01*
X172654000Y-91951933D01*
X163002000Y-91951933D01*
X163002000Y-82343000D01*
X192532928Y-82343000D01*
X192532928Y-84743000D01*
X192545188Y-84867482D01*
X192581498Y-84987180D01*
X192640463Y-85097494D01*
X192719815Y-85194185D01*
X192816506Y-85273537D01*
X192926820Y-85332502D01*
X193046518Y-85368812D01*
X193171000Y-85381072D01*
X195571000Y-85381072D01*
X195695482Y-85368812D01*
X195815180Y-85332502D01*
X195925494Y-85273537D01*
X196022185Y-85194185D01*
X196101537Y-85097494D01*
X196160502Y-84987180D01*
X196196812Y-84867482D01*
X196209072Y-84743000D01*
X196209072Y-82343000D01*
X196196812Y-82218518D01*
X196160502Y-82098820D01*
X196101537Y-81988506D01*
X196022185Y-81891815D01*
X195925494Y-81812463D01*
X195815180Y-81753498D01*
X195695482Y-81717188D01*
X195571000Y-81704928D01*
X193171000Y-81704928D01*
X193046518Y-81717188D01*
X192926820Y-81753498D01*
X192816506Y-81812463D01*
X192719815Y-81891815D01*
X192640463Y-81988506D01*
X192581498Y-82098820D01*
X192545188Y-82218518D01*
X192532928Y-82343000D01*
X163002000Y-82343000D01*
X163002000Y-75862268D01*
X192536000Y-75862268D01*
X192536000Y-76223732D01*
X192606518Y-76578250D01*
X192744844Y-76912199D01*
X192945662Y-77212744D01*
X193201256Y-77468338D01*
X193501801Y-77669156D01*
X193835750Y-77807482D01*
X194190268Y-77878000D01*
X194551732Y-77878000D01*
X194906250Y-77807482D01*
X195240199Y-77669156D01*
X195540744Y-77468338D01*
X195796338Y-77212744D01*
X195997156Y-76912199D01*
X196135482Y-76578250D01*
X196206000Y-76223732D01*
X196206000Y-75862268D01*
X196135482Y-75507750D01*
X195997156Y-75173801D01*
X195796338Y-74873256D01*
X195540744Y-74617662D01*
X195240199Y-74416844D01*
X194906250Y-74278518D01*
X194551732Y-74208000D01*
X194190268Y-74208000D01*
X193835750Y-74278518D01*
X193501801Y-74416844D01*
X193201256Y-74617662D01*
X192945662Y-74873256D01*
X192744844Y-75173801D01*
X192606518Y-75507750D01*
X192536000Y-75862268D01*
X163002000Y-75862268D01*
X163002000Y-62878685D01*
X170152100Y-62878685D01*
X170152100Y-63071315D01*
X170189680Y-63260243D01*
X170263396Y-63438210D01*
X170370415Y-63598375D01*
X170506625Y-63734585D01*
X170666790Y-63841604D01*
X170844757Y-63915320D01*
X171033685Y-63952900D01*
X171226315Y-63952900D01*
X171415243Y-63915320D01*
X171593210Y-63841604D01*
X171753375Y-63734585D01*
X171889585Y-63598375D01*
X171996604Y-63438210D01*
X172070320Y-63260243D01*
X172107900Y-63071315D01*
X172107900Y-62878685D01*
X172070320Y-62689757D01*
X171996604Y-62511790D01*
X171889585Y-62351625D01*
X171753375Y-62215415D01*
X171593210Y-62108396D01*
X171415243Y-62034680D01*
X171226315Y-61997100D01*
X171033685Y-61997100D01*
X170844757Y-62034680D01*
X170666790Y-62108396D01*
X170506625Y-62215415D01*
X170370415Y-62351625D01*
X170263396Y-62511790D01*
X170189680Y-62689757D01*
X170152100Y-62878685D01*
X163002000Y-62878685D01*
X163002000Y-61932591D01*
X163269554Y-61665037D01*
X163303470Y-61637203D01*
X163414564Y-61501835D01*
X163497114Y-61347395D01*
X163547947Y-61179818D01*
X163560811Y-61049211D01*
X163560811Y-61049204D01*
X163565111Y-61005544D01*
X163560811Y-60961884D01*
X163560811Y-58325778D01*
X164251591Y-57634999D01*
X198943000Y-57634999D01*
X198943000Y-61789068D01*
X198943000Y-61789068D01*
G37*
X198943000Y-61789068D02*
X198654138Y-61982080D01*
X198372080Y-62264138D01*
X198150468Y-62595803D01*
X197997820Y-62964329D01*
X197920000Y-63355555D01*
X197920000Y-63754445D01*
X197997820Y-64145671D01*
X198150468Y-64514197D01*
X198372080Y-64845862D01*
X198654138Y-65127920D01*
X198844326Y-65255000D01*
X198654138Y-65382080D01*
X198372080Y-65664138D01*
X198150468Y-65995803D01*
X197997820Y-66364329D01*
X197920000Y-66755555D01*
X197920000Y-67154445D01*
X197997820Y-67545671D01*
X198150468Y-67914197D01*
X198372080Y-68245862D01*
X198654138Y-68527920D01*
X198943000Y-68720932D01*
X198943000Y-121642777D01*
X198382940Y-121641794D01*
X198281256Y-121573851D01*
X198096356Y-121497263D01*
X197900067Y-121458219D01*
X197699933Y-121458219D01*
X197503644Y-121497263D01*
X197318744Y-121573851D01*
X197220113Y-121639754D01*
X179080200Y-121607930D01*
X179080200Y-121035771D01*
X179156821Y-120921099D01*
X179223836Y-120759312D01*
X179258000Y-120587559D01*
X179258000Y-120412441D01*
X179223836Y-120240688D01*
X179203212Y-120190898D01*
X179288685Y-120207900D01*
X179481315Y-120207900D01*
X179670243Y-120170320D01*
X179848210Y-120096604D01*
X179958837Y-120022685D01*
X183487100Y-120022685D01*
X183487100Y-120215315D01*
X183524680Y-120404243D01*
X183598396Y-120582210D01*
X183705415Y-120742375D01*
X183841625Y-120878585D01*
X184001790Y-120985604D01*
X184179757Y-121059320D01*
X184368685Y-121096900D01*
X184561315Y-121096900D01*
X184750243Y-121059320D01*
X184928210Y-120985604D01*
X185088375Y-120878585D01*
X185224585Y-120742375D01*
X185331604Y-120582210D01*
X185405320Y-120404243D01*
X185442900Y-120215315D01*
X185442900Y-120022685D01*
X185418235Y-119898685D01*
X193266100Y-119898685D01*
X193266100Y-120091315D01*
X193303680Y-120280243D01*
X193377396Y-120458210D01*
X193484415Y-120618375D01*
X193620625Y-120754585D01*
X193780790Y-120861604D01*
X193958757Y-120935320D01*
X194147685Y-120972900D01*
X194340315Y-120972900D01*
X194529243Y-120935320D01*
X194707210Y-120861604D01*
X194867375Y-120754585D01*
X195003585Y-120618375D01*
X195110604Y-120458210D01*
X195184320Y-120280243D01*
X195221900Y-120091315D01*
X195221900Y-119898685D01*
X195184320Y-119709757D01*
X195110604Y-119531790D01*
X195003585Y-119371625D01*
X194867375Y-119235415D01*
X194707210Y-119128396D01*
X194529243Y-119054680D01*
X194340315Y-119017100D01*
X194147685Y-119017100D01*
X193958757Y-119054680D01*
X193780790Y-119128396D01*
X193620625Y-119235415D01*
X193484415Y-119371625D01*
X193377396Y-119531790D01*
X193303680Y-119709757D01*
X193266100Y-119898685D01*
X185418235Y-119898685D01*
X185405320Y-119833757D01*
X185331604Y-119655790D01*
X185224585Y-119495625D01*
X185088375Y-119359415D01*
X184928210Y-119252396D01*
X184750243Y-119178680D01*
X184561315Y-119141100D01*
X184368685Y-119141100D01*
X184179757Y-119178680D01*
X184001790Y-119252396D01*
X183841625Y-119359415D01*
X183705415Y-119495625D01*
X183598396Y-119655790D01*
X183524680Y-119833757D01*
X183487100Y-120022685D01*
X179958837Y-120022685D01*
X180008375Y-119989585D01*
X180144585Y-119853375D01*
X180251604Y-119693210D01*
X180325320Y-119515243D01*
X180362900Y-119326315D01*
X180362900Y-119133685D01*
X180325320Y-118944757D01*
X180251604Y-118766790D01*
X180144585Y-118606625D01*
X180008375Y-118470415D01*
X179848210Y-118363396D01*
X179670243Y-118289680D01*
X179481315Y-118252100D01*
X179288685Y-118252100D01*
X179099757Y-118289680D01*
X178921790Y-118363396D01*
X178761625Y-118470415D01*
X178625415Y-118606625D01*
X178518396Y-118766790D01*
X178444680Y-118944757D01*
X178407100Y-119133685D01*
X178407100Y-119326315D01*
X178444680Y-119515243D01*
X178486838Y-119617023D01*
X178456559Y-119611000D01*
X178281441Y-119611000D01*
X178109688Y-119645164D01*
X177947901Y-119712179D01*
X177924500Y-119727815D01*
X177901099Y-119712179D01*
X177739312Y-119645164D01*
X177567559Y-119611000D01*
X177392441Y-119611000D01*
X177220688Y-119645164D01*
X177058901Y-119712179D01*
X176913296Y-119809469D01*
X176789469Y-119933296D01*
X176692179Y-120078901D01*
X176625164Y-120240688D01*
X176591000Y-120412441D01*
X176591000Y-120587559D01*
X176625164Y-120759312D01*
X176692179Y-120921099D01*
X176768800Y-121035771D01*
X176768800Y-121603875D01*
X176685257Y-121603728D01*
X176618179Y-121503338D01*
X176476662Y-121361821D01*
X176310256Y-121250632D01*
X176125356Y-121174044D01*
X175929067Y-121135000D01*
X175728933Y-121135000D01*
X175532644Y-121174044D01*
X175347744Y-121250632D01*
X175181338Y-121361821D01*
X175039821Y-121503338D01*
X174974748Y-121600727D01*
X163002000Y-121579722D01*
X163002000Y-109446500D01*
X193163428Y-109446500D01*
X193163428Y-112113500D01*
X193175688Y-112237982D01*
X193211998Y-112357680D01*
X193270963Y-112467994D01*
X193350315Y-112564685D01*
X193447006Y-112644037D01*
X193557320Y-112703002D01*
X193677018Y-112739312D01*
X193801500Y-112751572D01*
X196468500Y-112751572D01*
X196592982Y-112739312D01*
X196712680Y-112703002D01*
X196822994Y-112644037D01*
X196919685Y-112564685D01*
X196999037Y-112467994D01*
X197058002Y-112357680D01*
X197094312Y-112237982D01*
X197106572Y-112113500D01*
X197106572Y-109446500D01*
X197094312Y-109322018D01*
X197058002Y-109202320D01*
X196999037Y-109092006D01*
X196919685Y-108995315D01*
X196822994Y-108915963D01*
X196712680Y-108856998D01*
X196592982Y-108820688D01*
X196468500Y-108808428D01*
X193801500Y-108808428D01*
X193677018Y-108820688D01*
X193557320Y-108856998D01*
X193447006Y-108915963D01*
X193350315Y-108995315D01*
X193270963Y-109092006D01*
X193211998Y-109202320D01*
X193175688Y-109322018D01*
X193163428Y-109446500D01*
X163002000Y-109446500D01*
X163002000Y-107203086D01*
X193941519Y-107203086D01*
X194077490Y-107501603D01*
X194423924Y-107675793D01*
X194797683Y-107779051D01*
X195184406Y-107807407D01*
X195569229Y-107759773D01*
X195937365Y-107637979D01*
X196192510Y-107501603D01*
X196328481Y-107203086D01*
X195135000Y-106009605D01*
X193941519Y-107203086D01*
X163002000Y-107203086D01*
X163002000Y-105879406D01*
X193157593Y-105879406D01*
X193205227Y-106264229D01*
X193327021Y-106632365D01*
X193463397Y-106887510D01*
X193761914Y-107023481D01*
X194955395Y-105830000D01*
X195314605Y-105830000D01*
X196508086Y-107023481D01*
X196806603Y-106887510D01*
X196980793Y-106541076D01*
X197084051Y-106167317D01*
X197112407Y-105780594D01*
X197064773Y-105395771D01*
X196942979Y-105027635D01*
X196806603Y-104772490D01*
X196508086Y-104636519D01*
X195314605Y-105830000D01*
X194955395Y-105830000D01*
X193761914Y-104636519D01*
X193463397Y-104772490D01*
X193289207Y-105118924D01*
X193185949Y-105492683D01*
X193157593Y-105879406D01*
X163002000Y-105879406D01*
X163002000Y-104456914D01*
X193941519Y-104456914D01*
X195135000Y-105650395D01*
X196328481Y-104456914D01*
X196192510Y-104158397D01*
X195846076Y-103984207D01*
X195472317Y-103880949D01*
X195085594Y-103852593D01*
X194700771Y-103900227D01*
X194332635Y-104022021D01*
X194077490Y-104158397D01*
X193941519Y-104456914D01*
X163002000Y-104456914D01*
X163002000Y-98300410D01*
X176718000Y-98300410D01*
X176718001Y-101117256D01*
X176692179Y-101155901D01*
X176625164Y-101317688D01*
X176591000Y-101489441D01*
X176591000Y-101664559D01*
X176625164Y-101836312D01*
X176692179Y-101998099D01*
X176789469Y-102143704D01*
X176913296Y-102267531D01*
X177058901Y-102364821D01*
X177220688Y-102431836D01*
X177392441Y-102466000D01*
X177567559Y-102466000D01*
X177739312Y-102431836D01*
X177901099Y-102364821D01*
X178046704Y-102267531D01*
X178170531Y-102143704D01*
X178267821Y-101998099D01*
X178334836Y-101836312D01*
X178369000Y-101664559D01*
X178369000Y-101489441D01*
X178334836Y-101317688D01*
X178267821Y-101155901D01*
X178242000Y-101117257D01*
X178242000Y-100686120D01*
X193166500Y-100686120D01*
X193166500Y-101073880D01*
X193242148Y-101454190D01*
X193390538Y-101812435D01*
X193605966Y-102134846D01*
X193880154Y-102409034D01*
X194202565Y-102624462D01*
X194560810Y-102772852D01*
X194941120Y-102848500D01*
X195328880Y-102848500D01*
X195709190Y-102772852D01*
X196067435Y-102624462D01*
X196389846Y-102409034D01*
X196664034Y-102134846D01*
X196879462Y-101812435D01*
X197027852Y-101454190D01*
X197103500Y-101073880D01*
X197103500Y-100686120D01*
X197027852Y-100305810D01*
X196879462Y-99947565D01*
X196664034Y-99625154D01*
X196389846Y-99350966D01*
X196067435Y-99135538D01*
X195709190Y-98987148D01*
X195328880Y-98911500D01*
X194941120Y-98911500D01*
X194560810Y-98987148D01*
X194202565Y-99135538D01*
X193880154Y-99350966D01*
X193605966Y-99625154D01*
X193390538Y-99947565D01*
X193242148Y-100305810D01*
X193166500Y-100686120D01*
X178242000Y-100686120D01*
X178242000Y-97883032D01*
X178242588Y-97882974D01*
X178386225Y-97839402D01*
X178518602Y-97768645D01*
X178634632Y-97673422D01*
X178658493Y-97644347D01*
X179262351Y-97040490D01*
X179291422Y-97016632D01*
X179386645Y-96900602D01*
X179457402Y-96768225D01*
X179500974Y-96624587D01*
X179504710Y-96586653D01*
X179537821Y-96537099D01*
X179604836Y-96375312D01*
X179639000Y-96203559D01*
X179639000Y-96028441D01*
X179604836Y-95856688D01*
X179554895Y-95736120D01*
X193166500Y-95736120D01*
X193166500Y-96123880D01*
X193242148Y-96504190D01*
X193390538Y-96862435D01*
X193605966Y-97184846D01*
X193880154Y-97459034D01*
X194202565Y-97674462D01*
X194560810Y-97822852D01*
X194941120Y-97898500D01*
X195328880Y-97898500D01*
X195709190Y-97822852D01*
X196067435Y-97674462D01*
X196389846Y-97459034D01*
X196664034Y-97184846D01*
X196879462Y-96862435D01*
X197027852Y-96504190D01*
X197103500Y-96123880D01*
X197103500Y-95736120D01*
X197027852Y-95355810D01*
X196879462Y-94997565D01*
X196664034Y-94675154D01*
X196389846Y-94400966D01*
X196067435Y-94185538D01*
X195709190Y-94037148D01*
X195328880Y-93961500D01*
X194941120Y-93961500D01*
X194560810Y-94037148D01*
X194202565Y-94185538D01*
X193880154Y-94400966D01*
X193605966Y-94675154D01*
X193390538Y-94997565D01*
X193242148Y-95355810D01*
X193166500Y-95736120D01*
X179554895Y-95736120D01*
X179537821Y-95694901D01*
X179440531Y-95549296D01*
X179316704Y-95425469D01*
X179171099Y-95328179D01*
X179009312Y-95261164D01*
X178837559Y-95227000D01*
X178662441Y-95227000D01*
X178490688Y-95261164D01*
X178328901Y-95328179D01*
X178183296Y-95425469D01*
X178059469Y-95549296D01*
X177962179Y-95694901D01*
X177895164Y-95856688D01*
X177861000Y-96028441D01*
X177861000Y-96203559D01*
X177874774Y-96272805D01*
X177777580Y-96370000D01*
X174655381Y-96370000D01*
X174686000Y-96216067D01*
X174686000Y-96015933D01*
X174646956Y-95819644D01*
X174570368Y-95634744D01*
X174459179Y-95468338D01*
X174317662Y-95326821D01*
X174151256Y-95215632D01*
X173966356Y-95139044D01*
X173770067Y-95100000D01*
X173569933Y-95100000D01*
X173373644Y-95139044D01*
X173188744Y-95215632D01*
X173171731Y-95227000D01*
X164767236Y-95227000D01*
X163002000Y-93461765D01*
X163002000Y-91951933D01*
X172654000Y-91951933D01*
X172654000Y-92152067D01*
X172693044Y-92348356D01*
X172754407Y-92496500D01*
X172693044Y-92644644D01*
X172654000Y-92840933D01*
X172654000Y-93041067D01*
X172693044Y-93237356D01*
X172754407Y-93385500D01*
X172693044Y-93533644D01*
X172654000Y-93729933D01*
X172654000Y-93930067D01*
X172693044Y-94126356D01*
X172769632Y-94311256D01*
X172880821Y-94477662D01*
X173022338Y-94619179D01*
X173188744Y-94730368D01*
X173373644Y-94806956D01*
X173569933Y-94846000D01*
X173770067Y-94846000D01*
X173966356Y-94806956D01*
X174151256Y-94730368D01*
X174317662Y-94619179D01*
X174459179Y-94477662D01*
X174570368Y-94311256D01*
X174646956Y-94126356D01*
X174686000Y-93930067D01*
X174686000Y-93729933D01*
X174646956Y-93533644D01*
X174585593Y-93385500D01*
X174646956Y-93237356D01*
X174686000Y-93041067D01*
X174686000Y-92840933D01*
X174646956Y-92644644D01*
X174585593Y-92496500D01*
X174646956Y-92348356D01*
X174686000Y-92152067D01*
X174686000Y-91951933D01*
X174646956Y-91755644D01*
X174570368Y-91570744D01*
X174459179Y-91404338D01*
X174317662Y-91262821D01*
X174151256Y-91151632D01*
X173966356Y-91075044D01*
X173770067Y-91036000D01*
X173569933Y-91036000D01*
X173373644Y-91075044D01*
X173188744Y-91151632D01*
X173022338Y-91262821D01*
X172880821Y-91404338D01*
X172769632Y-91570744D01*
X172693044Y-91755644D01*
X172654000Y-91951933D01*
X163002000Y-91951933D01*
X163002000Y-82343000D01*
X192532928Y-82343000D01*
X192532928Y-84743000D01*
X192545188Y-84867482D01*
X192581498Y-84987180D01*
X192640463Y-85097494D01*
X192719815Y-85194185D01*
X192816506Y-85273537D01*
X192926820Y-85332502D01*
X193046518Y-85368812D01*
X193171000Y-85381072D01*
X195571000Y-85381072D01*
X195695482Y-85368812D01*
X195815180Y-85332502D01*
X195925494Y-85273537D01*
X196022185Y-85194185D01*
X196101537Y-85097494D01*
X196160502Y-84987180D01*
X196196812Y-84867482D01*
X196209072Y-84743000D01*
X196209072Y-82343000D01*
X196196812Y-82218518D01*
X196160502Y-82098820D01*
X196101537Y-81988506D01*
X196022185Y-81891815D01*
X195925494Y-81812463D01*
X195815180Y-81753498D01*
X195695482Y-81717188D01*
X195571000Y-81704928D01*
X193171000Y-81704928D01*
X193046518Y-81717188D01*
X192926820Y-81753498D01*
X192816506Y-81812463D01*
X192719815Y-81891815D01*
X192640463Y-81988506D01*
X192581498Y-82098820D01*
X192545188Y-82218518D01*
X192532928Y-82343000D01*
X163002000Y-82343000D01*
X163002000Y-75862268D01*
X192536000Y-75862268D01*
X192536000Y-76223732D01*
X192606518Y-76578250D01*
X192744844Y-76912199D01*
X192945662Y-77212744D01*
X193201256Y-77468338D01*
X193501801Y-77669156D01*
X193835750Y-77807482D01*
X194190268Y-77878000D01*
X194551732Y-77878000D01*
X194906250Y-77807482D01*
X195240199Y-77669156D01*
X195540744Y-77468338D01*
X195796338Y-77212744D01*
X195997156Y-76912199D01*
X196135482Y-76578250D01*
X196206000Y-76223732D01*
X196206000Y-75862268D01*
X196135482Y-75507750D01*
X195997156Y-75173801D01*
X195796338Y-74873256D01*
X195540744Y-74617662D01*
X195240199Y-74416844D01*
X194906250Y-74278518D01*
X194551732Y-74208000D01*
X194190268Y-74208000D01*
X193835750Y-74278518D01*
X193501801Y-74416844D01*
X193201256Y-74617662D01*
X192945662Y-74873256D01*
X192744844Y-75173801D01*
X192606518Y-75507750D01*
X192536000Y-75862268D01*
X163002000Y-75862268D01*
X163002000Y-62878685D01*
X170152100Y-62878685D01*
X170152100Y-63071315D01*
X170189680Y-63260243D01*
X170263396Y-63438210D01*
X170370415Y-63598375D01*
X170506625Y-63734585D01*
X170666790Y-63841604D01*
X170844757Y-63915320D01*
X171033685Y-63952900D01*
X171226315Y-63952900D01*
X171415243Y-63915320D01*
X171593210Y-63841604D01*
X171753375Y-63734585D01*
X171889585Y-63598375D01*
X171996604Y-63438210D01*
X172070320Y-63260243D01*
X172107900Y-63071315D01*
X172107900Y-62878685D01*
X172070320Y-62689757D01*
X171996604Y-62511790D01*
X171889585Y-62351625D01*
X171753375Y-62215415D01*
X171593210Y-62108396D01*
X171415243Y-62034680D01*
X171226315Y-61997100D01*
X171033685Y-61997100D01*
X170844757Y-62034680D01*
X170666790Y-62108396D01*
X170506625Y-62215415D01*
X170370415Y-62351625D01*
X170263396Y-62511790D01*
X170189680Y-62689757D01*
X170152100Y-62878685D01*
X163002000Y-62878685D01*
X163002000Y-61932591D01*
X163269554Y-61665037D01*
X163303470Y-61637203D01*
X163414564Y-61501835D01*
X163497114Y-61347395D01*
X163547947Y-61179818D01*
X163560811Y-61049211D01*
X163560811Y-61049204D01*
X163565111Y-61005544D01*
X163560811Y-60961884D01*
X163560811Y-58325778D01*
X164251591Y-57634999D01*
X198943000Y-57634999D01*
X198943000Y-61789068D01*
G36*
X219071153Y-58318986D02*
G01*
X218168986Y-59221153D01*
X217460157Y-60281990D01*
X216971908Y-61460729D01*
X216723000Y-62712071D01*
X216723000Y-63987929D01*
X216971908Y-65239271D01*
X217460157Y-66418010D01*
X218168986Y-67478847D01*
X219071153Y-68381014D01*
X220131990Y-69089843D01*
X221310729Y-69578092D01*
X222562071Y-69827000D01*
X223837929Y-69827000D01*
X225089271Y-69578092D01*
X225770958Y-69295728D01*
X224202444Y-70864243D01*
X224168521Y-70892083D01*
X224057427Y-71027452D01*
X223985538Y-71161947D01*
X223974878Y-71181890D01*
X223932406Y-71321904D01*
X223924044Y-71349469D01*
X223911180Y-71480076D01*
X223911180Y-71480082D01*
X223906880Y-71523742D01*
X223911180Y-71567402D01*
X223911181Y-94313189D01*
X222997371Y-95227000D01*
X221158269Y-95227000D01*
X221141256Y-95215632D01*
X220956356Y-95139044D01*
X220760067Y-95100000D01*
X220559933Y-95100000D01*
X220363644Y-95139044D01*
X220178744Y-95215632D01*
X220012338Y-95326821D01*
X219870821Y-95468338D01*
X219759632Y-95634744D01*
X219683044Y-95819644D01*
X219644000Y-96015933D01*
X219644000Y-96216067D01*
X219683044Y-96412356D01*
X219759632Y-96597256D01*
X219870821Y-96763662D01*
X220012338Y-96905179D01*
X220178744Y-97016368D01*
X220363644Y-97092956D01*
X220559933Y-97132000D01*
X220760067Y-97132000D01*
X220956356Y-97092956D01*
X221141256Y-97016368D01*
X221158269Y-97005000D01*
X223321946Y-97005000D01*
X223365606Y-97009300D01*
X223409266Y-97005000D01*
X223409273Y-97005000D01*
X223539880Y-96992136D01*
X223707457Y-96941303D01*
X223861897Y-96858753D01*
X223997265Y-96747659D01*
X224000095Y-96744210D01*
X224048901Y-96776821D01*
X224210688Y-96843836D01*
X224382441Y-96878000D01*
X224557559Y-96878000D01*
X224729312Y-96843836D01*
X224891099Y-96776821D01*
X224940653Y-96743710D01*
X224978588Y-96739974D01*
X225122225Y-96696402D01*
X225166501Y-96672736D01*
X225173296Y-96679531D01*
X225318901Y-96776821D01*
X225480688Y-96843836D01*
X225652441Y-96878000D01*
X225827559Y-96878000D01*
X225999312Y-96843836D01*
X226161099Y-96776821D01*
X226306704Y-96679531D01*
X226430531Y-96555704D01*
X226527821Y-96410099D01*
X226594836Y-96248312D01*
X226629000Y-96076559D01*
X226629000Y-95901441D01*
X226594836Y-95729688D01*
X226527821Y-95567901D01*
X226502000Y-95529257D01*
X226502000Y-72228656D01*
X231256178Y-67474480D01*
X231285243Y-67450627D01*
X231309096Y-67421562D01*
X231309100Y-67421558D01*
X231380466Y-67334599D01*
X231451222Y-67202222D01*
X231451223Y-67202220D01*
X231494795Y-67058583D01*
X231505821Y-66946631D01*
X231505821Y-66946629D01*
X231509507Y-66909206D01*
X231505821Y-66871783D01*
X231505819Y-60422308D01*
X231724297Y-61065926D01*
X231949503Y-62198114D01*
X231963000Y-62404038D01*
X231963000Y-121706245D01*
X200467000Y-121643253D01*
X200467000Y-110586120D01*
X202306500Y-110586120D01*
X202306500Y-110973880D01*
X202382148Y-111354190D01*
X202530538Y-111712435D01*
X202745966Y-112034846D01*
X203020154Y-112309034D01*
X203342565Y-112524462D01*
X203700810Y-112672852D01*
X204081120Y-112748500D01*
X204468880Y-112748500D01*
X204849190Y-112672852D01*
X205207435Y-112524462D01*
X205529846Y-112309034D01*
X205804034Y-112034846D01*
X206019462Y-111712435D01*
X206167852Y-111354190D01*
X206243500Y-110973880D01*
X206243500Y-110586120D01*
X206167852Y-110205810D01*
X206019462Y-109847565D01*
X205804034Y-109525154D01*
X205529846Y-109250966D01*
X205207435Y-109035538D01*
X204849190Y-108887148D01*
X204468880Y-108811500D01*
X204081120Y-108811500D01*
X203700810Y-108887148D01*
X203342565Y-109035538D01*
X203020154Y-109250966D01*
X202745966Y-109525154D01*
X202530538Y-109847565D01*
X202382148Y-110205810D01*
X202306500Y-110586120D01*
X200467000Y-110586120D01*
X200467000Y-107203086D01*
X203081519Y-107203086D01*
X203217490Y-107501603D01*
X203563924Y-107675793D01*
X203937683Y-107779051D01*
X204324406Y-107807407D01*
X204709229Y-107759773D01*
X205077365Y-107637979D01*
X205332510Y-107501603D01*
X205468481Y-107203086D01*
X204275000Y-106009605D01*
X203081519Y-107203086D01*
X200467000Y-107203086D01*
X200467000Y-105879406D01*
X202297593Y-105879406D01*
X202345227Y-106264229D01*
X202467021Y-106632365D01*
X202603397Y-106887510D01*
X202901914Y-107023481D01*
X204095395Y-105830000D01*
X204454605Y-105830000D01*
X205648086Y-107023481D01*
X205946603Y-106887510D01*
X206120793Y-106541076D01*
X206224051Y-106167317D01*
X206252407Y-105780594D01*
X206204773Y-105395771D01*
X206082979Y-105027635D01*
X205946603Y-104772490D01*
X205648086Y-104636519D01*
X204454605Y-105830000D01*
X204095395Y-105830000D01*
X202901914Y-104636519D01*
X202603397Y-104772490D01*
X202429207Y-105118924D01*
X202325949Y-105492683D01*
X202297593Y-105879406D01*
X200467000Y-105879406D01*
X200467000Y-104456914D01*
X203081519Y-104456914D01*
X204275000Y-105650395D01*
X205468481Y-104456914D01*
X205332510Y-104158397D01*
X204986076Y-103984207D01*
X204612317Y-103880949D01*
X204225594Y-103852593D01*
X203840771Y-103900227D01*
X203472635Y-104022021D01*
X203217490Y-104158397D01*
X203081519Y-104456914D01*
X200467000Y-104456914D01*
X200467000Y-100686120D01*
X202306500Y-100686120D01*
X202306500Y-101073880D01*
X202382148Y-101454190D01*
X202530538Y-101812435D01*
X202745966Y-102134846D01*
X203020154Y-102409034D01*
X203342565Y-102624462D01*
X203700810Y-102772852D01*
X204081120Y-102848500D01*
X204468880Y-102848500D01*
X204849190Y-102772852D01*
X205207435Y-102624462D01*
X205529846Y-102409034D01*
X205804034Y-102134846D01*
X206019462Y-101812435D01*
X206167852Y-101454190D01*
X206243500Y-101073880D01*
X206243500Y-100686120D01*
X206167852Y-100305810D01*
X206019462Y-99947565D01*
X205804034Y-99625154D01*
X205529846Y-99350966D01*
X205207435Y-99135538D01*
X204849190Y-98987148D01*
X204468880Y-98911500D01*
X204081120Y-98911500D01*
X203700810Y-98987148D01*
X203342565Y-99135538D01*
X203020154Y-99350966D01*
X202745966Y-99625154D01*
X202530538Y-99947565D01*
X202382148Y-100305810D01*
X202306500Y-100686120D01*
X200467000Y-100686120D01*
X200467000Y-98275000D01*
X212405000Y-98275000D01*
X212528882Y-98262799D01*
X212648004Y-98226664D01*
X212757787Y-98167983D01*
X212854013Y-98089013D01*
X212932983Y-97992787D01*
X212991664Y-97883004D01*
X213027799Y-97763882D01*
X213040000Y-97640000D01*
X213040000Y-91951933D01*
X219644000Y-91951933D01*
X219644000Y-92152067D01*
X219683044Y-92348356D01*
X219744407Y-92496500D01*
X219683044Y-92644644D01*
X219644000Y-92840933D01*
X219644000Y-93041067D01*
X219683044Y-93237356D01*
X219744407Y-93385500D01*
X219683044Y-93533644D01*
X219644000Y-93729933D01*
X219644000Y-93930067D01*
X219683044Y-94126356D01*
X219759632Y-94311256D01*
X219870821Y-94477662D01*
X220012338Y-94619179D01*
X220178744Y-94730368D01*
X220363644Y-94806956D01*
X220559933Y-94846000D01*
X220760067Y-94846000D01*
X220956356Y-94806956D01*
X221141256Y-94730368D01*
X221307662Y-94619179D01*
X221449179Y-94477662D01*
X221560368Y-94311256D01*
X221636956Y-94126356D01*
X221676000Y-93930067D01*
X221676000Y-93729933D01*
X221636956Y-93533644D01*
X221575593Y-93385500D01*
X221636956Y-93237356D01*
X221676000Y-93041067D01*
X221676000Y-92840933D01*
X221636956Y-92644644D01*
X221575593Y-92496500D01*
X221636956Y-92348356D01*
X221676000Y-92152067D01*
X221676000Y-91951933D01*
X221636956Y-91755644D01*
X221560368Y-91570744D01*
X221449179Y-91404338D01*
X221307662Y-91262821D01*
X221141256Y-91151632D01*
X220956356Y-91075044D01*
X220760067Y-91036000D01*
X220559933Y-91036000D01*
X220363644Y-91075044D01*
X220178744Y-91151632D01*
X220012338Y-91262821D01*
X219870821Y-91404338D01*
X219759632Y-91570744D01*
X219683044Y-91755644D01*
X219644000Y-91951933D01*
X213040000Y-91951933D01*
X213040000Y-60810000D01*
X213027799Y-60686118D01*
X212991664Y-60566996D01*
X212932983Y-60457213D01*
X212854013Y-60360987D01*
X212757787Y-60282017D01*
X212648004Y-60223336D01*
X212528882Y-60187201D01*
X212405000Y-60175000D01*
X200467000Y-60175000D01*
X200467000Y-57634999D01*
X220094811Y-57634999D01*
X219071153Y-58318986D01*
X219071153Y-58318986D01*
G37*
X219071153Y-58318986D02*
X218168986Y-59221153D01*
X217460157Y-60281990D01*
X216971908Y-61460729D01*
X216723000Y-62712071D01*
X216723000Y-63987929D01*
X216971908Y-65239271D01*
X217460157Y-66418010D01*
X218168986Y-67478847D01*
X219071153Y-68381014D01*
X220131990Y-69089843D01*
X221310729Y-69578092D01*
X222562071Y-69827000D01*
X223837929Y-69827000D01*
X225089271Y-69578092D01*
X225770958Y-69295728D01*
X224202444Y-70864243D01*
X224168521Y-70892083D01*
X224057427Y-71027452D01*
X223985538Y-71161947D01*
X223974878Y-71181890D01*
X223932406Y-71321904D01*
X223924044Y-71349469D01*
X223911180Y-71480076D01*
X223911180Y-71480082D01*
X223906880Y-71523742D01*
X223911180Y-71567402D01*
X223911181Y-94313189D01*
X222997371Y-95227000D01*
X221158269Y-95227000D01*
X221141256Y-95215632D01*
X220956356Y-95139044D01*
X220760067Y-95100000D01*
X220559933Y-95100000D01*
X220363644Y-95139044D01*
X220178744Y-95215632D01*
X220012338Y-95326821D01*
X219870821Y-95468338D01*
X219759632Y-95634744D01*
X219683044Y-95819644D01*
X219644000Y-96015933D01*
X219644000Y-96216067D01*
X219683044Y-96412356D01*
X219759632Y-96597256D01*
X219870821Y-96763662D01*
X220012338Y-96905179D01*
X220178744Y-97016368D01*
X220363644Y-97092956D01*
X220559933Y-97132000D01*
X220760067Y-97132000D01*
X220956356Y-97092956D01*
X221141256Y-97016368D01*
X221158269Y-97005000D01*
X223321946Y-97005000D01*
X223365606Y-97009300D01*
X223409266Y-97005000D01*
X223409273Y-97005000D01*
X223539880Y-96992136D01*
X223707457Y-96941303D01*
X223861897Y-96858753D01*
X223997265Y-96747659D01*
X224000095Y-96744210D01*
X224048901Y-96776821D01*
X224210688Y-96843836D01*
X224382441Y-96878000D01*
X224557559Y-96878000D01*
X224729312Y-96843836D01*
X224891099Y-96776821D01*
X224940653Y-96743710D01*
X224978588Y-96739974D01*
X225122225Y-96696402D01*
X225166501Y-96672736D01*
X225173296Y-96679531D01*
X225318901Y-96776821D01*
X225480688Y-96843836D01*
X225652441Y-96878000D01*
X225827559Y-96878000D01*
X225999312Y-96843836D01*
X226161099Y-96776821D01*
X226306704Y-96679531D01*
X226430531Y-96555704D01*
X226527821Y-96410099D01*
X226594836Y-96248312D01*
X226629000Y-96076559D01*
X226629000Y-95901441D01*
X226594836Y-95729688D01*
X226527821Y-95567901D01*
X226502000Y-95529257D01*
X226502000Y-72228656D01*
X231256178Y-67474480D01*
X231285243Y-67450627D01*
X231309096Y-67421562D01*
X231309100Y-67421558D01*
X231380466Y-67334599D01*
X231451222Y-67202222D01*
X231451223Y-67202220D01*
X231494795Y-67058583D01*
X231505821Y-66946631D01*
X231505821Y-66946629D01*
X231509507Y-66909206D01*
X231505821Y-66871783D01*
X231505819Y-60422308D01*
X231724297Y-61065926D01*
X231949503Y-62198114D01*
X231963000Y-62404038D01*
X231963000Y-121706245D01*
X200467000Y-121643253D01*
X200467000Y-110586120D01*
X202306500Y-110586120D01*
X202306500Y-110973880D01*
X202382148Y-111354190D01*
X202530538Y-111712435D01*
X202745966Y-112034846D01*
X203020154Y-112309034D01*
X203342565Y-112524462D01*
X203700810Y-112672852D01*
X204081120Y-112748500D01*
X204468880Y-112748500D01*
X204849190Y-112672852D01*
X205207435Y-112524462D01*
X205529846Y-112309034D01*
X205804034Y-112034846D01*
X206019462Y-111712435D01*
X206167852Y-111354190D01*
X206243500Y-110973880D01*
X206243500Y-110586120D01*
X206167852Y-110205810D01*
X206019462Y-109847565D01*
X205804034Y-109525154D01*
X205529846Y-109250966D01*
X205207435Y-109035538D01*
X204849190Y-108887148D01*
X204468880Y-108811500D01*
X204081120Y-108811500D01*
X203700810Y-108887148D01*
X203342565Y-109035538D01*
X203020154Y-109250966D01*
X202745966Y-109525154D01*
X202530538Y-109847565D01*
X202382148Y-110205810D01*
X202306500Y-110586120D01*
X200467000Y-110586120D01*
X200467000Y-107203086D01*
X203081519Y-107203086D01*
X203217490Y-107501603D01*
X203563924Y-107675793D01*
X203937683Y-107779051D01*
X204324406Y-107807407D01*
X204709229Y-107759773D01*
X205077365Y-107637979D01*
X205332510Y-107501603D01*
X205468481Y-107203086D01*
X204275000Y-106009605D01*
X203081519Y-107203086D01*
X200467000Y-107203086D01*
X200467000Y-105879406D01*
X202297593Y-105879406D01*
X202345227Y-106264229D01*
X202467021Y-106632365D01*
X202603397Y-106887510D01*
X202901914Y-107023481D01*
X204095395Y-105830000D01*
X204454605Y-105830000D01*
X205648086Y-107023481D01*
X205946603Y-106887510D01*
X206120793Y-106541076D01*
X206224051Y-106167317D01*
X206252407Y-105780594D01*
X206204773Y-105395771D01*
X206082979Y-105027635D01*
X205946603Y-104772490D01*
X205648086Y-104636519D01*
X204454605Y-105830000D01*
X204095395Y-105830000D01*
X202901914Y-104636519D01*
X202603397Y-104772490D01*
X202429207Y-105118924D01*
X202325949Y-105492683D01*
X202297593Y-105879406D01*
X200467000Y-105879406D01*
X200467000Y-104456914D01*
X203081519Y-104456914D01*
X204275000Y-105650395D01*
X205468481Y-104456914D01*
X205332510Y-104158397D01*
X204986076Y-103984207D01*
X204612317Y-103880949D01*
X204225594Y-103852593D01*
X203840771Y-103900227D01*
X203472635Y-104022021D01*
X203217490Y-104158397D01*
X203081519Y-104456914D01*
X200467000Y-104456914D01*
X200467000Y-100686120D01*
X202306500Y-100686120D01*
X202306500Y-101073880D01*
X202382148Y-101454190D01*
X202530538Y-101812435D01*
X202745966Y-102134846D01*
X203020154Y-102409034D01*
X203342565Y-102624462D01*
X203700810Y-102772852D01*
X204081120Y-102848500D01*
X204468880Y-102848500D01*
X204849190Y-102772852D01*
X205207435Y-102624462D01*
X205529846Y-102409034D01*
X205804034Y-102134846D01*
X206019462Y-101812435D01*
X206167852Y-101454190D01*
X206243500Y-101073880D01*
X206243500Y-100686120D01*
X206167852Y-100305810D01*
X206019462Y-99947565D01*
X205804034Y-99625154D01*
X205529846Y-99350966D01*
X205207435Y-99135538D01*
X204849190Y-98987148D01*
X204468880Y-98911500D01*
X204081120Y-98911500D01*
X203700810Y-98987148D01*
X203342565Y-99135538D01*
X203020154Y-99350966D01*
X202745966Y-99625154D01*
X202530538Y-99947565D01*
X202382148Y-100305810D01*
X202306500Y-100686120D01*
X200467000Y-100686120D01*
X200467000Y-98275000D01*
X212405000Y-98275000D01*
X212528882Y-98262799D01*
X212648004Y-98226664D01*
X212757787Y-98167983D01*
X212854013Y-98089013D01*
X212932983Y-97992787D01*
X212991664Y-97883004D01*
X213027799Y-97763882D01*
X213040000Y-97640000D01*
X213040000Y-91951933D01*
X219644000Y-91951933D01*
X219644000Y-92152067D01*
X219683044Y-92348356D01*
X219744407Y-92496500D01*
X219683044Y-92644644D01*
X219644000Y-92840933D01*
X219644000Y-93041067D01*
X219683044Y-93237356D01*
X219744407Y-93385500D01*
X219683044Y-93533644D01*
X219644000Y-93729933D01*
X219644000Y-93930067D01*
X219683044Y-94126356D01*
X219759632Y-94311256D01*
X219870821Y-94477662D01*
X220012338Y-94619179D01*
X220178744Y-94730368D01*
X220363644Y-94806956D01*
X220559933Y-94846000D01*
X220760067Y-94846000D01*
X220956356Y-94806956D01*
X221141256Y-94730368D01*
X221307662Y-94619179D01*
X221449179Y-94477662D01*
X221560368Y-94311256D01*
X221636956Y-94126356D01*
X221676000Y-93930067D01*
X221676000Y-93729933D01*
X221636956Y-93533644D01*
X221575593Y-93385500D01*
X221636956Y-93237356D01*
X221676000Y-93041067D01*
X221676000Y-92840933D01*
X221636956Y-92644644D01*
X221575593Y-92496500D01*
X221636956Y-92348356D01*
X221676000Y-92152067D01*
X221676000Y-91951933D01*
X221636956Y-91755644D01*
X221560368Y-91570744D01*
X221449179Y-91404338D01*
X221307662Y-91262821D01*
X221141256Y-91151632D01*
X220956356Y-91075044D01*
X220760067Y-91036000D01*
X220559933Y-91036000D01*
X220363644Y-91075044D01*
X220178744Y-91151632D01*
X220012338Y-91262821D01*
X219870821Y-91404338D01*
X219759632Y-91570744D01*
X219683044Y-91755644D01*
X219644000Y-91951933D01*
X213040000Y-91951933D01*
X213040000Y-60810000D01*
X213027799Y-60686118D01*
X212991664Y-60566996D01*
X212932983Y-60457213D01*
X212854013Y-60360987D01*
X212757787Y-60282017D01*
X212648004Y-60223336D01*
X212528882Y-60187201D01*
X212405000Y-60175000D01*
X200467000Y-60175000D01*
X200467000Y-57634999D01*
X220094811Y-57634999D01*
X219071153Y-58318986D01*
G36*
X212278000Y-97513000D02*
G01*
X205372868Y-97513000D01*
X205468481Y-97303086D01*
X204275000Y-96109605D01*
X203081519Y-97303086D01*
X203177132Y-97513000D01*
X200467000Y-97513000D01*
X200467000Y-95979406D01*
X202297593Y-95979406D01*
X202345227Y-96364229D01*
X202467021Y-96732365D01*
X202603397Y-96987510D01*
X202901914Y-97123481D01*
X204095395Y-95930000D01*
X204454605Y-95930000D01*
X205648086Y-97123481D01*
X205946603Y-96987510D01*
X206120793Y-96641076D01*
X206224051Y-96267317D01*
X206252407Y-95880594D01*
X206204773Y-95495771D01*
X206082979Y-95127635D01*
X205946603Y-94872490D01*
X205648086Y-94736519D01*
X204454605Y-95930000D01*
X204095395Y-95930000D01*
X202901914Y-94736519D01*
X202603397Y-94872490D01*
X202429207Y-95218924D01*
X202325949Y-95592683D01*
X202297593Y-95979406D01*
X200467000Y-95979406D01*
X200467000Y-94556914D01*
X203081519Y-94556914D01*
X204275000Y-95750395D01*
X205468481Y-94556914D01*
X205332510Y-94258397D01*
X204986076Y-94084207D01*
X204612317Y-93980949D01*
X204225594Y-93952593D01*
X203840771Y-94000227D01*
X203472635Y-94122021D01*
X203217490Y-94258397D01*
X203081519Y-94556914D01*
X200467000Y-94556914D01*
X200467000Y-68915840D01*
X200535671Y-68902180D01*
X200904197Y-68749532D01*
X201235862Y-68527920D01*
X201395457Y-68368325D01*
X208631280Y-68368325D01*
X208774052Y-68672625D01*
X209130107Y-68852455D01*
X209514402Y-68959366D01*
X209912171Y-68989251D01*
X210308128Y-68940961D01*
X210687055Y-68816352D01*
X210955948Y-68672625D01*
X211098720Y-68368325D01*
X209865000Y-67134605D01*
X208631280Y-68368325D01*
X201395457Y-68368325D01*
X201517920Y-68245862D01*
X201739532Y-67914197D01*
X201892180Y-67545671D01*
X201970000Y-67154445D01*
X201970000Y-67002171D01*
X207830749Y-67002171D01*
X207879039Y-67398128D01*
X208003648Y-67777055D01*
X208147375Y-68045948D01*
X208451675Y-68188720D01*
X209685395Y-66955000D01*
X210044605Y-66955000D01*
X211278325Y-68188720D01*
X211582625Y-68045948D01*
X211762455Y-67689893D01*
X211869366Y-67305598D01*
X211899251Y-66907829D01*
X211850961Y-66511872D01*
X211726352Y-66132945D01*
X211582625Y-65864052D01*
X211278325Y-65721280D01*
X210044605Y-66955000D01*
X209685395Y-66955000D01*
X208451675Y-65721280D01*
X208147375Y-65864052D01*
X207967545Y-66220107D01*
X207860634Y-66604402D01*
X207830749Y-67002171D01*
X201970000Y-67002171D01*
X201970000Y-66755555D01*
X201892180Y-66364329D01*
X201739532Y-65995803D01*
X201517920Y-65664138D01*
X201235862Y-65382080D01*
X201045674Y-65255000D01*
X201235862Y-65127920D01*
X201395457Y-64968325D01*
X208631280Y-64968325D01*
X208765783Y-65255000D01*
X208631280Y-65541675D01*
X209865000Y-66775395D01*
X211098720Y-65541675D01*
X210964217Y-65255000D01*
X211098720Y-64968325D01*
X209865000Y-63734605D01*
X208631280Y-64968325D01*
X201395457Y-64968325D01*
X201517920Y-64845862D01*
X201739532Y-64514197D01*
X201892180Y-64145671D01*
X201970000Y-63754445D01*
X201970000Y-63602171D01*
X207830749Y-63602171D01*
X207879039Y-63998128D01*
X208003648Y-64377055D01*
X208147375Y-64645948D01*
X208451675Y-64788720D01*
X209685395Y-63555000D01*
X210044605Y-63555000D01*
X211278325Y-64788720D01*
X211582625Y-64645948D01*
X211762455Y-64289893D01*
X211869366Y-63905598D01*
X211899251Y-63507829D01*
X211850961Y-63111872D01*
X211726352Y-62732945D01*
X211582625Y-62464052D01*
X211278325Y-62321280D01*
X210044605Y-63555000D01*
X209685395Y-63555000D01*
X208451675Y-62321280D01*
X208147375Y-62464052D01*
X207967545Y-62820107D01*
X207860634Y-63204402D01*
X207830749Y-63602171D01*
X201970000Y-63602171D01*
X201970000Y-63355555D01*
X201892180Y-62964329D01*
X201739532Y-62595803D01*
X201517920Y-62264138D01*
X201395457Y-62141675D01*
X208631280Y-62141675D01*
X209865000Y-63375395D01*
X211098720Y-62141675D01*
X210955948Y-61837375D01*
X210599893Y-61657545D01*
X210215598Y-61550634D01*
X209817829Y-61520749D01*
X209421872Y-61569039D01*
X209042945Y-61693648D01*
X208774052Y-61837375D01*
X208631280Y-62141675D01*
X201395457Y-62141675D01*
X201235862Y-61982080D01*
X200904197Y-61760468D01*
X200535671Y-61607820D01*
X200467000Y-61594160D01*
X200467000Y-60937000D01*
X212278000Y-60937000D01*
X212278000Y-97513000D01*
X212278000Y-97513000D01*
G37*
X212278000Y-97513000D02*
X205372868Y-97513000D01*
X205468481Y-97303086D01*
X204275000Y-96109605D01*
X203081519Y-97303086D01*
X203177132Y-97513000D01*
X200467000Y-97513000D01*
X200467000Y-95979406D01*
X202297593Y-95979406D01*
X202345227Y-96364229D01*
X202467021Y-96732365D01*
X202603397Y-96987510D01*
X202901914Y-97123481D01*
X204095395Y-95930000D01*
X204454605Y-95930000D01*
X205648086Y-97123481D01*
X205946603Y-96987510D01*
X206120793Y-96641076D01*
X206224051Y-96267317D01*
X206252407Y-95880594D01*
X206204773Y-95495771D01*
X206082979Y-95127635D01*
X205946603Y-94872490D01*
X205648086Y-94736519D01*
X204454605Y-95930000D01*
X204095395Y-95930000D01*
X202901914Y-94736519D01*
X202603397Y-94872490D01*
X202429207Y-95218924D01*
X202325949Y-95592683D01*
X202297593Y-95979406D01*
X200467000Y-95979406D01*
X200467000Y-94556914D01*
X203081519Y-94556914D01*
X204275000Y-95750395D01*
X205468481Y-94556914D01*
X205332510Y-94258397D01*
X204986076Y-94084207D01*
X204612317Y-93980949D01*
X204225594Y-93952593D01*
X203840771Y-94000227D01*
X203472635Y-94122021D01*
X203217490Y-94258397D01*
X203081519Y-94556914D01*
X200467000Y-94556914D01*
X200467000Y-68915840D01*
X200535671Y-68902180D01*
X200904197Y-68749532D01*
X201235862Y-68527920D01*
X201395457Y-68368325D01*
X208631280Y-68368325D01*
X208774052Y-68672625D01*
X209130107Y-68852455D01*
X209514402Y-68959366D01*
X209912171Y-68989251D01*
X210308128Y-68940961D01*
X210687055Y-68816352D01*
X210955948Y-68672625D01*
X211098720Y-68368325D01*
X209865000Y-67134605D01*
X208631280Y-68368325D01*
X201395457Y-68368325D01*
X201517920Y-68245862D01*
X201739532Y-67914197D01*
X201892180Y-67545671D01*
X201970000Y-67154445D01*
X201970000Y-67002171D01*
X207830749Y-67002171D01*
X207879039Y-67398128D01*
X208003648Y-67777055D01*
X208147375Y-68045948D01*
X208451675Y-68188720D01*
X209685395Y-66955000D01*
X210044605Y-66955000D01*
X211278325Y-68188720D01*
X211582625Y-68045948D01*
X211762455Y-67689893D01*
X211869366Y-67305598D01*
X211899251Y-66907829D01*
X211850961Y-66511872D01*
X211726352Y-66132945D01*
X211582625Y-65864052D01*
X211278325Y-65721280D01*
X210044605Y-66955000D01*
X209685395Y-66955000D01*
X208451675Y-65721280D01*
X208147375Y-65864052D01*
X207967545Y-66220107D01*
X207860634Y-66604402D01*
X207830749Y-67002171D01*
X201970000Y-67002171D01*
X201970000Y-66755555D01*
X201892180Y-66364329D01*
X201739532Y-65995803D01*
X201517920Y-65664138D01*
X201235862Y-65382080D01*
X201045674Y-65255000D01*
X201235862Y-65127920D01*
X201395457Y-64968325D01*
X208631280Y-64968325D01*
X208765783Y-65255000D01*
X208631280Y-65541675D01*
X209865000Y-66775395D01*
X211098720Y-65541675D01*
X210964217Y-65255000D01*
X211098720Y-64968325D01*
X209865000Y-63734605D01*
X208631280Y-64968325D01*
X201395457Y-64968325D01*
X201517920Y-64845862D01*
X201739532Y-64514197D01*
X201892180Y-64145671D01*
X201970000Y-63754445D01*
X201970000Y-63602171D01*
X207830749Y-63602171D01*
X207879039Y-63998128D01*
X208003648Y-64377055D01*
X208147375Y-64645948D01*
X208451675Y-64788720D01*
X209685395Y-63555000D01*
X210044605Y-63555000D01*
X211278325Y-64788720D01*
X211582625Y-64645948D01*
X211762455Y-64289893D01*
X211869366Y-63905598D01*
X211899251Y-63507829D01*
X211850961Y-63111872D01*
X211726352Y-62732945D01*
X211582625Y-62464052D01*
X211278325Y-62321280D01*
X210044605Y-63555000D01*
X209685395Y-63555000D01*
X208451675Y-62321280D01*
X208147375Y-62464052D01*
X207967545Y-62820107D01*
X207860634Y-63204402D01*
X207830749Y-63602171D01*
X201970000Y-63602171D01*
X201970000Y-63355555D01*
X201892180Y-62964329D01*
X201739532Y-62595803D01*
X201517920Y-62264138D01*
X201395457Y-62141675D01*
X208631280Y-62141675D01*
X209865000Y-63375395D01*
X211098720Y-62141675D01*
X210955948Y-61837375D01*
X210599893Y-61657545D01*
X210215598Y-61550634D01*
X209817829Y-61520749D01*
X209421872Y-61569039D01*
X209042945Y-61693648D01*
X208774052Y-61837375D01*
X208631280Y-62141675D01*
X201395457Y-62141675D01*
X201235862Y-61982080D01*
X200904197Y-61760468D01*
X200535671Y-61607820D01*
X200467000Y-61594160D01*
X200467000Y-60937000D01*
X212278000Y-60937000D01*
X212278000Y-97513000D01*
M02*
