G04 #@! TF.GenerationSoftware,KiCad,Pcbnew,(5.1.4-0-10_14)*
G04 #@! TF.CreationDate,2019-11-24T16:19:00-06:00*
G04 #@! TF.ProjectId,WiFi-Gate-Control-Board,57694669-2d47-4617-9465-2d436f6e7472,rev?*
G04 #@! TF.SameCoordinates,Original*
G04 #@! TF.FileFunction,Soldermask,Bot*
G04 #@! TF.FilePolarity,Negative*
%FSLAX46Y46*%
G04 Gerber Fmt 4.6, Leading zero omitted, Abs format (unit mm)*
G04 Created by KiCad (PCBNEW (5.1.4-0-10_14)) date 2019-11-24 16:19:00*
%MOMM*%
%LPD*%
G04 APERTURE LIST*
%ADD10C,2.400000*%
%ADD11R,2.400000X2.400000*%
%ADD12C,1.500000*%
%ADD13C,2.667000*%
%ADD14R,2.667000X2.667000*%
%ADD15C,12.700000*%
%ADD16O,2.999999X2.500000*%
%ADD17O,3.000000X2.500000*%
%ADD18C,11.430000*%
%ADD19C,1.778000*%
%ADD20R,1.778000X1.778000*%
%ADD21O,3.600000X2.080000*%
%ADD22C,0.152400*%
%ADD23C,2.080000*%
%ADD24O,2.080000X3.600000*%
%ADD25C,2.780000*%
%ADD26C,1.850000*%
%ADD27C,0.840000*%
%ADD28R,0.840000X0.840000*%
G04 APERTURE END LIST*
D10*
X218120000Y-76805000D03*
D11*
X218120000Y-84305000D03*
D12*
X188402000Y-148440000D03*
X181925000Y-148440000D03*
D13*
X204275000Y-95930000D03*
X204275000Y-100880000D03*
X204275000Y-105830000D03*
X204275000Y-110780000D03*
X195135000Y-95930000D03*
X195135000Y-100880000D03*
X195135000Y-105830000D03*
D14*
X195135000Y-110780000D03*
D15*
X223200000Y-63350000D03*
D10*
X181290000Y-76805000D03*
D11*
X181290000Y-84305000D03*
D16*
X115885000Y-68350000D03*
X115885000Y-63350000D03*
D17*
X128385000Y-68350000D03*
D16*
X128385000Y-63350000D03*
D17*
X140650000Y-113595000D03*
X140650000Y-118595000D03*
D16*
X128150000Y-113595000D03*
X128150000Y-118595000D03*
D18*
X102677000Y-79987000D03*
D19*
X205420000Y-164315000D03*
X205420000Y-159235000D03*
X205420000Y-149075000D03*
D20*
X205420000Y-146535000D03*
D19*
X205420000Y-188445000D03*
X205420000Y-183365000D03*
X205420000Y-173205000D03*
D20*
X205420000Y-170665000D03*
D21*
X218755000Y-164315000D03*
X218755000Y-159235000D03*
X218755000Y-154155000D03*
D22*
G36*
X220329505Y-148036204D02*
G01*
X220353773Y-148039804D01*
X220377572Y-148045765D01*
X220400671Y-148054030D01*
X220422850Y-148064520D01*
X220443893Y-148077132D01*
X220463599Y-148091747D01*
X220481777Y-148108223D01*
X220498253Y-148126401D01*
X220512868Y-148146107D01*
X220525480Y-148167150D01*
X220535970Y-148189329D01*
X220544235Y-148212428D01*
X220550196Y-148236227D01*
X220553796Y-148260495D01*
X220555000Y-148284999D01*
X220555000Y-149865001D01*
X220553796Y-149889505D01*
X220550196Y-149913773D01*
X220544235Y-149937572D01*
X220535970Y-149960671D01*
X220525480Y-149982850D01*
X220512868Y-150003893D01*
X220498253Y-150023599D01*
X220481777Y-150041777D01*
X220463599Y-150058253D01*
X220443893Y-150072868D01*
X220422850Y-150085480D01*
X220400671Y-150095970D01*
X220377572Y-150104235D01*
X220353773Y-150110196D01*
X220329505Y-150113796D01*
X220305001Y-150115000D01*
X217204999Y-150115000D01*
X217180495Y-150113796D01*
X217156227Y-150110196D01*
X217132428Y-150104235D01*
X217109329Y-150095970D01*
X217087150Y-150085480D01*
X217066107Y-150072868D01*
X217046401Y-150058253D01*
X217028223Y-150041777D01*
X217011747Y-150023599D01*
X216997132Y-150003893D01*
X216984520Y-149982850D01*
X216974030Y-149960671D01*
X216965765Y-149937572D01*
X216959804Y-149913773D01*
X216956204Y-149889505D01*
X216955000Y-149865001D01*
X216955000Y-148284999D01*
X216956204Y-148260495D01*
X216959804Y-148236227D01*
X216965765Y-148212428D01*
X216974030Y-148189329D01*
X216984520Y-148167150D01*
X216997132Y-148146107D01*
X217011747Y-148126401D01*
X217028223Y-148108223D01*
X217046401Y-148091747D01*
X217066107Y-148077132D01*
X217087150Y-148064520D01*
X217109329Y-148054030D01*
X217132428Y-148045765D01*
X217156227Y-148039804D01*
X217180495Y-148036204D01*
X217204999Y-148035000D01*
X220305001Y-148035000D01*
X220329505Y-148036204D01*
X220329505Y-148036204D01*
G37*
D23*
X218755000Y-149075000D03*
D21*
X218755000Y-188445000D03*
X218755000Y-183365000D03*
X218755000Y-178285000D03*
D22*
G36*
X220329505Y-172166204D02*
G01*
X220353773Y-172169804D01*
X220377572Y-172175765D01*
X220400671Y-172184030D01*
X220422850Y-172194520D01*
X220443893Y-172207132D01*
X220463599Y-172221747D01*
X220481777Y-172238223D01*
X220498253Y-172256401D01*
X220512868Y-172276107D01*
X220525480Y-172297150D01*
X220535970Y-172319329D01*
X220544235Y-172342428D01*
X220550196Y-172366227D01*
X220553796Y-172390495D01*
X220555000Y-172414999D01*
X220555000Y-173995001D01*
X220553796Y-174019505D01*
X220550196Y-174043773D01*
X220544235Y-174067572D01*
X220535970Y-174090671D01*
X220525480Y-174112850D01*
X220512868Y-174133893D01*
X220498253Y-174153599D01*
X220481777Y-174171777D01*
X220463599Y-174188253D01*
X220443893Y-174202868D01*
X220422850Y-174215480D01*
X220400671Y-174225970D01*
X220377572Y-174234235D01*
X220353773Y-174240196D01*
X220329505Y-174243796D01*
X220305001Y-174245000D01*
X217204999Y-174245000D01*
X217180495Y-174243796D01*
X217156227Y-174240196D01*
X217132428Y-174234235D01*
X217109329Y-174225970D01*
X217087150Y-174215480D01*
X217066107Y-174202868D01*
X217046401Y-174188253D01*
X217028223Y-174171777D01*
X217011747Y-174153599D01*
X216997132Y-174133893D01*
X216984520Y-174112850D01*
X216974030Y-174090671D01*
X216965765Y-174067572D01*
X216959804Y-174043773D01*
X216956204Y-174019505D01*
X216955000Y-173995001D01*
X216955000Y-172414999D01*
X216956204Y-172390495D01*
X216959804Y-172366227D01*
X216965765Y-172342428D01*
X216974030Y-172319329D01*
X216984520Y-172297150D01*
X216997132Y-172276107D01*
X217011747Y-172256401D01*
X217028223Y-172238223D01*
X217046401Y-172221747D01*
X217066107Y-172207132D01*
X217087150Y-172194520D01*
X217109329Y-172184030D01*
X217132428Y-172175765D01*
X217156227Y-172169804D01*
X217180495Y-172166204D01*
X217204999Y-172165000D01*
X220305001Y-172165000D01*
X220329505Y-172166204D01*
X220329505Y-172166204D01*
G37*
D23*
X218755000Y-173205000D03*
D24*
X189545000Y-199240000D03*
D22*
G36*
X195439505Y-197441204D02*
G01*
X195463773Y-197444804D01*
X195487572Y-197450765D01*
X195510671Y-197459030D01*
X195532850Y-197469520D01*
X195553893Y-197482132D01*
X195573599Y-197496747D01*
X195591777Y-197513223D01*
X195608253Y-197531401D01*
X195622868Y-197551107D01*
X195635480Y-197572150D01*
X195645970Y-197594329D01*
X195654235Y-197617428D01*
X195660196Y-197641227D01*
X195663796Y-197665495D01*
X195665000Y-197689999D01*
X195665000Y-200790001D01*
X195663796Y-200814505D01*
X195660196Y-200838773D01*
X195654235Y-200862572D01*
X195645970Y-200885671D01*
X195635480Y-200907850D01*
X195622868Y-200928893D01*
X195608253Y-200948599D01*
X195591777Y-200966777D01*
X195573599Y-200983253D01*
X195553893Y-200997868D01*
X195532850Y-201010480D01*
X195510671Y-201020970D01*
X195487572Y-201029235D01*
X195463773Y-201035196D01*
X195439505Y-201038796D01*
X195415001Y-201040000D01*
X193834999Y-201040000D01*
X193810495Y-201038796D01*
X193786227Y-201035196D01*
X193762428Y-201029235D01*
X193739329Y-201020970D01*
X193717150Y-201010480D01*
X193696107Y-200997868D01*
X193676401Y-200983253D01*
X193658223Y-200966777D01*
X193641747Y-200948599D01*
X193627132Y-200928893D01*
X193614520Y-200907850D01*
X193604030Y-200885671D01*
X193595765Y-200862572D01*
X193589804Y-200838773D01*
X193586204Y-200814505D01*
X193585000Y-200790001D01*
X193585000Y-197689999D01*
X193586204Y-197665495D01*
X193589804Y-197641227D01*
X193595765Y-197617428D01*
X193604030Y-197594329D01*
X193614520Y-197572150D01*
X193627132Y-197551107D01*
X193641747Y-197531401D01*
X193658223Y-197513223D01*
X193676401Y-197496747D01*
X193696107Y-197482132D01*
X193717150Y-197469520D01*
X193739329Y-197459030D01*
X193762428Y-197450765D01*
X193786227Y-197444804D01*
X193810495Y-197441204D01*
X193834999Y-197440000D01*
X195415001Y-197440000D01*
X195439505Y-197441204D01*
X195439505Y-197441204D01*
G37*
D23*
X194625000Y-199240000D03*
D24*
X165415000Y-199240000D03*
X170495000Y-199240000D03*
X175575000Y-199240000D03*
D22*
G36*
X181469505Y-197441204D02*
G01*
X181493773Y-197444804D01*
X181517572Y-197450765D01*
X181540671Y-197459030D01*
X181562850Y-197469520D01*
X181583893Y-197482132D01*
X181603599Y-197496747D01*
X181621777Y-197513223D01*
X181638253Y-197531401D01*
X181652868Y-197551107D01*
X181665480Y-197572150D01*
X181675970Y-197594329D01*
X181684235Y-197617428D01*
X181690196Y-197641227D01*
X181693796Y-197665495D01*
X181695000Y-197689999D01*
X181695000Y-200790001D01*
X181693796Y-200814505D01*
X181690196Y-200838773D01*
X181684235Y-200862572D01*
X181675970Y-200885671D01*
X181665480Y-200907850D01*
X181652868Y-200928893D01*
X181638253Y-200948599D01*
X181621777Y-200966777D01*
X181603599Y-200983253D01*
X181583893Y-200997868D01*
X181562850Y-201010480D01*
X181540671Y-201020970D01*
X181517572Y-201029235D01*
X181493773Y-201035196D01*
X181469505Y-201038796D01*
X181445001Y-201040000D01*
X179864999Y-201040000D01*
X179840495Y-201038796D01*
X179816227Y-201035196D01*
X179792428Y-201029235D01*
X179769329Y-201020970D01*
X179747150Y-201010480D01*
X179726107Y-200997868D01*
X179706401Y-200983253D01*
X179688223Y-200966777D01*
X179671747Y-200948599D01*
X179657132Y-200928893D01*
X179644520Y-200907850D01*
X179634030Y-200885671D01*
X179625765Y-200862572D01*
X179619804Y-200838773D01*
X179616204Y-200814505D01*
X179615000Y-200790001D01*
X179615000Y-197689999D01*
X179616204Y-197665495D01*
X179619804Y-197641227D01*
X179625765Y-197617428D01*
X179634030Y-197594329D01*
X179644520Y-197572150D01*
X179657132Y-197551107D01*
X179671747Y-197531401D01*
X179688223Y-197513223D01*
X179706401Y-197496747D01*
X179726107Y-197482132D01*
X179747150Y-197469520D01*
X179769329Y-197459030D01*
X179792428Y-197450765D01*
X179816227Y-197444804D01*
X179840495Y-197441204D01*
X179864999Y-197440000D01*
X181445001Y-197440000D01*
X181469505Y-197441204D01*
X181469505Y-197441204D01*
G37*
D23*
X180655000Y-199240000D03*
D24*
X141285000Y-199240000D03*
X146365000Y-199240000D03*
X151445000Y-199240000D03*
D22*
G36*
X157339505Y-197441204D02*
G01*
X157363773Y-197444804D01*
X157387572Y-197450765D01*
X157410671Y-197459030D01*
X157432850Y-197469520D01*
X157453893Y-197482132D01*
X157473599Y-197496747D01*
X157491777Y-197513223D01*
X157508253Y-197531401D01*
X157522868Y-197551107D01*
X157535480Y-197572150D01*
X157545970Y-197594329D01*
X157554235Y-197617428D01*
X157560196Y-197641227D01*
X157563796Y-197665495D01*
X157565000Y-197689999D01*
X157565000Y-200790001D01*
X157563796Y-200814505D01*
X157560196Y-200838773D01*
X157554235Y-200862572D01*
X157545970Y-200885671D01*
X157535480Y-200907850D01*
X157522868Y-200928893D01*
X157508253Y-200948599D01*
X157491777Y-200966777D01*
X157473599Y-200983253D01*
X157453893Y-200997868D01*
X157432850Y-201010480D01*
X157410671Y-201020970D01*
X157387572Y-201029235D01*
X157363773Y-201035196D01*
X157339505Y-201038796D01*
X157315001Y-201040000D01*
X155734999Y-201040000D01*
X155710495Y-201038796D01*
X155686227Y-201035196D01*
X155662428Y-201029235D01*
X155639329Y-201020970D01*
X155617150Y-201010480D01*
X155596107Y-200997868D01*
X155576401Y-200983253D01*
X155558223Y-200966777D01*
X155541747Y-200948599D01*
X155527132Y-200928893D01*
X155514520Y-200907850D01*
X155504030Y-200885671D01*
X155495765Y-200862572D01*
X155489804Y-200838773D01*
X155486204Y-200814505D01*
X155485000Y-200790001D01*
X155485000Y-197689999D01*
X155486204Y-197665495D01*
X155489804Y-197641227D01*
X155495765Y-197617428D01*
X155504030Y-197594329D01*
X155514520Y-197572150D01*
X155527132Y-197551107D01*
X155541747Y-197531401D01*
X155558223Y-197513223D01*
X155576401Y-197496747D01*
X155596107Y-197482132D01*
X155617150Y-197469520D01*
X155639329Y-197459030D01*
X155662428Y-197450765D01*
X155686227Y-197444804D01*
X155710495Y-197441204D01*
X155734999Y-197440000D01*
X157315001Y-197440000D01*
X157339505Y-197441204D01*
X157339505Y-197441204D01*
G37*
D23*
X156525000Y-199240000D03*
D24*
X117155000Y-199240000D03*
X122235000Y-199240000D03*
X127315000Y-199240000D03*
D22*
G36*
X133209505Y-197441204D02*
G01*
X133233773Y-197444804D01*
X133257572Y-197450765D01*
X133280671Y-197459030D01*
X133302850Y-197469520D01*
X133323893Y-197482132D01*
X133343599Y-197496747D01*
X133361777Y-197513223D01*
X133378253Y-197531401D01*
X133392868Y-197551107D01*
X133405480Y-197572150D01*
X133415970Y-197594329D01*
X133424235Y-197617428D01*
X133430196Y-197641227D01*
X133433796Y-197665495D01*
X133435000Y-197689999D01*
X133435000Y-200790001D01*
X133433796Y-200814505D01*
X133430196Y-200838773D01*
X133424235Y-200862572D01*
X133415970Y-200885671D01*
X133405480Y-200907850D01*
X133392868Y-200928893D01*
X133378253Y-200948599D01*
X133361777Y-200966777D01*
X133343599Y-200983253D01*
X133323893Y-200997868D01*
X133302850Y-201010480D01*
X133280671Y-201020970D01*
X133257572Y-201029235D01*
X133233773Y-201035196D01*
X133209505Y-201038796D01*
X133185001Y-201040000D01*
X131604999Y-201040000D01*
X131580495Y-201038796D01*
X131556227Y-201035196D01*
X131532428Y-201029235D01*
X131509329Y-201020970D01*
X131487150Y-201010480D01*
X131466107Y-200997868D01*
X131446401Y-200983253D01*
X131428223Y-200966777D01*
X131411747Y-200948599D01*
X131397132Y-200928893D01*
X131384520Y-200907850D01*
X131374030Y-200885671D01*
X131365765Y-200862572D01*
X131359804Y-200838773D01*
X131356204Y-200814505D01*
X131355000Y-200790001D01*
X131355000Y-197689999D01*
X131356204Y-197665495D01*
X131359804Y-197641227D01*
X131365765Y-197617428D01*
X131374030Y-197594329D01*
X131384520Y-197572150D01*
X131397132Y-197551107D01*
X131411747Y-197531401D01*
X131428223Y-197513223D01*
X131446401Y-197496747D01*
X131466107Y-197482132D01*
X131487150Y-197469520D01*
X131509329Y-197459030D01*
X131532428Y-197450765D01*
X131556227Y-197444804D01*
X131580495Y-197441204D01*
X131604999Y-197440000D01*
X133185001Y-197440000D01*
X133209505Y-197441204D01*
X133209505Y-197441204D01*
G37*
D23*
X132395000Y-199240000D03*
D21*
X106360000Y-173205000D03*
X106360000Y-178285000D03*
X106360000Y-183365000D03*
D22*
G36*
X107934505Y-187406204D02*
G01*
X107958773Y-187409804D01*
X107982572Y-187415765D01*
X108005671Y-187424030D01*
X108027850Y-187434520D01*
X108048893Y-187447132D01*
X108068599Y-187461747D01*
X108086777Y-187478223D01*
X108103253Y-187496401D01*
X108117868Y-187516107D01*
X108130480Y-187537150D01*
X108140970Y-187559329D01*
X108149235Y-187582428D01*
X108155196Y-187606227D01*
X108158796Y-187630495D01*
X108160000Y-187654999D01*
X108160000Y-189235001D01*
X108158796Y-189259505D01*
X108155196Y-189283773D01*
X108149235Y-189307572D01*
X108140970Y-189330671D01*
X108130480Y-189352850D01*
X108117868Y-189373893D01*
X108103253Y-189393599D01*
X108086777Y-189411777D01*
X108068599Y-189428253D01*
X108048893Y-189442868D01*
X108027850Y-189455480D01*
X108005671Y-189465970D01*
X107982572Y-189474235D01*
X107958773Y-189480196D01*
X107934505Y-189483796D01*
X107910001Y-189485000D01*
X104809999Y-189485000D01*
X104785495Y-189483796D01*
X104761227Y-189480196D01*
X104737428Y-189474235D01*
X104714329Y-189465970D01*
X104692150Y-189455480D01*
X104671107Y-189442868D01*
X104651401Y-189428253D01*
X104633223Y-189411777D01*
X104616747Y-189393599D01*
X104602132Y-189373893D01*
X104589520Y-189352850D01*
X104579030Y-189330671D01*
X104570765Y-189307572D01*
X104564804Y-189283773D01*
X104561204Y-189259505D01*
X104560000Y-189235001D01*
X104560000Y-187654999D01*
X104561204Y-187630495D01*
X104564804Y-187606227D01*
X104570765Y-187582428D01*
X104579030Y-187559329D01*
X104589520Y-187537150D01*
X104602132Y-187516107D01*
X104616747Y-187496401D01*
X104633223Y-187478223D01*
X104651401Y-187461747D01*
X104671107Y-187447132D01*
X104692150Y-187434520D01*
X104714329Y-187424030D01*
X104737428Y-187415765D01*
X104761227Y-187409804D01*
X104785495Y-187406204D01*
X104809999Y-187405000D01*
X107910001Y-187405000D01*
X107934505Y-187406204D01*
X107934505Y-187406204D01*
G37*
D23*
X106360000Y-188445000D03*
D21*
X106360000Y-149075000D03*
X106360000Y-154155000D03*
X106360000Y-159235000D03*
D22*
G36*
X107934505Y-163276204D02*
G01*
X107958773Y-163279804D01*
X107982572Y-163285765D01*
X108005671Y-163294030D01*
X108027850Y-163304520D01*
X108048893Y-163317132D01*
X108068599Y-163331747D01*
X108086777Y-163348223D01*
X108103253Y-163366401D01*
X108117868Y-163386107D01*
X108130480Y-163407150D01*
X108140970Y-163429329D01*
X108149235Y-163452428D01*
X108155196Y-163476227D01*
X108158796Y-163500495D01*
X108160000Y-163524999D01*
X108160000Y-165105001D01*
X108158796Y-165129505D01*
X108155196Y-165153773D01*
X108149235Y-165177572D01*
X108140970Y-165200671D01*
X108130480Y-165222850D01*
X108117868Y-165243893D01*
X108103253Y-165263599D01*
X108086777Y-165281777D01*
X108068599Y-165298253D01*
X108048893Y-165312868D01*
X108027850Y-165325480D01*
X108005671Y-165335970D01*
X107982572Y-165344235D01*
X107958773Y-165350196D01*
X107934505Y-165353796D01*
X107910001Y-165355000D01*
X104809999Y-165355000D01*
X104785495Y-165353796D01*
X104761227Y-165350196D01*
X104737428Y-165344235D01*
X104714329Y-165335970D01*
X104692150Y-165325480D01*
X104671107Y-165312868D01*
X104651401Y-165298253D01*
X104633223Y-165281777D01*
X104616747Y-165263599D01*
X104602132Y-165243893D01*
X104589520Y-165222850D01*
X104579030Y-165200671D01*
X104570765Y-165177572D01*
X104564804Y-165153773D01*
X104561204Y-165129505D01*
X104560000Y-165105001D01*
X104560000Y-163524999D01*
X104561204Y-163500495D01*
X104564804Y-163476227D01*
X104570765Y-163452428D01*
X104579030Y-163429329D01*
X104589520Y-163407150D01*
X104602132Y-163386107D01*
X104616747Y-163366401D01*
X104633223Y-163348223D01*
X104651401Y-163331747D01*
X104671107Y-163317132D01*
X104692150Y-163304520D01*
X104714329Y-163294030D01*
X104737428Y-163285765D01*
X104761227Y-163279804D01*
X104785495Y-163276204D01*
X104809999Y-163275000D01*
X107910001Y-163275000D01*
X107934505Y-163276204D01*
X107934505Y-163276204D01*
G37*
D23*
X106360000Y-164315000D03*
D21*
X106360000Y-124945000D03*
X106360000Y-130025000D03*
X106360000Y-135105000D03*
D22*
G36*
X107934505Y-139146204D02*
G01*
X107958773Y-139149804D01*
X107982572Y-139155765D01*
X108005671Y-139164030D01*
X108027850Y-139174520D01*
X108048893Y-139187132D01*
X108068599Y-139201747D01*
X108086777Y-139218223D01*
X108103253Y-139236401D01*
X108117868Y-139256107D01*
X108130480Y-139277150D01*
X108140970Y-139299329D01*
X108149235Y-139322428D01*
X108155196Y-139346227D01*
X108158796Y-139370495D01*
X108160000Y-139394999D01*
X108160000Y-140975001D01*
X108158796Y-140999505D01*
X108155196Y-141023773D01*
X108149235Y-141047572D01*
X108140970Y-141070671D01*
X108130480Y-141092850D01*
X108117868Y-141113893D01*
X108103253Y-141133599D01*
X108086777Y-141151777D01*
X108068599Y-141168253D01*
X108048893Y-141182868D01*
X108027850Y-141195480D01*
X108005671Y-141205970D01*
X107982572Y-141214235D01*
X107958773Y-141220196D01*
X107934505Y-141223796D01*
X107910001Y-141225000D01*
X104809999Y-141225000D01*
X104785495Y-141223796D01*
X104761227Y-141220196D01*
X104737428Y-141214235D01*
X104714329Y-141205970D01*
X104692150Y-141195480D01*
X104671107Y-141182868D01*
X104651401Y-141168253D01*
X104633223Y-141151777D01*
X104616747Y-141133599D01*
X104602132Y-141113893D01*
X104589520Y-141092850D01*
X104579030Y-141070671D01*
X104570765Y-141047572D01*
X104564804Y-141023773D01*
X104561204Y-140999505D01*
X104560000Y-140975001D01*
X104560000Y-139394999D01*
X104561204Y-139370495D01*
X104564804Y-139346227D01*
X104570765Y-139322428D01*
X104579030Y-139299329D01*
X104589520Y-139277150D01*
X104602132Y-139256107D01*
X104616747Y-139236401D01*
X104633223Y-139218223D01*
X104651401Y-139201747D01*
X104671107Y-139187132D01*
X104692150Y-139174520D01*
X104714329Y-139164030D01*
X104737428Y-139155765D01*
X104761227Y-139149804D01*
X104785495Y-139146204D01*
X104809999Y-139145000D01*
X107910001Y-139145000D01*
X107934505Y-139146204D01*
X107934505Y-139146204D01*
G37*
D23*
X106360000Y-140185000D03*
D15*
X223200000Y-203050000D03*
X102550000Y-203050000D03*
X102550000Y-63350000D03*
D25*
X194738000Y-63555000D03*
X194738000Y-66955000D03*
X204658000Y-63555000D03*
X204658000Y-66955000D03*
D26*
X137555000Y-66180000D03*
X144705000Y-66180000D03*
D27*
X139830000Y-66400000D03*
X140480000Y-65400000D03*
X141130000Y-66400000D03*
X141780000Y-65400000D03*
D28*
X142430000Y-66400000D03*
M02*
