M48
; DRILL file {KiCad (5.1.4-0-10_14)} date Monday, October 21, 2019 at 05:27:56 AM
; FORMAT={-:-/ absolute / inch / decimal}
; #@! TF.CreationDate,2019-10-21T05:27:56-05:00
; #@! TF.GenerationSoftware,Kicad,Pcbnew,(5.1.4-0-10_14)
FMAT,2
INCH
T1C0.0100
T2C0.0130
T3C0.0150
T4C0.0173
T5C0.0250
T6C0.0450
T7C0.0472
T8C0.0531
T9C0.0551
T10C0.0700
T11C0.0701
T12C0.1575
T13C0.2500
%
G90
G05
T1
X4.4124Y-3.5691
X4.5224Y-3.3935
X4.6624Y-4.2691
X4.6874Y-4.2951
X4.6874Y-4.3941
X4.7124Y-4.3191
X4.7124Y-4.3691
X4.7374Y-4.3441
X4.7624Y-3.1891
X4.7624Y-3.5691
X4.8124Y-3.8691
X4.8128Y-3.8427
X4.9024Y-6.7906
X4.9124Y-4.0191
X4.9224Y-6.8491
X4.9324Y-3.3941
X4.9474Y-6.7906
X4.9574Y-6.8491
X5.0624Y-3.5391
X5.0904Y-3.5511
X5.0974Y-3.8191
X5.1683Y-4.0632
X5.1874Y-4.3941
X5.1946Y-3.8691
X5.2074Y-4.3691
X5.2138Y-3.7691
X5.2374Y-4.0391
X5.2474Y-2.6289
X5.2674Y-4.0691
X5.3024Y-3.4291
X5.3064Y-4.5391
X5.3174Y-4.3441
X5.3331Y-4.2691
X5.3524Y-4.3191
X5.3724Y-4.2951
X5.3924Y-3.9931
X5.3924Y-4.0191
X5.4044Y-4.4722
X5.4274Y-3.1891
X5.4724Y-6.3341
X5.5124Y-6.3341
X5.5424Y-6.3091
X5.6074Y-6.3291
X5.6224Y-3.5926
X5.75Y-4.172
X5.7547Y-2.8016
X5.7787Y-3.181
X5.7787Y-3.201
X5.7787Y-3.221
X5.7787Y-3.241
X5.7787Y-3.261
X5.7855Y-4.2469
X5.7896Y-4.4713
X5.7901Y-2.8764
X5.7942Y-3.1009
X5.8087Y-3.181
X5.8087Y-3.201
X5.8087Y-3.221
X5.8087Y-3.241
X5.8087Y-3.261
X5.8624Y-3.7341
X5.9392Y-4.2783
X5.9392Y-4.3098
X5.9438Y-2.9394
X5.9874Y-2.3441
X6.1324Y-4.4366
X6.1324Y-4.4616
X6.1324Y-4.4866
X6.1324Y-4.5116
X6.1324Y-4.5366
X6.1324Y-4.5616
X6.1374Y-3.0666
X6.1374Y-3.0916
X6.1374Y-3.1166
X6.1374Y-3.1416
X6.1374Y-3.1666
X6.1374Y-3.1916
X6.1474Y-4.4141
X6.1474Y-4.5841
X6.1524Y-3.0441
X6.1524Y-3.2141
X6.1624Y-3.7991
X6.1724Y-4.4141
X6.1724Y-4.5841
X6.1774Y-3.0441
X6.1774Y-3.2141
X6.1974Y-4.4141
X6.1974Y-4.5841
X6.2024Y-3.0441
X6.2024Y-3.2141
X6.2124Y-3.7341
X6.2224Y-4.4141
X6.2224Y-4.5841
X6.2274Y-3.0441
X6.2274Y-3.2141
X6.2474Y-4.4141
X6.2474Y-4.5841
X6.2524Y-3.0441
X6.2524Y-3.2141
X6.2624Y-4.4366
X6.2624Y-4.4616
X6.2624Y-4.4866
X6.2624Y-4.5116
X6.2624Y-4.5366
X6.2624Y-4.5616
X6.2674Y-3.0666
X6.2674Y-3.0916
X6.2674Y-3.1166
X6.2674Y-3.1416
X6.2674Y-3.1666
X6.2674Y-3.1916
X6.3574Y-3.7341
X6.3574Y-3.7991
X6.3624Y-2.3815
X6.6724Y-5.8816
X6.7274Y-6.7242
X6.8284Y-6.6891
X6.8374Y-5.9191
X6.8574Y-5.9491
X6.8574Y-5.9891
X6.8624Y-6.7541
X6.8874Y-6.771
X6.9874Y-3.9991
X6.9874Y-4.7441
X6.9874Y-5.1791
X7.0224Y-4.7441
X7.0224Y-5.2041
X7.0374Y-3.7841
X7.1504Y-6.8441
X7.6874Y-6.3441
X7.6874Y-6.4191
X8.8374Y-3.7791
X8.8874Y-3.7791
X5.8454Y-2.9237
X5.8887Y-2.9237
X5.8407Y-4.2941
X6.9768Y-6.6957
X6.9768Y-6.7331
X7.0142Y-6.7331
X5.8841Y-4.2941
X7.0142Y-6.6957
X7.6114Y-5.5797
X7.6114Y-5.627
X7.6114Y-5.6742
X7.6587Y-5.5797
X7.6587Y-5.627
X7.6587Y-5.6742
X7.7059Y-5.5797
X7.7059Y-5.627
X7.7059Y-5.6742
T2
X4.6386Y-3.3302
X5.2174Y-3.3991
X6.7374Y-2.4793
X7.0624Y-4.6941
X7.323Y-4.7291
X7.6474Y-4.7242
X5.5552Y-6.4119
X5.5552Y-6.4591
X5.5552Y-6.5063
X5.6024Y-6.4119
X5.6024Y-6.4591
X5.6024Y-6.5063
X5.6496Y-6.4119
X5.6496Y-6.4591
X5.6496Y-6.5063
X4.2374Y-3.9112
X4.2374Y-3.9585
X4.2374Y-4.0057
X4.2846Y-3.9112
X4.2846Y-3.9585
X4.2846Y-4.0057
X4.3319Y-3.9112
X4.3319Y-3.9585
X4.3319Y-4.0057
T3
X4.5474Y-5.2191
X4.5474Y-5.9591
X4.5474Y-6.4691
X4.5484Y-3.364
X4.7524Y-7.0141
X4.7724Y-5.4791
X4.8124Y-7.1591
X4.8124Y-7.4791
X4.8324Y-6.7581
X4.8324Y-6.8191
X4.8619Y-3.5046
X4.8724Y-5.2191
X4.8724Y-5.9591
X4.8724Y-6.4691
X4.9024Y-7.0391
X4.9224Y-3.7591
X4.9524Y-5.2585
X4.9524Y-5.4785
X4.9524Y-5.9985
X4.9524Y-6.2185
X4.9524Y-6.5091
X4.9524Y-6.6191
X4.9911Y-3.6094
X5.0074Y-3.0191
X5.0174Y-5.1591
X5.0174Y-5.3791
X5.0174Y-5.8991
X5.0174Y-6.1191
X5.0174Y-6.4091
X5.0174Y-6.6291
X5.0424Y-3.3241
X5.0434Y-6.949
X5.0718Y-7.0791
X5.1034Y-2.9741
X5.1034Y-3.2551
X5.1174Y-7.0241
X5.1224Y-3.7441
X5.2114Y-6.4891
X5.2124Y-5.2391
X5.2124Y-5.4591
X5.2124Y-5.9791
X5.2124Y-6.1991
X5.2124Y-6.7091
X5.2124Y-6.8858
X5.2174Y-3.2691
X5.2347Y-3.8091
X5.2347Y-3.9291
X5.2734Y-5.2391
X5.2734Y-5.4591
X5.2734Y-5.9791
X5.2734Y-6.1991
X5.2734Y-6.4891
X5.2734Y-6.7091
X5.2774Y-3.2691
X5.2874Y-3.0459
X5.2964Y-6.8201
X5.2966Y-7.0799
X5.3586Y-7.1641
X5.4574Y-3.4541
X5.5224Y-3.4541
X5.5274Y-3.1191
X5.6024Y-6.2751
X5.6624Y-2.4191
X5.6924Y-4.1791
X5.6924Y-4.2341
X5.7024Y-7.0141
X5.7074Y-2.8141
X5.7174Y-4.1591
X5.7274Y-5.8441
X5.7474Y-5.7441
X5.7624Y-7.1591
X5.7624Y-7.4841
X5.7824Y-2.7541
X5.7824Y-6.7581
X5.7824Y-6.8201
X5.8018Y-7.0791
X5.8073Y-2.4191
X5.8124Y-2.7541
X5.8424Y-2.7541
X5.8724Y-2.7541
X5.8774Y-5.7441
X5.9024Y-2.7541
X5.9024Y-2.7841
X5.9024Y-2.8141
X5.9024Y-4.1291
X5.9024Y-4.1591
X5.9024Y-4.1891
X5.9224Y-3.0341
X5.9224Y-3.0641
X5.9224Y-3.0941
X5.9224Y-3.1241
X5.9224Y-4.4141
X5.9224Y-4.4441
X5.9224Y-4.4741
X5.9224Y-4.5041
X5.9224Y-7.0141
X5.9324Y-2.7541
X5.9324Y-2.7841
X5.9324Y-2.8141
X5.9324Y-4.1291
X5.9324Y-4.1591
X5.9324Y-4.1891
X5.9524Y-3.0341
X5.9524Y-4.4141
X5.9824Y-3.0041
X5.9824Y-3.0341
X5.9824Y-4.3541
X5.9824Y-4.3841
X5.9874Y-2.2441
X6.0024Y-6.7581
X6.0024Y-6.8201
X6.0124Y-3.0041
X6.0124Y-3.0341
X6.0124Y-4.3541
X6.0124Y-4.3841
X6.0218Y-7.0791
X6.0624Y-3.5391
X6.1174Y-3.3967
X6.1274Y-5.8441
X6.1374Y-2.2441
X6.1474Y-5.7441
X6.1674Y-2.7491
X6.1974Y-2.7491
X6.2124Y-3.6366
X6.2274Y-2.7491
X6.2324Y-4.1191
X6.2574Y-2.7491
X6.2574Y-4.1391
X6.2774Y-5.7441
X6.2874Y-2.7491
X6.2874Y-4.0791
X6.2874Y-4.1091
X6.2874Y-4.1391
X6.3524Y-7.0141
X6.3574Y-3.6691
X6.4124Y-7.1591
X6.4124Y-7.4841
X6.4324Y-6.7581
X6.4324Y-6.8201
X6.4518Y-7.0791
X6.5724Y-7.0141
X6.6124Y-4.1191
X6.6124Y-4.1941
X6.6124Y-4.2691
X6.6124Y-4.3441
X6.6124Y-4.4191
X6.6124Y-4.4941
X6.6524Y-6.7581
X6.6524Y-6.8201
X6.6718Y-7.0785
X6.6874Y-4.1191
X6.6874Y-4.1941
X6.6874Y-4.2691
X6.6874Y-4.3441
X6.6874Y-4.4191
X6.6874Y-4.4941
X6.8374Y-3.6241
X6.8374Y-3.6591
X6.8374Y-3.6941
X6.8374Y-3.7841
X6.9224Y-4.8091
X6.9955Y-6.811
X7.0874Y-6.8441
X7.1774Y-2.7991
X7.1774Y-2.8741
X7.1774Y-2.9491
X7.1774Y-3.0241
X7.1774Y-3.0991
X7.1874Y-3.6441
X7.1874Y-3.7191
X7.1874Y-3.7941
X7.1874Y-3.8691
X7.1874Y-3.9441
X7.1874Y-4.0191
X7.1874Y-4.1191
X7.1874Y-4.1941
X7.1874Y-4.2691
X7.1874Y-4.3441
X7.1874Y-4.4191
X7.1874Y-4.4941
X7.2474Y-2.7991
X7.2474Y-2.8741
X7.2474Y-2.9491
X7.2474Y-3.0241
X7.2474Y-3.0991
X7.2624Y-3.6441
X7.2624Y-3.7191
X7.2624Y-3.7941
X7.2624Y-3.8691
X7.2624Y-3.9441
X7.2624Y-4.0191
X7.2624Y-4.1191
X7.2624Y-4.1941
X7.2624Y-4.2691
X7.2624Y-4.3441
X7.2624Y-4.4191
X7.2624Y-4.4941
X7.3174Y-2.7991
X7.3174Y-2.8741
X7.3174Y-2.9491
X7.3174Y-3.0241
X7.3174Y-3.0991
X7.3374Y-3.6441
X7.3374Y-3.7191
X7.3374Y-3.7941
X7.3374Y-3.8691
X7.3374Y-3.9441
X7.3374Y-4.1941
X7.3374Y-4.2691
X7.3374Y-4.3441
X7.3374Y-4.4191
X7.3374Y-4.4941
X7.3624Y-6.7941
X7.3874Y-2.7991
X7.3874Y-2.8741
X7.3874Y-2.9491
X7.3874Y-3.0241
X7.3874Y-3.0991
X7.4124Y-3.6441
X7.4124Y-3.7191
X7.4124Y-3.7941
X7.4124Y-3.8691
X7.4124Y-3.9441
X7.4124Y-4.1941
X7.4124Y-4.2691
X7.4124Y-4.3441
X7.4124Y-4.4191
X7.4124Y-4.4941
X7.4124Y-6.7941
X7.4574Y-2.7991
X7.4574Y-2.8741
X7.4574Y-2.9491
X7.4574Y-3.0241
X7.4574Y-3.0991
X7.4624Y-6.7941
X7.4874Y-3.6441
X7.4874Y-3.7191
X7.4874Y-3.7941
X7.4874Y-3.8691
X7.4874Y-3.9441
X7.4874Y-4.0191
X7.4874Y-4.1191
X7.4874Y-4.1941
X7.4874Y-4.2691
X7.4874Y-4.3441
X7.4874Y-4.4191
X7.4874Y-4.4941
X7.5124Y-6.7941
X7.5624Y-3.6441
X7.5624Y-3.7191
X7.5624Y-3.7941
X7.5624Y-3.8691
X7.5624Y-3.9441
X7.5624Y-4.0191
X7.5624Y-4.1191
X7.5624Y-4.1941
X7.5624Y-4.2691
X7.5624Y-4.3441
X7.5624Y-4.4191
X7.5624Y-4.4941
X7.5774Y-5.8501
X7.5824Y-5.7881
X7.7424Y-5.8791
X7.7624Y-4.8218
X8.1624Y-3.9441
X8.1624Y-4.0191
X8.1624Y-4.1191
X8.1624Y-4.1941
X8.1624Y-4.2691
X8.1624Y-4.3441
X8.1624Y-4.4191
X8.1624Y-4.4941
X8.2374Y-3.9441
X8.2374Y-4.0191
X8.2374Y-4.1191
X8.2374Y-4.1941
X8.2374Y-4.2691
X8.2374Y-4.3441
X8.2374Y-4.4191
X8.2374Y-4.4941
X8.3124Y-3.9441
X8.3124Y-4.1941
X8.3124Y-4.2691
X8.3124Y-4.3441
X8.3124Y-4.4191
X8.3124Y-4.4941
X8.3874Y-3.9441
X8.3874Y-4.0191
X8.3874Y-4.1191
X8.3874Y-4.1941
X8.3874Y-4.2691
X8.3874Y-4.3441
X8.3874Y-4.4191
X8.3874Y-4.4941
X8.4624Y-3.6441
X8.4624Y-3.7191
X8.4624Y-3.7941
X8.4624Y-3.8691
X8.4624Y-3.9441
X8.4624Y-4.1191
X8.4624Y-4.1941
X8.4624Y-4.2691
X8.4624Y-4.3441
X8.4624Y-4.4191
X8.4624Y-4.4941
X8.5374Y-4.1191
X8.5374Y-4.1941
X8.5374Y-4.2691
X8.5374Y-4.3441
X8.5374Y-4.4191
X8.5374Y-4.4941
X8.6874Y-3.6241
X8.6874Y-3.6591
X8.6874Y-3.6941
X8.6874Y-3.7841
X9.0374Y-3.6441
X9.0374Y-3.7191
X9.0374Y-3.7941
X9.0374Y-3.8691
X9.0374Y-3.9441
X9.0374Y-4.1191
X9.0374Y-4.1941
X9.0374Y-4.2691
X9.0374Y-4.3441
X9.0374Y-4.4191
X9.0374Y-4.4941
X9.1124Y-3.6441
X9.1124Y-3.7191
X9.1124Y-3.7941
X9.1124Y-3.8691
X9.1124Y-3.9441
X9.1124Y-4.1191
X9.1124Y-4.1941
X9.1124Y-4.2691
X9.1124Y-4.3441
X9.1124Y-4.4191
X9.1124Y-4.4941
T4
X5.5051Y-2.6142
X5.5307Y-2.5748
X5.5563Y-2.6142
X5.5819Y-2.5748
X5.6075Y-2.6142
T5
X3.9463Y-3.5895
X4.0266Y-4.1695
X4.1066Y-4.1695
X4.4671Y-4.1545
X4.5937Y-3.7545
X4.5937Y-3.9645
X4.6024Y-3.8941
X4.6874Y-4.8691
X4.6874Y-4.9191
X4.6874Y-4.9691
X4.6874Y-5.6091
X4.6874Y-5.6591
X4.6874Y-5.7091
X4.7374Y-3.9641
X4.7374Y-4.8691
X4.7374Y-4.9191
X4.7374Y-4.9691
X4.7374Y-5.6091
X4.7374Y-5.6591
X4.7374Y-5.7091
X4.7424Y-3.8941
X4.7874Y-4.8691
X4.7874Y-4.9191
X4.7874Y-4.9691
X4.7874Y-5.6091
X4.7874Y-5.6591
X4.7874Y-5.7091
X7.5224Y-6.6072
X7.5624Y-6.6072
X7.5874Y-6.7441
X7.5874Y-6.7941
X7.5874Y-6.8441
X7.5874Y-6.8941
X7.5874Y-6.9441
X7.5874Y-6.9941
X7.5874Y-7.0441
X7.6374Y-6.7441
X7.6374Y-6.7941
X7.6374Y-6.8441
X7.6374Y-6.8941
X7.6374Y-6.9441
X7.6374Y-6.9941
X7.6374Y-7.0441
X7.6624Y-6.6072
X7.7024Y-6.6072
T6
X8.0874Y-5.7691
X8.0874Y-5.8691
X8.0874Y-6.7191
X8.0874Y-6.8191
X8.0874Y-7.2191
X8.0874Y-7.4191
X8.0874Y-6.2691
X8.0874Y-6.4691
T7
X7.6524Y-2.9938
X7.6524Y-3.2891
X5.0453Y-4.4722
X5.0453Y-4.6691
X5.5374Y-4.4722
X5.5374Y-4.6691
X4.5624Y-2.4941
X4.5624Y-2.6909
X5.0545Y-2.4941
X5.0545Y-2.6909
T8
X5.4156Y-2.6055
X5.697Y-2.6055
T9
X4.1874Y-5.8691
X4.1874Y-6.0691
X4.1874Y-6.2691
X4.1874Y-6.4691
X6.7124Y-7.8441
X6.9124Y-7.8441
X7.1124Y-7.8441
X5.5624Y-7.8441
X5.7624Y-7.8441
X5.9624Y-7.8441
X6.1624Y-7.8441
X4.1874Y-4.9191
X4.1874Y-5.1191
X4.1874Y-5.3191
X4.1874Y-5.5191
X6.5124Y-7.8441
X8.6124Y-5.8691
X8.6124Y-6.0691
X8.6124Y-6.2691
X8.6124Y-6.4691
X8.6124Y-6.8191
X8.6124Y-7.0191
X8.6124Y-7.2191
X8.6124Y-7.4191
X4.6124Y-7.8441
X4.8124Y-7.8441
X5.0124Y-7.8441
X5.2124Y-7.8441
X7.4624Y-7.8441
X7.6624Y-7.8441
X4.1874Y-6.8191
X4.1874Y-7.0191
X4.1874Y-7.2191
X4.1874Y-7.4191
T10
X7.6825Y-3.7768
X7.6825Y-3.9717
X7.6825Y-4.1665
X7.6825Y-4.3614
X8.0423Y-3.7768
X8.0423Y-3.9717
X8.0423Y-4.1665
X8.0423Y-4.3614
T11
X7.8719Y-2.5022
X7.8719Y-2.636
X8.2624Y-2.5022
X8.2624Y-2.636
T12
X8.7874Y-7.9941
X4.0374Y-7.9941
X4.0374Y-2.4941
X8.7874Y-2.4941
T13
X4.0424Y-3.1491
T0
M30
