G04 #@! TF.GenerationSoftware,KiCad,Pcbnew,(5.1.4-0-10_14)*
G04 #@! TF.CreationDate,2019-10-20T10:50:28-05:00*
G04 #@! TF.ProjectId,WiFi-Gate-Control-Board,57694669-2d47-4617-9465-2d436f6e7472,rev?*
G04 #@! TF.SameCoordinates,Original*
G04 #@! TF.FileFunction,Legend,Bot*
G04 #@! TF.FilePolarity,Positive*
%FSLAX46Y46*%
G04 Gerber Fmt 4.6, Leading zero omitted, Abs format (unit mm)*
G04 Created by KiCad (PCBNEW (5.1.4-0-10_14)) date 2019-10-20 10:50:28*
%MOMM*%
%LPD*%
G04 APERTURE LIST*
%ADD10C,0.457200*%
%ADD11C,0.635000*%
%ADD12C,0.010000*%
G04 APERTURE END LIST*
D10*
X189259159Y-132096309D02*
X188862284Y-128921309D01*
X188299099Y-131189166D01*
X187168950Y-128921309D01*
X187565825Y-132096309D01*
X186356302Y-132096309D02*
X186091718Y-129979642D01*
X185959427Y-128921309D02*
X186099278Y-129072500D01*
X185997224Y-129223690D01*
X185857373Y-129072500D01*
X185959427Y-128921309D01*
X185997224Y-129223690D01*
X185146778Y-132096309D02*
X184749903Y-128921309D01*
X184753683Y-130886785D02*
X184179159Y-132096309D01*
X183914575Y-129979642D02*
X185033385Y-131189166D01*
X182104070Y-131945119D02*
X182364873Y-132096309D01*
X182848683Y-132096309D01*
X183071689Y-131945119D01*
X183154843Y-131642738D01*
X183003653Y-130433214D01*
X182844903Y-130130833D01*
X182584099Y-129979642D01*
X182100290Y-129979642D01*
X181877284Y-130130833D01*
X181794129Y-130433214D01*
X181831927Y-130735595D01*
X183079248Y-131037976D01*
X177768683Y-132096309D02*
X178978206Y-132096309D01*
X178581331Y-128921309D01*
X175833445Y-132096309D02*
X175625558Y-130433214D01*
X175708712Y-130130833D01*
X175931718Y-129979642D01*
X176415528Y-129979642D01*
X176676331Y-130130833D01*
X175814546Y-131945119D02*
X176075349Y-132096309D01*
X176680111Y-132096309D01*
X176903117Y-131945119D01*
X176986272Y-131642738D01*
X176948474Y-131340357D01*
X176789724Y-131037976D01*
X176528921Y-130886785D01*
X175924159Y-130886785D01*
X175663355Y-130735595D01*
X174601242Y-129979642D02*
X174382016Y-132096309D01*
X173709218Y-130584404D01*
X173414397Y-132096309D01*
X172666004Y-129979642D01*
X171962968Y-132096309D02*
X171698385Y-129979642D01*
X171773980Y-130584404D02*
X171615230Y-130282023D01*
X171475379Y-130130833D01*
X171214575Y-129979642D01*
X170972671Y-129979642D01*
X169404070Y-131945119D02*
X169664873Y-132096309D01*
X170148683Y-132096309D01*
X170371689Y-131945119D01*
X170454843Y-131642738D01*
X170303653Y-130433214D01*
X170144903Y-130130833D01*
X169884099Y-129979642D01*
X169400290Y-129979642D01*
X169177284Y-130130833D01*
X169094129Y-130433214D01*
X169131927Y-130735595D01*
X170379248Y-131037976D01*
X167948861Y-129979642D02*
X168213445Y-132096309D01*
X167986659Y-130282023D02*
X167846808Y-130130833D01*
X167586004Y-129979642D01*
X167223147Y-129979642D01*
X167000141Y-130130833D01*
X166916986Y-130433214D01*
X167124873Y-132096309D01*
X164807879Y-131945119D02*
X165068683Y-132096309D01*
X165552492Y-132096309D01*
X165775498Y-131945119D01*
X165877552Y-131793928D01*
X165960706Y-131491547D01*
X165847314Y-130584404D01*
X165688564Y-130282023D01*
X165548712Y-130130833D01*
X165287909Y-129979642D01*
X164804099Y-129979642D01*
X164581093Y-130130833D01*
X162751689Y-131945119D02*
X163012492Y-132096309D01*
X163496302Y-132096309D01*
X163719308Y-131945119D01*
X163802462Y-131642738D01*
X163651272Y-130433214D01*
X163492522Y-130130833D01*
X163231718Y-129979642D01*
X162747909Y-129979642D01*
X162524903Y-130130833D01*
X162441748Y-130433214D01*
X162479546Y-130735595D01*
X163726867Y-131037976D01*
D11*
X189523083Y-122858571D02*
X189243380Y-126668571D01*
X188298440Y-123947142D01*
X188033856Y-126668571D01*
X186801654Y-122858571D01*
X186068380Y-126668571D02*
X185750880Y-124128571D01*
X185592130Y-122858571D02*
X185765999Y-123040000D01*
X185637487Y-123221428D01*
X185463618Y-123040000D01*
X185592130Y-122858571D01*
X185637487Y-123221428D01*
X183248678Y-124672857D02*
X184307011Y-124672857D01*
X184556475Y-126668571D02*
X184080225Y-122858571D01*
X182568321Y-122858571D01*
X181835047Y-126668571D02*
X181517547Y-124128571D01*
X181358797Y-122858571D02*
X181532666Y-123040000D01*
X181404154Y-123221428D01*
X181230285Y-123040000D01*
X181358797Y-122858571D01*
X181404154Y-123221428D01*
X175787428Y-123040000D02*
X176067130Y-122858571D01*
X176520702Y-122858571D01*
X176996952Y-123040000D01*
X177344690Y-123402857D01*
X177541237Y-123765714D01*
X177783142Y-124491428D01*
X177851178Y-125035714D01*
X177790702Y-125761428D01*
X177684868Y-126124285D01*
X177427844Y-126487142D01*
X176996952Y-126668571D01*
X176694571Y-126668571D01*
X176218321Y-126487142D01*
X176044452Y-126305714D01*
X175885702Y-125035714D01*
X176490463Y-125035714D01*
X173368380Y-126668571D02*
X173118916Y-124672857D01*
X173224749Y-124310000D01*
X173504452Y-124128571D01*
X174109213Y-124128571D01*
X174434273Y-124310000D01*
X173345702Y-126487142D02*
X173670761Y-126668571D01*
X174426713Y-126668571D01*
X174706416Y-126487142D01*
X174812249Y-126124285D01*
X174766892Y-125761428D01*
X174570344Y-125398571D01*
X174245285Y-125217142D01*
X173489333Y-125217142D01*
X173164273Y-125035714D01*
X171992547Y-124128571D02*
X170783023Y-124128571D01*
X171380225Y-122858571D02*
X171788440Y-126124285D01*
X171682606Y-126487142D01*
X171402904Y-126668571D01*
X171100523Y-126668571D01*
X168809987Y-126487142D02*
X169135047Y-126668571D01*
X169739809Y-126668571D01*
X170019511Y-126487142D01*
X170125344Y-126124285D01*
X169943916Y-124672857D01*
X169747368Y-124310000D01*
X169422309Y-124128571D01*
X168817547Y-124128571D01*
X168537844Y-124310000D01*
X168432011Y-124672857D01*
X168477368Y-125035714D01*
X170034630Y-125398571D01*
X163042071Y-126305714D02*
X163215940Y-126487142D01*
X163692190Y-126668571D01*
X163994571Y-126668571D01*
X164425463Y-126487142D01*
X164682487Y-126124285D01*
X164788321Y-125761428D01*
X164848797Y-125035714D01*
X164780761Y-124491428D01*
X164538856Y-123765714D01*
X164342309Y-123402857D01*
X163994571Y-123040000D01*
X163518321Y-122858571D01*
X163215940Y-122858571D01*
X162785047Y-123040000D01*
X162656535Y-123221428D01*
X161273142Y-126668571D02*
X161552844Y-126487142D01*
X161681356Y-126305714D01*
X161787190Y-125942857D01*
X161651118Y-124854285D01*
X161454571Y-124491428D01*
X161280702Y-124310000D01*
X160955642Y-124128571D01*
X160502071Y-124128571D01*
X160222368Y-124310000D01*
X160093856Y-124491428D01*
X159988023Y-124854285D01*
X160124094Y-125942857D01*
X160320642Y-126305714D01*
X160494511Y-126487142D01*
X160819571Y-126668571D01*
X161273142Y-126668571D01*
X158536594Y-124128571D02*
X158854094Y-126668571D01*
X158581952Y-124491428D02*
X158408083Y-124310000D01*
X158083023Y-124128571D01*
X157629452Y-124128571D01*
X157349749Y-124310000D01*
X157243916Y-124672857D01*
X157493380Y-126668571D01*
X156117547Y-124128571D02*
X154908023Y-124128571D01*
X155505225Y-122858571D02*
X155913440Y-126124285D01*
X155807606Y-126487142D01*
X155527904Y-126668571D01*
X155225523Y-126668571D01*
X154167190Y-126668571D02*
X153849690Y-124128571D01*
X153940404Y-124854285D02*
X153743856Y-124491428D01*
X153569987Y-124310000D01*
X153244928Y-124128571D01*
X152942547Y-124128571D01*
X151748142Y-126668571D02*
X152027844Y-126487142D01*
X152156356Y-126305714D01*
X152262190Y-125942857D01*
X152126118Y-124854285D01*
X151929571Y-124491428D01*
X151755702Y-124310000D01*
X151430642Y-124128571D01*
X150977071Y-124128571D01*
X150697368Y-124310000D01*
X150568856Y-124491428D01*
X150463023Y-124854285D01*
X150599094Y-125942857D01*
X150795642Y-126305714D01*
X150969511Y-126487142D01*
X151294571Y-126668571D01*
X151748142Y-126668571D01*
X148875523Y-126668571D02*
X149155225Y-126487142D01*
X149261059Y-126124285D01*
X148852844Y-122858571D01*
X143939154Y-124672857D02*
X143508261Y-124854285D01*
X143379749Y-125035714D01*
X143273916Y-125398571D01*
X143341952Y-125942857D01*
X143538499Y-126305714D01*
X143712368Y-126487142D01*
X144037428Y-126668571D01*
X145246952Y-126668571D01*
X144770702Y-122858571D01*
X143712368Y-122858571D01*
X143432666Y-123040000D01*
X143304154Y-123221428D01*
X143198321Y-123584285D01*
X143243678Y-123947142D01*
X143440225Y-124310000D01*
X143614094Y-124491428D01*
X143939154Y-124672857D01*
X144997487Y-124672857D01*
X141618380Y-126668571D02*
X141898083Y-126487142D01*
X142026594Y-126305714D01*
X142132428Y-125942857D01*
X141996356Y-124854285D01*
X141799809Y-124491428D01*
X141625940Y-124310000D01*
X141300880Y-124128571D01*
X140847309Y-124128571D01*
X140567606Y-124310000D01*
X140439094Y-124491428D01*
X140333261Y-124854285D01*
X140469333Y-125942857D01*
X140665880Y-126305714D01*
X140839749Y-126487142D01*
X141164809Y-126668571D01*
X141618380Y-126668571D01*
X137838618Y-126668571D02*
X137589154Y-124672857D01*
X137694987Y-124310000D01*
X137974690Y-124128571D01*
X138579452Y-124128571D01*
X138904511Y-124310000D01*
X137815940Y-126487142D02*
X138140999Y-126668571D01*
X138896952Y-126668571D01*
X139176654Y-126487142D01*
X139282487Y-126124285D01*
X139237130Y-125761428D01*
X139040583Y-125398571D01*
X138715523Y-125217142D01*
X137959571Y-125217142D01*
X137634511Y-125035714D01*
X136326713Y-126668571D02*
X136009213Y-124128571D01*
X136099928Y-124854285D02*
X135903380Y-124491428D01*
X135729511Y-124310000D01*
X135404452Y-124128571D01*
X135102071Y-124128571D01*
X133000523Y-126668571D02*
X132524273Y-122858571D01*
X132977844Y-126487142D02*
X133302904Y-126668571D01*
X133907666Y-126668571D01*
X134187368Y-126487142D01*
X134315880Y-126305714D01*
X134421713Y-125942857D01*
X134285642Y-124854285D01*
X134089094Y-124491428D01*
X133915225Y-124310000D01*
X133590166Y-124128571D01*
X132985404Y-124128571D01*
X132705702Y-124310000D01*
D10*
X187807730Y-137176309D02*
X188465409Y-135664404D01*
X189259159Y-137176309D02*
X188862284Y-134001309D01*
X187894665Y-134001309D01*
X187671659Y-134152500D01*
X187569605Y-134303690D01*
X187486450Y-134606071D01*
X187543147Y-135059642D01*
X187701897Y-135362023D01*
X187841748Y-135513214D01*
X188102552Y-135664404D01*
X189070171Y-135664404D01*
X185732641Y-137025119D02*
X185993445Y-137176309D01*
X186477254Y-137176309D01*
X186700260Y-137025119D01*
X186783415Y-136722738D01*
X186632224Y-135513214D01*
X186473474Y-135210833D01*
X186212671Y-135059642D01*
X185728861Y-135059642D01*
X185505855Y-135210833D01*
X185422700Y-135513214D01*
X185460498Y-135815595D01*
X186707820Y-136117976D01*
X184519337Y-135059642D02*
X184179159Y-137176309D01*
X183309814Y-135059642D01*
X179341064Y-137176309D02*
X180792492Y-137176309D01*
X180066778Y-137176309D02*
X179669903Y-134001309D01*
X179968504Y-134454880D01*
X180248206Y-134757261D01*
X180509010Y-134908452D01*
X178214695Y-136873928D02*
X178112641Y-137025119D01*
X178252492Y-137176309D01*
X178354546Y-137025119D01*
X178214695Y-136873928D01*
X178252492Y-137176309D01*
X176162284Y-134001309D02*
X175920379Y-134001309D01*
X175697373Y-134152500D01*
X175595320Y-134303690D01*
X175512165Y-134606071D01*
X175466808Y-135210833D01*
X175561302Y-135966785D01*
X175757849Y-136571547D01*
X175916599Y-136873928D01*
X176056450Y-137025119D01*
X176317254Y-137176309D01*
X176559159Y-137176309D01*
X176782165Y-137025119D01*
X176884218Y-136873928D01*
X176967373Y-136571547D01*
X177012730Y-135966785D01*
X176918236Y-135210833D01*
X176721689Y-134606071D01*
X176562939Y-134303690D01*
X176423087Y-134152500D01*
X176162284Y-134001309D01*
X171807998Y-134001309D02*
X171324189Y-134001309D01*
X171101183Y-134152500D01*
X170897075Y-134454880D01*
X170851718Y-135059642D01*
X170984010Y-136117976D01*
X171180558Y-136722738D01*
X171460260Y-137025119D01*
X171721064Y-137176309D01*
X172204873Y-137176309D01*
X172427879Y-137025119D01*
X172631986Y-136722738D01*
X172677343Y-136117976D01*
X172545052Y-135059642D01*
X172348504Y-134454880D01*
X172068802Y-134152500D01*
X171807998Y-134001309D01*
X168920260Y-137025119D02*
X169181064Y-137176309D01*
X169664873Y-137176309D01*
X169887879Y-137025119D01*
X169989933Y-136873928D01*
X170073087Y-136571547D01*
X169959695Y-135664404D01*
X169800945Y-135362023D01*
X169661093Y-135210833D01*
X169400290Y-135059642D01*
X168916480Y-135059642D01*
X168693474Y-135210833D01*
X167948861Y-135059642D02*
X166981242Y-135059642D01*
X167453712Y-134001309D02*
X167793891Y-136722738D01*
X167710736Y-137025119D01*
X167487730Y-137176309D01*
X167245825Y-137176309D01*
X164225796Y-134303690D02*
X164085945Y-134152500D01*
X163825141Y-134001309D01*
X163220379Y-134001309D01*
X162997373Y-134152500D01*
X162895320Y-134303690D01*
X162812165Y-134606071D01*
X162849962Y-134908452D01*
X163027611Y-135362023D01*
X164705825Y-137176309D01*
X163133445Y-137176309D01*
X161164189Y-134001309D02*
X160922284Y-134001309D01*
X160699278Y-134152500D01*
X160597224Y-134303690D01*
X160514070Y-134606071D01*
X160468712Y-135210833D01*
X160563206Y-135966785D01*
X160759754Y-136571547D01*
X160918504Y-136873928D01*
X161058355Y-137025119D01*
X161319159Y-137176309D01*
X161561064Y-137176309D01*
X161784070Y-137025119D01*
X161886123Y-136873928D01*
X161969278Y-136571547D01*
X162014635Y-135966785D01*
X161920141Y-135210833D01*
X161723593Y-134606071D01*
X161564843Y-134303690D01*
X161424992Y-134152500D01*
X161164189Y-134001309D01*
X158295349Y-137176309D02*
X159746778Y-137176309D01*
X159021064Y-137176309D02*
X158624189Y-134001309D01*
X158922790Y-134454880D01*
X159202492Y-134757261D01*
X159463296Y-134908452D01*
X157085825Y-137176309D02*
X156602016Y-137176309D01*
X156341212Y-137025119D01*
X156201361Y-136873928D01*
X155902760Y-136420357D01*
X155706212Y-135815595D01*
X155555022Y-134606071D01*
X155638177Y-134303690D01*
X155740230Y-134152500D01*
X155963236Y-134001309D01*
X156447046Y-134001309D01*
X156707849Y-134152500D01*
X156847700Y-134303690D01*
X157006450Y-134606071D01*
X157100945Y-135362023D01*
X157017790Y-135664404D01*
X156915736Y-135815595D01*
X156692730Y-135966785D01*
X156208921Y-135966785D01*
X155948117Y-135815595D01*
X155808266Y-135664404D01*
X155649516Y-135362023D01*
D12*
G36*
X150156718Y-156638097D02*
G01*
X150093681Y-156682781D01*
X150038015Y-156738447D01*
X150038015Y-157360080D01*
X150038161Y-157544659D01*
X150038850Y-157689383D01*
X150040463Y-157799755D01*
X150043380Y-157881276D01*
X150047978Y-157939449D01*
X150054639Y-157979777D01*
X150063742Y-158007760D01*
X150075666Y-158028903D01*
X150085019Y-158041468D01*
X150146755Y-158090835D01*
X150217643Y-158096193D01*
X150282434Y-158065919D01*
X150303843Y-158048046D01*
X150318154Y-158024305D01*
X150326786Y-157986075D01*
X150331158Y-157924733D01*
X150332690Y-157831660D01*
X150332837Y-157759758D01*
X150332837Y-157488902D01*
X151330694Y-157488902D01*
X151330694Y-157735307D01*
X151331726Y-157847982D01*
X151335854Y-157925418D01*
X151344629Y-157977708D01*
X151359598Y-158014944D01*
X151377697Y-158041468D01*
X151439779Y-158090696D01*
X151509988Y-158096525D01*
X151577201Y-158061535D01*
X151595552Y-158043193D01*
X151608512Y-158018877D01*
X151617061Y-157981001D01*
X151622175Y-157921978D01*
X151624831Y-157834222D01*
X151626009Y-157710146D01*
X151626146Y-157681669D01*
X151627118Y-157447892D01*
X151627619Y-157255228D01*
X151627456Y-157099435D01*
X151626435Y-156976271D01*
X151624363Y-156881493D01*
X151621047Y-156810859D01*
X151616293Y-156760126D01*
X151609909Y-156725052D01*
X151601700Y-156701393D01*
X151591473Y-156684909D01*
X151580158Y-156672473D01*
X151516151Y-156632694D01*
X151449397Y-156638097D01*
X151386360Y-156682781D01*
X151360851Y-156711610D01*
X151344591Y-156743455D01*
X151335519Y-156788808D01*
X151331574Y-156858166D01*
X151330695Y-156962022D01*
X151330694Y-156966264D01*
X151330694Y-157194080D01*
X150332837Y-157194080D01*
X150332837Y-156955955D01*
X150331819Y-156846251D01*
X150327729Y-156772176D01*
X150319015Y-156724027D01*
X150304125Y-156692101D01*
X150287480Y-156672473D01*
X150223473Y-156632694D01*
X150156718Y-156638097D01*
X150156718Y-156638097D01*
G37*
X150156718Y-156638097D02*
X150093681Y-156682781D01*
X150038015Y-156738447D01*
X150038015Y-157360080D01*
X150038161Y-157544659D01*
X150038850Y-157689383D01*
X150040463Y-157799755D01*
X150043380Y-157881276D01*
X150047978Y-157939449D01*
X150054639Y-157979777D01*
X150063742Y-158007760D01*
X150075666Y-158028903D01*
X150085019Y-158041468D01*
X150146755Y-158090835D01*
X150217643Y-158096193D01*
X150282434Y-158065919D01*
X150303843Y-158048046D01*
X150318154Y-158024305D01*
X150326786Y-157986075D01*
X150331158Y-157924733D01*
X150332690Y-157831660D01*
X150332837Y-157759758D01*
X150332837Y-157488902D01*
X151330694Y-157488902D01*
X151330694Y-157735307D01*
X151331726Y-157847982D01*
X151335854Y-157925418D01*
X151344629Y-157977708D01*
X151359598Y-158014944D01*
X151377697Y-158041468D01*
X151439779Y-158090696D01*
X151509988Y-158096525D01*
X151577201Y-158061535D01*
X151595552Y-158043193D01*
X151608512Y-158018877D01*
X151617061Y-157981001D01*
X151622175Y-157921978D01*
X151624831Y-157834222D01*
X151626009Y-157710146D01*
X151626146Y-157681669D01*
X151627118Y-157447892D01*
X151627619Y-157255228D01*
X151627456Y-157099435D01*
X151626435Y-156976271D01*
X151624363Y-156881493D01*
X151621047Y-156810859D01*
X151616293Y-156760126D01*
X151609909Y-156725052D01*
X151601700Y-156701393D01*
X151591473Y-156684909D01*
X151580158Y-156672473D01*
X151516151Y-156632694D01*
X151449397Y-156638097D01*
X151386360Y-156682781D01*
X151360851Y-156711610D01*
X151344591Y-156743455D01*
X151335519Y-156788808D01*
X151331574Y-156858166D01*
X151330695Y-156962022D01*
X151330694Y-156966264D01*
X151330694Y-157194080D01*
X150332837Y-157194080D01*
X150332837Y-156955955D01*
X150331819Y-156846251D01*
X150327729Y-156772176D01*
X150319015Y-156724027D01*
X150304125Y-156692101D01*
X150287480Y-156672473D01*
X150223473Y-156632694D01*
X150156718Y-156638097D01*
G36*
X152699537Y-156627310D02*
G01*
X152541419Y-156628070D01*
X152418692Y-156629660D01*
X152326374Y-156632345D01*
X152259481Y-156636390D01*
X152213032Y-156642060D01*
X152182043Y-156649620D01*
X152161532Y-156659335D01*
X152151606Y-156666803D01*
X152100089Y-156732165D01*
X152093857Y-156800028D01*
X152125693Y-156861677D01*
X152146512Y-156886312D01*
X152168915Y-156903110D01*
X152201383Y-156913570D01*
X152252394Y-156919195D01*
X152330430Y-156921483D01*
X152443970Y-156921935D01*
X152466269Y-156921937D01*
X152759444Y-156921937D01*
X152759444Y-157466223D01*
X152759637Y-157637782D01*
X152760514Y-157769789D01*
X152762522Y-157868045D01*
X152766106Y-157938356D01*
X152771713Y-157986523D01*
X152779789Y-158018351D01*
X152790782Y-158039642D01*
X152804801Y-158055866D01*
X152870961Y-158095734D01*
X152940026Y-158092592D01*
X153002660Y-158047105D01*
X153007262Y-158041468D01*
X153022243Y-158020158D01*
X153033657Y-157995225D01*
X153041986Y-157960609D01*
X153047713Y-157910253D01*
X153051321Y-157838098D01*
X153053294Y-157738086D01*
X153054114Y-157604158D01*
X153054265Y-157451825D01*
X153054265Y-156921937D01*
X153334233Y-156921937D01*
X153454378Y-156921124D01*
X153537555Y-156917956D01*
X153592137Y-156911339D01*
X153626494Y-156900179D01*
X153649000Y-156883384D01*
X153651733Y-156880464D01*
X153684594Y-156813690D01*
X153681688Y-156738200D01*
X153643908Y-156672473D01*
X153629298Y-156659724D01*
X153610460Y-156649615D01*
X153582372Y-156641840D01*
X153540010Y-156636095D01*
X153478350Y-156632074D01*
X153392368Y-156629472D01*
X153277042Y-156627982D01*
X153127348Y-156627299D01*
X152938262Y-156627119D01*
X152898028Y-156627116D01*
X152699537Y-156627310D01*
X152699537Y-156627310D01*
G37*
X152699537Y-156627310D02*
X152541419Y-156628070D01*
X152418692Y-156629660D01*
X152326374Y-156632345D01*
X152259481Y-156636390D01*
X152213032Y-156642060D01*
X152182043Y-156649620D01*
X152161532Y-156659335D01*
X152151606Y-156666803D01*
X152100089Y-156732165D01*
X152093857Y-156800028D01*
X152125693Y-156861677D01*
X152146512Y-156886312D01*
X152168915Y-156903110D01*
X152201383Y-156913570D01*
X152252394Y-156919195D01*
X152330430Y-156921483D01*
X152443970Y-156921935D01*
X152466269Y-156921937D01*
X152759444Y-156921937D01*
X152759444Y-157466223D01*
X152759637Y-157637782D01*
X152760514Y-157769789D01*
X152762522Y-157868045D01*
X152766106Y-157938356D01*
X152771713Y-157986523D01*
X152779789Y-158018351D01*
X152790782Y-158039642D01*
X152804801Y-158055866D01*
X152870961Y-158095734D01*
X152940026Y-158092592D01*
X153002660Y-158047105D01*
X153007262Y-158041468D01*
X153022243Y-158020158D01*
X153033657Y-157995225D01*
X153041986Y-157960609D01*
X153047713Y-157910253D01*
X153051321Y-157838098D01*
X153053294Y-157738086D01*
X153054114Y-157604158D01*
X153054265Y-157451825D01*
X153054265Y-156921937D01*
X153334233Y-156921937D01*
X153454378Y-156921124D01*
X153537555Y-156917956D01*
X153592137Y-156911339D01*
X153626494Y-156900179D01*
X153649000Y-156883384D01*
X153651733Y-156880464D01*
X153684594Y-156813690D01*
X153681688Y-156738200D01*
X153643908Y-156672473D01*
X153629298Y-156659724D01*
X153610460Y-156649615D01*
X153582372Y-156641840D01*
X153540010Y-156636095D01*
X153478350Y-156632074D01*
X153392368Y-156629472D01*
X153277042Y-156627982D01*
X153127348Y-156627299D01*
X152938262Y-156627119D01*
X152898028Y-156627116D01*
X152699537Y-156627310D01*
G36*
X154255353Y-156640797D02*
G01*
X154207715Y-156670469D01*
X154154176Y-156713823D01*
X154154176Y-157359785D01*
X154154347Y-157548738D01*
X154155077Y-157697604D01*
X154156695Y-157811655D01*
X154159529Y-157896159D01*
X154163908Y-157956386D01*
X154170159Y-157997608D01*
X154178611Y-158025093D01*
X154189592Y-158044113D01*
X154197379Y-158053485D01*
X154260537Y-158094654D01*
X154332457Y-158092975D01*
X154395458Y-158057870D01*
X154448998Y-158014516D01*
X154448998Y-156713823D01*
X154395458Y-156670469D01*
X154343785Y-156638933D01*
X154301587Y-156627116D01*
X154255353Y-156640797D01*
X154255353Y-156640797D01*
G37*
X154255353Y-156640797D02*
X154207715Y-156670469D01*
X154154176Y-156713823D01*
X154154176Y-157359785D01*
X154154347Y-157548738D01*
X154155077Y-157697604D01*
X154156695Y-157811655D01*
X154159529Y-157896159D01*
X154163908Y-157956386D01*
X154170159Y-157997608D01*
X154178611Y-158025093D01*
X154189592Y-158044113D01*
X154197379Y-158053485D01*
X154260537Y-158094654D01*
X154332457Y-158092975D01*
X154395458Y-158057870D01*
X154448998Y-158014516D01*
X154448998Y-156713823D01*
X154395458Y-156670469D01*
X154343785Y-156638933D01*
X154301587Y-156627116D01*
X154255353Y-156640797D01*
G36*
X155147215Y-156631068D02*
G01*
X155107861Y-156645132D01*
X155106342Y-156645820D01*
X155052900Y-156686604D01*
X155023455Y-156728555D01*
X155017693Y-156748224D01*
X155017978Y-156774360D01*
X155026085Y-156811591D01*
X155043792Y-156864551D01*
X155072876Y-156937868D01*
X155115113Y-157036174D01*
X155172280Y-157164099D01*
X155246154Y-157326275D01*
X155286816Y-157414916D01*
X155360241Y-157573158D01*
X155429169Y-157718680D01*
X155490968Y-157846160D01*
X155543009Y-157950279D01*
X155582659Y-158025716D01*
X155607289Y-158067151D01*
X155612163Y-158072875D01*
X155674522Y-158098125D01*
X155744960Y-158094743D01*
X155801452Y-158064033D01*
X155803754Y-158061535D01*
X155826226Y-158027515D01*
X155863922Y-157961251D01*
X155912194Y-157871272D01*
X155966392Y-157766109D01*
X155985870Y-157727356D01*
X156132898Y-157432863D01*
X156293157Y-157752772D01*
X156350359Y-157863306D01*
X156403429Y-157959167D01*
X156448031Y-158033016D01*
X156479830Y-158077516D01*
X156490607Y-158086952D01*
X156574374Y-158099732D01*
X156643496Y-158072875D01*
X156663829Y-158044172D01*
X156699014Y-157980381D01*
X156746181Y-157887779D01*
X156802460Y-157772643D01*
X156864981Y-157641249D01*
X156930873Y-157499875D01*
X156997266Y-157354797D01*
X157061290Y-157212293D01*
X157120074Y-157078640D01*
X157170748Y-156960114D01*
X157210442Y-156862992D01*
X157236285Y-156793552D01*
X157245408Y-156758070D01*
X157245315Y-156756785D01*
X157223119Y-156712137D01*
X157178754Y-156666663D01*
X157176141Y-156664685D01*
X157121614Y-156633863D01*
X157071179Y-156634161D01*
X157052276Y-156639972D01*
X157029241Y-156652530D01*
X157004780Y-156677234D01*
X156975958Y-156719207D01*
X156939840Y-156783575D01*
X156893492Y-156875463D01*
X156833981Y-156999994D01*
X156780313Y-157114946D01*
X156718568Y-157248195D01*
X156663240Y-157368023D01*
X156617203Y-157468171D01*
X156583330Y-157542378D01*
X156564498Y-157584384D01*
X156561751Y-157590955D01*
X156549398Y-157580213D01*
X156521007Y-157535236D01*
X156480355Y-157462588D01*
X156431221Y-157368834D01*
X156411669Y-157330152D01*
X156345435Y-157199535D01*
X156294356Y-157104411D01*
X156254240Y-157039252D01*
X156220896Y-156998525D01*
X156190131Y-156976701D01*
X156157755Y-156968249D01*
X156136656Y-156967294D01*
X156099438Y-156970592D01*
X156066824Y-156984232D01*
X156034418Y-157013834D01*
X155997824Y-157065016D01*
X155952646Y-157143398D01*
X155894488Y-157254600D01*
X155862400Y-157317858D01*
X155810352Y-157418675D01*
X155764956Y-157502280D01*
X155730220Y-157561620D01*
X155710147Y-157589639D01*
X155707417Y-157590806D01*
X155694454Y-157568754D01*
X155665431Y-157511493D01*
X155623255Y-157425016D01*
X155570832Y-157315316D01*
X155511069Y-157188386D01*
X155481671Y-157125339D01*
X155405192Y-156962630D01*
X155343608Y-156837429D01*
X155293722Y-156745651D01*
X155252337Y-156683210D01*
X155216256Y-156646023D01*
X155182281Y-156630004D01*
X155147215Y-156631068D01*
X155147215Y-156631068D01*
G37*
X155147215Y-156631068D02*
X155107861Y-156645132D01*
X155106342Y-156645820D01*
X155052900Y-156686604D01*
X155023455Y-156728555D01*
X155017693Y-156748224D01*
X155017978Y-156774360D01*
X155026085Y-156811591D01*
X155043792Y-156864551D01*
X155072876Y-156937868D01*
X155115113Y-157036174D01*
X155172280Y-157164099D01*
X155246154Y-157326275D01*
X155286816Y-157414916D01*
X155360241Y-157573158D01*
X155429169Y-157718680D01*
X155490968Y-157846160D01*
X155543009Y-157950279D01*
X155582659Y-158025716D01*
X155607289Y-158067151D01*
X155612163Y-158072875D01*
X155674522Y-158098125D01*
X155744960Y-158094743D01*
X155801452Y-158064033D01*
X155803754Y-158061535D01*
X155826226Y-158027515D01*
X155863922Y-157961251D01*
X155912194Y-157871272D01*
X155966392Y-157766109D01*
X155985870Y-157727356D01*
X156132898Y-157432863D01*
X156293157Y-157752772D01*
X156350359Y-157863306D01*
X156403429Y-157959167D01*
X156448031Y-158033016D01*
X156479830Y-158077516D01*
X156490607Y-158086952D01*
X156574374Y-158099732D01*
X156643496Y-158072875D01*
X156663829Y-158044172D01*
X156699014Y-157980381D01*
X156746181Y-157887779D01*
X156802460Y-157772643D01*
X156864981Y-157641249D01*
X156930873Y-157499875D01*
X156997266Y-157354797D01*
X157061290Y-157212293D01*
X157120074Y-157078640D01*
X157170748Y-156960114D01*
X157210442Y-156862992D01*
X157236285Y-156793552D01*
X157245408Y-156758070D01*
X157245315Y-156756785D01*
X157223119Y-156712137D01*
X157178754Y-156666663D01*
X157176141Y-156664685D01*
X157121614Y-156633863D01*
X157071179Y-156634161D01*
X157052276Y-156639972D01*
X157029241Y-156652530D01*
X157004780Y-156677234D01*
X156975958Y-156719207D01*
X156939840Y-156783575D01*
X156893492Y-156875463D01*
X156833981Y-156999994D01*
X156780313Y-157114946D01*
X156718568Y-157248195D01*
X156663240Y-157368023D01*
X156617203Y-157468171D01*
X156583330Y-157542378D01*
X156564498Y-157584384D01*
X156561751Y-157590955D01*
X156549398Y-157580213D01*
X156521007Y-157535236D01*
X156480355Y-157462588D01*
X156431221Y-157368834D01*
X156411669Y-157330152D01*
X156345435Y-157199535D01*
X156294356Y-157104411D01*
X156254240Y-157039252D01*
X156220896Y-156998525D01*
X156190131Y-156976701D01*
X156157755Y-156968249D01*
X156136656Y-156967294D01*
X156099438Y-156970592D01*
X156066824Y-156984232D01*
X156034418Y-157013834D01*
X155997824Y-157065016D01*
X155952646Y-157143398D01*
X155894488Y-157254600D01*
X155862400Y-157317858D01*
X155810352Y-157418675D01*
X155764956Y-157502280D01*
X155730220Y-157561620D01*
X155710147Y-157589639D01*
X155707417Y-157590806D01*
X155694454Y-157568754D01*
X155665431Y-157511493D01*
X155623255Y-157425016D01*
X155570832Y-157315316D01*
X155511069Y-157188386D01*
X155481671Y-157125339D01*
X155405192Y-156962630D01*
X155343608Y-156837429D01*
X155293722Y-156745651D01*
X155252337Y-156683210D01*
X155216256Y-156646023D01*
X155182281Y-156630004D01*
X155147215Y-156631068D01*
G36*
X160624270Y-156627534D02*
G01*
X160365159Y-156636295D01*
X160144774Y-156662863D01*
X159959481Y-156708828D01*
X159805645Y-156775783D01*
X159679634Y-156865316D01*
X159577813Y-156979019D01*
X159496549Y-157118482D01*
X159494950Y-157121883D01*
X159446451Y-157246702D01*
X159429171Y-157357246D01*
X159443175Y-157468497D01*
X159488532Y-157595433D01*
X159497134Y-157614749D01*
X159555794Y-157727806D01*
X159621720Y-157815165D01*
X159706806Y-157889427D01*
X159822946Y-157963191D01*
X159829693Y-157967042D01*
X159930796Y-158015608D01*
X160045071Y-158051879D01*
X160179859Y-158077106D01*
X160342505Y-158092539D01*
X160540351Y-158099431D01*
X160610253Y-158100030D01*
X160943116Y-158101223D01*
X160990119Y-158041468D01*
X161004062Y-158021819D01*
X161014939Y-157998873D01*
X161023129Y-157967129D01*
X161029013Y-157921082D01*
X161032969Y-157855233D01*
X161034259Y-157806402D01*
X160719623Y-157806402D01*
X160531020Y-157806402D01*
X160420655Y-157803174D01*
X160307359Y-157794681D01*
X160214375Y-157782703D01*
X160208762Y-157781694D01*
X160043610Y-157737388D01*
X159915510Y-157670822D01*
X159820410Y-157578907D01*
X159754257Y-157458555D01*
X159742753Y-157426658D01*
X159731478Y-157376980D01*
X159736360Y-157327900D01*
X159760113Y-157262607D01*
X159774431Y-157230532D01*
X159821318Y-157145297D01*
X159877809Y-157085499D01*
X159939965Y-157043857D01*
X160064468Y-156989668D01*
X160223806Y-156950415D01*
X160409427Y-156927812D01*
X160543864Y-156922837D01*
X160719623Y-156921937D01*
X160719623Y-157806402D01*
X161034259Y-157806402D01*
X161035378Y-157764078D01*
X161036619Y-157642115D01*
X161037072Y-157483841D01*
X161037123Y-157360080D01*
X161037123Y-156738447D01*
X160981457Y-156682781D01*
X160956752Y-156660218D01*
X160930039Y-156644766D01*
X160892736Y-156635098D01*
X160836257Y-156629887D01*
X160752022Y-156627805D01*
X160631445Y-156627524D01*
X160624270Y-156627534D01*
X160624270Y-156627534D01*
G37*
X160624270Y-156627534D02*
X160365159Y-156636295D01*
X160144774Y-156662863D01*
X159959481Y-156708828D01*
X159805645Y-156775783D01*
X159679634Y-156865316D01*
X159577813Y-156979019D01*
X159496549Y-157118482D01*
X159494950Y-157121883D01*
X159446451Y-157246702D01*
X159429171Y-157357246D01*
X159443175Y-157468497D01*
X159488532Y-157595433D01*
X159497134Y-157614749D01*
X159555794Y-157727806D01*
X159621720Y-157815165D01*
X159706806Y-157889427D01*
X159822946Y-157963191D01*
X159829693Y-157967042D01*
X159930796Y-158015608D01*
X160045071Y-158051879D01*
X160179859Y-158077106D01*
X160342505Y-158092539D01*
X160540351Y-158099431D01*
X160610253Y-158100030D01*
X160943116Y-158101223D01*
X160990119Y-158041468D01*
X161004062Y-158021819D01*
X161014939Y-157998873D01*
X161023129Y-157967129D01*
X161029013Y-157921082D01*
X161032969Y-157855233D01*
X161034259Y-157806402D01*
X160719623Y-157806402D01*
X160531020Y-157806402D01*
X160420655Y-157803174D01*
X160307359Y-157794681D01*
X160214375Y-157782703D01*
X160208762Y-157781694D01*
X160043610Y-157737388D01*
X159915510Y-157670822D01*
X159820410Y-157578907D01*
X159754257Y-157458555D01*
X159742753Y-157426658D01*
X159731478Y-157376980D01*
X159736360Y-157327900D01*
X159760113Y-157262607D01*
X159774431Y-157230532D01*
X159821318Y-157145297D01*
X159877809Y-157085499D01*
X159939965Y-157043857D01*
X160064468Y-156989668D01*
X160223806Y-156950415D01*
X160409427Y-156927812D01*
X160543864Y-156922837D01*
X160719623Y-156921937D01*
X160719623Y-157806402D01*
X161034259Y-157806402D01*
X161035378Y-157764078D01*
X161036619Y-157642115D01*
X161037072Y-157483841D01*
X161037123Y-157360080D01*
X161037123Y-156738447D01*
X160981457Y-156682781D01*
X160956752Y-156660218D01*
X160930039Y-156644766D01*
X160892736Y-156635098D01*
X160836257Y-156629887D01*
X160752022Y-156627805D01*
X160631445Y-156627524D01*
X160624270Y-156627534D01*
G36*
X162207237Y-156627503D02*
G01*
X162053838Y-156629340D01*
X161936285Y-156633634D01*
X161849824Y-156641395D01*
X161789700Y-156653633D01*
X161751160Y-156671358D01*
X161729448Y-156695579D01*
X161719810Y-156727305D01*
X161717492Y-156767546D01*
X161717480Y-156772298D01*
X161719492Y-156817814D01*
X161729005Y-156852992D01*
X161751229Y-156879251D01*
X161791378Y-156898012D01*
X161854664Y-156910696D01*
X161946298Y-156918722D01*
X162071493Y-156923512D01*
X162235461Y-156926484D01*
X162285717Y-156927143D01*
X162772033Y-156933277D01*
X162778835Y-157063678D01*
X162785636Y-157194080D01*
X162447841Y-157194080D01*
X162315873Y-157194567D01*
X162221643Y-157196626D01*
X162157535Y-157201155D01*
X162115936Y-157209053D01*
X162089230Y-157221218D01*
X162069802Y-157238548D01*
X162069678Y-157238686D01*
X162034443Y-157306224D01*
X162035717Y-157379221D01*
X162072696Y-157441448D01*
X162080015Y-157447844D01*
X162105990Y-157464328D01*
X162141583Y-157475796D01*
X162194727Y-157483111D01*
X162273352Y-157487138D01*
X162385390Y-157488740D01*
X162457046Y-157488902D01*
X162783373Y-157488902D01*
X162783373Y-157806402D01*
X162287959Y-157806402D01*
X162124394Y-157806688D01*
X162000183Y-157807857D01*
X161909325Y-157810377D01*
X161845820Y-157814715D01*
X161803667Y-157821337D01*
X161776864Y-157830710D01*
X161759411Y-157843302D01*
X161755013Y-157847875D01*
X161722540Y-157911249D01*
X161720164Y-157983347D01*
X161746805Y-158045858D01*
X161767883Y-158065919D01*
X161789810Y-158076963D01*
X161823785Y-158085508D01*
X161875182Y-158091852D01*
X161949375Y-158096295D01*
X162051739Y-158099136D01*
X162187647Y-158100675D01*
X162362475Y-158101210D01*
X162402000Y-158101223D01*
X162579756Y-158101107D01*
X162717738Y-158100465D01*
X162821524Y-158098857D01*
X162896697Y-158095844D01*
X162948839Y-158090986D01*
X162983529Y-158083844D01*
X163006350Y-158073977D01*
X163022883Y-158060946D01*
X163031953Y-158051589D01*
X163045606Y-158035017D01*
X163056272Y-158014487D01*
X163064320Y-157984616D01*
X163070116Y-157940021D01*
X163074027Y-157875317D01*
X163076423Y-157785120D01*
X163077670Y-157664047D01*
X163078136Y-157506713D01*
X163078194Y-157374291D01*
X163078051Y-157188735D01*
X163077374Y-157043065D01*
X163075788Y-156931811D01*
X163072919Y-156849501D01*
X163068393Y-156790666D01*
X163061836Y-156749834D01*
X163052874Y-156721535D01*
X163041133Y-156700298D01*
X163031191Y-156686871D01*
X162984188Y-156627116D01*
X162401237Y-156627116D01*
X162207237Y-156627503D01*
X162207237Y-156627503D01*
G37*
X162207237Y-156627503D02*
X162053838Y-156629340D01*
X161936285Y-156633634D01*
X161849824Y-156641395D01*
X161789700Y-156653633D01*
X161751160Y-156671358D01*
X161729448Y-156695579D01*
X161719810Y-156727305D01*
X161717492Y-156767546D01*
X161717480Y-156772298D01*
X161719492Y-156817814D01*
X161729005Y-156852992D01*
X161751229Y-156879251D01*
X161791378Y-156898012D01*
X161854664Y-156910696D01*
X161946298Y-156918722D01*
X162071493Y-156923512D01*
X162235461Y-156926484D01*
X162285717Y-156927143D01*
X162772033Y-156933277D01*
X162778835Y-157063678D01*
X162785636Y-157194080D01*
X162447841Y-157194080D01*
X162315873Y-157194567D01*
X162221643Y-157196626D01*
X162157535Y-157201155D01*
X162115936Y-157209053D01*
X162089230Y-157221218D01*
X162069802Y-157238548D01*
X162069678Y-157238686D01*
X162034443Y-157306224D01*
X162035717Y-157379221D01*
X162072696Y-157441448D01*
X162080015Y-157447844D01*
X162105990Y-157464328D01*
X162141583Y-157475796D01*
X162194727Y-157483111D01*
X162273352Y-157487138D01*
X162385390Y-157488740D01*
X162457046Y-157488902D01*
X162783373Y-157488902D01*
X162783373Y-157806402D01*
X162287959Y-157806402D01*
X162124394Y-157806688D01*
X162000183Y-157807857D01*
X161909325Y-157810377D01*
X161845820Y-157814715D01*
X161803667Y-157821337D01*
X161776864Y-157830710D01*
X161759411Y-157843302D01*
X161755013Y-157847875D01*
X161722540Y-157911249D01*
X161720164Y-157983347D01*
X161746805Y-158045858D01*
X161767883Y-158065919D01*
X161789810Y-158076963D01*
X161823785Y-158085508D01*
X161875182Y-158091852D01*
X161949375Y-158096295D01*
X162051739Y-158099136D01*
X162187647Y-158100675D01*
X162362475Y-158101210D01*
X162402000Y-158101223D01*
X162579756Y-158101107D01*
X162717738Y-158100465D01*
X162821524Y-158098857D01*
X162896697Y-158095844D01*
X162948839Y-158090986D01*
X162983529Y-158083844D01*
X163006350Y-158073977D01*
X163022883Y-158060946D01*
X163031953Y-158051589D01*
X163045606Y-158035017D01*
X163056272Y-158014487D01*
X163064320Y-157984616D01*
X163070116Y-157940021D01*
X163074027Y-157875317D01*
X163076423Y-157785120D01*
X163077670Y-157664047D01*
X163078136Y-157506713D01*
X163078194Y-157374291D01*
X163078051Y-157188735D01*
X163077374Y-157043065D01*
X163075788Y-156931811D01*
X163072919Y-156849501D01*
X163068393Y-156790666D01*
X163061836Y-156749834D01*
X163052874Y-156721535D01*
X163041133Y-156700298D01*
X163031191Y-156686871D01*
X162984188Y-156627116D01*
X162401237Y-156627116D01*
X162207237Y-156627503D01*
G36*
X165281815Y-156635918D02*
G01*
X165234473Y-156663690D01*
X165172572Y-156709108D01*
X165092903Y-156774312D01*
X164992260Y-156861440D01*
X164867432Y-156972633D01*
X164715212Y-157110030D01*
X164540962Y-157267999D01*
X164178105Y-157597050D01*
X164166765Y-157155388D01*
X164162671Y-157003357D01*
X164158722Y-156890140D01*
X164154042Y-156809203D01*
X164147759Y-156754016D01*
X164138998Y-156718045D01*
X164126886Y-156694758D01*
X164110549Y-156677622D01*
X164101887Y-156670421D01*
X164032517Y-156632346D01*
X163966507Y-156637913D01*
X163914144Y-156670440D01*
X163860605Y-156713765D01*
X163853946Y-157346482D01*
X163852103Y-157532564D01*
X163851165Y-157678744D01*
X163851457Y-157790474D01*
X163853303Y-157873205D01*
X163857030Y-157932389D01*
X163862960Y-157973476D01*
X163871420Y-158001919D01*
X163882733Y-158023168D01*
X163895280Y-158040211D01*
X163922424Y-158071818D01*
X163949433Y-158092769D01*
X163980050Y-158100811D01*
X164018023Y-158093688D01*
X164067098Y-158069149D01*
X164131020Y-158024937D01*
X164213535Y-157958799D01*
X164318390Y-157868482D01*
X164449331Y-157751731D01*
X164597658Y-157617582D01*
X165130605Y-157134152D01*
X165141944Y-157574370D01*
X165146045Y-157726124D01*
X165150005Y-157839077D01*
X165154701Y-157919775D01*
X165161013Y-157974764D01*
X165169817Y-158010588D01*
X165181992Y-158033793D01*
X165198417Y-158050924D01*
X165206823Y-158057906D01*
X165281114Y-158096257D01*
X165351312Y-158090472D01*
X165412441Y-158041468D01*
X165426425Y-158021753D01*
X165437324Y-157998729D01*
X165445521Y-157966872D01*
X165451400Y-157920658D01*
X165455344Y-157854563D01*
X165457736Y-157763062D01*
X165458959Y-157640634D01*
X165459398Y-157481752D01*
X165459444Y-157364169D01*
X165459297Y-157180256D01*
X165458599Y-157036175D01*
X165456967Y-156926403D01*
X165454019Y-156845416D01*
X165449369Y-156787691D01*
X165442637Y-156747704D01*
X165433437Y-156719930D01*
X165421386Y-156698846D01*
X165412441Y-156686871D01*
X165389766Y-156658503D01*
X165368575Y-156637085D01*
X165345658Y-156624755D01*
X165317808Y-156623653D01*
X165281815Y-156635918D01*
X165281815Y-156635918D01*
G37*
X165281815Y-156635918D02*
X165234473Y-156663690D01*
X165172572Y-156709108D01*
X165092903Y-156774312D01*
X164992260Y-156861440D01*
X164867432Y-156972633D01*
X164715212Y-157110030D01*
X164540962Y-157267999D01*
X164178105Y-157597050D01*
X164166765Y-157155388D01*
X164162671Y-157003357D01*
X164158722Y-156890140D01*
X164154042Y-156809203D01*
X164147759Y-156754016D01*
X164138998Y-156718045D01*
X164126886Y-156694758D01*
X164110549Y-156677622D01*
X164101887Y-156670421D01*
X164032517Y-156632346D01*
X163966507Y-156637913D01*
X163914144Y-156670440D01*
X163860605Y-156713765D01*
X163853946Y-157346482D01*
X163852103Y-157532564D01*
X163851165Y-157678744D01*
X163851457Y-157790474D01*
X163853303Y-157873205D01*
X163857030Y-157932389D01*
X163862960Y-157973476D01*
X163871420Y-158001919D01*
X163882733Y-158023168D01*
X163895280Y-158040211D01*
X163922424Y-158071818D01*
X163949433Y-158092769D01*
X163980050Y-158100811D01*
X164018023Y-158093688D01*
X164067098Y-158069149D01*
X164131020Y-158024937D01*
X164213535Y-157958799D01*
X164318390Y-157868482D01*
X164449331Y-157751731D01*
X164597658Y-157617582D01*
X165130605Y-157134152D01*
X165141944Y-157574370D01*
X165146045Y-157726124D01*
X165150005Y-157839077D01*
X165154701Y-157919775D01*
X165161013Y-157974764D01*
X165169817Y-158010588D01*
X165181992Y-158033793D01*
X165198417Y-158050924D01*
X165206823Y-158057906D01*
X165281114Y-158096257D01*
X165351312Y-158090472D01*
X165412441Y-158041468D01*
X165426425Y-158021753D01*
X165437324Y-157998729D01*
X165445521Y-157966872D01*
X165451400Y-157920658D01*
X165455344Y-157854563D01*
X165457736Y-157763062D01*
X165458959Y-157640634D01*
X165459398Y-157481752D01*
X165459444Y-157364169D01*
X165459297Y-157180256D01*
X165458599Y-157036175D01*
X165456967Y-156926403D01*
X165454019Y-156845416D01*
X165449369Y-156787691D01*
X165442637Y-156747704D01*
X165433437Y-156719930D01*
X165421386Y-156698846D01*
X165412441Y-156686871D01*
X165389766Y-156658503D01*
X165368575Y-156637085D01*
X165345658Y-156624755D01*
X165317808Y-156623653D01*
X165281815Y-156635918D01*
G36*
X166587553Y-156638229D02*
G01*
X166449908Y-156661325D01*
X166344194Y-156697228D01*
X166275420Y-156744501D01*
X166256679Y-156771471D01*
X166237621Y-156834198D01*
X166250446Y-156890945D01*
X166290933Y-156944758D01*
X166353842Y-156969933D01*
X166445123Y-156967888D01*
X166515724Y-156954249D01*
X166672606Y-156928263D01*
X166832934Y-156925793D01*
X167012389Y-156946886D01*
X167061958Y-156955823D01*
X167228823Y-157002869D01*
X167359366Y-157072852D01*
X167452156Y-157164579D01*
X167505761Y-157276857D01*
X167516848Y-157334905D01*
X167509591Y-157452676D01*
X167462739Y-157556873D01*
X167380562Y-157645465D01*
X167267329Y-157716421D01*
X167127309Y-157767710D01*
X166964771Y-157797302D01*
X166783985Y-157803166D01*
X166589218Y-157783271D01*
X166578221Y-157781395D01*
X166500754Y-157766966D01*
X166457802Y-157753029D01*
X166439185Y-157732349D01*
X166434724Y-157697693D01*
X166434623Y-157679341D01*
X166434623Y-157602294D01*
X166572185Y-157602294D01*
X166693662Y-157593973D01*
X166776561Y-157567455D01*
X166824794Y-157520412D01*
X166842276Y-157450513D01*
X166842490Y-157441390D01*
X166832261Y-157381645D01*
X166797188Y-157338984D01*
X166731910Y-157310752D01*
X166631070Y-157294294D01*
X166533395Y-157288243D01*
X166391431Y-157284771D01*
X166288457Y-157290069D01*
X166218227Y-157309616D01*
X166174494Y-157348896D01*
X166151010Y-157413389D01*
X166141529Y-157508577D01*
X166139801Y-157633598D01*
X166142632Y-157773146D01*
X166151147Y-157868070D01*
X166165386Y-157918747D01*
X166168149Y-157922716D01*
X166246330Y-157986039D01*
X166360955Y-158036185D01*
X166504760Y-158072085D01*
X166670476Y-158092667D01*
X166850838Y-158096860D01*
X167038578Y-158083592D01*
X167148998Y-158067295D01*
X167322188Y-158018274D01*
X167483154Y-157938133D01*
X167617924Y-157834121D01*
X167638408Y-157813332D01*
X167704961Y-157725936D01*
X167765011Y-157617621D01*
X167811544Y-157504063D01*
X167837543Y-157400940D01*
X167840676Y-157361334D01*
X167827336Y-157278717D01*
X167791880Y-157175926D01*
X167741111Y-157067729D01*
X167681832Y-156968892D01*
X167629459Y-156902875D01*
X167507006Y-156804675D01*
X167348712Y-156726515D01*
X167160249Y-156670162D01*
X166947290Y-156637386D01*
X166752123Y-156629377D01*
X166587553Y-156638229D01*
X166587553Y-156638229D01*
G37*
X166587553Y-156638229D02*
X166449908Y-156661325D01*
X166344194Y-156697228D01*
X166275420Y-156744501D01*
X166256679Y-156771471D01*
X166237621Y-156834198D01*
X166250446Y-156890945D01*
X166290933Y-156944758D01*
X166353842Y-156969933D01*
X166445123Y-156967888D01*
X166515724Y-156954249D01*
X166672606Y-156928263D01*
X166832934Y-156925793D01*
X167012389Y-156946886D01*
X167061958Y-156955823D01*
X167228823Y-157002869D01*
X167359366Y-157072852D01*
X167452156Y-157164579D01*
X167505761Y-157276857D01*
X167516848Y-157334905D01*
X167509591Y-157452676D01*
X167462739Y-157556873D01*
X167380562Y-157645465D01*
X167267329Y-157716421D01*
X167127309Y-157767710D01*
X166964771Y-157797302D01*
X166783985Y-157803166D01*
X166589218Y-157783271D01*
X166578221Y-157781395D01*
X166500754Y-157766966D01*
X166457802Y-157753029D01*
X166439185Y-157732349D01*
X166434724Y-157697693D01*
X166434623Y-157679341D01*
X166434623Y-157602294D01*
X166572185Y-157602294D01*
X166693662Y-157593973D01*
X166776561Y-157567455D01*
X166824794Y-157520412D01*
X166842276Y-157450513D01*
X166842490Y-157441390D01*
X166832261Y-157381645D01*
X166797188Y-157338984D01*
X166731910Y-157310752D01*
X166631070Y-157294294D01*
X166533395Y-157288243D01*
X166391431Y-157284771D01*
X166288457Y-157290069D01*
X166218227Y-157309616D01*
X166174494Y-157348896D01*
X166151010Y-157413389D01*
X166141529Y-157508577D01*
X166139801Y-157633598D01*
X166142632Y-157773146D01*
X166151147Y-157868070D01*
X166165386Y-157918747D01*
X166168149Y-157922716D01*
X166246330Y-157986039D01*
X166360955Y-158036185D01*
X166504760Y-158072085D01*
X166670476Y-158092667D01*
X166850838Y-158096860D01*
X167038578Y-158083592D01*
X167148998Y-158067295D01*
X167322188Y-158018274D01*
X167483154Y-157938133D01*
X167617924Y-157834121D01*
X167638408Y-157813332D01*
X167704961Y-157725936D01*
X167765011Y-157617621D01*
X167811544Y-157504063D01*
X167837543Y-157400940D01*
X167840676Y-157361334D01*
X167827336Y-157278717D01*
X167791880Y-157175926D01*
X167741111Y-157067729D01*
X167681832Y-156968892D01*
X167629459Y-156902875D01*
X167507006Y-156804675D01*
X167348712Y-156726515D01*
X167160249Y-156670162D01*
X166947290Y-156637386D01*
X166752123Y-156629377D01*
X166587553Y-156638229D01*
G36*
X168543730Y-156672473D02*
G01*
X168530509Y-156687687D01*
X168520139Y-156707314D01*
X168512273Y-156736611D01*
X168506567Y-156780836D01*
X168502677Y-156845247D01*
X168500258Y-156935101D01*
X168498964Y-157055657D01*
X168498452Y-157212171D01*
X168498373Y-157364169D01*
X168498513Y-157552701D01*
X168499162Y-157701133D01*
X168500666Y-157814724D01*
X168503369Y-157898732D01*
X168507616Y-157958413D01*
X168513752Y-157999025D01*
X168522121Y-158025827D01*
X168533069Y-158044076D01*
X168543730Y-158055866D01*
X168610031Y-158095403D01*
X168680676Y-158091854D01*
X168743884Y-158048734D01*
X168758407Y-158031900D01*
X168769757Y-158012367D01*
X168778325Y-157984738D01*
X168784502Y-157943612D01*
X168788678Y-157883591D01*
X168791245Y-157799274D01*
X168792592Y-157685263D01*
X168793112Y-157536157D01*
X168793194Y-157367346D01*
X168793194Y-156738447D01*
X168737528Y-156682781D01*
X168668914Y-156635948D01*
X168602357Y-156634261D01*
X168543730Y-156672473D01*
X168543730Y-156672473D01*
G37*
X168543730Y-156672473D02*
X168530509Y-156687687D01*
X168520139Y-156707314D01*
X168512273Y-156736611D01*
X168506567Y-156780836D01*
X168502677Y-156845247D01*
X168500258Y-156935101D01*
X168498964Y-157055657D01*
X168498452Y-157212171D01*
X168498373Y-157364169D01*
X168498513Y-157552701D01*
X168499162Y-157701133D01*
X168500666Y-157814724D01*
X168503369Y-157898732D01*
X168507616Y-157958413D01*
X168513752Y-157999025D01*
X168522121Y-158025827D01*
X168533069Y-158044076D01*
X168543730Y-158055866D01*
X168610031Y-158095403D01*
X168680676Y-158091854D01*
X168743884Y-158048734D01*
X168758407Y-158031900D01*
X168769757Y-158012367D01*
X168778325Y-157984738D01*
X168784502Y-157943612D01*
X168788678Y-157883591D01*
X168791245Y-157799274D01*
X168792592Y-157685263D01*
X168793112Y-157536157D01*
X168793194Y-157367346D01*
X168793194Y-156738447D01*
X168737528Y-156682781D01*
X168668914Y-156635948D01*
X168602357Y-156634261D01*
X168543730Y-156672473D01*
G36*
X170086346Y-156629696D02*
G01*
X169936048Y-156640203D01*
X169796263Y-156656614D01*
X169675117Y-156678310D01*
X169580734Y-156704673D01*
X169521241Y-156735087D01*
X169512109Y-156744040D01*
X169480355Y-156813511D01*
X169489984Y-156884831D01*
X169539237Y-156945850D01*
X169541587Y-156947598D01*
X169570557Y-156966399D01*
X169600799Y-156976285D01*
X169642981Y-156977486D01*
X169707772Y-156970230D01*
X169805841Y-156954747D01*
X169813730Y-156953444D01*
X169959857Y-156935492D01*
X170117514Y-156926636D01*
X170275636Y-156926550D01*
X170423160Y-156934908D01*
X170549020Y-156951382D01*
X170642152Y-156975646D01*
X170648271Y-156978085D01*
X170715835Y-157015940D01*
X170739573Y-157054250D01*
X170720990Y-157091927D01*
X170661591Y-157127883D01*
X170562881Y-157161029D01*
X170426365Y-157190277D01*
X170335337Y-157204359D01*
X170146118Y-157231446D01*
X169995625Y-157256207D01*
X169877446Y-157280786D01*
X169785171Y-157307328D01*
X169712390Y-157337976D01*
X169652690Y-157374875D01*
X169599662Y-157420168D01*
X169557049Y-157464646D01*
X169506494Y-157526618D01*
X169481615Y-157579907D01*
X169473834Y-157645562D01*
X169473551Y-157669606D01*
X169479395Y-157749394D01*
X169502751Y-157808753D01*
X169543173Y-157861439D01*
X169625324Y-157941977D01*
X169716932Y-158003397D01*
X169824804Y-158047702D01*
X169955745Y-158076895D01*
X170116564Y-158092979D01*
X170314066Y-158097956D01*
X170346676Y-158097872D01*
X170478381Y-158095142D01*
X170608995Y-158088939D01*
X170724281Y-158080153D01*
X170810000Y-158069673D01*
X170816933Y-158068470D01*
X170902159Y-158048281D01*
X170974447Y-158022778D01*
X171015370Y-157999462D01*
X171053454Y-157937952D01*
X171056105Y-157866325D01*
X171023275Y-157802494D01*
X171015930Y-157795276D01*
X170985568Y-157773830D01*
X170947598Y-157764590D01*
X170888832Y-157766163D01*
X170817492Y-157774336D01*
X170737777Y-157781637D01*
X170626029Y-157787797D01*
X170495572Y-157792267D01*
X170359726Y-157794499D01*
X170323998Y-157794646D01*
X170187646Y-157794096D01*
X170087856Y-157791449D01*
X170015848Y-157785786D01*
X169962840Y-157776189D01*
X169920053Y-157761740D01*
X169894340Y-157749705D01*
X169837837Y-157716288D01*
X169801813Y-157686024D01*
X169796548Y-157677445D01*
X169807655Y-157642019D01*
X169860457Y-157607724D01*
X169951296Y-157576117D01*
X170076512Y-157548754D01*
X170113404Y-157542659D01*
X170306098Y-157512393D01*
X170459884Y-157487096D01*
X170580697Y-157464929D01*
X170674475Y-157444053D01*
X170747151Y-157422630D01*
X170804663Y-157398822D01*
X170852945Y-157370791D01*
X170897933Y-157336698D01*
X170945563Y-157294705D01*
X170961591Y-157279982D01*
X171017786Y-157225037D01*
X171047532Y-157181504D01*
X171059169Y-157131688D01*
X171061051Y-157068912D01*
X171040331Y-156945808D01*
X170978409Y-156841214D01*
X170875639Y-156755468D01*
X170732378Y-156688907D01*
X170630158Y-156659052D01*
X170519063Y-156639770D01*
X170385979Y-156628862D01*
X170239032Y-156625710D01*
X170086346Y-156629696D01*
X170086346Y-156629696D01*
G37*
X170086346Y-156629696D02*
X169936048Y-156640203D01*
X169796263Y-156656614D01*
X169675117Y-156678310D01*
X169580734Y-156704673D01*
X169521241Y-156735087D01*
X169512109Y-156744040D01*
X169480355Y-156813511D01*
X169489984Y-156884831D01*
X169539237Y-156945850D01*
X169541587Y-156947598D01*
X169570557Y-156966399D01*
X169600799Y-156976285D01*
X169642981Y-156977486D01*
X169707772Y-156970230D01*
X169805841Y-156954747D01*
X169813730Y-156953444D01*
X169959857Y-156935492D01*
X170117514Y-156926636D01*
X170275636Y-156926550D01*
X170423160Y-156934908D01*
X170549020Y-156951382D01*
X170642152Y-156975646D01*
X170648271Y-156978085D01*
X170715835Y-157015940D01*
X170739573Y-157054250D01*
X170720990Y-157091927D01*
X170661591Y-157127883D01*
X170562881Y-157161029D01*
X170426365Y-157190277D01*
X170335337Y-157204359D01*
X170146118Y-157231446D01*
X169995625Y-157256207D01*
X169877446Y-157280786D01*
X169785171Y-157307328D01*
X169712390Y-157337976D01*
X169652690Y-157374875D01*
X169599662Y-157420168D01*
X169557049Y-157464646D01*
X169506494Y-157526618D01*
X169481615Y-157579907D01*
X169473834Y-157645562D01*
X169473551Y-157669606D01*
X169479395Y-157749394D01*
X169502751Y-157808753D01*
X169543173Y-157861439D01*
X169625324Y-157941977D01*
X169716932Y-158003397D01*
X169824804Y-158047702D01*
X169955745Y-158076895D01*
X170116564Y-158092979D01*
X170314066Y-158097956D01*
X170346676Y-158097872D01*
X170478381Y-158095142D01*
X170608995Y-158088939D01*
X170724281Y-158080153D01*
X170810000Y-158069673D01*
X170816933Y-158068470D01*
X170902159Y-158048281D01*
X170974447Y-158022778D01*
X171015370Y-157999462D01*
X171053454Y-157937952D01*
X171056105Y-157866325D01*
X171023275Y-157802494D01*
X171015930Y-157795276D01*
X170985568Y-157773830D01*
X170947598Y-157764590D01*
X170888832Y-157766163D01*
X170817492Y-157774336D01*
X170737777Y-157781637D01*
X170626029Y-157787797D01*
X170495572Y-157792267D01*
X170359726Y-157794499D01*
X170323998Y-157794646D01*
X170187646Y-157794096D01*
X170087856Y-157791449D01*
X170015848Y-157785786D01*
X169962840Y-157776189D01*
X169920053Y-157761740D01*
X169894340Y-157749705D01*
X169837837Y-157716288D01*
X169801813Y-157686024D01*
X169796548Y-157677445D01*
X169807655Y-157642019D01*
X169860457Y-157607724D01*
X169951296Y-157576117D01*
X170076512Y-157548754D01*
X170113404Y-157542659D01*
X170306098Y-157512393D01*
X170459884Y-157487096D01*
X170580697Y-157464929D01*
X170674475Y-157444053D01*
X170747151Y-157422630D01*
X170804663Y-157398822D01*
X170852945Y-157370791D01*
X170897933Y-157336698D01*
X170945563Y-157294705D01*
X170961591Y-157279982D01*
X171017786Y-157225037D01*
X171047532Y-157181504D01*
X171059169Y-157131688D01*
X171061051Y-157068912D01*
X171040331Y-156945808D01*
X170978409Y-156841214D01*
X170875639Y-156755468D01*
X170732378Y-156688907D01*
X170630158Y-156659052D01*
X170519063Y-156639770D01*
X170385979Y-156628862D01*
X170239032Y-156625710D01*
X170086346Y-156629696D01*
G36*
X172137646Y-156627275D02*
G01*
X171998210Y-156628023D01*
X171892963Y-156629763D01*
X171816324Y-156632900D01*
X171762710Y-156637836D01*
X171726537Y-156644976D01*
X171702221Y-156654724D01*
X171684181Y-156667484D01*
X171677649Y-156673356D01*
X171637922Y-156735750D01*
X171630769Y-156807441D01*
X171656903Y-156871087D01*
X171668987Y-156883950D01*
X171688532Y-156896421D01*
X171720003Y-156906043D01*
X171769236Y-156913282D01*
X171842066Y-156918606D01*
X171944329Y-156922485D01*
X172081862Y-156925387D01*
X172207603Y-156927152D01*
X172705248Y-156933277D01*
X172712049Y-157063678D01*
X172718850Y-157194080D01*
X172381055Y-157194080D01*
X172234406Y-157195345D01*
X172127044Y-157200637D01*
X172052937Y-157212201D01*
X172006049Y-157232281D01*
X171980347Y-157263121D01*
X171969796Y-157306967D01*
X171968194Y-157347660D01*
X171973173Y-157397591D01*
X171991964Y-157434383D01*
X172030347Y-157459958D01*
X172094100Y-157476239D01*
X172189004Y-157485149D01*
X172320838Y-157488610D01*
X172392794Y-157488902D01*
X172716587Y-157488902D01*
X172716587Y-157806402D01*
X172217658Y-157806402D01*
X172054113Y-157806629D01*
X171929817Y-157807652D01*
X171838666Y-157809979D01*
X171774552Y-157814118D01*
X171731370Y-157820580D01*
X171703013Y-157829871D01*
X171683375Y-157842502D01*
X171673373Y-157851759D01*
X171639062Y-157905786D01*
X171628015Y-157953812D01*
X171643789Y-158012474D01*
X171673373Y-158055866D01*
X171689156Y-158069526D01*
X171709531Y-158080133D01*
X171739978Y-158088071D01*
X171785977Y-158093726D01*
X171853010Y-158097482D01*
X171946558Y-158099723D01*
X172072100Y-158100834D01*
X172235118Y-158101199D01*
X172319712Y-158101223D01*
X172500868Y-158101063D01*
X172642148Y-158100325D01*
X172749032Y-158098627D01*
X172827002Y-158095582D01*
X172881539Y-158090806D01*
X172918122Y-158083915D01*
X172942233Y-158074524D01*
X172959353Y-158062248D01*
X172966051Y-158055866D01*
X172979308Y-158040605D01*
X172989699Y-158020916D01*
X172997571Y-157991524D01*
X173003273Y-157947153D01*
X173007152Y-157882526D01*
X173009557Y-157792367D01*
X173010836Y-157671401D01*
X173011335Y-157514351D01*
X173011408Y-157368123D01*
X173011341Y-157180857D01*
X173010870Y-157033651D01*
X173009593Y-156921205D01*
X173007109Y-156838222D01*
X173003016Y-156779403D01*
X172996911Y-156739450D01*
X172988392Y-156713064D01*
X172977058Y-156694948D01*
X172962505Y-156679803D01*
X172958920Y-156676426D01*
X172941521Y-156661478D01*
X172921305Y-156649903D01*
X172892664Y-156641268D01*
X172849989Y-156635145D01*
X172787675Y-156631102D01*
X172700112Y-156628709D01*
X172581693Y-156627534D01*
X172426811Y-156627148D01*
X172316857Y-156627116D01*
X172137646Y-156627275D01*
X172137646Y-156627275D01*
G37*
X172137646Y-156627275D02*
X171998210Y-156628023D01*
X171892963Y-156629763D01*
X171816324Y-156632900D01*
X171762710Y-156637836D01*
X171726537Y-156644976D01*
X171702221Y-156654724D01*
X171684181Y-156667484D01*
X171677649Y-156673356D01*
X171637922Y-156735750D01*
X171630769Y-156807441D01*
X171656903Y-156871087D01*
X171668987Y-156883950D01*
X171688532Y-156896421D01*
X171720003Y-156906043D01*
X171769236Y-156913282D01*
X171842066Y-156918606D01*
X171944329Y-156922485D01*
X172081862Y-156925387D01*
X172207603Y-156927152D01*
X172705248Y-156933277D01*
X172712049Y-157063678D01*
X172718850Y-157194080D01*
X172381055Y-157194080D01*
X172234406Y-157195345D01*
X172127044Y-157200637D01*
X172052937Y-157212201D01*
X172006049Y-157232281D01*
X171980347Y-157263121D01*
X171969796Y-157306967D01*
X171968194Y-157347660D01*
X171973173Y-157397591D01*
X171991964Y-157434383D01*
X172030347Y-157459958D01*
X172094100Y-157476239D01*
X172189004Y-157485149D01*
X172320838Y-157488610D01*
X172392794Y-157488902D01*
X172716587Y-157488902D01*
X172716587Y-157806402D01*
X172217658Y-157806402D01*
X172054113Y-157806629D01*
X171929817Y-157807652D01*
X171838666Y-157809979D01*
X171774552Y-157814118D01*
X171731370Y-157820580D01*
X171703013Y-157829871D01*
X171683375Y-157842502D01*
X171673373Y-157851759D01*
X171639062Y-157905786D01*
X171628015Y-157953812D01*
X171643789Y-158012474D01*
X171673373Y-158055866D01*
X171689156Y-158069526D01*
X171709531Y-158080133D01*
X171739978Y-158088071D01*
X171785977Y-158093726D01*
X171853010Y-158097482D01*
X171946558Y-158099723D01*
X172072100Y-158100834D01*
X172235118Y-158101199D01*
X172319712Y-158101223D01*
X172500868Y-158101063D01*
X172642148Y-158100325D01*
X172749032Y-158098627D01*
X172827002Y-158095582D01*
X172881539Y-158090806D01*
X172918122Y-158083915D01*
X172942233Y-158074524D01*
X172959353Y-158062248D01*
X172966051Y-158055866D01*
X172979308Y-158040605D01*
X172989699Y-158020916D01*
X172997571Y-157991524D01*
X173003273Y-157947153D01*
X173007152Y-157882526D01*
X173009557Y-157792367D01*
X173010836Y-157671401D01*
X173011335Y-157514351D01*
X173011408Y-157368123D01*
X173011341Y-157180857D01*
X173010870Y-157033651D01*
X173009593Y-156921205D01*
X173007109Y-156838222D01*
X173003016Y-156779403D01*
X172996911Y-156739450D01*
X172988392Y-156713064D01*
X172977058Y-156694948D01*
X172962505Y-156679803D01*
X172958920Y-156676426D01*
X172941521Y-156661478D01*
X172921305Y-156649903D01*
X172892664Y-156641268D01*
X172849989Y-156635145D01*
X172787675Y-156631102D01*
X172700112Y-156628709D01*
X172581693Y-156627534D01*
X172426811Y-156627148D01*
X172316857Y-156627116D01*
X172137646Y-156627275D01*
G36*
X174967377Y-156627114D02*
G01*
X174888060Y-156627920D01*
X174655649Y-156633528D01*
X174461006Y-156650185D01*
X174297496Y-156679680D01*
X174158486Y-156723797D01*
X174037341Y-156784325D01*
X173927429Y-156863050D01*
X173888171Y-156897248D01*
X173823049Y-156977265D01*
X173764328Y-157085846D01*
X173719069Y-157206203D01*
X173694335Y-157321547D01*
X173691765Y-157364169D01*
X173707870Y-157482322D01*
X173751027Y-157611382D01*
X173813504Y-157733542D01*
X173887567Y-157830992D01*
X173899597Y-157842750D01*
X174001499Y-157925394D01*
X174113088Y-157989909D01*
X174240798Y-158037983D01*
X174391062Y-158071307D01*
X174570314Y-158091572D01*
X174784987Y-158100469D01*
X174883317Y-158101223D01*
X175008340Y-158100621D01*
X175096262Y-158098104D01*
X175155333Y-158092604D01*
X175193800Y-158083055D01*
X175219912Y-158068389D01*
X175233908Y-158055866D01*
X175247129Y-158040652D01*
X175257500Y-158021025D01*
X175265365Y-157991728D01*
X175271071Y-157947503D01*
X175274961Y-157883092D01*
X175277380Y-157793237D01*
X175278674Y-157672682D01*
X175279186Y-157516167D01*
X175279265Y-157364169D01*
X175279765Y-157161440D01*
X175279657Y-156999491D01*
X175277728Y-156921937D01*
X174984444Y-156921937D01*
X174984444Y-157806402D01*
X174797346Y-157806230D01*
X174684764Y-157803001D01*
X174566852Y-157794683D01*
X174468473Y-157783048D01*
X174465480Y-157782569D01*
X174306480Y-157744127D01*
X174183154Y-157684256D01*
X174089343Y-157599058D01*
X174029737Y-157506814D01*
X173993010Y-157404489D01*
X173995858Y-157308409D01*
X174038482Y-157205419D01*
X174121854Y-157098876D01*
X174237386Y-157019927D01*
X174387557Y-156967156D01*
X174487919Y-156948481D01*
X174601843Y-156935366D01*
X174722585Y-156925873D01*
X174825281Y-156921927D01*
X174831364Y-156921908D01*
X174984444Y-156921937D01*
X175277728Y-156921937D01*
X175276529Y-156873782D01*
X175267966Y-156779771D01*
X175251558Y-156712920D01*
X175224890Y-156668686D01*
X175185551Y-156642529D01*
X175131128Y-156629909D01*
X175059207Y-156626284D01*
X174967377Y-156627114D01*
X174967377Y-156627114D01*
G37*
X174967377Y-156627114D02*
X174888060Y-156627920D01*
X174655649Y-156633528D01*
X174461006Y-156650185D01*
X174297496Y-156679680D01*
X174158486Y-156723797D01*
X174037341Y-156784325D01*
X173927429Y-156863050D01*
X173888171Y-156897248D01*
X173823049Y-156977265D01*
X173764328Y-157085846D01*
X173719069Y-157206203D01*
X173694335Y-157321547D01*
X173691765Y-157364169D01*
X173707870Y-157482322D01*
X173751027Y-157611382D01*
X173813504Y-157733542D01*
X173887567Y-157830992D01*
X173899597Y-157842750D01*
X174001499Y-157925394D01*
X174113088Y-157989909D01*
X174240798Y-158037983D01*
X174391062Y-158071307D01*
X174570314Y-158091572D01*
X174784987Y-158100469D01*
X174883317Y-158101223D01*
X175008340Y-158100621D01*
X175096262Y-158098104D01*
X175155333Y-158092604D01*
X175193800Y-158083055D01*
X175219912Y-158068389D01*
X175233908Y-158055866D01*
X175247129Y-158040652D01*
X175257500Y-158021025D01*
X175265365Y-157991728D01*
X175271071Y-157947503D01*
X175274961Y-157883092D01*
X175277380Y-157793237D01*
X175278674Y-157672682D01*
X175279186Y-157516167D01*
X175279265Y-157364169D01*
X175279765Y-157161440D01*
X175279657Y-156999491D01*
X175277728Y-156921937D01*
X174984444Y-156921937D01*
X174984444Y-157806402D01*
X174797346Y-157806230D01*
X174684764Y-157803001D01*
X174566852Y-157794683D01*
X174468473Y-157783048D01*
X174465480Y-157782569D01*
X174306480Y-157744127D01*
X174183154Y-157684256D01*
X174089343Y-157599058D01*
X174029737Y-157506814D01*
X173993010Y-157404489D01*
X173995858Y-157308409D01*
X174038482Y-157205419D01*
X174121854Y-157098876D01*
X174237386Y-157019927D01*
X174387557Y-156967156D01*
X174487919Y-156948481D01*
X174601843Y-156935366D01*
X174722585Y-156925873D01*
X174825281Y-156921927D01*
X174831364Y-156921908D01*
X174984444Y-156921937D01*
X175277728Y-156921937D01*
X175276529Y-156873782D01*
X175267966Y-156779771D01*
X175251558Y-156712920D01*
X175224890Y-156668686D01*
X175185551Y-156642529D01*
X175131128Y-156629909D01*
X175059207Y-156626284D01*
X174967377Y-156627114D01*
G36*
X168297844Y-143814844D02*
G01*
X168092742Y-143885957D01*
X167901785Y-143997889D01*
X167731243Y-144150625D01*
X167587387Y-144344151D01*
X167522768Y-144466129D01*
X167466842Y-144636743D01*
X167439735Y-144833711D01*
X167442738Y-145036205D01*
X167476067Y-145219699D01*
X167567162Y-145443924D01*
X167699258Y-145638422D01*
X167865642Y-145799367D01*
X168059598Y-145922933D01*
X168274414Y-146005292D01*
X168503375Y-146042617D01*
X168739767Y-146031082D01*
X168856291Y-146006430D01*
X169083385Y-145918091D01*
X169285081Y-145783290D01*
X169456515Y-145606183D01*
X169592820Y-145390927D01*
X169604352Y-145367419D01*
X169644217Y-145279205D01*
X169669249Y-145204910D01*
X169682839Y-145126535D01*
X169688382Y-145026080D01*
X169689302Y-144916774D01*
X169687780Y-144785448D01*
X169680914Y-144690509D01*
X169665250Y-144613753D01*
X169637333Y-144536974D01*
X169602873Y-144461223D01*
X169474338Y-144246190D01*
X169316052Y-144072080D01*
X169134287Y-143938876D01*
X168935313Y-143846566D01*
X168725400Y-143795134D01*
X168510821Y-143784565D01*
X168297844Y-143814844D01*
X168297844Y-143814844D01*
G37*
X168297844Y-143814844D02*
X168092742Y-143885957D01*
X167901785Y-143997889D01*
X167731243Y-144150625D01*
X167587387Y-144344151D01*
X167522768Y-144466129D01*
X167466842Y-144636743D01*
X167439735Y-144833711D01*
X167442738Y-145036205D01*
X167476067Y-145219699D01*
X167567162Y-145443924D01*
X167699258Y-145638422D01*
X167865642Y-145799367D01*
X168059598Y-145922933D01*
X168274414Y-146005292D01*
X168503375Y-146042617D01*
X168739767Y-146031082D01*
X168856291Y-146006430D01*
X169083385Y-145918091D01*
X169285081Y-145783290D01*
X169456515Y-145606183D01*
X169592820Y-145390927D01*
X169604352Y-145367419D01*
X169644217Y-145279205D01*
X169669249Y-145204910D01*
X169682839Y-145126535D01*
X169688382Y-145026080D01*
X169689302Y-144916774D01*
X169687780Y-144785448D01*
X169680914Y-144690509D01*
X169665250Y-144613753D01*
X169637333Y-144536974D01*
X169602873Y-144461223D01*
X169474338Y-144246190D01*
X169316052Y-144072080D01*
X169134287Y-143938876D01*
X168935313Y-143846566D01*
X168725400Y-143795134D01*
X168510821Y-143784565D01*
X168297844Y-143814844D01*
G36*
X149264033Y-145645618D02*
G01*
X149031746Y-145646571D01*
X148952796Y-145647052D01*
X147867151Y-145654193D01*
X147853495Y-149819247D01*
X147851692Y-150384041D01*
X147850092Y-150896864D01*
X147848594Y-151360371D01*
X147847094Y-151777214D01*
X147845491Y-152150045D01*
X147843680Y-152481519D01*
X147841560Y-152774286D01*
X147839028Y-153031002D01*
X147835980Y-153254318D01*
X147832315Y-153446887D01*
X147827929Y-153611363D01*
X147822720Y-153750398D01*
X147816584Y-153866644D01*
X147809420Y-153962756D01*
X147801125Y-154041386D01*
X147791595Y-154105187D01*
X147780728Y-154156811D01*
X147768421Y-154198912D01*
X147754572Y-154234143D01*
X147739077Y-154265156D01*
X147721835Y-154294604D01*
X147702742Y-154325141D01*
X147681695Y-154359418D01*
X147677381Y-154366720D01*
X147605004Y-154490221D01*
X148651024Y-154483068D01*
X149697044Y-154475914D01*
X149710699Y-154246142D01*
X149718135Y-154135873D01*
X149725883Y-154072122D01*
X149736397Y-154046827D01*
X149752128Y-154051922D01*
X149765323Y-154066498D01*
X149822803Y-154119591D01*
X149916487Y-154187837D01*
X150033175Y-154263080D01*
X150159669Y-154337167D01*
X150282769Y-154401943D01*
X150377287Y-154444561D01*
X150598726Y-154514595D01*
X150852793Y-154564204D01*
X151120734Y-154591494D01*
X151383789Y-154594569D01*
X151623205Y-154571532D01*
X151627147Y-154570873D01*
X151954747Y-154488669D01*
X152261413Y-154357700D01*
X152544186Y-154180780D01*
X152800108Y-153960726D01*
X153026222Y-153700351D01*
X153219570Y-153402472D01*
X153377194Y-153069904D01*
X153463016Y-152823548D01*
X153519611Y-152617445D01*
X153561582Y-152417867D01*
X153590211Y-152212690D01*
X153606782Y-151989791D01*
X153612577Y-151737045D01*
X153610011Y-151530662D01*
X151594675Y-151530662D01*
X151585138Y-151876732D01*
X151555054Y-152174467D01*
X151503497Y-152426510D01*
X151429542Y-152635502D01*
X151332262Y-152804086D01*
X151210734Y-152934906D01*
X151070454Y-153027385D01*
X150997460Y-153061909D01*
X150934153Y-153082607D01*
X150863573Y-153092077D01*
X150768758Y-153092915D01*
X150666613Y-153089228D01*
X150465739Y-153071510D01*
X150306866Y-153036813D01*
X150256936Y-153019433D01*
X150142925Y-152968102D01*
X150022677Y-152903643D01*
X149970162Y-152871376D01*
X149833603Y-152781805D01*
X149833603Y-149942706D01*
X149983818Y-149852665D01*
X150193308Y-149750923D01*
X150407342Y-149690751D01*
X150618091Y-149671796D01*
X150817727Y-149693701D01*
X150998423Y-149756113D01*
X151152351Y-149858676D01*
X151202019Y-149907906D01*
X151321738Y-150069211D01*
X151418636Y-150264471D01*
X151493523Y-150497031D01*
X151547207Y-150770239D01*
X151580500Y-151087441D01*
X151594211Y-151451984D01*
X151594675Y-151530662D01*
X153610011Y-151530662D01*
X153608942Y-151444756D01*
X153585918Y-150995158D01*
X153539622Y-150589628D01*
X153468836Y-150222257D01*
X153372339Y-149887137D01*
X153248913Y-149578363D01*
X153204869Y-149486822D01*
X153027460Y-149188296D01*
X152813070Y-148923007D01*
X152566741Y-148695237D01*
X152293513Y-148509268D01*
X151998426Y-148369382D01*
X151821541Y-148311678D01*
X151647822Y-148277422D01*
X151438795Y-148257041D01*
X151211986Y-148250525D01*
X150984916Y-148257866D01*
X150775108Y-148279055D01*
X150606648Y-148312295D01*
X150406143Y-148377482D01*
X150211805Y-148461307D01*
X150041776Y-148555280D01*
X149951279Y-148619058D01*
X149888856Y-148666484D01*
X149845147Y-148695361D01*
X149835204Y-148699462D01*
X149832121Y-148673041D01*
X149829247Y-148597339D01*
X149826645Y-148477698D01*
X149824379Y-148319462D01*
X149822512Y-148127973D01*
X149821109Y-147908574D01*
X149820233Y-147666607D01*
X149819947Y-147420147D01*
X149820106Y-147104476D01*
X149820892Y-146838337D01*
X149822762Y-146616641D01*
X149826175Y-146434296D01*
X149831591Y-146286212D01*
X149839469Y-146167299D01*
X149850267Y-146072465D01*
X149864445Y-145996620D01*
X149882461Y-145934674D01*
X149904775Y-145881536D01*
X149931846Y-145832115D01*
X149964133Y-145781321D01*
X149968287Y-145775031D01*
X150009929Y-145709245D01*
X150035071Y-145664008D01*
X150038441Y-145654466D01*
X150012097Y-145651455D01*
X149936931Y-145649006D01*
X149818743Y-145647158D01*
X149663331Y-145645951D01*
X149476494Y-145645424D01*
X149264033Y-145645618D01*
X149264033Y-145645618D01*
G37*
X149264033Y-145645618D02*
X149031746Y-145646571D01*
X148952796Y-145647052D01*
X147867151Y-145654193D01*
X147853495Y-149819247D01*
X147851692Y-150384041D01*
X147850092Y-150896864D01*
X147848594Y-151360371D01*
X147847094Y-151777214D01*
X147845491Y-152150045D01*
X147843680Y-152481519D01*
X147841560Y-152774286D01*
X147839028Y-153031002D01*
X147835980Y-153254318D01*
X147832315Y-153446887D01*
X147827929Y-153611363D01*
X147822720Y-153750398D01*
X147816584Y-153866644D01*
X147809420Y-153962756D01*
X147801125Y-154041386D01*
X147791595Y-154105187D01*
X147780728Y-154156811D01*
X147768421Y-154198912D01*
X147754572Y-154234143D01*
X147739077Y-154265156D01*
X147721835Y-154294604D01*
X147702742Y-154325141D01*
X147681695Y-154359418D01*
X147677381Y-154366720D01*
X147605004Y-154490221D01*
X148651024Y-154483068D01*
X149697044Y-154475914D01*
X149710699Y-154246142D01*
X149718135Y-154135873D01*
X149725883Y-154072122D01*
X149736397Y-154046827D01*
X149752128Y-154051922D01*
X149765323Y-154066498D01*
X149822803Y-154119591D01*
X149916487Y-154187837D01*
X150033175Y-154263080D01*
X150159669Y-154337167D01*
X150282769Y-154401943D01*
X150377287Y-154444561D01*
X150598726Y-154514595D01*
X150852793Y-154564204D01*
X151120734Y-154591494D01*
X151383789Y-154594569D01*
X151623205Y-154571532D01*
X151627147Y-154570873D01*
X151954747Y-154488669D01*
X152261413Y-154357700D01*
X152544186Y-154180780D01*
X152800108Y-153960726D01*
X153026222Y-153700351D01*
X153219570Y-153402472D01*
X153377194Y-153069904D01*
X153463016Y-152823548D01*
X153519611Y-152617445D01*
X153561582Y-152417867D01*
X153590211Y-152212690D01*
X153606782Y-151989791D01*
X153612577Y-151737045D01*
X153610011Y-151530662D01*
X151594675Y-151530662D01*
X151585138Y-151876732D01*
X151555054Y-152174467D01*
X151503497Y-152426510D01*
X151429542Y-152635502D01*
X151332262Y-152804086D01*
X151210734Y-152934906D01*
X151070454Y-153027385D01*
X150997460Y-153061909D01*
X150934153Y-153082607D01*
X150863573Y-153092077D01*
X150768758Y-153092915D01*
X150666613Y-153089228D01*
X150465739Y-153071510D01*
X150306866Y-153036813D01*
X150256936Y-153019433D01*
X150142925Y-152968102D01*
X150022677Y-152903643D01*
X149970162Y-152871376D01*
X149833603Y-152781805D01*
X149833603Y-149942706D01*
X149983818Y-149852665D01*
X150193308Y-149750923D01*
X150407342Y-149690751D01*
X150618091Y-149671796D01*
X150817727Y-149693701D01*
X150998423Y-149756113D01*
X151152351Y-149858676D01*
X151202019Y-149907906D01*
X151321738Y-150069211D01*
X151418636Y-150264471D01*
X151493523Y-150497031D01*
X151547207Y-150770239D01*
X151580500Y-151087441D01*
X151594211Y-151451984D01*
X151594675Y-151530662D01*
X153610011Y-151530662D01*
X153608942Y-151444756D01*
X153585918Y-150995158D01*
X153539622Y-150589628D01*
X153468836Y-150222257D01*
X153372339Y-149887137D01*
X153248913Y-149578363D01*
X153204869Y-149486822D01*
X153027460Y-149188296D01*
X152813070Y-148923007D01*
X152566741Y-148695237D01*
X152293513Y-148509268D01*
X151998426Y-148369382D01*
X151821541Y-148311678D01*
X151647822Y-148277422D01*
X151438795Y-148257041D01*
X151211986Y-148250525D01*
X150984916Y-148257866D01*
X150775108Y-148279055D01*
X150606648Y-148312295D01*
X150406143Y-148377482D01*
X150211805Y-148461307D01*
X150041776Y-148555280D01*
X149951279Y-148619058D01*
X149888856Y-148666484D01*
X149845147Y-148695361D01*
X149835204Y-148699462D01*
X149832121Y-148673041D01*
X149829247Y-148597339D01*
X149826645Y-148477698D01*
X149824379Y-148319462D01*
X149822512Y-148127973D01*
X149821109Y-147908574D01*
X149820233Y-147666607D01*
X149819947Y-147420147D01*
X149820106Y-147104476D01*
X149820892Y-146838337D01*
X149822762Y-146616641D01*
X149826175Y-146434296D01*
X149831591Y-146286212D01*
X149839469Y-146167299D01*
X149850267Y-146072465D01*
X149864445Y-145996620D01*
X149882461Y-145934674D01*
X149904775Y-145881536D01*
X149931846Y-145832115D01*
X149964133Y-145781321D01*
X149968287Y-145775031D01*
X150009929Y-145709245D01*
X150035071Y-145664008D01*
X150038441Y-145654466D01*
X150012097Y-145651455D01*
X149936931Y-145649006D01*
X149818743Y-145647158D01*
X149663331Y-145645951D01*
X149476494Y-145645424D01*
X149264033Y-145645618D01*
G36*
X156574049Y-148246368D02*
G01*
X156438728Y-148256611D01*
X156051558Y-148308122D01*
X155708679Y-148390283D01*
X155408420Y-148504222D01*
X155149112Y-148651072D01*
X154929084Y-148831962D01*
X154746666Y-149048022D01*
X154600189Y-149300384D01*
X154493229Y-149573441D01*
X154466079Y-149660541D01*
X154442436Y-149742107D01*
X154422023Y-149822529D01*
X154404561Y-149906199D01*
X154389770Y-149997508D01*
X154377373Y-150100847D01*
X154367089Y-150220609D01*
X154358642Y-150361183D01*
X154351752Y-150526962D01*
X154346139Y-150722336D01*
X154341527Y-150951698D01*
X154337635Y-151219437D01*
X154334185Y-151529947D01*
X154330898Y-151887618D01*
X154328549Y-152168064D01*
X154312742Y-154093548D01*
X154210323Y-154278843D01*
X154161825Y-154368111D01*
X154125734Y-154437448D01*
X154108517Y-154474354D01*
X154107904Y-154476854D01*
X154134220Y-154479715D01*
X154209189Y-154482351D01*
X154326839Y-154484689D01*
X154481200Y-154486653D01*
X154666300Y-154488170D01*
X154876168Y-154489165D01*
X155104833Y-154489565D01*
X155132097Y-154489570D01*
X156156291Y-154489570D01*
X156156291Y-154257419D01*
X156158037Y-154152507D01*
X156162698Y-154072271D01*
X156169404Y-154029251D01*
X156172368Y-154025269D01*
X156199477Y-154041950D01*
X156255269Y-154085731D01*
X156327785Y-154147216D01*
X156329411Y-154148638D01*
X156461743Y-154247160D01*
X156628867Y-154346089D01*
X156811900Y-154435706D01*
X156991957Y-154506293D01*
X157071237Y-154530414D01*
X157229009Y-154561051D01*
X157422603Y-154580602D01*
X157634296Y-154588787D01*
X157846368Y-154585327D01*
X158041096Y-154569945D01*
X158177366Y-154547811D01*
X158511546Y-154449676D01*
X158812397Y-154309819D01*
X159077961Y-154129974D01*
X159306279Y-153911876D01*
X159495394Y-153657261D01*
X159643347Y-153367864D01*
X159707175Y-153192258D01*
X159747177Y-153021576D01*
X159773687Y-152816678D01*
X159785953Y-152596464D01*
X159785550Y-152564420D01*
X157938388Y-152564420D01*
X157923070Y-152728053D01*
X157872065Y-152864042D01*
X157777796Y-152990208D01*
X157741589Y-153027203D01*
X157612880Y-153127221D01*
X157464115Y-153191294D01*
X157285887Y-153222309D01*
X157098202Y-153224593D01*
X156920186Y-153209514D01*
X156783888Y-153180021D01*
X156724694Y-153157869D01*
X156618005Y-153097496D01*
X156504963Y-153012589D01*
X156401825Y-152917295D01*
X156324849Y-152825760D01*
X156304409Y-152792181D01*
X156288519Y-152745157D01*
X156277222Y-152670333D01*
X156269991Y-152560560D01*
X156266300Y-152408692D01*
X156265538Y-152264155D01*
X156266054Y-152095644D01*
X156268140Y-151973799D01*
X156272598Y-151890666D01*
X156280235Y-151838292D01*
X156291854Y-151808726D01*
X156308260Y-151794013D01*
X156313334Y-151791670D01*
X156357430Y-151784453D01*
X156444400Y-151778550D01*
X156562500Y-151774493D01*
X156699986Y-151772815D01*
X156729839Y-151772813D01*
X156913614Y-151775746D01*
X157055593Y-151784469D01*
X157168409Y-151800177D01*
X157261598Y-151823118D01*
X157492754Y-151910535D01*
X157674027Y-152018010D01*
X157806986Y-152147262D01*
X157893199Y-152300010D01*
X157934238Y-152477972D01*
X157938388Y-152564420D01*
X159785550Y-152564420D01*
X159783224Y-152379834D01*
X159764748Y-152185689D01*
X159750336Y-152107252D01*
X159658310Y-151816017D01*
X159518377Y-151548054D01*
X159333177Y-151305932D01*
X159105352Y-151092221D01*
X158837543Y-150909492D01*
X158532393Y-150760314D01*
X158272957Y-150669727D01*
X158099566Y-150622136D01*
X157933718Y-150585155D01*
X157764671Y-150557585D01*
X157581683Y-150538224D01*
X157374011Y-150525871D01*
X157130913Y-150519326D01*
X156911128Y-150517483D01*
X156259406Y-150515699D01*
X156271891Y-150319798D01*
X156307343Y-150107243D01*
X156382759Y-149924543D01*
X156494927Y-149776262D01*
X156640636Y-149666960D01*
X156768936Y-149613624D01*
X156952765Y-149580010D01*
X157171606Y-149575183D01*
X157415200Y-149597363D01*
X157673290Y-149644772D01*
X157935615Y-149715629D01*
X158191918Y-149808155D01*
X158378176Y-149892778D01*
X158467789Y-149936231D01*
X158536142Y-149966580D01*
X158570903Y-149978423D01*
X158572789Y-149978043D01*
X158584785Y-149951518D01*
X158614738Y-149881210D01*
X158659830Y-149773855D01*
X158717243Y-149636190D01*
X158784158Y-149474949D01*
X158852176Y-149310395D01*
X159124103Y-148651328D01*
X158930681Y-148619559D01*
X158846846Y-148603619D01*
X158720817Y-148576847D01*
X158563392Y-148541673D01*
X158385367Y-148500528D01*
X158197537Y-148455842D01*
X158122742Y-148437683D01*
X157799162Y-148362631D01*
X157515868Y-148306362D01*
X157262285Y-148267738D01*
X157027838Y-148245623D01*
X156801951Y-148238878D01*
X156574049Y-148246368D01*
X156574049Y-148246368D01*
G37*
X156574049Y-148246368D02*
X156438728Y-148256611D01*
X156051558Y-148308122D01*
X155708679Y-148390283D01*
X155408420Y-148504222D01*
X155149112Y-148651072D01*
X154929084Y-148831962D01*
X154746666Y-149048022D01*
X154600189Y-149300384D01*
X154493229Y-149573441D01*
X154466079Y-149660541D01*
X154442436Y-149742107D01*
X154422023Y-149822529D01*
X154404561Y-149906199D01*
X154389770Y-149997508D01*
X154377373Y-150100847D01*
X154367089Y-150220609D01*
X154358642Y-150361183D01*
X154351752Y-150526962D01*
X154346139Y-150722336D01*
X154341527Y-150951698D01*
X154337635Y-151219437D01*
X154334185Y-151529947D01*
X154330898Y-151887618D01*
X154328549Y-152168064D01*
X154312742Y-154093548D01*
X154210323Y-154278843D01*
X154161825Y-154368111D01*
X154125734Y-154437448D01*
X154108517Y-154474354D01*
X154107904Y-154476854D01*
X154134220Y-154479715D01*
X154209189Y-154482351D01*
X154326839Y-154484689D01*
X154481200Y-154486653D01*
X154666300Y-154488170D01*
X154876168Y-154489165D01*
X155104833Y-154489565D01*
X155132097Y-154489570D01*
X156156291Y-154489570D01*
X156156291Y-154257419D01*
X156158037Y-154152507D01*
X156162698Y-154072271D01*
X156169404Y-154029251D01*
X156172368Y-154025269D01*
X156199477Y-154041950D01*
X156255269Y-154085731D01*
X156327785Y-154147216D01*
X156329411Y-154148638D01*
X156461743Y-154247160D01*
X156628867Y-154346089D01*
X156811900Y-154435706D01*
X156991957Y-154506293D01*
X157071237Y-154530414D01*
X157229009Y-154561051D01*
X157422603Y-154580602D01*
X157634296Y-154588787D01*
X157846368Y-154585327D01*
X158041096Y-154569945D01*
X158177366Y-154547811D01*
X158511546Y-154449676D01*
X158812397Y-154309819D01*
X159077961Y-154129974D01*
X159306279Y-153911876D01*
X159495394Y-153657261D01*
X159643347Y-153367864D01*
X159707175Y-153192258D01*
X159747177Y-153021576D01*
X159773687Y-152816678D01*
X159785953Y-152596464D01*
X159785550Y-152564420D01*
X157938388Y-152564420D01*
X157923070Y-152728053D01*
X157872065Y-152864042D01*
X157777796Y-152990208D01*
X157741589Y-153027203D01*
X157612880Y-153127221D01*
X157464115Y-153191294D01*
X157285887Y-153222309D01*
X157098202Y-153224593D01*
X156920186Y-153209514D01*
X156783888Y-153180021D01*
X156724694Y-153157869D01*
X156618005Y-153097496D01*
X156504963Y-153012589D01*
X156401825Y-152917295D01*
X156324849Y-152825760D01*
X156304409Y-152792181D01*
X156288519Y-152745157D01*
X156277222Y-152670333D01*
X156269991Y-152560560D01*
X156266300Y-152408692D01*
X156265538Y-152264155D01*
X156266054Y-152095644D01*
X156268140Y-151973799D01*
X156272598Y-151890666D01*
X156280235Y-151838292D01*
X156291854Y-151808726D01*
X156308260Y-151794013D01*
X156313334Y-151791670D01*
X156357430Y-151784453D01*
X156444400Y-151778550D01*
X156562500Y-151774493D01*
X156699986Y-151772815D01*
X156729839Y-151772813D01*
X156913614Y-151775746D01*
X157055593Y-151784469D01*
X157168409Y-151800177D01*
X157261598Y-151823118D01*
X157492754Y-151910535D01*
X157674027Y-152018010D01*
X157806986Y-152147262D01*
X157893199Y-152300010D01*
X157934238Y-152477972D01*
X157938388Y-152564420D01*
X159785550Y-152564420D01*
X159783224Y-152379834D01*
X159764748Y-152185689D01*
X159750336Y-152107252D01*
X159658310Y-151816017D01*
X159518377Y-151548054D01*
X159333177Y-151305932D01*
X159105352Y-151092221D01*
X158837543Y-150909492D01*
X158532393Y-150760314D01*
X158272957Y-150669727D01*
X158099566Y-150622136D01*
X157933718Y-150585155D01*
X157764671Y-150557585D01*
X157581683Y-150538224D01*
X157374011Y-150525871D01*
X157130913Y-150519326D01*
X156911128Y-150517483D01*
X156259406Y-150515699D01*
X156271891Y-150319798D01*
X156307343Y-150107243D01*
X156382759Y-149924543D01*
X156494927Y-149776262D01*
X156640636Y-149666960D01*
X156768936Y-149613624D01*
X156952765Y-149580010D01*
X157171606Y-149575183D01*
X157415200Y-149597363D01*
X157673290Y-149644772D01*
X157935615Y-149715629D01*
X158191918Y-149808155D01*
X158378176Y-149892778D01*
X158467789Y-149936231D01*
X158536142Y-149966580D01*
X158570903Y-149978423D01*
X158572789Y-149978043D01*
X158584785Y-149951518D01*
X158614738Y-149881210D01*
X158659830Y-149773855D01*
X158717243Y-149636190D01*
X158784158Y-149474949D01*
X158852176Y-149310395D01*
X159124103Y-148651328D01*
X158930681Y-148619559D01*
X158846846Y-148603619D01*
X158720817Y-148576847D01*
X158563392Y-148541673D01*
X158385367Y-148500528D01*
X158197537Y-148455842D01*
X158122742Y-148437683D01*
X157799162Y-148362631D01*
X157515868Y-148306362D01*
X157262285Y-148267738D01*
X157027838Y-148245623D01*
X156801951Y-148238878D01*
X156574049Y-148246368D01*
G36*
X161999807Y-146050777D02*
G01*
X161705294Y-146083019D01*
X161419961Y-146140729D01*
X161132200Y-146226917D01*
X160830404Y-146344593D01*
X160502966Y-146496767D01*
X160443999Y-146526243D01*
X160308676Y-146592910D01*
X160181049Y-146652939D01*
X160073713Y-146700599D01*
X159999264Y-146730155D01*
X159987827Y-146733876D01*
X159878226Y-146766714D01*
X160368845Y-147480453D01*
X160488794Y-147654895D01*
X160598461Y-147814270D01*
X160694117Y-147953168D01*
X160772031Y-148066178D01*
X160828475Y-148147890D01*
X160859719Y-148192891D01*
X160864795Y-148200018D01*
X160885412Y-148185117D01*
X160936161Y-148140320D01*
X161007966Y-148073765D01*
X161047594Y-148036147D01*
X161272118Y-147857568D01*
X161524274Y-147721868D01*
X161741560Y-147647537D01*
X161871993Y-147624193D01*
X162035307Y-147609967D01*
X162212293Y-147605124D01*
X162383744Y-147609926D01*
X162530452Y-147624638D01*
X162588993Y-147635905D01*
X162852853Y-147726685D01*
X163090622Y-147865296D01*
X163302124Y-148051485D01*
X163487184Y-148284999D01*
X163645625Y-148565584D01*
X163777271Y-148892987D01*
X163881946Y-149266955D01*
X163944155Y-149587097D01*
X163960386Y-149728426D01*
X163971444Y-149911004D01*
X163977437Y-150121709D01*
X163978473Y-150347422D01*
X163974657Y-150575022D01*
X163966097Y-150791389D01*
X163952899Y-150983402D01*
X163935170Y-151137943D01*
X163931333Y-151161786D01*
X163846749Y-151545860D01*
X163731505Y-151885783D01*
X163584897Y-152183078D01*
X163406226Y-152439268D01*
X163279400Y-152577775D01*
X163051475Y-152765828D01*
X162801512Y-152905220D01*
X162533730Y-152995195D01*
X162252344Y-153034994D01*
X161961571Y-153023857D01*
X161665627Y-152961026D01*
X161490660Y-152899547D01*
X161248534Y-152776436D01*
X160998980Y-152599837D01*
X160859191Y-152480412D01*
X160780699Y-152411291D01*
X160719030Y-152360579D01*
X160683928Y-152336144D01*
X160679570Y-152335398D01*
X160663903Y-152360367D01*
X160623308Y-152426348D01*
X160561243Y-152527685D01*
X160481167Y-152658721D01*
X160386538Y-152813800D01*
X160280814Y-152987265D01*
X160221967Y-153083896D01*
X159772474Y-153822201D01*
X160333683Y-154099549D01*
X160536596Y-154199172D01*
X160700973Y-154277729D01*
X160836861Y-154339122D01*
X160954309Y-154387253D01*
X161063364Y-154426023D01*
X161174074Y-154459333D01*
X161296487Y-154491086D01*
X161413818Y-154518969D01*
X161518105Y-154540546D01*
X161627168Y-154556851D01*
X161751927Y-154568791D01*
X161903297Y-154577270D01*
X162092199Y-154583192D01*
X162219517Y-154585749D01*
X162401177Y-154587494D01*
X162575367Y-154586614D01*
X162730557Y-154583360D01*
X162855223Y-154577984D01*
X162937834Y-154570735D01*
X162942730Y-154570012D01*
X163371709Y-154477205D01*
X163774551Y-154336449D01*
X164151112Y-154147839D01*
X164501252Y-153911466D01*
X164824828Y-153627424D01*
X165121700Y-153295805D01*
X165336701Y-153001075D01*
X165565589Y-152615298D01*
X165750611Y-152207895D01*
X165892662Y-151775600D01*
X165992636Y-151315146D01*
X166051428Y-150823267D01*
X166069951Y-150323799D01*
X166054717Y-149840634D01*
X166006844Y-149394842D01*
X165924811Y-148978905D01*
X165807097Y-148585304D01*
X165652181Y-148206518D01*
X165633683Y-148167275D01*
X165429894Y-147800440D01*
X165179598Y-147451360D01*
X164889885Y-147127260D01*
X164567846Y-146835366D01*
X164220574Y-146582904D01*
X163896987Y-146397714D01*
X163570096Y-146252670D01*
X163242511Y-146147603D01*
X162901552Y-146079653D01*
X162534535Y-146045960D01*
X162315108Y-146040992D01*
X161999807Y-146050777D01*
X161999807Y-146050777D01*
G37*
X161999807Y-146050777D02*
X161705294Y-146083019D01*
X161419961Y-146140729D01*
X161132200Y-146226917D01*
X160830404Y-146344593D01*
X160502966Y-146496767D01*
X160443999Y-146526243D01*
X160308676Y-146592910D01*
X160181049Y-146652939D01*
X160073713Y-146700599D01*
X159999264Y-146730155D01*
X159987827Y-146733876D01*
X159878226Y-146766714D01*
X160368845Y-147480453D01*
X160488794Y-147654895D01*
X160598461Y-147814270D01*
X160694117Y-147953168D01*
X160772031Y-148066178D01*
X160828475Y-148147890D01*
X160859719Y-148192891D01*
X160864795Y-148200018D01*
X160885412Y-148185117D01*
X160936161Y-148140320D01*
X161007966Y-148073765D01*
X161047594Y-148036147D01*
X161272118Y-147857568D01*
X161524274Y-147721868D01*
X161741560Y-147647537D01*
X161871993Y-147624193D01*
X162035307Y-147609967D01*
X162212293Y-147605124D01*
X162383744Y-147609926D01*
X162530452Y-147624638D01*
X162588993Y-147635905D01*
X162852853Y-147726685D01*
X163090622Y-147865296D01*
X163302124Y-148051485D01*
X163487184Y-148284999D01*
X163645625Y-148565584D01*
X163777271Y-148892987D01*
X163881946Y-149266955D01*
X163944155Y-149587097D01*
X163960386Y-149728426D01*
X163971444Y-149911004D01*
X163977437Y-150121709D01*
X163978473Y-150347422D01*
X163974657Y-150575022D01*
X163966097Y-150791389D01*
X163952899Y-150983402D01*
X163935170Y-151137943D01*
X163931333Y-151161786D01*
X163846749Y-151545860D01*
X163731505Y-151885783D01*
X163584897Y-152183078D01*
X163406226Y-152439268D01*
X163279400Y-152577775D01*
X163051475Y-152765828D01*
X162801512Y-152905220D01*
X162533730Y-152995195D01*
X162252344Y-153034994D01*
X161961571Y-153023857D01*
X161665627Y-152961026D01*
X161490660Y-152899547D01*
X161248534Y-152776436D01*
X160998980Y-152599837D01*
X160859191Y-152480412D01*
X160780699Y-152411291D01*
X160719030Y-152360579D01*
X160683928Y-152336144D01*
X160679570Y-152335398D01*
X160663903Y-152360367D01*
X160623308Y-152426348D01*
X160561243Y-152527685D01*
X160481167Y-152658721D01*
X160386538Y-152813800D01*
X160280814Y-152987265D01*
X160221967Y-153083896D01*
X159772474Y-153822201D01*
X160333683Y-154099549D01*
X160536596Y-154199172D01*
X160700973Y-154277729D01*
X160836861Y-154339122D01*
X160954309Y-154387253D01*
X161063364Y-154426023D01*
X161174074Y-154459333D01*
X161296487Y-154491086D01*
X161413818Y-154518969D01*
X161518105Y-154540546D01*
X161627168Y-154556851D01*
X161751927Y-154568791D01*
X161903297Y-154577270D01*
X162092199Y-154583192D01*
X162219517Y-154585749D01*
X162401177Y-154587494D01*
X162575367Y-154586614D01*
X162730557Y-154583360D01*
X162855223Y-154577984D01*
X162937834Y-154570735D01*
X162942730Y-154570012D01*
X163371709Y-154477205D01*
X163774551Y-154336449D01*
X164151112Y-154147839D01*
X164501252Y-153911466D01*
X164824828Y-153627424D01*
X165121700Y-153295805D01*
X165336701Y-153001075D01*
X165565589Y-152615298D01*
X165750611Y-152207895D01*
X165892662Y-151775600D01*
X165992636Y-151315146D01*
X166051428Y-150823267D01*
X166069951Y-150323799D01*
X166054717Y-149840634D01*
X166006844Y-149394842D01*
X165924811Y-148978905D01*
X165807097Y-148585304D01*
X165652181Y-148206518D01*
X165633683Y-148167275D01*
X165429894Y-147800440D01*
X165179598Y-147451360D01*
X164889885Y-147127260D01*
X164567846Y-146835366D01*
X164220574Y-146582904D01*
X163896987Y-146397714D01*
X163570096Y-146252670D01*
X163242511Y-146147603D01*
X162901552Y-146079653D01*
X162534535Y-146045960D01*
X162315108Y-146040992D01*
X161999807Y-146050777D01*
G36*
X174722446Y-144684541D02*
G01*
X174196244Y-144684613D01*
X173951303Y-144684623D01*
X170030699Y-144684623D01*
X170030699Y-144915734D01*
X170006032Y-145196976D01*
X169931584Y-145456359D01*
X169806686Y-145695424D01*
X169630670Y-145915714D01*
X169571118Y-145975210D01*
X169356895Y-146143971D01*
X169120690Y-146267052D01*
X168869517Y-146344510D01*
X168610393Y-146376399D01*
X168350333Y-146362776D01*
X168096353Y-146303697D01*
X167855469Y-146199217D01*
X167634696Y-146049393D01*
X167535543Y-145959001D01*
X167350773Y-145737376D01*
X167215284Y-145493661D01*
X167130256Y-145230643D01*
X167096872Y-144951106D01*
X167096428Y-144923606D01*
X167094678Y-144684632D01*
X166989645Y-144684628D01*
X166896470Y-144697273D01*
X166811356Y-144728040D01*
X166805731Y-144731219D01*
X166786508Y-144741194D01*
X166768855Y-144748962D01*
X166752708Y-144756787D01*
X166738005Y-144766930D01*
X166724681Y-144781655D01*
X166712672Y-144803225D01*
X166701915Y-144833901D01*
X166692346Y-144875947D01*
X166683901Y-144931626D01*
X166676516Y-145003199D01*
X166670127Y-145092930D01*
X166664671Y-145203082D01*
X166660084Y-145335916D01*
X166656302Y-145493696D01*
X166653260Y-145678684D01*
X166650897Y-145893144D01*
X166649147Y-146139337D01*
X166647947Y-146419527D01*
X166647232Y-146735975D01*
X166646940Y-147090946D01*
X166647007Y-147486700D01*
X166647368Y-147925502D01*
X166647960Y-148409614D01*
X166648719Y-148941298D01*
X166649581Y-149522817D01*
X166650482Y-150156433D01*
X166650587Y-150233629D01*
X166651395Y-150871287D01*
X166652081Y-151456582D01*
X166652717Y-151991778D01*
X166653376Y-152479136D01*
X166654131Y-152920917D01*
X166655053Y-153319382D01*
X166656216Y-153676795D01*
X166657693Y-153995415D01*
X166659555Y-154277506D01*
X166661876Y-154525328D01*
X166664729Y-154741143D01*
X166668185Y-154927213D01*
X166672318Y-155085800D01*
X166677200Y-155219164D01*
X166682904Y-155329569D01*
X166689502Y-155419275D01*
X166697068Y-155490544D01*
X166705673Y-155545638D01*
X166715390Y-155586818D01*
X166726293Y-155616346D01*
X166738453Y-155636484D01*
X166751943Y-155649493D01*
X166766837Y-155657636D01*
X166783206Y-155663173D01*
X166801123Y-155668366D01*
X166820661Y-155675477D01*
X166825434Y-155677642D01*
X166840434Y-155682506D01*
X166865541Y-155686976D01*
X166902946Y-155691066D01*
X166954842Y-155694793D01*
X167023420Y-155698173D01*
X167110873Y-155701221D01*
X167219394Y-155703954D01*
X167351174Y-155706387D01*
X167508406Y-155708537D01*
X167693281Y-155710419D01*
X167907993Y-155712049D01*
X168154734Y-155713443D01*
X168435694Y-155714617D01*
X168753068Y-155715587D01*
X169109047Y-155716369D01*
X169505822Y-155716979D01*
X169945588Y-155717432D01*
X170430535Y-155717745D01*
X170962856Y-155717934D01*
X171544743Y-155718013D01*
X172178389Y-155718000D01*
X172383644Y-155717980D01*
X173031347Y-155717876D01*
X173626644Y-155717706D01*
X174171755Y-155717453D01*
X174668897Y-155717098D01*
X175120290Y-155716626D01*
X175528151Y-155716018D01*
X175894700Y-155715258D01*
X176222154Y-155714327D01*
X176512732Y-155713209D01*
X176768652Y-155711886D01*
X176992133Y-155710341D01*
X177185394Y-155708557D01*
X177350652Y-155706516D01*
X177490127Y-155704201D01*
X177606037Y-155701594D01*
X177700600Y-155698678D01*
X177776034Y-155695436D01*
X177834558Y-155691851D01*
X177878391Y-155687905D01*
X177909752Y-155683581D01*
X177930857Y-155678862D01*
X177942363Y-155674540D01*
X177962812Y-155665916D01*
X177981587Y-155659557D01*
X177998760Y-155653203D01*
X178014402Y-155644597D01*
X178028584Y-155631480D01*
X178041377Y-155611594D01*
X178052852Y-155582679D01*
X178063080Y-155542479D01*
X178072133Y-155488733D01*
X178080080Y-155419185D01*
X178086994Y-155331574D01*
X178092945Y-155223644D01*
X178098005Y-155093135D01*
X178102245Y-154937789D01*
X178105735Y-154755348D01*
X178108547Y-154543553D01*
X178109283Y-154462258D01*
X177380361Y-154462258D01*
X174803987Y-154462258D01*
X174853561Y-154387150D01*
X174902878Y-154309968D01*
X174944640Y-154236469D01*
X174979441Y-154161512D01*
X175007877Y-154079953D01*
X175030540Y-153986648D01*
X175048025Y-153876453D01*
X175060926Y-153744225D01*
X175069837Y-153584820D01*
X175075352Y-153393095D01*
X175078064Y-153163907D01*
X175078569Y-152892112D01*
X175077459Y-152572566D01*
X175076830Y-152453932D01*
X175069732Y-151182123D01*
X174264033Y-152279010D01*
X174035779Y-152590183D01*
X173838025Y-152861143D01*
X173668635Y-153095478D01*
X173525473Y-153296780D01*
X173406405Y-153468637D01*
X173309295Y-153614640D01*
X173232007Y-153738378D01*
X173172407Y-153843441D01*
X173128359Y-153933420D01*
X173097728Y-154011903D01*
X173078378Y-154082480D01*
X173068175Y-154148742D01*
X173064983Y-154214277D01*
X173066667Y-154282677D01*
X173067097Y-154291274D01*
X173075968Y-154462372D01*
X171664236Y-154462315D01*
X170252505Y-154462258D01*
X170462516Y-154250500D01*
X170519504Y-154192582D01*
X170573566Y-154136225D01*
X170627076Y-154078322D01*
X170682404Y-154015764D01*
X170741925Y-153945443D01*
X170808011Y-153864251D01*
X170883034Y-153769081D01*
X170969367Y-153656823D01*
X171069383Y-153524370D01*
X171185454Y-153368614D01*
X171319952Y-153186446D01*
X171475251Y-152974760D01*
X171653722Y-152730446D01*
X171857740Y-152450397D01*
X172089675Y-152131504D01*
X172279782Y-151869920D01*
X172518372Y-151541292D01*
X172726508Y-151253957D01*
X172906075Y-151005187D01*
X173058957Y-150792254D01*
X173187041Y-150612430D01*
X173292212Y-150462986D01*
X173376355Y-150341196D01*
X173441357Y-150244331D01*
X173489103Y-150169662D01*
X173521477Y-150114463D01*
X173540366Y-150076004D01*
X173547655Y-150051559D01*
X173545464Y-150038706D01*
X173518913Y-150004504D01*
X173461508Y-149932108D01*
X173376713Y-149825820D01*
X173267992Y-149689945D01*
X173138808Y-149528784D01*
X172992626Y-149346643D01*
X172832909Y-149147822D01*
X172663121Y-148936627D01*
X172486726Y-148717359D01*
X172307187Y-148494323D01*
X172208435Y-148371720D01*
X169756548Y-148371720D01*
X169552742Y-148740430D01*
X169552742Y-154093548D01*
X169756548Y-154462258D01*
X168551111Y-154462258D01*
X168263341Y-154462174D01*
X168025647Y-154461797D01*
X167833482Y-154460935D01*
X167682298Y-154459400D01*
X167567548Y-154457000D01*
X167484685Y-154453546D01*
X167429162Y-154448849D01*
X167396430Y-154442717D01*
X167381943Y-154434961D01*
X167381153Y-154425391D01*
X167389513Y-154413817D01*
X167389599Y-154413721D01*
X167424036Y-154363907D01*
X167469637Y-154282910D01*
X167509908Y-154202055D01*
X167586291Y-154038925D01*
X167594081Y-151205322D01*
X167601871Y-148371720D01*
X169756548Y-148371720D01*
X172208435Y-148371720D01*
X172127969Y-148271821D01*
X171952536Y-148054157D01*
X171784350Y-147845633D01*
X171626877Y-147650554D01*
X171483579Y-147473221D01*
X171357921Y-147317939D01*
X171253366Y-147189010D01*
X171173379Y-147090738D01*
X171126398Y-147033441D01*
X170943963Y-146819180D01*
X170768452Y-146625830D01*
X170606016Y-146459720D01*
X170462805Y-146327180D01*
X170361171Y-146245921D01*
X170240998Y-146159462D01*
X173004840Y-146159462D01*
X173004064Y-146321646D01*
X173011788Y-146440883D01*
X173040828Y-146551426D01*
X173085782Y-146656216D01*
X173115004Y-146715416D01*
X173146423Y-146774074D01*
X173182909Y-146836086D01*
X173227331Y-146905345D01*
X173282561Y-146985746D01*
X173351469Y-147081181D01*
X173436923Y-147195547D01*
X173541796Y-147332735D01*
X173668955Y-147496642D01*
X173821273Y-147691160D01*
X174001618Y-147920185D01*
X174212862Y-148187609D01*
X174236721Y-148217783D01*
X175069732Y-149271195D01*
X175077796Y-148104522D01*
X175079420Y-147755069D01*
X175079074Y-147459230D01*
X175076742Y-147216030D01*
X175072407Y-147024493D01*
X175066051Y-146883644D01*
X175057659Y-146792508D01*
X175054838Y-146775220D01*
X175010584Y-146593117D01*
X174952602Y-146428950D01*
X174886437Y-146296954D01*
X174846687Y-146240972D01*
X174778102Y-146159462D01*
X176079453Y-146159462D01*
X176389885Y-146159728D01*
X176649477Y-146160591D01*
X176862014Y-146162154D01*
X177031276Y-146164517D01*
X177161048Y-146167780D01*
X177255111Y-146172045D01*
X177317248Y-146177413D01*
X177351241Y-146183983D01*
X177360874Y-146191858D01*
X177360208Y-146193602D01*
X177332620Y-146235243D01*
X177286564Y-146301248D01*
X177262735Y-146334631D01*
X177238099Y-146367944D01*
X177215955Y-146397734D01*
X177196164Y-146426933D01*
X177178586Y-146458474D01*
X177163081Y-146495286D01*
X177149511Y-146540303D01*
X177137736Y-146596455D01*
X177127616Y-146666675D01*
X177119013Y-146753894D01*
X177111786Y-146861043D01*
X177105796Y-146991055D01*
X177100904Y-147146861D01*
X177096971Y-147331393D01*
X177093857Y-147547581D01*
X177091422Y-147798359D01*
X177089527Y-148086658D01*
X177088033Y-148415409D01*
X177086801Y-148787543D01*
X177085690Y-149205994D01*
X177084562Y-149673691D01*
X177083508Y-150103354D01*
X177082512Y-150582353D01*
X177081994Y-151039362D01*
X177081941Y-151471464D01*
X177082338Y-151875738D01*
X177083172Y-152249265D01*
X177084429Y-152589127D01*
X177086094Y-152892404D01*
X177088156Y-153156177D01*
X177090599Y-153377527D01*
X177093410Y-153553535D01*
X177096576Y-153681283D01*
X177100082Y-153757849D01*
X177100745Y-153765941D01*
X177124905Y-153951568D01*
X177162624Y-154100647D01*
X177220064Y-154230750D01*
X177303389Y-154359452D01*
X177313811Y-154373494D01*
X177380361Y-154462258D01*
X178109283Y-154462258D01*
X178110752Y-154300145D01*
X178112421Y-154022867D01*
X178113625Y-153709459D01*
X178114435Y-153357664D01*
X178114922Y-152965223D01*
X178115156Y-152529877D01*
X178115211Y-152049368D01*
X178115156Y-151521438D01*
X178115062Y-150943828D01*
X178115002Y-150314279D01*
X178115000Y-150189301D01*
X178114965Y-149553122D01*
X178114847Y-148969325D01*
X178114628Y-148435668D01*
X178114292Y-147949909D01*
X178113822Y-147509805D01*
X178113198Y-147113116D01*
X178112406Y-146757599D01*
X178111426Y-146441012D01*
X178110242Y-146161113D01*
X178108836Y-145915661D01*
X178107190Y-145702413D01*
X178105288Y-145519128D01*
X178103113Y-145363564D01*
X178100645Y-145233478D01*
X178097869Y-145126629D01*
X178094767Y-145040775D01*
X178091321Y-144973674D01*
X178087515Y-144923084D01*
X178083330Y-144886764D01*
X178078749Y-144862470D01*
X178073755Y-144847962D01*
X178073570Y-144847600D01*
X178063285Y-144825437D01*
X178054718Y-144805372D01*
X178045241Y-144787301D01*
X178032226Y-144771121D01*
X178013043Y-144756726D01*
X177985065Y-144744014D01*
X177945663Y-144732880D01*
X177892208Y-144723221D01*
X177822071Y-144714932D01*
X177732624Y-144707910D01*
X177621238Y-144702050D01*
X177485284Y-144697250D01*
X177322135Y-144693404D01*
X177129161Y-144690409D01*
X176903733Y-144688161D01*
X176643224Y-144686556D01*
X176345004Y-144685491D01*
X176006445Y-144684860D01*
X175624918Y-144684561D01*
X175197794Y-144684490D01*
X174722446Y-144684541D01*
X174722446Y-144684541D01*
G37*
X174722446Y-144684541D02*
X174196244Y-144684613D01*
X173951303Y-144684623D01*
X170030699Y-144684623D01*
X170030699Y-144915734D01*
X170006032Y-145196976D01*
X169931584Y-145456359D01*
X169806686Y-145695424D01*
X169630670Y-145915714D01*
X169571118Y-145975210D01*
X169356895Y-146143971D01*
X169120690Y-146267052D01*
X168869517Y-146344510D01*
X168610393Y-146376399D01*
X168350333Y-146362776D01*
X168096353Y-146303697D01*
X167855469Y-146199217D01*
X167634696Y-146049393D01*
X167535543Y-145959001D01*
X167350773Y-145737376D01*
X167215284Y-145493661D01*
X167130256Y-145230643D01*
X167096872Y-144951106D01*
X167096428Y-144923606D01*
X167094678Y-144684632D01*
X166989645Y-144684628D01*
X166896470Y-144697273D01*
X166811356Y-144728040D01*
X166805731Y-144731219D01*
X166786508Y-144741194D01*
X166768855Y-144748962D01*
X166752708Y-144756787D01*
X166738005Y-144766930D01*
X166724681Y-144781655D01*
X166712672Y-144803225D01*
X166701915Y-144833901D01*
X166692346Y-144875947D01*
X166683901Y-144931626D01*
X166676516Y-145003199D01*
X166670127Y-145092930D01*
X166664671Y-145203082D01*
X166660084Y-145335916D01*
X166656302Y-145493696D01*
X166653260Y-145678684D01*
X166650897Y-145893144D01*
X166649147Y-146139337D01*
X166647947Y-146419527D01*
X166647232Y-146735975D01*
X166646940Y-147090946D01*
X166647007Y-147486700D01*
X166647368Y-147925502D01*
X166647960Y-148409614D01*
X166648719Y-148941298D01*
X166649581Y-149522817D01*
X166650482Y-150156433D01*
X166650587Y-150233629D01*
X166651395Y-150871287D01*
X166652081Y-151456582D01*
X166652717Y-151991778D01*
X166653376Y-152479136D01*
X166654131Y-152920917D01*
X166655053Y-153319382D01*
X166656216Y-153676795D01*
X166657693Y-153995415D01*
X166659555Y-154277506D01*
X166661876Y-154525328D01*
X166664729Y-154741143D01*
X166668185Y-154927213D01*
X166672318Y-155085800D01*
X166677200Y-155219164D01*
X166682904Y-155329569D01*
X166689502Y-155419275D01*
X166697068Y-155490544D01*
X166705673Y-155545638D01*
X166715390Y-155586818D01*
X166726293Y-155616346D01*
X166738453Y-155636484D01*
X166751943Y-155649493D01*
X166766837Y-155657636D01*
X166783206Y-155663173D01*
X166801123Y-155668366D01*
X166820661Y-155675477D01*
X166825434Y-155677642D01*
X166840434Y-155682506D01*
X166865541Y-155686976D01*
X166902946Y-155691066D01*
X166954842Y-155694793D01*
X167023420Y-155698173D01*
X167110873Y-155701221D01*
X167219394Y-155703954D01*
X167351174Y-155706387D01*
X167508406Y-155708537D01*
X167693281Y-155710419D01*
X167907993Y-155712049D01*
X168154734Y-155713443D01*
X168435694Y-155714617D01*
X168753068Y-155715587D01*
X169109047Y-155716369D01*
X169505822Y-155716979D01*
X169945588Y-155717432D01*
X170430535Y-155717745D01*
X170962856Y-155717934D01*
X171544743Y-155718013D01*
X172178389Y-155718000D01*
X172383644Y-155717980D01*
X173031347Y-155717876D01*
X173626644Y-155717706D01*
X174171755Y-155717453D01*
X174668897Y-155717098D01*
X175120290Y-155716626D01*
X175528151Y-155716018D01*
X175894700Y-155715258D01*
X176222154Y-155714327D01*
X176512732Y-155713209D01*
X176768652Y-155711886D01*
X176992133Y-155710341D01*
X177185394Y-155708557D01*
X177350652Y-155706516D01*
X177490127Y-155704201D01*
X177606037Y-155701594D01*
X177700600Y-155698678D01*
X177776034Y-155695436D01*
X177834558Y-155691851D01*
X177878391Y-155687905D01*
X177909752Y-155683581D01*
X177930857Y-155678862D01*
X177942363Y-155674540D01*
X177962812Y-155665916D01*
X177981587Y-155659557D01*
X177998760Y-155653203D01*
X178014402Y-155644597D01*
X178028584Y-155631480D01*
X178041377Y-155611594D01*
X178052852Y-155582679D01*
X178063080Y-155542479D01*
X178072133Y-155488733D01*
X178080080Y-155419185D01*
X178086994Y-155331574D01*
X178092945Y-155223644D01*
X178098005Y-155093135D01*
X178102245Y-154937789D01*
X178105735Y-154755348D01*
X178108547Y-154543553D01*
X178109283Y-154462258D01*
X177380361Y-154462258D01*
X174803987Y-154462258D01*
X174853561Y-154387150D01*
X174902878Y-154309968D01*
X174944640Y-154236469D01*
X174979441Y-154161512D01*
X175007877Y-154079953D01*
X175030540Y-153986648D01*
X175048025Y-153876453D01*
X175060926Y-153744225D01*
X175069837Y-153584820D01*
X175075352Y-153393095D01*
X175078064Y-153163907D01*
X175078569Y-152892112D01*
X175077459Y-152572566D01*
X175076830Y-152453932D01*
X175069732Y-151182123D01*
X174264033Y-152279010D01*
X174035779Y-152590183D01*
X173838025Y-152861143D01*
X173668635Y-153095478D01*
X173525473Y-153296780D01*
X173406405Y-153468637D01*
X173309295Y-153614640D01*
X173232007Y-153738378D01*
X173172407Y-153843441D01*
X173128359Y-153933420D01*
X173097728Y-154011903D01*
X173078378Y-154082480D01*
X173068175Y-154148742D01*
X173064983Y-154214277D01*
X173066667Y-154282677D01*
X173067097Y-154291274D01*
X173075968Y-154462372D01*
X171664236Y-154462315D01*
X170252505Y-154462258D01*
X170462516Y-154250500D01*
X170519504Y-154192582D01*
X170573566Y-154136225D01*
X170627076Y-154078322D01*
X170682404Y-154015764D01*
X170741925Y-153945443D01*
X170808011Y-153864251D01*
X170883034Y-153769081D01*
X170969367Y-153656823D01*
X171069383Y-153524370D01*
X171185454Y-153368614D01*
X171319952Y-153186446D01*
X171475251Y-152974760D01*
X171653722Y-152730446D01*
X171857740Y-152450397D01*
X172089675Y-152131504D01*
X172279782Y-151869920D01*
X172518372Y-151541292D01*
X172726508Y-151253957D01*
X172906075Y-151005187D01*
X173058957Y-150792254D01*
X173187041Y-150612430D01*
X173292212Y-150462986D01*
X173376355Y-150341196D01*
X173441357Y-150244331D01*
X173489103Y-150169662D01*
X173521477Y-150114463D01*
X173540366Y-150076004D01*
X173547655Y-150051559D01*
X173545464Y-150038706D01*
X173518913Y-150004504D01*
X173461508Y-149932108D01*
X173376713Y-149825820D01*
X173267992Y-149689945D01*
X173138808Y-149528784D01*
X172992626Y-149346643D01*
X172832909Y-149147822D01*
X172663121Y-148936627D01*
X172486726Y-148717359D01*
X172307187Y-148494323D01*
X172208435Y-148371720D01*
X169756548Y-148371720D01*
X169552742Y-148740430D01*
X169552742Y-154093548D01*
X169756548Y-154462258D01*
X168551111Y-154462258D01*
X168263341Y-154462174D01*
X168025647Y-154461797D01*
X167833482Y-154460935D01*
X167682298Y-154459400D01*
X167567548Y-154457000D01*
X167484685Y-154453546D01*
X167429162Y-154448849D01*
X167396430Y-154442717D01*
X167381943Y-154434961D01*
X167381153Y-154425391D01*
X167389513Y-154413817D01*
X167389599Y-154413721D01*
X167424036Y-154363907D01*
X167469637Y-154282910D01*
X167509908Y-154202055D01*
X167586291Y-154038925D01*
X167594081Y-151205322D01*
X167601871Y-148371720D01*
X169756548Y-148371720D01*
X172208435Y-148371720D01*
X172127969Y-148271821D01*
X171952536Y-148054157D01*
X171784350Y-147845633D01*
X171626877Y-147650554D01*
X171483579Y-147473221D01*
X171357921Y-147317939D01*
X171253366Y-147189010D01*
X171173379Y-147090738D01*
X171126398Y-147033441D01*
X170943963Y-146819180D01*
X170768452Y-146625830D01*
X170606016Y-146459720D01*
X170462805Y-146327180D01*
X170361171Y-146245921D01*
X170240998Y-146159462D01*
X173004840Y-146159462D01*
X173004064Y-146321646D01*
X173011788Y-146440883D01*
X173040828Y-146551426D01*
X173085782Y-146656216D01*
X173115004Y-146715416D01*
X173146423Y-146774074D01*
X173182909Y-146836086D01*
X173227331Y-146905345D01*
X173282561Y-146985746D01*
X173351469Y-147081181D01*
X173436923Y-147195547D01*
X173541796Y-147332735D01*
X173668955Y-147496642D01*
X173821273Y-147691160D01*
X174001618Y-147920185D01*
X174212862Y-148187609D01*
X174236721Y-148217783D01*
X175069732Y-149271195D01*
X175077796Y-148104522D01*
X175079420Y-147755069D01*
X175079074Y-147459230D01*
X175076742Y-147216030D01*
X175072407Y-147024493D01*
X175066051Y-146883644D01*
X175057659Y-146792508D01*
X175054838Y-146775220D01*
X175010584Y-146593117D01*
X174952602Y-146428950D01*
X174886437Y-146296954D01*
X174846687Y-146240972D01*
X174778102Y-146159462D01*
X176079453Y-146159462D01*
X176389885Y-146159728D01*
X176649477Y-146160591D01*
X176862014Y-146162154D01*
X177031276Y-146164517D01*
X177161048Y-146167780D01*
X177255111Y-146172045D01*
X177317248Y-146177413D01*
X177351241Y-146183983D01*
X177360874Y-146191858D01*
X177360208Y-146193602D01*
X177332620Y-146235243D01*
X177286564Y-146301248D01*
X177262735Y-146334631D01*
X177238099Y-146367944D01*
X177215955Y-146397734D01*
X177196164Y-146426933D01*
X177178586Y-146458474D01*
X177163081Y-146495286D01*
X177149511Y-146540303D01*
X177137736Y-146596455D01*
X177127616Y-146666675D01*
X177119013Y-146753894D01*
X177111786Y-146861043D01*
X177105796Y-146991055D01*
X177100904Y-147146861D01*
X177096971Y-147331393D01*
X177093857Y-147547581D01*
X177091422Y-147798359D01*
X177089527Y-148086658D01*
X177088033Y-148415409D01*
X177086801Y-148787543D01*
X177085690Y-149205994D01*
X177084562Y-149673691D01*
X177083508Y-150103354D01*
X177082512Y-150582353D01*
X177081994Y-151039362D01*
X177081941Y-151471464D01*
X177082338Y-151875738D01*
X177083172Y-152249265D01*
X177084429Y-152589127D01*
X177086094Y-152892404D01*
X177088156Y-153156177D01*
X177090599Y-153377527D01*
X177093410Y-153553535D01*
X177096576Y-153681283D01*
X177100082Y-153757849D01*
X177100745Y-153765941D01*
X177124905Y-153951568D01*
X177162624Y-154100647D01*
X177220064Y-154230750D01*
X177303389Y-154359452D01*
X177313811Y-154373494D01*
X177380361Y-154462258D01*
X178109283Y-154462258D01*
X178110752Y-154300145D01*
X178112421Y-154022867D01*
X178113625Y-153709459D01*
X178114435Y-153357664D01*
X178114922Y-152965223D01*
X178115156Y-152529877D01*
X178115211Y-152049368D01*
X178115156Y-151521438D01*
X178115062Y-150943828D01*
X178115002Y-150314279D01*
X178115000Y-150189301D01*
X178114965Y-149553122D01*
X178114847Y-148969325D01*
X178114628Y-148435668D01*
X178114292Y-147949909D01*
X178113822Y-147509805D01*
X178113198Y-147113116D01*
X178112406Y-146757599D01*
X178111426Y-146441012D01*
X178110242Y-146161113D01*
X178108836Y-145915661D01*
X178107190Y-145702413D01*
X178105288Y-145519128D01*
X178103113Y-145363564D01*
X178100645Y-145233478D01*
X178097869Y-145126629D01*
X178094767Y-145040775D01*
X178091321Y-144973674D01*
X178087515Y-144923084D01*
X178083330Y-144886764D01*
X178078749Y-144862470D01*
X178073755Y-144847962D01*
X178073570Y-144847600D01*
X178063285Y-144825437D01*
X178054718Y-144805372D01*
X178045241Y-144787301D01*
X178032226Y-144771121D01*
X178013043Y-144756726D01*
X177985065Y-144744014D01*
X177945663Y-144732880D01*
X177892208Y-144723221D01*
X177822071Y-144714932D01*
X177732624Y-144707910D01*
X177621238Y-144702050D01*
X177485284Y-144697250D01*
X177322135Y-144693404D01*
X177129161Y-144690409D01*
X176903733Y-144688161D01*
X176643224Y-144686556D01*
X176345004Y-144685491D01*
X176006445Y-144684860D01*
X175624918Y-144684561D01*
X175197794Y-144684490D01*
X174722446Y-144684541D01*
G36*
X161626695Y-164865960D02*
G01*
X161438443Y-165864542D01*
X160743817Y-166150889D01*
X160049192Y-166437237D01*
X159215872Y-165870586D01*
X158982499Y-165712811D01*
X158771543Y-165571939D01*
X158592847Y-165454401D01*
X158456256Y-165366629D01*
X158371614Y-165315055D01*
X158348563Y-165303935D01*
X158307037Y-165332535D01*
X158218302Y-165411604D01*
X158092303Y-165531041D01*
X157938986Y-165680744D01*
X157768298Y-165850615D01*
X157590186Y-166030551D01*
X157414594Y-166210454D01*
X157251470Y-166380222D01*
X157110759Y-166529754D01*
X157002408Y-166648952D01*
X156936363Y-166727713D01*
X156920574Y-166754072D01*
X156943297Y-166802666D01*
X157007001Y-166909126D01*
X157104987Y-167063039D01*
X157230559Y-167253991D01*
X157377018Y-167471569D01*
X157461885Y-167595671D01*
X157616574Y-167822279D01*
X157754030Y-168026770D01*
X157867586Y-168198965D01*
X157950572Y-168328685D01*
X157996322Y-168405751D01*
X158003197Y-168421947D01*
X157987612Y-168467975D01*
X157945132Y-168575250D01*
X157882165Y-168728687D01*
X157805121Y-168913206D01*
X157720410Y-169113721D01*
X157634442Y-169315152D01*
X157553627Y-169502415D01*
X157484373Y-169660428D01*
X157433092Y-169774107D01*
X157406191Y-169828370D01*
X157404604Y-169830506D01*
X157362365Y-169840867D01*
X157249874Y-169863982D01*
X157078791Y-169897579D01*
X156860777Y-169939385D01*
X156607491Y-169987127D01*
X156459712Y-170014659D01*
X156189062Y-170066190D01*
X155944603Y-170115225D01*
X155738700Y-170159081D01*
X155583723Y-170195074D01*
X155492038Y-170220521D01*
X155473607Y-170228595D01*
X155455555Y-170283242D01*
X155440990Y-170406662D01*
X155429902Y-170584423D01*
X155422281Y-170802091D01*
X155418116Y-171045235D01*
X155417398Y-171299423D01*
X155420118Y-171550220D01*
X155426265Y-171783196D01*
X155435829Y-171983918D01*
X155448801Y-172137954D01*
X155465171Y-172230870D01*
X155474989Y-172250213D01*
X155533677Y-172273398D01*
X155658034Y-172306544D01*
X155831610Y-172345758D01*
X156037958Y-172387145D01*
X156109989Y-172400534D01*
X156457281Y-172464147D01*
X156731617Y-172515378D01*
X156942061Y-172556261D01*
X157097678Y-172588834D01*
X157207533Y-172615132D01*
X157280689Y-172637192D01*
X157326213Y-172657049D01*
X157353167Y-172676741D01*
X157356939Y-172680632D01*
X157394585Y-172743324D01*
X157452014Y-172865331D01*
X157523492Y-173031712D01*
X157603285Y-173227529D01*
X157685657Y-173437840D01*
X157764875Y-173647708D01*
X157835204Y-173842191D01*
X157890911Y-174006350D01*
X157926259Y-174125245D01*
X157935516Y-174183936D01*
X157934744Y-174185992D01*
X157903380Y-174233964D01*
X157832226Y-174339516D01*
X157728760Y-174491660D01*
X157600460Y-174679410D01*
X157454801Y-174891780D01*
X157413320Y-174952130D01*
X157265413Y-175170929D01*
X157135261Y-175370562D01*
X157029955Y-175539565D01*
X156956584Y-175666475D01*
X156922237Y-175739829D01*
X156920574Y-175748841D01*
X156949431Y-175796207D01*
X157029169Y-175890042D01*
X157149538Y-176020261D01*
X157300287Y-176176779D01*
X157471164Y-176349510D01*
X157651921Y-176528371D01*
X157832306Y-176703276D01*
X158002068Y-176864140D01*
X158150958Y-177000878D01*
X158268724Y-177103407D01*
X158345117Y-177161640D01*
X158366250Y-177171148D01*
X158415440Y-177148754D01*
X158516153Y-177088356D01*
X158651983Y-177000129D01*
X158756490Y-176929115D01*
X158945851Y-176798811D01*
X159170101Y-176645384D01*
X159395036Y-176492201D01*
X159515968Y-176410218D01*
X159925296Y-176133353D01*
X160268898Y-176319136D01*
X160425435Y-176400523D01*
X160558546Y-176463784D01*
X160648611Y-176499865D01*
X160671537Y-176504885D01*
X160699105Y-176467817D01*
X160753492Y-176363069D01*
X160830637Y-176200303D01*
X160926482Y-175989181D01*
X161036966Y-175739365D01*
X161158029Y-175460517D01*
X161285611Y-175162299D01*
X161415653Y-174854374D01*
X161544094Y-174546404D01*
X161666874Y-174248050D01*
X161779933Y-173968975D01*
X161879212Y-173718841D01*
X161960651Y-173507310D01*
X162020189Y-173344043D01*
X162053766Y-173238705D01*
X162059166Y-173202527D01*
X162016366Y-173156381D01*
X161922656Y-173081472D01*
X161797627Y-172993364D01*
X161787133Y-172986394D01*
X161463980Y-172727721D01*
X161203413Y-172425938D01*
X161007690Y-172090695D01*
X160879068Y-171731642D01*
X160819805Y-171358426D01*
X160832161Y-170980700D01*
X160918393Y-170608111D01*
X161080759Y-170250310D01*
X161128528Y-170172027D01*
X161376991Y-169855919D01*
X161670519Y-169602079D01*
X161998953Y-169411827D01*
X162352135Y-169286485D01*
X162719905Y-169227372D01*
X163092103Y-169235807D01*
X163458571Y-169313112D01*
X163809149Y-169460606D01*
X164133677Y-169679610D01*
X164234064Y-169768498D01*
X164489551Y-170046744D01*
X164675722Y-170339656D01*
X164803430Y-170667986D01*
X164874556Y-170993133D01*
X164892114Y-171358702D01*
X164833566Y-171726086D01*
X164704858Y-172082866D01*
X164511938Y-172416626D01*
X164260752Y-172714947D01*
X163957248Y-172965411D01*
X163917360Y-172991813D01*
X163790991Y-173078272D01*
X163694927Y-173153184D01*
X163649000Y-173201015D01*
X163648332Y-173202527D01*
X163658192Y-173254267D01*
X163697278Y-173371696D01*
X163761528Y-173545154D01*
X163846880Y-173764979D01*
X163949273Y-174021513D01*
X164064646Y-174305096D01*
X164188937Y-174606067D01*
X164318084Y-174914767D01*
X164448026Y-175221536D01*
X164574702Y-175516714D01*
X164694049Y-175790640D01*
X164802006Y-176033656D01*
X164894512Y-176236101D01*
X164967504Y-176388315D01*
X165016923Y-176480638D01*
X165036823Y-176504885D01*
X165097634Y-176486004D01*
X165211418Y-176435364D01*
X165358555Y-176362017D01*
X165439462Y-176319136D01*
X165783065Y-176133353D01*
X166192393Y-176410218D01*
X166401346Y-176552054D01*
X166630113Y-176708141D01*
X166844491Y-176855109D01*
X166951871Y-176929115D01*
X167102898Y-177030531D01*
X167230782Y-177110898D01*
X167318842Y-177160041D01*
X167347445Y-177170429D01*
X167389076Y-177142405D01*
X167481211Y-177064172D01*
X167614918Y-176943852D01*
X167781265Y-176789568D01*
X167971320Y-176609443D01*
X168091521Y-176493790D01*
X168301815Y-176287167D01*
X168483556Y-176102358D01*
X168629397Y-175947270D01*
X168731991Y-175829807D01*
X168783991Y-175757875D01*
X168788980Y-175743278D01*
X168765829Y-175687753D01*
X168701854Y-175575484D01*
X168604153Y-175417837D01*
X168479820Y-175226179D01*
X168335954Y-175011876D01*
X168295041Y-174952130D01*
X168145967Y-174734982D01*
X168012225Y-174539475D01*
X167901291Y-174376599D01*
X167820644Y-174257337D01*
X167777759Y-174192678D01*
X167773617Y-174185992D01*
X167779812Y-174134462D01*
X167812700Y-174021166D01*
X167866545Y-173861042D01*
X167935613Y-173669032D01*
X168014169Y-173460074D01*
X168096480Y-173249109D01*
X168176811Y-173051076D01*
X168249428Y-172880916D01*
X168308595Y-172753567D01*
X168348580Y-172683971D01*
X168351422Y-172680632D01*
X168375873Y-172660742D01*
X168417169Y-172641073D01*
X168484377Y-172619589D01*
X168586559Y-172594253D01*
X168732781Y-172563029D01*
X168932107Y-172523882D01*
X169193603Y-172474775D01*
X169526331Y-172413672D01*
X169598372Y-172400534D01*
X169811885Y-172359282D01*
X169998022Y-172318926D01*
X170140334Y-172283361D01*
X170222371Y-172256480D01*
X170233372Y-172250213D01*
X170251498Y-172194654D01*
X170266233Y-172070495D01*
X170277564Y-171892169D01*
X170285484Y-171674109D01*
X170289981Y-171430746D01*
X170291046Y-171176514D01*
X170288670Y-170925845D01*
X170282841Y-170693171D01*
X170273551Y-170492924D01*
X170260789Y-170339538D01*
X170244546Y-170247444D01*
X170234754Y-170228595D01*
X170180239Y-170209582D01*
X170056104Y-170178650D01*
X169874715Y-170138482D01*
X169648440Y-170091762D01*
X169389647Y-170041173D01*
X169248649Y-170014659D01*
X168981127Y-169964650D01*
X168742562Y-169919346D01*
X168544614Y-169881021D01*
X168398943Y-169851947D01*
X168317209Y-169834397D01*
X168303757Y-169830506D01*
X168281021Y-169786638D01*
X168232960Y-169680976D01*
X168165981Y-169528613D01*
X168086490Y-169344646D01*
X168000892Y-169144170D01*
X167915595Y-168942281D01*
X167837005Y-168754073D01*
X167771527Y-168594642D01*
X167725569Y-168479084D01*
X167705537Y-168422494D01*
X167705164Y-168420021D01*
X167727874Y-168375379D01*
X167791541Y-168272647D01*
X167889475Y-168122037D01*
X168014983Y-167933757D01*
X168161374Y-167718018D01*
X168246475Y-167594098D01*
X168401545Y-167366883D01*
X168539275Y-167160595D01*
X168652947Y-166985671D01*
X168735839Y-166852545D01*
X168781231Y-166771653D01*
X168787787Y-166753520D01*
X168759605Y-166711312D01*
X168681696Y-166621191D01*
X168564010Y-166493254D01*
X168416500Y-166337596D01*
X168249119Y-166164315D01*
X168071819Y-165983507D01*
X167894552Y-165805267D01*
X167727270Y-165639693D01*
X167579925Y-165496880D01*
X167462470Y-165386925D01*
X167384857Y-165319924D01*
X167358892Y-165303935D01*
X167316616Y-165326419D01*
X167215499Y-165389585D01*
X167065373Y-165487003D01*
X166876070Y-165612243D01*
X166657421Y-165758875D01*
X166492489Y-165870586D01*
X165659169Y-166437237D01*
X164964544Y-166150889D01*
X164269918Y-165864542D01*
X164081666Y-164865960D01*
X163893413Y-163867377D01*
X161814948Y-163867377D01*
X161626695Y-164865960D01*
X161626695Y-164865960D01*
G37*
X161626695Y-164865960D02*
X161438443Y-165864542D01*
X160743817Y-166150889D01*
X160049192Y-166437237D01*
X159215872Y-165870586D01*
X158982499Y-165712811D01*
X158771543Y-165571939D01*
X158592847Y-165454401D01*
X158456256Y-165366629D01*
X158371614Y-165315055D01*
X158348563Y-165303935D01*
X158307037Y-165332535D01*
X158218302Y-165411604D01*
X158092303Y-165531041D01*
X157938986Y-165680744D01*
X157768298Y-165850615D01*
X157590186Y-166030551D01*
X157414594Y-166210454D01*
X157251470Y-166380222D01*
X157110759Y-166529754D01*
X157002408Y-166648952D01*
X156936363Y-166727713D01*
X156920574Y-166754072D01*
X156943297Y-166802666D01*
X157007001Y-166909126D01*
X157104987Y-167063039D01*
X157230559Y-167253991D01*
X157377018Y-167471569D01*
X157461885Y-167595671D01*
X157616574Y-167822279D01*
X157754030Y-168026770D01*
X157867586Y-168198965D01*
X157950572Y-168328685D01*
X157996322Y-168405751D01*
X158003197Y-168421947D01*
X157987612Y-168467975D01*
X157945132Y-168575250D01*
X157882165Y-168728687D01*
X157805121Y-168913206D01*
X157720410Y-169113721D01*
X157634442Y-169315152D01*
X157553627Y-169502415D01*
X157484373Y-169660428D01*
X157433092Y-169774107D01*
X157406191Y-169828370D01*
X157404604Y-169830506D01*
X157362365Y-169840867D01*
X157249874Y-169863982D01*
X157078791Y-169897579D01*
X156860777Y-169939385D01*
X156607491Y-169987127D01*
X156459712Y-170014659D01*
X156189062Y-170066190D01*
X155944603Y-170115225D01*
X155738700Y-170159081D01*
X155583723Y-170195074D01*
X155492038Y-170220521D01*
X155473607Y-170228595D01*
X155455555Y-170283242D01*
X155440990Y-170406662D01*
X155429902Y-170584423D01*
X155422281Y-170802091D01*
X155418116Y-171045235D01*
X155417398Y-171299423D01*
X155420118Y-171550220D01*
X155426265Y-171783196D01*
X155435829Y-171983918D01*
X155448801Y-172137954D01*
X155465171Y-172230870D01*
X155474989Y-172250213D01*
X155533677Y-172273398D01*
X155658034Y-172306544D01*
X155831610Y-172345758D01*
X156037958Y-172387145D01*
X156109989Y-172400534D01*
X156457281Y-172464147D01*
X156731617Y-172515378D01*
X156942061Y-172556261D01*
X157097678Y-172588834D01*
X157207533Y-172615132D01*
X157280689Y-172637192D01*
X157326213Y-172657049D01*
X157353167Y-172676741D01*
X157356939Y-172680632D01*
X157394585Y-172743324D01*
X157452014Y-172865331D01*
X157523492Y-173031712D01*
X157603285Y-173227529D01*
X157685657Y-173437840D01*
X157764875Y-173647708D01*
X157835204Y-173842191D01*
X157890911Y-174006350D01*
X157926259Y-174125245D01*
X157935516Y-174183936D01*
X157934744Y-174185992D01*
X157903380Y-174233964D01*
X157832226Y-174339516D01*
X157728760Y-174491660D01*
X157600460Y-174679410D01*
X157454801Y-174891780D01*
X157413320Y-174952130D01*
X157265413Y-175170929D01*
X157135261Y-175370562D01*
X157029955Y-175539565D01*
X156956584Y-175666475D01*
X156922237Y-175739829D01*
X156920574Y-175748841D01*
X156949431Y-175796207D01*
X157029169Y-175890042D01*
X157149538Y-176020261D01*
X157300287Y-176176779D01*
X157471164Y-176349510D01*
X157651921Y-176528371D01*
X157832306Y-176703276D01*
X158002068Y-176864140D01*
X158150958Y-177000878D01*
X158268724Y-177103407D01*
X158345117Y-177161640D01*
X158366250Y-177171148D01*
X158415440Y-177148754D01*
X158516153Y-177088356D01*
X158651983Y-177000129D01*
X158756490Y-176929115D01*
X158945851Y-176798811D01*
X159170101Y-176645384D01*
X159395036Y-176492201D01*
X159515968Y-176410218D01*
X159925296Y-176133353D01*
X160268898Y-176319136D01*
X160425435Y-176400523D01*
X160558546Y-176463784D01*
X160648611Y-176499865D01*
X160671537Y-176504885D01*
X160699105Y-176467817D01*
X160753492Y-176363069D01*
X160830637Y-176200303D01*
X160926482Y-175989181D01*
X161036966Y-175739365D01*
X161158029Y-175460517D01*
X161285611Y-175162299D01*
X161415653Y-174854374D01*
X161544094Y-174546404D01*
X161666874Y-174248050D01*
X161779933Y-173968975D01*
X161879212Y-173718841D01*
X161960651Y-173507310D01*
X162020189Y-173344043D01*
X162053766Y-173238705D01*
X162059166Y-173202527D01*
X162016366Y-173156381D01*
X161922656Y-173081472D01*
X161797627Y-172993364D01*
X161787133Y-172986394D01*
X161463980Y-172727721D01*
X161203413Y-172425938D01*
X161007690Y-172090695D01*
X160879068Y-171731642D01*
X160819805Y-171358426D01*
X160832161Y-170980700D01*
X160918393Y-170608111D01*
X161080759Y-170250310D01*
X161128528Y-170172027D01*
X161376991Y-169855919D01*
X161670519Y-169602079D01*
X161998953Y-169411827D01*
X162352135Y-169286485D01*
X162719905Y-169227372D01*
X163092103Y-169235807D01*
X163458571Y-169313112D01*
X163809149Y-169460606D01*
X164133677Y-169679610D01*
X164234064Y-169768498D01*
X164489551Y-170046744D01*
X164675722Y-170339656D01*
X164803430Y-170667986D01*
X164874556Y-170993133D01*
X164892114Y-171358702D01*
X164833566Y-171726086D01*
X164704858Y-172082866D01*
X164511938Y-172416626D01*
X164260752Y-172714947D01*
X163957248Y-172965411D01*
X163917360Y-172991813D01*
X163790991Y-173078272D01*
X163694927Y-173153184D01*
X163649000Y-173201015D01*
X163648332Y-173202527D01*
X163658192Y-173254267D01*
X163697278Y-173371696D01*
X163761528Y-173545154D01*
X163846880Y-173764979D01*
X163949273Y-174021513D01*
X164064646Y-174305096D01*
X164188937Y-174606067D01*
X164318084Y-174914767D01*
X164448026Y-175221536D01*
X164574702Y-175516714D01*
X164694049Y-175790640D01*
X164802006Y-176033656D01*
X164894512Y-176236101D01*
X164967504Y-176388315D01*
X165016923Y-176480638D01*
X165036823Y-176504885D01*
X165097634Y-176486004D01*
X165211418Y-176435364D01*
X165358555Y-176362017D01*
X165439462Y-176319136D01*
X165783065Y-176133353D01*
X166192393Y-176410218D01*
X166401346Y-176552054D01*
X166630113Y-176708141D01*
X166844491Y-176855109D01*
X166951871Y-176929115D01*
X167102898Y-177030531D01*
X167230782Y-177110898D01*
X167318842Y-177160041D01*
X167347445Y-177170429D01*
X167389076Y-177142405D01*
X167481211Y-177064172D01*
X167614918Y-176943852D01*
X167781265Y-176789568D01*
X167971320Y-176609443D01*
X168091521Y-176493790D01*
X168301815Y-176287167D01*
X168483556Y-176102358D01*
X168629397Y-175947270D01*
X168731991Y-175829807D01*
X168783991Y-175757875D01*
X168788980Y-175743278D01*
X168765829Y-175687753D01*
X168701854Y-175575484D01*
X168604153Y-175417837D01*
X168479820Y-175226179D01*
X168335954Y-175011876D01*
X168295041Y-174952130D01*
X168145967Y-174734982D01*
X168012225Y-174539475D01*
X167901291Y-174376599D01*
X167820644Y-174257337D01*
X167777759Y-174192678D01*
X167773617Y-174185992D01*
X167779812Y-174134462D01*
X167812700Y-174021166D01*
X167866545Y-173861042D01*
X167935613Y-173669032D01*
X168014169Y-173460074D01*
X168096480Y-173249109D01*
X168176811Y-173051076D01*
X168249428Y-172880916D01*
X168308595Y-172753567D01*
X168348580Y-172683971D01*
X168351422Y-172680632D01*
X168375873Y-172660742D01*
X168417169Y-172641073D01*
X168484377Y-172619589D01*
X168586559Y-172594253D01*
X168732781Y-172563029D01*
X168932107Y-172523882D01*
X169193603Y-172474775D01*
X169526331Y-172413672D01*
X169598372Y-172400534D01*
X169811885Y-172359282D01*
X169998022Y-172318926D01*
X170140334Y-172283361D01*
X170222371Y-172256480D01*
X170233372Y-172250213D01*
X170251498Y-172194654D01*
X170266233Y-172070495D01*
X170277564Y-171892169D01*
X170285484Y-171674109D01*
X170289981Y-171430746D01*
X170291046Y-171176514D01*
X170288670Y-170925845D01*
X170282841Y-170693171D01*
X170273551Y-170492924D01*
X170260789Y-170339538D01*
X170244546Y-170247444D01*
X170234754Y-170228595D01*
X170180239Y-170209582D01*
X170056104Y-170178650D01*
X169874715Y-170138482D01*
X169648440Y-170091762D01*
X169389647Y-170041173D01*
X169248649Y-170014659D01*
X168981127Y-169964650D01*
X168742562Y-169919346D01*
X168544614Y-169881021D01*
X168398943Y-169851947D01*
X168317209Y-169834397D01*
X168303757Y-169830506D01*
X168281021Y-169786638D01*
X168232960Y-169680976D01*
X168165981Y-169528613D01*
X168086490Y-169344646D01*
X168000892Y-169144170D01*
X167915595Y-168942281D01*
X167837005Y-168754073D01*
X167771527Y-168594642D01*
X167725569Y-168479084D01*
X167705537Y-168422494D01*
X167705164Y-168420021D01*
X167727874Y-168375379D01*
X167791541Y-168272647D01*
X167889475Y-168122037D01*
X168014983Y-167933757D01*
X168161374Y-167718018D01*
X168246475Y-167594098D01*
X168401545Y-167366883D01*
X168539275Y-167160595D01*
X168652947Y-166985671D01*
X168735839Y-166852545D01*
X168781231Y-166771653D01*
X168787787Y-166753520D01*
X168759605Y-166711312D01*
X168681696Y-166621191D01*
X168564010Y-166493254D01*
X168416500Y-166337596D01*
X168249119Y-166164315D01*
X168071819Y-165983507D01*
X167894552Y-165805267D01*
X167727270Y-165639693D01*
X167579925Y-165496880D01*
X167462470Y-165386925D01*
X167384857Y-165319924D01*
X167358892Y-165303935D01*
X167316616Y-165326419D01*
X167215499Y-165389585D01*
X167065373Y-165487003D01*
X166876070Y-165612243D01*
X166657421Y-165758875D01*
X166492489Y-165870586D01*
X165659169Y-166437237D01*
X164964544Y-166150889D01*
X164269918Y-165864542D01*
X164081666Y-164865960D01*
X163893413Y-163867377D01*
X161814948Y-163867377D01*
X161626695Y-164865960D01*
G36*
X156916131Y-178668231D02*
G01*
X156772908Y-178711989D01*
X156680694Y-178767280D01*
X156650656Y-178811004D01*
X156658924Y-178862834D01*
X156712573Y-178944259D01*
X156757937Y-179001927D01*
X156851454Y-179106182D01*
X156921713Y-179150045D01*
X156981607Y-179147182D01*
X157159280Y-179101967D01*
X157289766Y-179104020D01*
X157395727Y-179155261D01*
X157431300Y-179185252D01*
X157545164Y-179290778D01*
X157545164Y-180668853D01*
X158003197Y-180668853D01*
X158003197Y-178670164D01*
X157774180Y-178670164D01*
X157636682Y-178675602D01*
X157565742Y-178694909D01*
X157545173Y-178732576D01*
X157545164Y-178733692D01*
X157535450Y-178773146D01*
X157491522Y-178768000D01*
X157430656Y-178739536D01*
X157304946Y-178686569D01*
X157202866Y-178654703D01*
X157071520Y-178646533D01*
X156916131Y-178668231D01*
X156916131Y-178668231D01*
G37*
X156916131Y-178668231D02*
X156772908Y-178711989D01*
X156680694Y-178767280D01*
X156650656Y-178811004D01*
X156658924Y-178862834D01*
X156712573Y-178944259D01*
X156757937Y-179001927D01*
X156851454Y-179106182D01*
X156921713Y-179150045D01*
X156981607Y-179147182D01*
X157159280Y-179101967D01*
X157289766Y-179104020D01*
X157395727Y-179155261D01*
X157431300Y-179185252D01*
X157545164Y-179290778D01*
X157545164Y-180668853D01*
X158003197Y-180668853D01*
X158003197Y-178670164D01*
X157774180Y-178670164D01*
X157636682Y-178675602D01*
X157565742Y-178694909D01*
X157545173Y-178732576D01*
X157545164Y-178733692D01*
X157535450Y-178773146D01*
X157491522Y-178768000D01*
X157430656Y-178739536D01*
X157304946Y-178686569D01*
X157202866Y-178654703D01*
X157071520Y-178646533D01*
X156916131Y-178668231D01*
G36*
X165371892Y-178704563D02*
G01*
X165268260Y-178754062D01*
X165167894Y-178825561D01*
X165091432Y-178907853D01*
X165035738Y-179012811D01*
X164997677Y-179152313D01*
X164974115Y-179338233D01*
X164961915Y-179582448D01*
X164957944Y-179896833D01*
X164957882Y-179929754D01*
X164956967Y-180668853D01*
X165415000Y-180668853D01*
X165415000Y-179987481D01*
X165415326Y-179735050D01*
X165417581Y-179552093D01*
X165423681Y-179424807D01*
X165435541Y-179339386D01*
X165455076Y-179282026D01*
X165484203Y-179238924D01*
X165524776Y-179196334D01*
X165666731Y-179104824D01*
X165821694Y-179087843D01*
X165969323Y-179145701D01*
X166020663Y-179188763D01*
X166058353Y-179229249D01*
X166085413Y-179272607D01*
X166103603Y-179332463D01*
X166114684Y-179422441D01*
X166120414Y-179556168D01*
X166122556Y-179747270D01*
X166122869Y-179979911D01*
X166122869Y-180668853D01*
X166580902Y-180668853D01*
X166580902Y-178670164D01*
X166351885Y-178670164D01*
X166214386Y-178675602D01*
X166143447Y-178694909D01*
X166122878Y-178732576D01*
X166122869Y-178733692D01*
X166113325Y-178770581D01*
X166071233Y-178766395D01*
X165987541Y-178725861D01*
X165797727Y-178666224D01*
X165580599Y-178659591D01*
X165371892Y-178704563D01*
X165371892Y-178704563D01*
G37*
X165371892Y-178704563D02*
X165268260Y-178754062D01*
X165167894Y-178825561D01*
X165091432Y-178907853D01*
X165035738Y-179012811D01*
X164997677Y-179152313D01*
X164974115Y-179338233D01*
X164961915Y-179582448D01*
X164957944Y-179896833D01*
X164957882Y-179929754D01*
X164956967Y-180668853D01*
X165415000Y-180668853D01*
X165415000Y-179987481D01*
X165415326Y-179735050D01*
X165417581Y-179552093D01*
X165423681Y-179424807D01*
X165435541Y-179339386D01*
X165455076Y-179282026D01*
X165484203Y-179238924D01*
X165524776Y-179196334D01*
X165666731Y-179104824D01*
X165821694Y-179087843D01*
X165969323Y-179145701D01*
X166020663Y-179188763D01*
X166058353Y-179229249D01*
X166085413Y-179272607D01*
X166103603Y-179332463D01*
X166114684Y-179422441D01*
X166120414Y-179556168D01*
X166122556Y-179747270D01*
X166122869Y-179979911D01*
X166122869Y-180668853D01*
X166580902Y-180668853D01*
X166580902Y-178670164D01*
X166351885Y-178670164D01*
X166214386Y-178675602D01*
X166143447Y-178694909D01*
X166122878Y-178732576D01*
X166122869Y-178733692D01*
X166113325Y-178770581D01*
X166071233Y-178766395D01*
X165987541Y-178725861D01*
X165797727Y-178666224D01*
X165580599Y-178659591D01*
X165371892Y-178704563D01*
G36*
X154007208Y-178663019D02*
G01*
X153900586Y-178688922D01*
X153696170Y-178783772D01*
X153521375Y-178928633D01*
X153400403Y-179102320D01*
X153383783Y-179141317D01*
X153360984Y-179243465D01*
X153345025Y-179394573D01*
X153339590Y-179547301D01*
X153339590Y-179836066D01*
X153943361Y-179836066D01*
X154192381Y-179837007D01*
X154367811Y-179842723D01*
X154479335Y-179857550D01*
X154536640Y-179885827D01*
X154549412Y-179931890D01*
X154527338Y-180000077D01*
X154487795Y-180079863D01*
X154377491Y-180213017D01*
X154224208Y-180279355D01*
X154036859Y-180277194D01*
X153824637Y-180204991D01*
X153641227Y-180115883D01*
X153489038Y-180236220D01*
X153336849Y-180356558D01*
X153480026Y-180488843D01*
X153671172Y-180613832D01*
X153906247Y-180689189D01*
X154159102Y-180710278D01*
X154403587Y-180672460D01*
X154443033Y-180659628D01*
X154657910Y-180547414D01*
X154817750Y-180380118D01*
X154925920Y-180152748D01*
X154985790Y-179860308D01*
X154986487Y-179854040D01*
X154991848Y-179535332D01*
X154970177Y-179421632D01*
X154547131Y-179421632D01*
X154508278Y-179439116D01*
X154402795Y-179452508D01*
X154247293Y-179460155D01*
X154148751Y-179461312D01*
X153964987Y-179460588D01*
X153850086Y-179455983D01*
X153789634Y-179443848D01*
X153769217Y-179420530D01*
X153774419Y-179382382D01*
X153778783Y-179367623D01*
X153853276Y-179228944D01*
X153970434Y-179117179D01*
X154073827Y-179068066D01*
X154211184Y-179071032D01*
X154350371Y-179132278D01*
X154467126Y-179233683D01*
X154537190Y-179357122D01*
X154547131Y-179421632D01*
X154970177Y-179421632D01*
X154938421Y-179255020D01*
X154832428Y-179019780D01*
X154680089Y-178836284D01*
X154487626Y-178711209D01*
X154261258Y-178651229D01*
X154007208Y-178663019D01*
X154007208Y-178663019D01*
G37*
X154007208Y-178663019D02*
X153900586Y-178688922D01*
X153696170Y-178783772D01*
X153521375Y-178928633D01*
X153400403Y-179102320D01*
X153383783Y-179141317D01*
X153360984Y-179243465D01*
X153345025Y-179394573D01*
X153339590Y-179547301D01*
X153339590Y-179836066D01*
X153943361Y-179836066D01*
X154192381Y-179837007D01*
X154367811Y-179842723D01*
X154479335Y-179857550D01*
X154536640Y-179885827D01*
X154549412Y-179931890D01*
X154527338Y-180000077D01*
X154487795Y-180079863D01*
X154377491Y-180213017D01*
X154224208Y-180279355D01*
X154036859Y-180277194D01*
X153824637Y-180204991D01*
X153641227Y-180115883D01*
X153489038Y-180236220D01*
X153336849Y-180356558D01*
X153480026Y-180488843D01*
X153671172Y-180613832D01*
X153906247Y-180689189D01*
X154159102Y-180710278D01*
X154403587Y-180672460D01*
X154443033Y-180659628D01*
X154657910Y-180547414D01*
X154817750Y-180380118D01*
X154925920Y-180152748D01*
X154985790Y-179860308D01*
X154986487Y-179854040D01*
X154991848Y-179535332D01*
X154970177Y-179421632D01*
X154547131Y-179421632D01*
X154508278Y-179439116D01*
X154402795Y-179452508D01*
X154247293Y-179460155D01*
X154148751Y-179461312D01*
X153964987Y-179460588D01*
X153850086Y-179455983D01*
X153789634Y-179443848D01*
X153769217Y-179420530D01*
X153774419Y-179382382D01*
X153778783Y-179367623D01*
X153853276Y-179228944D01*
X153970434Y-179117179D01*
X154073827Y-179068066D01*
X154211184Y-179071032D01*
X154350371Y-179132278D01*
X154467126Y-179233683D01*
X154537190Y-179357122D01*
X154547131Y-179421632D01*
X154970177Y-179421632D01*
X154938421Y-179255020D01*
X154832428Y-179019780D01*
X154680089Y-178836284D01*
X154487626Y-178711209D01*
X154261258Y-178651229D01*
X154007208Y-178663019D01*
G36*
X155532712Y-178687602D02*
G01*
X155291457Y-178790090D01*
X155215469Y-178839981D01*
X155118352Y-178916651D01*
X155057388Y-178976936D01*
X155046803Y-178996571D01*
X155076692Y-179040142D01*
X155153181Y-179114077D01*
X155214418Y-179165679D01*
X155382033Y-179300378D01*
X155514386Y-179189010D01*
X155616664Y-179117113D01*
X155716390Y-179092296D01*
X155830525Y-179098357D01*
X156011766Y-179143418D01*
X156136525Y-179236949D01*
X156212342Y-179388154D01*
X156246760Y-179606236D01*
X156246769Y-179606373D01*
X156243792Y-179850124D01*
X156197533Y-180028966D01*
X156105258Y-180150730D01*
X156042350Y-180191964D01*
X155875283Y-180243311D01*
X155696838Y-180243342D01*
X155541585Y-180193522D01*
X155504836Y-180169180D01*
X155412670Y-180107004D01*
X155340613Y-180096813D01*
X155262898Y-180143092D01*
X155176982Y-180226212D01*
X155040989Y-180366521D01*
X155191977Y-180490978D01*
X155425260Y-180631443D01*
X155688327Y-180700666D01*
X155963240Y-180695653D01*
X156143784Y-180649755D01*
X156354806Y-180536249D01*
X156523574Y-180357685D01*
X156600247Y-180231639D01*
X156662346Y-180050791D01*
X156693419Y-179821745D01*
X156693658Y-179573510D01*
X156663257Y-179335093D01*
X156602408Y-179135503D01*
X156592824Y-179115039D01*
X156450898Y-178914341D01*
X156258741Y-178768217D01*
X156031536Y-178679698D01*
X155784465Y-178651815D01*
X155532712Y-178687602D01*
X155532712Y-178687602D01*
G37*
X155532712Y-178687602D02*
X155291457Y-178790090D01*
X155215469Y-178839981D01*
X155118352Y-178916651D01*
X155057388Y-178976936D01*
X155046803Y-178996571D01*
X155076692Y-179040142D01*
X155153181Y-179114077D01*
X155214418Y-179165679D01*
X155382033Y-179300378D01*
X155514386Y-179189010D01*
X155616664Y-179117113D01*
X155716390Y-179092296D01*
X155830525Y-179098357D01*
X156011766Y-179143418D01*
X156136525Y-179236949D01*
X156212342Y-179388154D01*
X156246760Y-179606236D01*
X156246769Y-179606373D01*
X156243792Y-179850124D01*
X156197533Y-180028966D01*
X156105258Y-180150730D01*
X156042350Y-180191964D01*
X155875283Y-180243311D01*
X155696838Y-180243342D01*
X155541585Y-180193522D01*
X155504836Y-180169180D01*
X155412670Y-180107004D01*
X155340613Y-180096813D01*
X155262898Y-180143092D01*
X155176982Y-180226212D01*
X155040989Y-180366521D01*
X155191977Y-180490978D01*
X155425260Y-180631443D01*
X155688327Y-180700666D01*
X155963240Y-180695653D01*
X156143784Y-180649755D01*
X156354806Y-180536249D01*
X156523574Y-180357685D01*
X156600247Y-180231639D01*
X156662346Y-180050791D01*
X156693419Y-179821745D01*
X156693658Y-179573510D01*
X156663257Y-179335093D01*
X156602408Y-179135503D01*
X156592824Y-179115039D01*
X156450898Y-178914341D01*
X156258741Y-178768217D01*
X156031536Y-178679698D01*
X155784465Y-178651815D01*
X155532712Y-178687602D01*
G36*
X159585492Y-179318311D02*
G01*
X159581556Y-179623698D01*
X159567177Y-179855660D01*
X159538496Y-180023786D01*
X159491652Y-180137671D01*
X159422789Y-180206905D01*
X159328046Y-180241080D01*
X159210738Y-180249811D01*
X159087877Y-180240028D01*
X158994556Y-180204287D01*
X158926916Y-180132995D01*
X158881099Y-180016561D01*
X158853245Y-179845391D01*
X158839496Y-179609896D01*
X158835984Y-179318311D01*
X158835984Y-178670164D01*
X158377951Y-178670164D01*
X158377951Y-180668853D01*
X158606967Y-180668853D01*
X158745029Y-180663258D01*
X158816122Y-180643611D01*
X158835984Y-180606313D01*
X158847946Y-180573094D01*
X158895553Y-180580121D01*
X158991515Y-180627132D01*
X159211452Y-180699654D01*
X159444726Y-180694516D01*
X159668245Y-180615766D01*
X159774687Y-180553558D01*
X159855878Y-180486204D01*
X159915192Y-180401928D01*
X159956004Y-180288957D01*
X159981688Y-180135515D01*
X159995619Y-179929827D01*
X160001171Y-179660118D01*
X160001885Y-179451551D01*
X160001885Y-178670164D01*
X159585492Y-178670164D01*
X159585492Y-179318311D01*
X159585492Y-179318311D01*
G37*
X159585492Y-179318311D02*
X159581556Y-179623698D01*
X159567177Y-179855660D01*
X159538496Y-180023786D01*
X159491652Y-180137671D01*
X159422789Y-180206905D01*
X159328046Y-180241080D01*
X159210738Y-180249811D01*
X159087877Y-180240028D01*
X158994556Y-180204287D01*
X158926916Y-180132995D01*
X158881099Y-180016561D01*
X158853245Y-179845391D01*
X158839496Y-179609896D01*
X158835984Y-179318311D01*
X158835984Y-178670164D01*
X158377951Y-178670164D01*
X158377951Y-180668853D01*
X158606967Y-180668853D01*
X158745029Y-180663258D01*
X158816122Y-180643611D01*
X158835984Y-180606313D01*
X158847946Y-180573094D01*
X158895553Y-180580121D01*
X158991515Y-180627132D01*
X159211452Y-180699654D01*
X159444726Y-180694516D01*
X159668245Y-180615766D01*
X159774687Y-180553558D01*
X159855878Y-180486204D01*
X159915192Y-180401928D01*
X159956004Y-180288957D01*
X159981688Y-180135515D01*
X159995619Y-179929827D01*
X160001171Y-179660118D01*
X160001885Y-179451551D01*
X160001885Y-178670164D01*
X159585492Y-178670164D01*
X159585492Y-179318311D01*
G36*
X160852479Y-178694805D02*
G01*
X160641864Y-178809505D01*
X160477085Y-178990574D01*
X160399446Y-179137838D01*
X160366114Y-179267907D01*
X160344517Y-179453333D01*
X160335261Y-179666939D01*
X160338955Y-179881550D01*
X160356206Y-180069991D01*
X160376357Y-180170637D01*
X160444333Y-180308323D01*
X160562058Y-180454566D01*
X160703935Y-180582452D01*
X160844368Y-180665063D01*
X160847793Y-180666373D01*
X161022055Y-180702472D01*
X161228573Y-180703365D01*
X161424826Y-180670501D01*
X161500604Y-180644161D01*
X161695779Y-180533484D01*
X161835562Y-180388478D01*
X161927401Y-180196503D01*
X161978746Y-179944920D01*
X161990363Y-179813142D01*
X161988881Y-179647553D01*
X161542541Y-179647553D01*
X161527506Y-179889177D01*
X161484228Y-180073303D01*
X161415449Y-180190949D01*
X161366450Y-180224590D01*
X161240907Y-180248050D01*
X161091682Y-180241104D01*
X160962667Y-180207345D01*
X160928834Y-180188772D01*
X160839572Y-180080599D01*
X160780655Y-179915051D01*
X160755576Y-179713581D01*
X160767826Y-179497646D01*
X160795204Y-179367690D01*
X160873809Y-179217191D01*
X160997896Y-179123114D01*
X161147339Y-179090587D01*
X161302013Y-179124738D01*
X161420826Y-179208273D01*
X161483265Y-179277193D01*
X161519707Y-179345126D01*
X161537077Y-179437064D01*
X161542301Y-179577999D01*
X161542541Y-179647553D01*
X161988881Y-179647553D01*
X161987215Y-179461495D01*
X161929944Y-179173134D01*
X161818543Y-178948049D01*
X161653007Y-178786230D01*
X161433330Y-178687666D01*
X161386158Y-178676236D01*
X161102664Y-178649406D01*
X160852479Y-178694805D01*
X160852479Y-178694805D01*
G37*
X160852479Y-178694805D02*
X160641864Y-178809505D01*
X160477085Y-178990574D01*
X160399446Y-179137838D01*
X160366114Y-179267907D01*
X160344517Y-179453333D01*
X160335261Y-179666939D01*
X160338955Y-179881550D01*
X160356206Y-180069991D01*
X160376357Y-180170637D01*
X160444333Y-180308323D01*
X160562058Y-180454566D01*
X160703935Y-180582452D01*
X160844368Y-180665063D01*
X160847793Y-180666373D01*
X161022055Y-180702472D01*
X161228573Y-180703365D01*
X161424826Y-180670501D01*
X161500604Y-180644161D01*
X161695779Y-180533484D01*
X161835562Y-180388478D01*
X161927401Y-180196503D01*
X161978746Y-179944920D01*
X161990363Y-179813142D01*
X161988881Y-179647553D01*
X161542541Y-179647553D01*
X161527506Y-179889177D01*
X161484228Y-180073303D01*
X161415449Y-180190949D01*
X161366450Y-180224590D01*
X161240907Y-180248050D01*
X161091682Y-180241104D01*
X160962667Y-180207345D01*
X160928834Y-180188772D01*
X160839572Y-180080599D01*
X160780655Y-179915051D01*
X160755576Y-179713581D01*
X160767826Y-179497646D01*
X160795204Y-179367690D01*
X160873809Y-179217191D01*
X160997896Y-179123114D01*
X161147339Y-179090587D01*
X161302013Y-179124738D01*
X161420826Y-179208273D01*
X161483265Y-179277193D01*
X161519707Y-179345126D01*
X161537077Y-179437064D01*
X161542301Y-179577999D01*
X161542541Y-179647553D01*
X161988881Y-179647553D01*
X161987215Y-179461495D01*
X161929944Y-179173134D01*
X161818543Y-178948049D01*
X161653007Y-178786230D01*
X161433330Y-178687666D01*
X161386158Y-178676236D01*
X161102664Y-178649406D01*
X160852479Y-178694805D01*
G36*
X162828582Y-178663003D02*
G01*
X162670900Y-178692907D01*
X162507315Y-178755452D01*
X162489836Y-178763426D01*
X162365783Y-178828656D01*
X162279871Y-178889274D01*
X162252102Y-178928106D01*
X162278547Y-178991437D01*
X162342780Y-179084881D01*
X162371292Y-179119762D01*
X162488789Y-179257066D01*
X162640268Y-179167691D01*
X162784430Y-179108152D01*
X162951000Y-179076326D01*
X163110738Y-179074316D01*
X163234406Y-179104221D01*
X163264084Y-179122886D01*
X163320602Y-179208466D01*
X163327471Y-179307049D01*
X163285180Y-179384062D01*
X163260164Y-179398998D01*
X163185204Y-179417547D01*
X163053439Y-179439348D01*
X162891009Y-179460180D01*
X162861044Y-179463447D01*
X162600160Y-179508575D01*
X162410945Y-179585230D01*
X162285457Y-179700491D01*
X162215757Y-179861435D01*
X162194044Y-180058015D01*
X162224039Y-180281473D01*
X162321441Y-180456949D01*
X162486639Y-180584758D01*
X162720023Y-180665218D01*
X162979098Y-180696962D01*
X163190367Y-180696580D01*
X163361735Y-180667749D01*
X163478770Y-180627944D01*
X163626650Y-180558587D01*
X163763313Y-180478097D01*
X163811885Y-180442670D01*
X163936803Y-180340705D01*
X163635491Y-180035813D01*
X163464204Y-180149165D01*
X163292406Y-180234300D01*
X163108952Y-180278830D01*
X162932603Y-180283528D01*
X162782119Y-180249170D01*
X162676260Y-180176529D01*
X162642079Y-180115238D01*
X162647206Y-180016941D01*
X162732143Y-179941773D01*
X162896657Y-179889866D01*
X163076899Y-179865875D01*
X163354291Y-179820104D01*
X163560365Y-179733748D01*
X163697878Y-179604280D01*
X163769587Y-179429172D01*
X163779521Y-179221565D01*
X163730452Y-179004714D01*
X163618580Y-178840805D01*
X163442903Y-178729088D01*
X163202419Y-178668814D01*
X163024257Y-178656999D01*
X162828582Y-178663003D01*
X162828582Y-178663003D01*
G37*
X162828582Y-178663003D02*
X162670900Y-178692907D01*
X162507315Y-178755452D01*
X162489836Y-178763426D01*
X162365783Y-178828656D01*
X162279871Y-178889274D01*
X162252102Y-178928106D01*
X162278547Y-178991437D01*
X162342780Y-179084881D01*
X162371292Y-179119762D01*
X162488789Y-179257066D01*
X162640268Y-179167691D01*
X162784430Y-179108152D01*
X162951000Y-179076326D01*
X163110738Y-179074316D01*
X163234406Y-179104221D01*
X163264084Y-179122886D01*
X163320602Y-179208466D01*
X163327471Y-179307049D01*
X163285180Y-179384062D01*
X163260164Y-179398998D01*
X163185204Y-179417547D01*
X163053439Y-179439348D01*
X162891009Y-179460180D01*
X162861044Y-179463447D01*
X162600160Y-179508575D01*
X162410945Y-179585230D01*
X162285457Y-179700491D01*
X162215757Y-179861435D01*
X162194044Y-180058015D01*
X162224039Y-180281473D01*
X162321441Y-180456949D01*
X162486639Y-180584758D01*
X162720023Y-180665218D01*
X162979098Y-180696962D01*
X163190367Y-180696580D01*
X163361735Y-180667749D01*
X163478770Y-180627944D01*
X163626650Y-180558587D01*
X163763313Y-180478097D01*
X163811885Y-180442670D01*
X163936803Y-180340705D01*
X163635491Y-180035813D01*
X163464204Y-180149165D01*
X163292406Y-180234300D01*
X163108952Y-180278830D01*
X162932603Y-180283528D01*
X162782119Y-180249170D01*
X162676260Y-180176529D01*
X162642079Y-180115238D01*
X162647206Y-180016941D01*
X162732143Y-179941773D01*
X162896657Y-179889866D01*
X163076899Y-179865875D01*
X163354291Y-179820104D01*
X163560365Y-179733748D01*
X163697878Y-179604280D01*
X163769587Y-179429172D01*
X163779521Y-179221565D01*
X163730452Y-179004714D01*
X163618580Y-178840805D01*
X163442903Y-178729088D01*
X163202419Y-178668814D01*
X163024257Y-178656999D01*
X162828582Y-178663003D01*
G36*
X167367675Y-178716526D02*
G01*
X167326181Y-178736061D01*
X167182566Y-178841263D01*
X167046764Y-178994793D01*
X166945362Y-179163845D01*
X166916520Y-179241567D01*
X166890206Y-179380398D01*
X166874515Y-179548177D01*
X166872609Y-179617459D01*
X166872377Y-179836066D01*
X168130585Y-179836066D01*
X168103766Y-179950574D01*
X168037934Y-180086004D01*
X167922839Y-180203046D01*
X167785913Y-180278442D01*
X167698658Y-180294098D01*
X167580328Y-180275099D01*
X167439149Y-180227446D01*
X167391189Y-180205521D01*
X167213829Y-180116944D01*
X167062470Y-180232391D01*
X166975131Y-180310474D01*
X166928658Y-180374922D01*
X166926305Y-180393837D01*
X166967822Y-180439681D01*
X167058810Y-180509349D01*
X167141395Y-180563700D01*
X167364249Y-180661405D01*
X167614087Y-180705628D01*
X167861710Y-180694130D01*
X168059098Y-180634029D01*
X168262576Y-180505284D01*
X168407179Y-180335774D01*
X168497639Y-180116462D01*
X168538689Y-179838309D01*
X168542329Y-179711034D01*
X168527761Y-179419375D01*
X168525972Y-179410891D01*
X168109059Y-179410891D01*
X168097577Y-179438242D01*
X168050384Y-179453324D01*
X167953049Y-179459788D01*
X167791136Y-179461285D01*
X167728790Y-179461312D01*
X167539103Y-179459052D01*
X167418811Y-179450844D01*
X167354116Y-179434550D01*
X167331220Y-179408027D01*
X167330410Y-179399510D01*
X167356540Y-179331825D01*
X167421937Y-179237005D01*
X167450052Y-179203805D01*
X167554426Y-179109906D01*
X167663225Y-179072988D01*
X167721843Y-179069902D01*
X167880426Y-179108493D01*
X168013413Y-179212155D01*
X168097772Y-179362717D01*
X168099267Y-179367623D01*
X168109059Y-179410891D01*
X168525972Y-179410891D01*
X168479316Y-179189722D01*
X168392045Y-179005983D01*
X168285311Y-178875557D01*
X168087980Y-178734131D01*
X167856015Y-178658556D01*
X167609288Y-178651724D01*
X167367675Y-178716526D01*
X167367675Y-178716526D01*
G37*
X167367675Y-178716526D02*
X167326181Y-178736061D01*
X167182566Y-178841263D01*
X167046764Y-178994793D01*
X166945362Y-179163845D01*
X166916520Y-179241567D01*
X166890206Y-179380398D01*
X166874515Y-179548177D01*
X166872609Y-179617459D01*
X166872377Y-179836066D01*
X168130585Y-179836066D01*
X168103766Y-179950574D01*
X168037934Y-180086004D01*
X167922839Y-180203046D01*
X167785913Y-180278442D01*
X167698658Y-180294098D01*
X167580328Y-180275099D01*
X167439149Y-180227446D01*
X167391189Y-180205521D01*
X167213829Y-180116944D01*
X167062470Y-180232391D01*
X166975131Y-180310474D01*
X166928658Y-180374922D01*
X166926305Y-180393837D01*
X166967822Y-180439681D01*
X167058810Y-180509349D01*
X167141395Y-180563700D01*
X167364249Y-180661405D01*
X167614087Y-180705628D01*
X167861710Y-180694130D01*
X168059098Y-180634029D01*
X168262576Y-180505284D01*
X168407179Y-180335774D01*
X168497639Y-180116462D01*
X168538689Y-179838309D01*
X168542329Y-179711034D01*
X168527761Y-179419375D01*
X168525972Y-179410891D01*
X168109059Y-179410891D01*
X168097577Y-179438242D01*
X168050384Y-179453324D01*
X167953049Y-179459788D01*
X167791136Y-179461285D01*
X167728790Y-179461312D01*
X167539103Y-179459052D01*
X167418811Y-179450844D01*
X167354116Y-179434550D01*
X167331220Y-179408027D01*
X167330410Y-179399510D01*
X167356540Y-179331825D01*
X167421937Y-179237005D01*
X167450052Y-179203805D01*
X167554426Y-179109906D01*
X167663225Y-179072988D01*
X167721843Y-179069902D01*
X167880426Y-179108493D01*
X168013413Y-179212155D01*
X168097772Y-179362717D01*
X168099267Y-179367623D01*
X168109059Y-179410891D01*
X168525972Y-179410891D01*
X168479316Y-179189722D01*
X168392045Y-179005983D01*
X168285311Y-178875557D01*
X168087980Y-178734131D01*
X167856015Y-178658556D01*
X167609288Y-178651724D01*
X167367675Y-178716526D01*
G36*
X171280390Y-178691802D02*
G01*
X171062553Y-178788108D01*
X170897184Y-178948919D01*
X170784043Y-179174482D01*
X170722888Y-179465042D01*
X170718505Y-179510408D01*
X170715070Y-179830256D01*
X170759602Y-180110614D01*
X170849391Y-180337847D01*
X170897471Y-180410941D01*
X171064945Y-180565643D01*
X171278232Y-180665838D01*
X171516846Y-180707418D01*
X171760303Y-180686272D01*
X171945370Y-180621145D01*
X172104521Y-180511393D01*
X172234596Y-180367496D01*
X172236846Y-180364130D01*
X172289670Y-180275314D01*
X172323999Y-180186005D01*
X172344788Y-180073294D01*
X172356991Y-179914273D01*
X172362367Y-179783868D01*
X172364605Y-179665611D01*
X171948294Y-179665611D01*
X171944225Y-179783335D01*
X171929455Y-179940049D01*
X171903398Y-180040621D01*
X171856407Y-180112173D01*
X171812397Y-180153971D01*
X171656377Y-180241484D01*
X171493131Y-180253179D01*
X171341096Y-180190212D01*
X171265080Y-180119653D01*
X171210303Y-180048550D01*
X171178263Y-179980512D01*
X171164200Y-179891967D01*
X171163358Y-179759339D01*
X171167691Y-179637195D01*
X171177011Y-179462710D01*
X171191788Y-179349538D01*
X171218420Y-179275721D01*
X171263309Y-179219298D01*
X171298880Y-179187050D01*
X171447671Y-179102340D01*
X171608187Y-179098117D01*
X171742780Y-179148292D01*
X171857600Y-179253075D01*
X171926004Y-179425198D01*
X171948294Y-179665611D01*
X172364605Y-179665611D01*
X172367276Y-179524548D01*
X172358893Y-179330610D01*
X172333772Y-179184745D01*
X172288468Y-179069641D01*
X172219536Y-178967986D01*
X172193978Y-178937802D01*
X172034175Y-178787412D01*
X171862769Y-178699566D01*
X171653151Y-178662762D01*
X171550936Y-178659754D01*
X171280390Y-178691802D01*
X171280390Y-178691802D01*
G37*
X171280390Y-178691802D02*
X171062553Y-178788108D01*
X170897184Y-178948919D01*
X170784043Y-179174482D01*
X170722888Y-179465042D01*
X170718505Y-179510408D01*
X170715070Y-179830256D01*
X170759602Y-180110614D01*
X170849391Y-180337847D01*
X170897471Y-180410941D01*
X171064945Y-180565643D01*
X171278232Y-180665838D01*
X171516846Y-180707418D01*
X171760303Y-180686272D01*
X171945370Y-180621145D01*
X172104521Y-180511393D01*
X172234596Y-180367496D01*
X172236846Y-180364130D01*
X172289670Y-180275314D01*
X172323999Y-180186005D01*
X172344788Y-180073294D01*
X172356991Y-179914273D01*
X172362367Y-179783868D01*
X172364605Y-179665611D01*
X171948294Y-179665611D01*
X171944225Y-179783335D01*
X171929455Y-179940049D01*
X171903398Y-180040621D01*
X171856407Y-180112173D01*
X171812397Y-180153971D01*
X171656377Y-180241484D01*
X171493131Y-180253179D01*
X171341096Y-180190212D01*
X171265080Y-180119653D01*
X171210303Y-180048550D01*
X171178263Y-179980512D01*
X171164200Y-179891967D01*
X171163358Y-179759339D01*
X171167691Y-179637195D01*
X171177011Y-179462710D01*
X171191788Y-179349538D01*
X171218420Y-179275721D01*
X171263309Y-179219298D01*
X171298880Y-179187050D01*
X171447671Y-179102340D01*
X171608187Y-179098117D01*
X171742780Y-179148292D01*
X171857600Y-179253075D01*
X171926004Y-179425198D01*
X171948294Y-179665611D01*
X172364605Y-179665611D01*
X172367276Y-179524548D01*
X172358893Y-179330610D01*
X172333772Y-179184745D01*
X172288468Y-179069641D01*
X172219536Y-178967986D01*
X172193978Y-178937802D01*
X172034175Y-178787412D01*
X171862769Y-178699566D01*
X171653151Y-178662762D01*
X171550936Y-178659754D01*
X171280390Y-178691802D01*
G36*
X156144158Y-181803999D02*
G01*
X155945124Y-181855746D01*
X155778439Y-181962544D01*
X155697731Y-182042326D01*
X155565432Y-182230931D01*
X155489610Y-182449720D01*
X155463562Y-182718668D01*
X155463429Y-182740410D01*
X155463197Y-182959017D01*
X156721405Y-182959017D01*
X156694585Y-183073525D01*
X156646159Y-183177232D01*
X156561404Y-183285290D01*
X156543677Y-183302541D01*
X156391320Y-183395904D01*
X156217576Y-183411738D01*
X156017589Y-183350313D01*
X155983689Y-183333771D01*
X155879712Y-183283484D01*
X155810069Y-183254834D01*
X155797917Y-183252184D01*
X155755499Y-183277913D01*
X155674601Y-183340861D01*
X155633535Y-183375259D01*
X155548440Y-183454276D01*
X155520497Y-183506451D01*
X155539890Y-183554446D01*
X155550257Y-183567570D01*
X155620469Y-183625008D01*
X155736326Y-183694813D01*
X155817131Y-183735564D01*
X156046499Y-183807362D01*
X156300436Y-183830625D01*
X156540926Y-183803059D01*
X156608279Y-183783321D01*
X156816738Y-183671612D01*
X156971254Y-183499721D01*
X157072722Y-183265979D01*
X157122035Y-182968716D01*
X157127449Y-182813279D01*
X157111641Y-182586973D01*
X156712377Y-182586973D01*
X156673760Y-182603702D01*
X156569958Y-182616829D01*
X156419044Y-182624575D01*
X156316803Y-182625902D01*
X156132899Y-182624623D01*
X156016826Y-182618638D01*
X155953148Y-182604724D01*
X155926433Y-182579655D01*
X155921230Y-182543280D01*
X155956927Y-182431229D01*
X156046804Y-182320488D01*
X156165034Y-182235489D01*
X156283310Y-182200718D01*
X156443956Y-182231563D01*
X156583022Y-182320732D01*
X156679443Y-182449263D01*
X156712377Y-182586973D01*
X157111641Y-182586973D01*
X157104428Y-182483733D01*
X157033376Y-182221175D01*
X156912790Y-182023525D01*
X156741166Y-181888702D01*
X156517002Y-181814626D01*
X156395562Y-181800360D01*
X156144158Y-181803999D01*
X156144158Y-181803999D01*
G37*
X156144158Y-181803999D02*
X155945124Y-181855746D01*
X155778439Y-181962544D01*
X155697731Y-182042326D01*
X155565432Y-182230931D01*
X155489610Y-182449720D01*
X155463562Y-182718668D01*
X155463429Y-182740410D01*
X155463197Y-182959017D01*
X156721405Y-182959017D01*
X156694585Y-183073525D01*
X156646159Y-183177232D01*
X156561404Y-183285290D01*
X156543677Y-183302541D01*
X156391320Y-183395904D01*
X156217576Y-183411738D01*
X156017589Y-183350313D01*
X155983689Y-183333771D01*
X155879712Y-183283484D01*
X155810069Y-183254834D01*
X155797917Y-183252184D01*
X155755499Y-183277913D01*
X155674601Y-183340861D01*
X155633535Y-183375259D01*
X155548440Y-183454276D01*
X155520497Y-183506451D01*
X155539890Y-183554446D01*
X155550257Y-183567570D01*
X155620469Y-183625008D01*
X155736326Y-183694813D01*
X155817131Y-183735564D01*
X156046499Y-183807362D01*
X156300436Y-183830625D01*
X156540926Y-183803059D01*
X156608279Y-183783321D01*
X156816738Y-183671612D01*
X156971254Y-183499721D01*
X157072722Y-183265979D01*
X157122035Y-182968716D01*
X157127449Y-182813279D01*
X157111641Y-182586973D01*
X156712377Y-182586973D01*
X156673760Y-182603702D01*
X156569958Y-182616829D01*
X156419044Y-182624575D01*
X156316803Y-182625902D01*
X156132899Y-182624623D01*
X156016826Y-182618638D01*
X155953148Y-182604724D01*
X155926433Y-182579655D01*
X155921230Y-182543280D01*
X155956927Y-182431229D01*
X156046804Y-182320488D01*
X156165034Y-182235489D01*
X156283310Y-182200718D01*
X156443956Y-182231563D01*
X156583022Y-182320732D01*
X156679443Y-182449263D01*
X156712377Y-182586973D01*
X157111641Y-182586973D01*
X157104428Y-182483733D01*
X157033376Y-182221175D01*
X156912790Y-182023525D01*
X156741166Y-181888702D01*
X156517002Y-181814626D01*
X156395562Y-181800360D01*
X156144158Y-181803999D01*
G36*
X157459893Y-181792460D02*
G01*
X157299818Y-181824017D01*
X157208688Y-181870743D01*
X157112821Y-181948370D01*
X157249213Y-182120579D01*
X157333306Y-182224867D01*
X157390408Y-182275746D01*
X157447156Y-182283519D01*
X157530189Y-182258488D01*
X157569167Y-182244327D01*
X157728074Y-182223433D01*
X157873601Y-182268220D01*
X157980440Y-182369399D01*
X157997795Y-182401659D01*
X158016697Y-182487115D01*
X158031284Y-182644606D01*
X158040874Y-182862969D01*
X158044781Y-183131038D01*
X158044836Y-183169172D01*
X158044836Y-183833443D01*
X158502869Y-183833443D01*
X158502869Y-181793115D01*
X158273852Y-181793115D01*
X158141801Y-181796563D01*
X158073008Y-181811907D01*
X158047570Y-181846648D01*
X158044836Y-181879416D01*
X158044836Y-181965717D01*
X157935122Y-181879416D01*
X157809320Y-181820538D01*
X157640319Y-181791426D01*
X157459893Y-181792460D01*
X157459893Y-181792460D01*
G37*
X157459893Y-181792460D02*
X157299818Y-181824017D01*
X157208688Y-181870743D01*
X157112821Y-181948370D01*
X157249213Y-182120579D01*
X157333306Y-182224867D01*
X157390408Y-182275746D01*
X157447156Y-182283519D01*
X157530189Y-182258488D01*
X157569167Y-182244327D01*
X157728074Y-182223433D01*
X157873601Y-182268220D01*
X157980440Y-182369399D01*
X157997795Y-182401659D01*
X158016697Y-182487115D01*
X158031284Y-182644606D01*
X158040874Y-182862969D01*
X158044781Y-183131038D01*
X158044836Y-183169172D01*
X158044836Y-183833443D01*
X158502869Y-183833443D01*
X158502869Y-181793115D01*
X158273852Y-181793115D01*
X158141801Y-181796563D01*
X158073008Y-181811907D01*
X158047570Y-181846648D01*
X158044836Y-181879416D01*
X158044836Y-181965717D01*
X157935122Y-181879416D01*
X157809320Y-181820538D01*
X157640319Y-181791426D01*
X157459893Y-181792460D01*
G36*
X159436330Y-181805480D02*
G01*
X159260821Y-181848109D01*
X159210088Y-181870693D01*
X159111746Y-181929847D01*
X159036273Y-181996472D01*
X158980429Y-182082135D01*
X158940974Y-182198405D01*
X158914668Y-182356848D01*
X158898271Y-182569034D01*
X158888543Y-182846529D01*
X158884849Y-183031885D01*
X158871255Y-183833443D01*
X159103456Y-183833443D01*
X159244323Y-183827536D01*
X159316898Y-183807350D01*
X159335656Y-183773453D01*
X159345559Y-183736799D01*
X159389834Y-183743807D01*
X159450164Y-183773197D01*
X159601197Y-183818246D01*
X159795307Y-183830385D01*
X159999469Y-183810529D01*
X160180660Y-183759592D01*
X160196911Y-183752522D01*
X160362509Y-183636188D01*
X160471676Y-183474467D01*
X160521909Y-183285430D01*
X160518072Y-183217515D01*
X160108237Y-183217515D01*
X160072125Y-183308914D01*
X159965058Y-183374411D01*
X159792316Y-183409563D01*
X159700000Y-183414231D01*
X159546150Y-183402282D01*
X159443885Y-183355844D01*
X159418934Y-183333771D01*
X159351339Y-183213681D01*
X159335656Y-183104754D01*
X159335656Y-182959017D01*
X159538648Y-182959017D01*
X159774613Y-182971043D01*
X159940119Y-183008871D01*
X160044695Y-183075121D01*
X160068109Y-183104656D01*
X160108237Y-183217515D01*
X160518072Y-183217515D01*
X160510705Y-183087148D01*
X160435560Y-182897692D01*
X160333032Y-182769656D01*
X160270935Y-182714302D01*
X160210145Y-182677924D01*
X160131048Y-182655744D01*
X160014029Y-182642982D01*
X159839473Y-182634857D01*
X159770237Y-182632521D01*
X159335656Y-182618321D01*
X159336293Y-182486784D01*
X159353124Y-182348519D01*
X159413974Y-182264917D01*
X159536905Y-182211507D01*
X159540203Y-182210555D01*
X159714496Y-182189555D01*
X159885048Y-182216985D01*
X160011800Y-182283689D01*
X160062658Y-182316625D01*
X160117435Y-182312068D01*
X160201728Y-182264349D01*
X160251227Y-182230671D01*
X160348045Y-182158716D01*
X160408018Y-182104779D01*
X160417641Y-182089337D01*
X160378015Y-182009424D01*
X160260936Y-181913989D01*
X160210082Y-181881789D01*
X160063887Y-181826332D01*
X159866863Y-181794913D01*
X159648011Y-181787855D01*
X159436330Y-181805480D01*
X159436330Y-181805480D01*
G37*
X159436330Y-181805480D02*
X159260821Y-181848109D01*
X159210088Y-181870693D01*
X159111746Y-181929847D01*
X159036273Y-181996472D01*
X158980429Y-182082135D01*
X158940974Y-182198405D01*
X158914668Y-182356848D01*
X158898271Y-182569034D01*
X158888543Y-182846529D01*
X158884849Y-183031885D01*
X158871255Y-183833443D01*
X159103456Y-183833443D01*
X159244323Y-183827536D01*
X159316898Y-183807350D01*
X159335656Y-183773453D01*
X159345559Y-183736799D01*
X159389834Y-183743807D01*
X159450164Y-183773197D01*
X159601197Y-183818246D01*
X159795307Y-183830385D01*
X159999469Y-183810529D01*
X160180660Y-183759592D01*
X160196911Y-183752522D01*
X160362509Y-183636188D01*
X160471676Y-183474467D01*
X160521909Y-183285430D01*
X160518072Y-183217515D01*
X160108237Y-183217515D01*
X160072125Y-183308914D01*
X159965058Y-183374411D01*
X159792316Y-183409563D01*
X159700000Y-183414231D01*
X159546150Y-183402282D01*
X159443885Y-183355844D01*
X159418934Y-183333771D01*
X159351339Y-183213681D01*
X159335656Y-183104754D01*
X159335656Y-182959017D01*
X159538648Y-182959017D01*
X159774613Y-182971043D01*
X159940119Y-183008871D01*
X160044695Y-183075121D01*
X160068109Y-183104656D01*
X160108237Y-183217515D01*
X160518072Y-183217515D01*
X160510705Y-183087148D01*
X160435560Y-182897692D01*
X160333032Y-182769656D01*
X160270935Y-182714302D01*
X160210145Y-182677924D01*
X160131048Y-182655744D01*
X160014029Y-182642982D01*
X159839473Y-182634857D01*
X159770237Y-182632521D01*
X159335656Y-182618321D01*
X159336293Y-182486784D01*
X159353124Y-182348519D01*
X159413974Y-182264917D01*
X159536905Y-182211507D01*
X159540203Y-182210555D01*
X159714496Y-182189555D01*
X159885048Y-182216985D01*
X160011800Y-182283689D01*
X160062658Y-182316625D01*
X160117435Y-182312068D01*
X160201728Y-182264349D01*
X160251227Y-182230671D01*
X160348045Y-182158716D01*
X160408018Y-182104779D01*
X160417641Y-182089337D01*
X160378015Y-182009424D01*
X160260936Y-181913989D01*
X160210082Y-181881789D01*
X160063887Y-181826332D01*
X159866863Y-181794913D01*
X159648011Y-181787855D01*
X159436330Y-181805480D01*
G36*
X161778058Y-181813935D02*
G01*
X161562752Y-182459344D01*
X161347445Y-183104754D01*
X161279936Y-182875738D01*
X161239309Y-182734204D01*
X161185867Y-182542936D01*
X161128158Y-182332693D01*
X161097645Y-182219918D01*
X160982864Y-181793115D01*
X160509313Y-181793115D01*
X160650861Y-182240738D01*
X160720567Y-182460903D01*
X160804777Y-182726471D01*
X160892719Y-183003492D01*
X160971228Y-183250492D01*
X161150048Y-183812623D01*
X161343118Y-183825185D01*
X161536189Y-183837746D01*
X161640882Y-183492070D01*
X161705447Y-183277335D01*
X161775908Y-183040604D01*
X161837489Y-182831526D01*
X161839919Y-182823205D01*
X161885915Y-182681537D01*
X161926497Y-182584874D01*
X161954920Y-182548321D01*
X161960761Y-182552549D01*
X161981262Y-182609217D01*
X162020215Y-182730605D01*
X162072878Y-182901448D01*
X162134509Y-183106482D01*
X162167857Y-183219262D01*
X162348454Y-183833443D01*
X162731733Y-183833443D01*
X163038133Y-182865328D01*
X163124209Y-182593759D01*
X163202620Y-182347138D01*
X163269661Y-182137048D01*
X163321631Y-181975076D01*
X163354826Y-181872808D01*
X163364916Y-181842928D01*
X163356928Y-181812334D01*
X163294208Y-181798935D01*
X163163685Y-181800275D01*
X163143253Y-181801288D01*
X162901208Y-181813935D01*
X162742683Y-182396885D01*
X162684415Y-182609486D01*
X162632345Y-182796377D01*
X162591056Y-182941331D01*
X162565134Y-183028120D01*
X162560344Y-183042269D01*
X162540496Y-183025998D01*
X162500470Y-182941697D01*
X162444862Y-182800842D01*
X162378269Y-182614911D01*
X162321976Y-182446956D01*
X162107422Y-181789209D01*
X161778058Y-181813935D01*
X161778058Y-181813935D01*
G37*
X161778058Y-181813935D02*
X161562752Y-182459344D01*
X161347445Y-183104754D01*
X161279936Y-182875738D01*
X161239309Y-182734204D01*
X161185867Y-182542936D01*
X161128158Y-182332693D01*
X161097645Y-182219918D01*
X160982864Y-181793115D01*
X160509313Y-181793115D01*
X160650861Y-182240738D01*
X160720567Y-182460903D01*
X160804777Y-182726471D01*
X160892719Y-183003492D01*
X160971228Y-183250492D01*
X161150048Y-183812623D01*
X161343118Y-183825185D01*
X161536189Y-183837746D01*
X161640882Y-183492070D01*
X161705447Y-183277335D01*
X161775908Y-183040604D01*
X161837489Y-182831526D01*
X161839919Y-182823205D01*
X161885915Y-182681537D01*
X161926497Y-182584874D01*
X161954920Y-182548321D01*
X161960761Y-182552549D01*
X161981262Y-182609217D01*
X162020215Y-182730605D01*
X162072878Y-182901448D01*
X162134509Y-183106482D01*
X162167857Y-183219262D01*
X162348454Y-183833443D01*
X162731733Y-183833443D01*
X163038133Y-182865328D01*
X163124209Y-182593759D01*
X163202620Y-182347138D01*
X163269661Y-182137048D01*
X163321631Y-181975076D01*
X163354826Y-181872808D01*
X163364916Y-181842928D01*
X163356928Y-181812334D01*
X163294208Y-181798935D01*
X163163685Y-181800275D01*
X163143253Y-181801288D01*
X162901208Y-181813935D01*
X162742683Y-182396885D01*
X162684415Y-182609486D01*
X162632345Y-182796377D01*
X162591056Y-182941331D01*
X162565134Y-183028120D01*
X162560344Y-183042269D01*
X162540496Y-183025998D01*
X162500470Y-182941697D01*
X162444862Y-182800842D01*
X162378269Y-182614911D01*
X162321976Y-182446956D01*
X162107422Y-181789209D01*
X161778058Y-181813935D01*
G36*
X163541230Y-183833443D02*
G01*
X163770246Y-183833443D01*
X163903175Y-183829546D01*
X163972405Y-183813407D01*
X163997332Y-183778354D01*
X163999262Y-183754653D01*
X164003466Y-183707123D01*
X164029974Y-183698008D01*
X164099633Y-183727308D01*
X164153804Y-183754653D01*
X164361777Y-183819451D01*
X164587853Y-183823201D01*
X164771655Y-183774873D01*
X164942813Y-183658118D01*
X165073284Y-183485781D01*
X165144727Y-183282506D01*
X165146546Y-183271141D01*
X165157161Y-183147136D01*
X165162440Y-182969117D01*
X165162016Y-182834480D01*
X164707172Y-182834480D01*
X164696635Y-183013428D01*
X164672666Y-183160924D01*
X164640217Y-183244217D01*
X164517456Y-183358041D01*
X164371701Y-183398845D01*
X164221393Y-183365848D01*
X164092951Y-183267422D01*
X164044308Y-183201224D01*
X164015866Y-183122231D01*
X164002544Y-183006926D01*
X163999262Y-182833736D01*
X164005135Y-182662229D01*
X164020647Y-182511540D01*
X164042638Y-182410698D01*
X164046303Y-182401659D01*
X164134988Y-182294195D01*
X164264428Y-182235195D01*
X164409257Y-182225669D01*
X164544109Y-182266626D01*
X164643617Y-182359076D01*
X164653940Y-182377473D01*
X164686250Y-182489646D01*
X164703852Y-182650934D01*
X164707172Y-182834480D01*
X165162016Y-182834480D01*
X165161800Y-182766212D01*
X165158806Y-182657010D01*
X165138442Y-182386856D01*
X165096117Y-182184024D01*
X165025706Y-182034077D01*
X164921088Y-181922579D01*
X164819521Y-181857127D01*
X164677616Y-181811117D01*
X164501121Y-181795336D01*
X164320393Y-181808190D01*
X164165787Y-181848081D01*
X164084101Y-181895801D01*
X163999262Y-181972579D01*
X163999262Y-181001967D01*
X163541230Y-181001967D01*
X163541230Y-183833443D01*
X163541230Y-183833443D01*
G37*
X163541230Y-183833443D02*
X163770246Y-183833443D01*
X163903175Y-183829546D01*
X163972405Y-183813407D01*
X163997332Y-183778354D01*
X163999262Y-183754653D01*
X164003466Y-183707123D01*
X164029974Y-183698008D01*
X164099633Y-183727308D01*
X164153804Y-183754653D01*
X164361777Y-183819451D01*
X164587853Y-183823201D01*
X164771655Y-183774873D01*
X164942813Y-183658118D01*
X165073284Y-183485781D01*
X165144727Y-183282506D01*
X165146546Y-183271141D01*
X165157161Y-183147136D01*
X165162440Y-182969117D01*
X165162016Y-182834480D01*
X164707172Y-182834480D01*
X164696635Y-183013428D01*
X164672666Y-183160924D01*
X164640217Y-183244217D01*
X164517456Y-183358041D01*
X164371701Y-183398845D01*
X164221393Y-183365848D01*
X164092951Y-183267422D01*
X164044308Y-183201224D01*
X164015866Y-183122231D01*
X164002544Y-183006926D01*
X163999262Y-182833736D01*
X164005135Y-182662229D01*
X164020647Y-182511540D01*
X164042638Y-182410698D01*
X164046303Y-182401659D01*
X164134988Y-182294195D01*
X164264428Y-182235195D01*
X164409257Y-182225669D01*
X164544109Y-182266626D01*
X164643617Y-182359076D01*
X164653940Y-182377473D01*
X164686250Y-182489646D01*
X164703852Y-182650934D01*
X164707172Y-182834480D01*
X165162016Y-182834480D01*
X165161800Y-182766212D01*
X165158806Y-182657010D01*
X165138442Y-182386856D01*
X165096117Y-182184024D01*
X165025706Y-182034077D01*
X164921088Y-181922579D01*
X164819521Y-181857127D01*
X164677616Y-181811117D01*
X164501121Y-181795336D01*
X164320393Y-181808190D01*
X164165787Y-181848081D01*
X164084101Y-181895801D01*
X163999262Y-181972579D01*
X163999262Y-181001967D01*
X163541230Y-181001967D01*
X163541230Y-183833443D01*
G36*
X166164475Y-181797540D02*
G01*
X166102163Y-181816218D01*
X166082075Y-181857255D01*
X166081230Y-181875782D01*
X166077625Y-181927383D01*
X166052800Y-181935484D01*
X165985737Y-181900108D01*
X165945902Y-181875937D01*
X165820227Y-181824175D01*
X165670123Y-181798581D01*
X165512737Y-181796613D01*
X165365214Y-181815729D01*
X165244700Y-181853387D01*
X165168340Y-181907044D01*
X165153281Y-181974158D01*
X165160881Y-181992333D01*
X165216282Y-182067777D01*
X165302190Y-182160568D01*
X165317728Y-182175568D01*
X165399612Y-182244540D01*
X165470263Y-182266825D01*
X165569068Y-182251272D01*
X165608652Y-182240938D01*
X165731828Y-182216116D01*
X165818436Y-182227278D01*
X165891576Y-182266646D01*
X165958574Y-182319479D01*
X166007918Y-182385924D01*
X166042209Y-182478652D01*
X166064048Y-182610334D01*
X166076034Y-182793641D01*
X166080769Y-183041246D01*
X166081230Y-183190744D01*
X166081230Y-183833443D01*
X166497623Y-183833443D01*
X166497623Y-181793115D01*
X166289426Y-181793115D01*
X166164475Y-181797540D01*
X166164475Y-181797540D01*
G37*
X166164475Y-181797540D02*
X166102163Y-181816218D01*
X166082075Y-181857255D01*
X166081230Y-181875782D01*
X166077625Y-181927383D01*
X166052800Y-181935484D01*
X165985737Y-181900108D01*
X165945902Y-181875937D01*
X165820227Y-181824175D01*
X165670123Y-181798581D01*
X165512737Y-181796613D01*
X165365214Y-181815729D01*
X165244700Y-181853387D01*
X165168340Y-181907044D01*
X165153281Y-181974158D01*
X165160881Y-181992333D01*
X165216282Y-182067777D01*
X165302190Y-182160568D01*
X165317728Y-182175568D01*
X165399612Y-182244540D01*
X165470263Y-182266825D01*
X165569068Y-182251272D01*
X165608652Y-182240938D01*
X165731828Y-182216116D01*
X165818436Y-182227278D01*
X165891576Y-182266646D01*
X165958574Y-182319479D01*
X166007918Y-182385924D01*
X166042209Y-182478652D01*
X166064048Y-182610334D01*
X166076034Y-182793641D01*
X166080769Y-183041246D01*
X166081230Y-183190744D01*
X166081230Y-183833443D01*
X166497623Y-183833443D01*
X166497623Y-181793115D01*
X166289426Y-181793115D01*
X166164475Y-181797540D01*
G36*
X167458779Y-181809247D02*
G01*
X167262889Y-181861514D01*
X167113767Y-181956253D01*
X167008535Y-182080338D01*
X166975821Y-182133296D01*
X166951669Y-182188768D01*
X166934784Y-182259730D01*
X166923873Y-182359154D01*
X166917640Y-182500016D01*
X166914791Y-182695289D01*
X166914032Y-182957948D01*
X166914016Y-183027633D01*
X166914016Y-183833443D01*
X167113885Y-183833443D01*
X167241370Y-183824515D01*
X167335634Y-183801896D01*
X167359251Y-183787946D01*
X167423815Y-183763870D01*
X167489759Y-183787946D01*
X167598332Y-183818003D01*
X167756042Y-183830100D01*
X167930844Y-183824851D01*
X168090693Y-183802869D01*
X168184016Y-183774663D01*
X168364609Y-183658731D01*
X168477470Y-183497847D01*
X168528209Y-183283936D01*
X168528680Y-183278443D01*
X168524227Y-183183547D01*
X168121557Y-183183547D01*
X168086354Y-183291484D01*
X168029014Y-183352229D01*
X167913913Y-183398172D01*
X167761986Y-183416512D01*
X167607061Y-183407485D01*
X167482964Y-183371332D01*
X167448197Y-183348137D01*
X167387444Y-183240960D01*
X167372049Y-183119120D01*
X167372049Y-182959017D01*
X167602403Y-182959017D01*
X167821241Y-182975863D01*
X167987137Y-183023593D01*
X168090338Y-183097986D01*
X168121557Y-183183547D01*
X168524227Y-183183547D01*
X168517713Y-183044731D01*
X168440631Y-182859946D01*
X168295714Y-182720206D01*
X168275683Y-182707495D01*
X168189610Y-182666105D01*
X168083073Y-182641041D01*
X167934141Y-182628858D01*
X167757213Y-182626057D01*
X167372049Y-182625902D01*
X167372049Y-182464443D01*
X167388387Y-182339168D01*
X167430078Y-182255241D01*
X167434959Y-182250773D01*
X167527736Y-182214059D01*
X167667784Y-182199828D01*
X167822555Y-182206821D01*
X167959499Y-182233780D01*
X168040759Y-182274212D01*
X168084790Y-182306601D01*
X168131285Y-182312784D01*
X168195451Y-182286248D01*
X168292495Y-182220479D01*
X168437626Y-182108963D01*
X168450947Y-182098516D01*
X168444121Y-182059862D01*
X168387178Y-181995572D01*
X168300630Y-181924131D01*
X168204992Y-181864021D01*
X168174944Y-181849827D01*
X168065341Y-181821503D01*
X167904735Y-181801300D01*
X167725302Y-181793196D01*
X167716911Y-181793180D01*
X167458779Y-181809247D01*
X167458779Y-181809247D01*
G37*
X167458779Y-181809247D02*
X167262889Y-181861514D01*
X167113767Y-181956253D01*
X167008535Y-182080338D01*
X166975821Y-182133296D01*
X166951669Y-182188768D01*
X166934784Y-182259730D01*
X166923873Y-182359154D01*
X166917640Y-182500016D01*
X166914791Y-182695289D01*
X166914032Y-182957948D01*
X166914016Y-183027633D01*
X166914016Y-183833443D01*
X167113885Y-183833443D01*
X167241370Y-183824515D01*
X167335634Y-183801896D01*
X167359251Y-183787946D01*
X167423815Y-183763870D01*
X167489759Y-183787946D01*
X167598332Y-183818003D01*
X167756042Y-183830100D01*
X167930844Y-183824851D01*
X168090693Y-183802869D01*
X168184016Y-183774663D01*
X168364609Y-183658731D01*
X168477470Y-183497847D01*
X168528209Y-183283936D01*
X168528680Y-183278443D01*
X168524227Y-183183547D01*
X168121557Y-183183547D01*
X168086354Y-183291484D01*
X168029014Y-183352229D01*
X167913913Y-183398172D01*
X167761986Y-183416512D01*
X167607061Y-183407485D01*
X167482964Y-183371332D01*
X167448197Y-183348137D01*
X167387444Y-183240960D01*
X167372049Y-183119120D01*
X167372049Y-182959017D01*
X167602403Y-182959017D01*
X167821241Y-182975863D01*
X167987137Y-183023593D01*
X168090338Y-183097986D01*
X168121557Y-183183547D01*
X168524227Y-183183547D01*
X168517713Y-183044731D01*
X168440631Y-182859946D01*
X168295714Y-182720206D01*
X168275683Y-182707495D01*
X168189610Y-182666105D01*
X168083073Y-182641041D01*
X167934141Y-182628858D01*
X167757213Y-182626057D01*
X167372049Y-182625902D01*
X167372049Y-182464443D01*
X167388387Y-182339168D01*
X167430078Y-182255241D01*
X167434959Y-182250773D01*
X167527736Y-182214059D01*
X167667784Y-182199828D01*
X167822555Y-182206821D01*
X167959499Y-182233780D01*
X168040759Y-182274212D01*
X168084790Y-182306601D01*
X168131285Y-182312784D01*
X168195451Y-182286248D01*
X168292495Y-182220479D01*
X168437626Y-182108963D01*
X168450947Y-182098516D01*
X168444121Y-182059862D01*
X168387178Y-181995572D01*
X168300630Y-181924131D01*
X168204992Y-181864021D01*
X168174944Y-181849827D01*
X168065341Y-181821503D01*
X167904735Y-181801300D01*
X167725302Y-181793196D01*
X167716911Y-181793180D01*
X167458779Y-181809247D01*
G36*
X169195808Y-178705166D02*
G01*
X169108015Y-178748540D01*
X168999751Y-178824122D01*
X168920845Y-178906542D01*
X168866805Y-179010037D01*
X168833141Y-179148843D01*
X168815363Y-179337194D01*
X168808980Y-179589328D01*
X168808607Y-179697724D01*
X168809696Y-179935287D01*
X168814222Y-180105068D01*
X168824068Y-180222550D01*
X168841118Y-180303215D01*
X168867259Y-180362545D01*
X168894458Y-180403020D01*
X169068080Y-180575225D01*
X169272538Y-180678806D01*
X169493104Y-180709960D01*
X169715046Y-180664885D01*
X169785360Y-180633009D01*
X169953689Y-180545271D01*
X169953689Y-181920172D01*
X169830838Y-181856643D01*
X169668967Y-181807491D01*
X169470005Y-181794900D01*
X169271328Y-181818147D01*
X169121290Y-181870370D01*
X168996841Y-181969826D01*
X168890508Y-182112143D01*
X168882513Y-182126755D01*
X168848793Y-182195582D01*
X168824166Y-182264956D01*
X168807214Y-182348996D01*
X168796519Y-182461816D01*
X168790662Y-182617533D01*
X168788227Y-182830265D01*
X168787787Y-183069664D01*
X168787787Y-183833443D01*
X169245820Y-183833443D01*
X169245820Y-182425108D01*
X169373933Y-182317308D01*
X169507018Y-182231079D01*
X169633048Y-182215401D01*
X169759778Y-182255747D01*
X169827317Y-182295254D01*
X169877586Y-182351527D01*
X169913338Y-182436572D01*
X169937328Y-182562394D01*
X169952311Y-182740998D01*
X169961040Y-182984391D01*
X169964114Y-183146394D01*
X169974508Y-183812623D01*
X170193115Y-183825209D01*
X170411721Y-183837795D01*
X170411721Y-179703464D01*
X169953689Y-179703464D01*
X169942011Y-179933953D01*
X169902662Y-180093950D01*
X169829166Y-180193497D01*
X169715049Y-180242639D01*
X169599754Y-180252459D01*
X169469238Y-180241175D01*
X169382617Y-180196764D01*
X169328451Y-180138081D01*
X169285810Y-180074962D01*
X169260426Y-180004645D01*
X169249131Y-179906123D01*
X169248760Y-179758387D01*
X169252560Y-179634683D01*
X169261288Y-179448328D01*
X169274280Y-179325982D01*
X169296159Y-179248377D01*
X169331546Y-179196245D01*
X169364941Y-179166111D01*
X169504475Y-179100399D01*
X169669619Y-179089787D01*
X169764446Y-179112423D01*
X169858334Y-179192881D01*
X169920526Y-179349392D01*
X169950669Y-179580852D01*
X169953689Y-179703464D01*
X170411721Y-179703464D01*
X170411721Y-178670164D01*
X170182705Y-178670164D01*
X170045206Y-178675602D01*
X169974267Y-178694909D01*
X169953697Y-178732576D01*
X169953689Y-178733692D01*
X169944145Y-178770581D01*
X169902051Y-178766393D01*
X169818361Y-178725859D01*
X169623354Y-178663850D01*
X169403954Y-178657332D01*
X169195808Y-178705166D01*
X169195808Y-178705166D01*
G37*
X169195808Y-178705166D02*
X169108015Y-178748540D01*
X168999751Y-178824122D01*
X168920845Y-178906542D01*
X168866805Y-179010037D01*
X168833141Y-179148843D01*
X168815363Y-179337194D01*
X168808980Y-179589328D01*
X168808607Y-179697724D01*
X168809696Y-179935287D01*
X168814222Y-180105068D01*
X168824068Y-180222550D01*
X168841118Y-180303215D01*
X168867259Y-180362545D01*
X168894458Y-180403020D01*
X169068080Y-180575225D01*
X169272538Y-180678806D01*
X169493104Y-180709960D01*
X169715046Y-180664885D01*
X169785360Y-180633009D01*
X169953689Y-180545271D01*
X169953689Y-181920172D01*
X169830838Y-181856643D01*
X169668967Y-181807491D01*
X169470005Y-181794900D01*
X169271328Y-181818147D01*
X169121290Y-181870370D01*
X168996841Y-181969826D01*
X168890508Y-182112143D01*
X168882513Y-182126755D01*
X168848793Y-182195582D01*
X168824166Y-182264956D01*
X168807214Y-182348996D01*
X168796519Y-182461816D01*
X168790662Y-182617533D01*
X168788227Y-182830265D01*
X168787787Y-183069664D01*
X168787787Y-183833443D01*
X169245820Y-183833443D01*
X169245820Y-182425108D01*
X169373933Y-182317308D01*
X169507018Y-182231079D01*
X169633048Y-182215401D01*
X169759778Y-182255747D01*
X169827317Y-182295254D01*
X169877586Y-182351527D01*
X169913338Y-182436572D01*
X169937328Y-182562394D01*
X169952311Y-182740998D01*
X169961040Y-182984391D01*
X169964114Y-183146394D01*
X169974508Y-183812623D01*
X170193115Y-183825209D01*
X170411721Y-183837795D01*
X170411721Y-179703464D01*
X169953689Y-179703464D01*
X169942011Y-179933953D01*
X169902662Y-180093950D01*
X169829166Y-180193497D01*
X169715049Y-180242639D01*
X169599754Y-180252459D01*
X169469238Y-180241175D01*
X169382617Y-180196764D01*
X169328451Y-180138081D01*
X169285810Y-180074962D01*
X169260426Y-180004645D01*
X169249131Y-179906123D01*
X169248760Y-179758387D01*
X169252560Y-179634683D01*
X169261288Y-179448328D01*
X169274280Y-179325982D01*
X169296159Y-179248377D01*
X169331546Y-179196245D01*
X169364941Y-179166111D01*
X169504475Y-179100399D01*
X169669619Y-179089787D01*
X169764446Y-179112423D01*
X169858334Y-179192881D01*
X169920526Y-179349392D01*
X169950669Y-179580852D01*
X169953689Y-179703464D01*
X170411721Y-179703464D01*
X170411721Y-178670164D01*
X170182705Y-178670164D01*
X170045206Y-178675602D01*
X169974267Y-178694909D01*
X169953697Y-178732576D01*
X169953689Y-178733692D01*
X169944145Y-178770581D01*
X169902051Y-178766393D01*
X169818361Y-178725859D01*
X169623354Y-178663850D01*
X169403954Y-178657332D01*
X169195808Y-178705166D01*
M02*
